<svg viewBox="0 0 352 352" xmlns="http://www.w3.org/2000/svg"
    xmlns:xlink="http://www.w3.org/1999/xlink">
    <defs>
        <path id="a" d="M0 .447h351.643v351.014H0z" />
    </defs>
    <g fill="none" fill-rule="evenodd">
        <!-- <path
            d="M244.512 176.045c0 37.878-30.753 68.584-68.689 68.584-37.936 0-68.689-30.706-68.689-68.584s30.753-68.583 68.689-68.583c37.936 0 68.689 30.705 68.689 68.583"
            fill="#FFB612" /> -->
        <path
            d="M176.26 61.882a1.01 1.01 0 1 1 .01-2.02 1.02 1.02 0 0 1 1.016 1.015 1.01 1.01 0 0 1-1.016 1.005h-.01zm-9.636-.66a1.011 1.011 0 0 1 .946-1.076 1 1 0 0 1 1.077.944 1.003 1.003 0 0 1-.935 1.075h-.071a1.02 1.02 0 0 1-1.017-.943zm18.193 1.015a1.028 1.028 0 0 1-.935-1.096c.04-.559.528-.975 1.087-.934.559.05.976.538.935 1.096-.04.528-.488.934-1.006.934h-.081zm-26.77-.01a1.01 1.01 0 0 1 .864-1.147v-.01a1.012 1.012 0 0 1 1.148.862 1.011 1.011 0 0 1-.853 1.147c-.051.01-.102.01-.154.01-.496 0-.935-.355-1.005-.862zm35.266.984a1.005 1.005 0 0 1-.843-1.157 1.005 1.005 0 0 1 1.158-.842c.549.08.935.598.844 1.156a1.005 1.005 0 0 1-.997.853c-.06 0-.11 0-.162-.01zm-43.742.65a1.011 1.011 0 0 1 .773-1.209 1.013 1.013 0 0 1 1.208.772 1.018 1.018 0 0 1-.762 1.208c-.081.02-.152.02-.223.02-.468 0-.885-.315-.996-.792zm52.147.963a1.015 1.015 0 1 1 .457-1.978 1.016 1.016 0 0 1-.223 2.009.945.945 0 0 1-.234-.03zm-60.47 1.31a1.013 1.013 0 0 1 .67-1.27 1.012 1.012 0 1 1 .59 1.938.937.937 0 0 1-.295.052c-.438 0-.834-.284-.966-.72zm68.732.933a1.02 1.02 0 0 1-.67-1.269 1.023 1.023 0 0 1 1.27-.67c.539.163.833.741.67 1.27a1.02 1.02 0 0 1-.975.71c-.091 0-.192-.01-.295-.041zm-76.873 1.948a1.015 1.015 0 0 1 .579-1.309 1.024 1.024 0 0 1 1.321.579 1.009 1.009 0 0 1-.579 1.309 1.018 1.018 0 0 1-1.321-.579zm84.943.914a1.026 1.026 0 0 1-.57-1.32 1.011 1.011 0 0 1 1.322-.568c.518.203.773.792.57 1.32-.164.394-.54.639-.946.639-.122 0-.254-.031-.376-.071zm-92.83 2.577a1.017 1.017 0 0 1 1.84-.873c.233.507.02 1.116-.489 1.35h.011a.993.993 0 0 1-.448.101c-.375 0-.74-.212-.914-.578zm100.666.872a1.005 1.005 0 0 1-.468-1.349 1.01 1.01 0 0 1 1.362-.467c.498.243.711.853.467 1.35a1.024 1.024 0 0 1-.915.578.992.992 0 0 1-.446-.112zm-108.268 3.207a1.015 1.015 0 0 1 .376-1.39 1.014 1.014 0 0 1 1.383.376 1.022 1.022 0 0 1-.367 1.39H119a.962.962 0 0 1-.497.131 1.01 1.01 0 0 1-.885-.507zm115.819.833a1.014 1.014 0 0 1-.366-1.391c.284-.477.904-.65 1.392-.365a1.02 1.02 0 0 1-.518 1.898 1.04 1.04 0 0 1-.508-.142zM110.34 81.212a1.02 1.02 0 0 1 .264-1.41 1.016 1.016 0 0 1 1.413.274 1.003 1.003 0 0 1-.275 1.4h.012a1.031 1.031 0 0 1-.58.183 1.01 1.01 0 0 1-.834-.447zm130.322.792a1.013 1.013 0 0 1-.265-1.41 1.027 1.027 0 0 1 1.413-.264c.468.325.579.954.264 1.41a1.004 1.004 0 0 1-1.412.264zM103.42 86.367a1.005 1.005 0 0 1 .172-1.42 1.007 1.007 0 0 1 1.422.162 1.026 1.026 0 0 1-.161 1.43 1.028 1.028 0 0 1-.63.214c-.307 0-.6-.132-.803-.386zm144.102.751a1.018 1.018 0 1 1 1.28-1.583h-.01c.447.356.508.995.152 1.43a1 1 0 0 1-.782.376 1 1 0 0 1-.64-.223zM96.916 92.03a1.012 1.012 0 0 1 .05-1.432 1.027 1.027 0 0 1 1.444.052 1.031 1.031 0 0 1-.061 1.44.999.999 0 0 1-.691.264.967.967 0 0 1-.742-.324zm157.07.7a1.013 1.013 0 1 1 1.383-1.482c.417.386.436 1.026.05 1.432a1.02 1.02 0 0 1-.74.324c-.245 0-.5-.091-.692-.274zM90.84 98.16a1.01 1.01 0 0 1-.052-1.432 1.005 1.005 0 0 1 1.433-.05 1 1 0 0 1 .051 1.43 1.008 1.008 0 0 1-1.432.05v.001zm169.164.638a1.018 1.018 0 0 1 1.505-1.37 1.02 1.02 0 0 1-.062 1.431 1.017 1.017 0 0 1-.691.264c-.274 0-.549-.112-.752-.325zm-174.765 5.926a1.025 1.025 0 0 1-.162-1.43 1.018 1.018 0 0 1 1.585 1.278 1.009 1.009 0 0 1-.793.376.979.979 0 0 1-.63-.224zm180.325.58a1.024 1.024 0 0 1 .163-1.433 1.029 1.029 0 0 1 1.432.163 1.016 1.016 0 0 1-.173 1.431.976.976 0 0 1-.63.224 1 1 0 0 1-.792-.386zm-185.426 6.382a1.009 1.009 0 0 1-.254-1.411 1.012 1.012 0 1 1 1.667 1.147.986.986 0 0 1-.834.446 1.03 1.03 0 0 1-.58-.182zm190.477.507a1.017 1.017 0 1 1 1.412.274 1.068 1.068 0 0 1-.57.173.998.998 0 0 1-.842-.447zm-195.031 6.82a1.026 1.026 0 0 1-.376-1.39 1.02 1.02 0 0 1 1.393-.366c.488.284.65.902.366 1.39a1.005 1.005 0 0 1-.875.507c-.172 0-.355-.05-.508-.142zm199.553.425v.01a1.019 1.019 0 0 1 1.769-1.014 1.029 1.029 0 0 1-.387 1.39 1.01 1.01 0 0 1-1.382-.386zM71.58 126.653a1.002 1.002 0 0 1-.467-1.35 1.01 1.01 0 0 1 1.352-.467c.508.244.721.853.477 1.35a1.023 1.023 0 0 1-.915.579c-.152 0-.305-.041-.447-.112zm207.52.356a1.008 1.008 0 0 1 .488-1.35 1.013 1.013 0 0 1 1.352.476c.234.508.02 1.106-.477 1.35a1.018 1.018 0 0 1-1.363-.477zm-210.935 7.58a1.025 1.025 0 0 1-.569-1.32 1.018 1.018 0 0 1 1.89.75 1.02 1.02 0 0 1-.945.64c-.122 0-.254-.03-.376-.07zm214.32.263a1.024 1.024 0 0 1 .58-1.319 1.026 1.026 0 0 1 1.32.579 1.019 1.019 0 0 1-.59 1.319c-.11.04-.243.06-.365.06-.406 0-.792-.243-.946-.639zM65.36 142.747a1.012 1.012 0 0 1-.67-1.268 1.023 1.023 0 0 1 1.27-.67c.539.172.843.741.671 1.278-.132.426-.54.71-.966.71-.101 0-.203-.02-.305-.05zm219.91.183a1.02 1.02 0 0 1 1.951-.59 1.007 1.007 0 0 1-.681 1.26.986.986 0 0 1-.295.05 1.02 1.02 0 0 1-.975-.72zm-222.084 8.158a1 1 0 0 1-.762-1.207 1 1 0 0 1 1.209-.76 1.01 1.01 0 1 1-.447 1.967zm224.258.102a1.005 1.005 0 0 1 .762-1.208 1.023 1.023 0 0 1 1.22.771 1.011 1.011 0 0 1-.772 1.208c-.072.02-.153.02-.223.02a1 1 0 0 1-.987-.79zM61.64 159.572a1.006 1.006 0 0 1-.854-1.157c.082-.548.6-.934 1.158-.853.55.092.935.61.854 1.158-.08.507-.508.862-1.006.862-.051 0-.102 0-.152-.01zm227.339.02a1.01 1.01 0 0 1 .863-1.147 1.015 1.015 0 1 1 .285 2.009c-.05.01-.091.01-.143.01-.497 0-.935-.365-1.005-.872zm-228.244 8.555a1.005 1.005 0 0 1-.934-1.086c.04-.558.528-.984 1.086-.934a1.01 1.01 0 0 1-.081 2.02h-.07zm229.147-.05a1.021 1.021 0 0 1 .945-1.087c.56-.04 1.048.385 1.089.943a1.028 1.028 0 0 1-.946 1.086h-.071c-.528 0-.976-.415-1.017-.943zm-230.428 7.65c0-.559.458-1.015 1.016-1.015.56 0 1.017.456 1.017 1.014 0 .57-.457 1.015-1.017 1.015a1.018 1.018 0 0 1-1.016-1.015zm230.703.294c0-.558.457-1.015 1.016-1.015.56 0 1.016.457 1.016 1.015a1.01 1.01 0 0 1-1.016 1.015 1.012 1.012 0 0 1-1.016-1.015zm-230.408 8.393a1.014 1.014 0 0 1 .946-1.077 1.014 1.014 0 0 1 1.087.935 1.02 1.02 0 0 1-.945 1.085h-.06a1.02 1.02 0 0 1-1.028-.943zm231.028 1.237a1.013 1.013 0 0 1-.935-1.085 1.02 1.02 0 0 1 1.088-.944c.559.05.986.527.945 1.096a1.035 1.035 0 0 1-1.027.933h-.071zM60.695 193.08a1.004 1.004 0 0 1 .863-1.147 1.008 1.008 0 0 1 1.148.853 1.025 1.025 0 0 1-.853 1.156c-.05 0-.101.01-.152.01-.498 0-.925-.365-1.006-.872zm229.056 1.148a1.003 1.003 0 0 1-.854-1.148v-.01c.082-.548.6-.933 1.148-.842a.996.996 0 0 1 .854 1.146 1.005 1.005 0 0 1-.997.863c-.05 0-.1 0-.151-.01zM62.29 201.634a1.007 1.007 0 0 1 .762-1.218 1.022 1.022 0 0 1 1.22.77 1.011 1.011 0 0 1-.773 1.209.863.863 0 0 1-.223.03 1.01 1.01 0 0 1-.986-.791zm225.783 1.055a1.02 1.02 0 0 1-.762-1.218 1.008 1.008 0 0 1 1.22-.76 1.011 1.011 0 0 1-.234 1.998c-.07 0-.142-.01-.224-.02zm-223.557 7.346a1.012 1.012 0 0 1 .67-1.269 1.02 1.02 0 0 1 1.27.682 1.011 1.011 0 0 1-.67 1.268 1.06 1.06 0 0 1-.304.04c-.438 0-.834-.284-.966-.72zm221.26.954a1.01 1.01 0 0 1-.68-1.258v-.01a1.037 1.037 0 0 1 1.28-.67c.529.172.834.742.661 1.268h.01a1.03 1.03 0 0 1-.976.721.937.937 0 0 1-.294-.05zm-218.405 7.266a1.015 1.015 0 1 1 1.891-.74 1.019 1.019 0 0 1-.569 1.319 1.25 1.25 0 0 1-.376.07c-.407 0-.793-.254-.946-.649zm215.47.862a1.025 1.025 0 0 1-.57-1.319 1.01 1.01 0 0 1 1.32-.567 1.016 1.016 0 0 1-.375 1.958c-.133 0-.254-.03-.376-.072zM70.836 226.22a1.008 1.008 0 0 1 .478-1.35 1.01 1.01 0 0 1 1.351.479c.244.496.03 1.106-.468 1.35-.151.07-.294.1-.446.1-.376 0-.742-.213-.915-.579zm208.476.772a1.017 1.017 0 0 1-.478-1.36c.244-.508.854-.71 1.362-.467.498.244.712.843.468 1.35a1.013 1.013 0 0 1-.915.579c-.152 0-.295-.04-.437-.102zm-204.42 6.92a1 1 0 0 1 .376-1.379 1.005 1.005 0 0 1 1.382.374 1.003 1.003 0 0 1-.376 1.381.968.968 0 0 1-.498.132 1.01 1.01 0 0 1-.885-.507zm200.304.66a1.013 1.013 0 0 1-.377-1.38 1.029 1.029 0 0 1 1.393-.375c.488.284.651.903.366 1.39a1.006 1.006 0 0 1-.874.507c-.173 0-.345-.05-.508-.142zm-195.68 6.708a1.02 1.02 0 0 1 .263-1.411 1.018 1.018 0 0 1 1.414.274 1.024 1.024 0 0 1-.265 1.41 1.085 1.085 0 0 1-.57.174 1 1 0 0 1-.842-.447zm191.005.547a1.01 1.01 0 0 1-.264-1.41 1.023 1.023 0 0 1 1.413-.263c.467.314.579.953.263 1.41a1.002 1.002 0 0 1-1.412.263zM84.68 248.281h-.01a1.005 1.005 0 0 1 .173-1.42 1.009 1.009 0 0 1 1.424.162 1.014 1.014 0 0 1-.164 1.421.984.984 0 0 1-.63.223.987.987 0 0 1-.793-.386zm180.64.437a1.016 1.016 0 0 1-.153-1.432v.012a.998.998 0 0 1 1.423-.163 1.013 1.013 0 0 1-.63 1.807c-.224 0-.448-.072-.64-.224zm-174.978 6.17a1.01 1.01 0 0 1 .06-1.431 1.013 1.013 0 0 1 1.433.051 1.022 1.022 0 0 1-.05 1.441 1.04 1.04 0 0 1-1.443-.061zm169.275.315a1.023 1.023 0 0 1-.04-1.442 1.014 1.014 0 1 1 .742 1.705 1.08 1.08 0 0 1-.702-.263zM96.49 261.047a1.014 1.014 0 0 1 1.382-1.481 1.01 1.01 0 0 1 .061 1.43 1.042 1.042 0 0 1-.752.325c-.243 0-.498-.092-.69-.274zm156.97.182a1.01 1.01 0 0 1 .05-1.43 1.028 1.028 0 0 1 1.443.06 1.012 1.012 0 0 1-.06 1.432.998.998 0 0 1-1.433-.062zm-150.384 5.511a1.017 1.017 0 1 1 1.28-1.586 1.017 1.017 0 0 1-1.28 1.586zm143.787.06a1.024 1.024 0 0 1 .163-1.43 1.017 1.017 0 0 1 1.423.163 1.008 1.008 0 0 1-.793 1.644c-.294 0-.59-.132-.793-.376zm-136.785 5.125a1.01 1.01 0 0 1-.264-1.41 1.022 1.022 0 0 1 1.413-.263c.467.314.579.943.263 1.41a1.027 1.027 0 0 1-.843.447.992.992 0 0 1-.569-.184zm129.793-.07a1.02 1.02 0 0 1 .264-1.412 1.025 1.025 0 0 1 1.413.265 1.012 1.012 0 0 1-.265 1.41.998.998 0 0 1-.568.183 1.03 1.03 0 0 1-.844-.446zm-122.424 4.717a1.01 1.01 0 0 1-.367-1.39 1.02 1.02 0 0 1 1.383-.364c.487.283.65.902.376 1.39a1.037 1.037 0 0 1-.884.507.911.911 0 0 1-.508-.143zm115.076-.203a1.004 1.004 0 0 1 .376-1.379 1.01 1.01 0 0 1 1.382.365 1.02 1.02 0 0 1-.366 1.39 1.028 1.028 0 0 1-.508.132c-.355 0-.7-.182-.884-.508zm-107.383 4.293a1.01 1.01 0 0 1-.478-1.35c.254-.506.853-.72 1.362-.476.508.243.722.853.468 1.36a1.023 1.023 0 0 1-.915.568.969.969 0 0 1-.437-.102zm99.72-.335a1.013 1.013 0 0 1 .468-1.35 1.02 1.02 0 0 1 1.362.478c.243.497.03 1.105-.479 1.35a.98.98 0 0 1-.436.1c-.376 0-.742-.212-.915-.578zm-91.742 3.836a1.022 1.022 0 0 1-.569-1.32 1.02 1.02 0 0 1 1.321-.567c.518.203.772.791.569 1.32a1.01 1.01 0 0 1-.945.638.99.99 0 0 1-.376-.07zm83.805-.466a1.001 1.001 0 0 1 .568-1.31 1.013 1.013 0 1 1 .743 1.887 1.007 1.007 0 0 1-1.31-.578h-.001zm-75.574 3.358a1.017 1.017 0 0 1-.67-1.278 1.022 1.022 0 0 1 1.271-.67c.538.173.833.74.67 1.278-.132.427-.538.71-.976.71-.091 0-.192-.009-.295-.04zm67.392-.588a1.015 1.015 0 1 1 1.27.67 1.06 1.06 0 0 1-.294.05c-.436 0-.843-.285-.976-.72zm-58.976 2.84a1.02 1.02 0 0 1-.772-1.216 1.021 1.021 0 0 1 1.22-.761c.548.132.894.669.762 1.216a1.01 1.01 0 0 1-.987.792.824.824 0 0 1-.223-.03zm50.612-.699a1.013 1.013 0 0 1 .773-1.208 1.003 1.003 0 0 1 1.21.76 1.02 1.02 0 0 1-.763 1.22c-.082.009-.153.019-.224.019-.467 0-.884-.314-.996-.79zm-42.055 2.324h-.01a1.017 1.017 0 0 1 .305-2.01 1.015 1.015 0 0 1-.152 2.02c-.04 0-.092-.01-.143-.01zm33.56-.812a1.02 1.02 0 0 1 .853-1.157 1.021 1.021 0 0 1 1.158.852 1.02 1.02 0 0 1-.864 1.158c-.04.01-.09.01-.143.01-.497 0-.935-.366-1.005-.863zm-24.911 1.786a1.02 1.02 0 0 1-.935-1.086 1.014 1.014 0 1 1 2.022.153 1.016 1.016 0 0 1-1.006.933h-.081zm16.322-.923a1.013 1.013 0 0 1 .935-1.087 1.022 1.022 0 0 1 1.088.945 1.012 1.012 0 0 1-.935 1.085h-.081c-.52 0-.976-.405-1.007-.943zm-8.639.232c0-.558.458-1.014 1.017-1.014.568 0 1.016.456 1.016 1.014 0 .569-.457 1.015-1.016 1.015a1.018 1.018 0 0 1-1.017-1.015zm5.244-237.888a1.02 1.02 0 0 1-.987-1.045 1.016 1.016 0 0 1 1.057-.985c.56.02.997.487.976 1.046a1.01 1.01 0 0 1-1.006.984h-.04zm-8.578.01a1.011 1.011 0 1 1-.082-2.02v-.009c.57-.01 1.037.426 1.057.984a1.01 1.01 0 0 1-.975 1.045zm17.135.558a1.008 1.008 0 0 1-.905-1.106c.062-.558.56-.964 1.119-.903a1 1 0 0 1 .904 1.106 1.015 1.015 0 0 1-1.007.914c-.04 0-.07 0-.111-.01zm-26.821-.852a1.017 1.017 0 1 1 1.119.903c-.031 0-.072.01-.102.01a1.03 1.03 0 0 1-1.017-.913zm35.328 2.03a1.027 1.027 0 0 1-.834-1.178c.101-.558.62-.924 1.18-.831.548.101.924.629.822 1.176a1.004 1.004 0 0 1-.995.842c-.062 0-.113 0-.173-.01zm-43.885-.752a1.017 1.017 0 0 1 .824-1.176 1.004 1.004 0 0 1 1.179.822 1.013 1.013 0 0 1-.814 1.176h-.01c-.06.011-.122.011-.173.011-.487 0-.914-.345-1.006-.833zm52.28 2.507a1.026 1.026 0 0 1-.743-1.228c.133-.548.68-.883 1.23-.74a1.01 1.01 0 0 1-.243 1.989c-.082 0-.164 0-.245-.021zm-60.725-.639a1.01 1.01 0 0 1 .74-1.228 1.005 1.005 0 0 1 1.23.73 1.017 1.017 0 0 1-.985 1.269c-.457 0-.863-.304-.985-.77zm68.976 2.972a1.004 1.004 0 0 1-.65-1.267 1.017 1.017 0 0 1 1.281-.66c.528.172.823.751.65 1.278a1.02 1.02 0 0 1-.966.7.847.847 0 0 1-.315-.05zm-77.27-.517a1.025 1.025 0 0 1 .65-1.279 1.017 1.017 0 0 1 1.282.66 1.016 1.016 0 0 1-.65 1.28c-.102.03-.203.04-.316.04-.427 0-.824-.264-.965-.7zm85.35 3.44a1.008 1.008 0 0 1-.56-1.319c.204-.517.804-.77 1.323-.558.518.203.772.791.558 1.32a1.001 1.001 0 0 1-.945.628.983.983 0 0 1-.375-.07zm-93.45-.395a1.024 1.024 0 0 1 .56-1.33c.518-.203 1.117.041 1.32.558a1.02 1.02 0 0 1-.548 1.33 1.064 1.064 0 0 1-.386.071c-.406 0-.783-.244-.945-.629zm101.306 3.876a1.006 1.006 0 0 1-.468-1.36 1.017 1.017 0 0 1 1.83.893 1.047 1.047 0 0 1-.925.569.973.973 0 0 1-.437-.102zm-109.162-.284a1.016 1.016 0 0 1 .467-1.36 1.005 1.005 0 0 1 1.352.457 1.01 1.01 0 0 1-.457 1.36 1.002 1.002 0 0 1-.446.11c-.377 0-.743-.212-.916-.567zm116.754 4.302a1.02 1.02 0 0 1-.386-1.39 1.025 1.025 0 0 1 1.392-.365 1.01 1.01 0 0 1-.508 1.887.962.962 0 0 1-.498-.132zm-124.345-.172a1.02 1.02 0 0 1 .366-1.39 1.025 1.025 0 0 1 1.393.365c.283.487.12 1.106-.367 1.39a1.023 1.023 0 0 1-.508.132c-.356 0-.691-.173-.884-.497zm131.622 4.709a1.02 1.02 0 0 1-.274-1.411 1.024 1.024 0 0 1 1.412-.275 1.014 1.014 0 0 1-.569 1.858.986.986 0 0 1-.57-.172zm-138.909-.061a1.017 1.017 0 1 1 .843.446c-.325 0-.65-.152-.843-.446zm145.86 5.094a1.015 1.015 0 0 1-.173-1.421 1.01 1.01 0 0 1 1.424-.183c.436.345.518.985.172 1.431a1.002 1.002 0 0 1-.793.386 1.03 1.03 0 0 1-.63-.213zm-152.802.05a1.006 1.006 0 0 1 .173-1.42 1.01 1.01 0 0 1 1.423.172 1.005 1.005 0 0 1-.173 1.42.97.97 0 0 1-.62.224c-.304 0-.6-.132-.803-.396zm159.388 5.45a1.012 1.012 0 0 1-.081-1.432 1.027 1.027 0 0 1 1.443-.08 1.021 1.021 0 0 1-.681 1.776c-.244 0-.488-.092-.68-.264zm-165.963.172a1.011 1.011 0 0 1 .07-1.43 1.027 1.027 0 0 1 1.443.07 1.012 1.012 0 0 1-.08 1.431.98.98 0 0 1-.681.264 1.01 1.01 0 0 1-.752-.335zm172.143 5.774a1.031 1.031 0 0 1 .02-1.441 1.025 1.025 0 0 1 1.442.03 1.018 1.018 0 0 1-.02 1.431 1.028 1.028 0 0 1-1.442-.02zm-178.312.284a1.01 1.01 0 0 1-.02-1.43 1.012 1.012 0 0 1 1.432-.03 1.02 1.02 0 0 1 .031 1.44 1.033 1.033 0 0 1-1.443.02zm184.074 6.069a1.005 1.005 0 0 1 .122-1.432 1.027 1.027 0 0 1 1.433.122 1.023 1.023 0 0 1-.783 1.674.987.987 0 0 1-.772-.364zm-189.806.405a1.013 1.013 0 0 1-.122-1.43 1.015 1.015 0 0 1 1.433-.122c.427.355.487.994.122 1.43a1.041 1.041 0 0 1-.783.366c-.223 0-.457-.081-.65-.244zm195.1 6.333a1.011 1.011 0 0 1 .224-1.421 1.034 1.034 0 0 1 1.423.223 1.029 1.029 0 0 1-.223 1.42 1.033 1.033 0 0 1-.6.193c-.315 0-.62-.142-.823-.415zm-200.365.526a1.009 1.009 0 0 1-.223-1.42 1.01 1.01 0 0 1 1.412-.223c.457.335.56.964.224 1.42a1.004 1.004 0 0 1-.824.417.97.97 0 0 1-.589-.194zm205.183 6.556v.01a1.006 1.006 0 0 1 .315-1.4 1.009 1.009 0 0 1 1.403.315 1.023 1.023 0 0 1-.315 1.4 1.061 1.061 0 0 1-.539.152.995.995 0 0 1-.864-.477zm-209.96.65a1.007 1.007 0 0 1-.325-1.4 1.02 1.02 0 0 1 1.393-.325c.477.304.62.923.325 1.4a.995.995 0 0 1-.864.477.91.91 0 0 1-.528-.153zm214.269 6.758a1.008 1.008 0 0 1 .417-1.37 1.01 1.01 0 0 1 1.372.416 1.01 1.01 0 0 1-.417 1.37 1.007 1.007 0 0 1-1.372-.416zm-218.536.77a1.03 1.03 0 0 1-.427-1.379 1.02 1.02 0 0 1 1.381-.416c.489.264.68.872.417 1.37a1.02 1.02 0 0 1-.904.538c-.153 0-.316-.04-.467-.112zm222.317 6.912a1.013 1.013 0 0 1 1.85-.832c.234.517 0 1.115-.509 1.35-.132.05-.274.08-.416.08-.387 0-.762-.222-.925-.598zm-226.047.893a1.028 1.028 0 0 1-.52-1.34c.234-.517.834-.75 1.342-.517a1.011 1.011 0 0 1-.416 1.938.975.975 0 0 1-.406-.08zm229.279 7.032a1.008 1.008 0 0 1 .6-1.3 1.017 1.017 0 0 1 .701 1.909 1.1 1.1 0 0 1-.356.06 1 1 0 0 1-.945-.669zm-232.45 1.015a1.015 1.015 0 1 1 .69-1.908 1.013 1.013 0 0 1-.345 1.969c-.112 0-.234-.02-.345-.061zm235.113 7.134a1.013 1.013 0 0 1 .69-1.259 1.02 1.02 0 0 1 1.26.69 1.014 1.014 0 0 1-.7 1.258.85.85 0 0 1-.275.04 1 1 0 0 1-.975-.73zM56.284 143.04a1.012 1.012 0 0 1-.701-1.249 1.012 1.012 0 0 1 1.26-.7c.539.153.843.712.69 1.249a1.01 1.01 0 0 1-1.249.7zm239.788 7.205a1.015 1.015 0 0 1 .783-1.207 1.018 1.018 0 0 1 1.209.781 1.01 1.01 0 0 1-.782 1.198.796.796 0 0 1-.214.03 1.03 1.03 0 0 1-.996-.802zm-241.8 1.198a1.011 1.011 0 0 1-.783-1.198c.112-.548.65-.903 1.21-.791.548.122.893.66.782 1.207a1.02 1.02 0 0 1-.996.802c-.072 0-.142 0-.214-.02zm243.305 7.235a1.004 1.004 0 0 1 .863-1.147 1.012 1.012 0 0 1 1.148.863 1.03 1.03 0 0 1-.863 1.146c-.05 0-.103.01-.143.01-.497 0-.935-.364-1.005-.872zm-244.718 1.288a1.012 1.012 0 0 1-.864-1.146c.081-.548.59-.934 1.148-.862.548.081.946.588.864 1.146a1.01 1.01 0 0 1-1.006.873c-.04 0-.091 0-.142-.01zm245.621 7.225a1.02 1.02 0 0 1 .945-1.086c.56-.03 1.048.387 1.078.945a1.012 1.012 0 0 1-.935 1.085h-.08c-.519 0-.967-.406-1.008-.944zm-246.424 1.381a1.015 1.015 0 0 1-.946-1.087 1.015 1.015 0 1 1 1.006 1.087h-.06zm246.74 7.467c0-.04 0-.09.01-.14-.01-.041-.01-.092-.01-.143 0-.557.447-1.015 1.016-1.015.559 0 1.016.446 1.016 1.015 0 .051 0 .102-.01.142 0 .05.01.101.01.141 0 .57-.457 1.016-1.016 1.016a1.012 1.012 0 0 1-1.017-1.016zm-247.98.154c0-.569.457-1.015 1.016-1.015.56 0 1.016.446 1.016 1.004 0 .568-.457 1.015-1.016 1.025-.56 0-1.017-.457-1.017-1.014zm248.63 9.498a1.022 1.022 0 0 1-.945-1.087c.04-.557.528-.974 1.087-.943.559.04.976.528.946 1.086a1.02 1.02 0 0 1-1.016.944h-.072zm-248.325-.802a1.02 1.02 0 0 1 2.033-.132v-.01a1.014 1.014 0 0 1-.946 1.085c-.02.01-.05.01-.07.01-.53 0-.976-.415-1.017-.953zm247.36 9.387a1.01 1.01 0 0 1-.864-1.146c.07-.56.59-.945 1.148-.864.549.071.945.589.864 1.147v-.01a1.025 1.025 0 0 1-1.007.882c-.04 0-.09-.009-.142-.009zm-246.445-.72a1.008 1.008 0 0 1 .864-1.147 1.01 1.01 0 0 1 1.148.862 1.01 1.01 0 0 1-.864 1.146c-.05.01-.092.01-.143.01-.497 0-.934-.364-1.005-.872zm244.88 9.213a1.01 1.01 0 0 1-.782-1.198 1.03 1.03 0 0 1 1.208-.79c.55.12.894.659.783 1.206a1.02 1.02 0 0 1-.996.802c-.072 0-.142 0-.213-.02zm-243.366-.64a1.003 1.003 0 0 1 .783-1.197 1.013 1.013 0 0 1 1.209.771 1.02 1.02 0 0 1-.782 1.208c-.072.01-.143.02-.214.02-.467 0-.895-.324-.996-.802zm241.21 9.012a1.02 1.02 0 0 1-.69-1.258 1.014 1.014 0 0 1 1.25-.701c.539.163.854.72.701 1.259a1.01 1.01 0 0 1-.975.73c-.092 0-.194-.01-.285-.03zm-239.096-.559a1.016 1.016 0 1 1 1.26.69 1.019 1.019 0 0 1-1.26-.69zm236.363 8.748a1.015 1.015 0 1 1 .691-1.908c.528.193.803.77.61 1.299a1.013 1.013 0 0 1-1.3.609zm-233.66-.467a1.014 1.014 0 0 1 .6-1.298 1.02 1.02 0 0 1 1.31.598 1.024 1.024 0 0 1-.609 1.31 1.013 1.013 0 0 1-1.301-.61zm230.346 8.462a1.017 1.017 0 0 1-.517-1.338 1.02 1.02 0 0 1 1.341-.518c.519.224.753.832.519 1.34a1.02 1.02 0 0 1-.926.598.98.98 0 0 1-.417-.082zm-227.074-.405a1.01 1.01 0 0 1 .519-1.34c.508-.222 1.107 0 1.341.518a1.026 1.026 0 0 1-.934 1.43c-.386 0-.753-.222-.926-.608zm223.213 8.138a1.007 1.007 0 0 1-.427-1.37h.01c.254-.497.874-.68 1.372-.416.488.264.682.873.417 1.37a1.005 1.005 0 0 1-1.372.416zm-219.38-.324a1.01 1.01 0 0 1 .415-1.37 1.025 1.025 0 0 1 1.383.416 1.03 1.03 0 0 1-.427 1.38.991.991 0 0 1-.477.11c-.357 0-.711-.191-.894-.536zm214.98 7.772a1.017 1.017 0 0 1-.326-1.4 1.026 1.026 0 0 1 1.403-.314 1.016 1.016 0 0 1-.539 1.877.955.955 0 0 1-.539-.163zm-210.61-.243a1.007 1.007 0 0 1 .324-1.39 1.03 1.03 0 0 1 1.403.314 1.017 1.017 0 0 1-.864 1.553c-.335 0-.671-.162-.863-.477zm205.7 7.367a1.016 1.016 0 0 1-.223-1.41v-.01a1.022 1.022 0 0 1 1.423-.214.999.999 0 0 1 .223 1.411 1.03 1.03 0 0 1-1.423.223zm-200.812-.15a1.01 1.01 0 0 1 .224-1.42 1.032 1.032 0 0 1 1.423.222 1.028 1.028 0 0 1-.224 1.422 1.03 1.03 0 0 1-1.423-.224zm195.427 6.921a1.016 1.016 0 1 1 1.311-1.553c.427.356.477.995.122 1.42a1.007 1.007 0 0 1-.782.366c-.234 0-.457-.081-.651-.233zm-190.05-.06a1.014 1.014 0 0 1 .132-1.432 1.006 1.006 0 0 1 1.423.122 1.012 1.012 0 0 1-.772 1.664c-.294 0-.58-.122-.783-.355zm184.206 6.433a1.023 1.023 0 0 1-.03-1.441 1.027 1.027 0 0 1 1.444-.021c.405.385.415 1.024.02 1.43a.97.97 0 0 1-.732.315c-.254 0-.508-.101-.702-.283zm-178.362.03a1.022 1.022 0 0 1 .03-1.442 1.014 1.014 0 1 1 .701 1.746c-.264 0-.528-.101-.731-.305zm172.091 5.915a1.014 1.014 0 1 1 1.433.071v.01a1.014 1.014 0 0 1-.68.254.996.996 0 0 1-.753-.335zm-165.811.132a1.02 1.02 0 0 1-.08-1.43 1.026 1.026 0 0 1 1.443-.081c.416.376.447 1.025.07 1.44a1.05 1.05 0 0 1-.751.336c-.244 0-.488-.091-.682-.265zm159.134 5.368a1.014 1.014 0 0 1 .173-1.42 1.029 1.029 0 0 1 1.433.172 1.026 1.026 0 0 1-.173 1.432v-.01a.98.98 0 0 1-.63.223c-.295 0-.6-.132-.803-.397zm-152.447.234a1.02 1.02 0 0 1-.182-1.43 1.03 1.03 0 0 1 1.433-.173c.437.345.518.983.173 1.42a1.002 1.002 0 0 1-.803.396c-.213 0-.437-.071-.62-.213zm145.414 4.8a1.017 1.017 0 0 1 1.687-1.136 1.013 1.013 0 0 1-.273 1.41v-.01a.97.97 0 0 1-.57.182c-.324 0-.64-.162-.844-.447zm-138.36.324a1.015 1.015 0 1 1 1.139-1.684 1.014 1.014 0 0 1-.57 1.857c-.193 0-.396-.06-.57-.173h.001zm131.003 4.202a1.012 1.012 0 0 1 .365-1.39 1.024 1.024 0 0 1 1.393.364 1.024 1.024 0 0 1-.377 1.39 1 1 0 0 1-.508.133.999.999 0 0 1-.873-.497zm-123.604.415a1.012 1.012 0 0 1-.366-1.39 1.022 1.022 0 0 1 1.392-.365h-.01c.488.274.65.903.377 1.38-.194.325-.53.507-.884.507a1.02 1.02 0 0 1-.509-.132zm115.94 3.573a1.002 1.002 0 0 1 .458-1.35 1.018 1.018 0 0 1 1.362.467 1.006 1.006 0 0 1-.467 1.35v.01a1.134 1.134 0 0 1-.438.101c-.376 0-.741-.213-.914-.578zm-108.226.527a1.02 1.02 0 0 1-.468-1.36 1 1 0 0 1 1.352-.466c.509.243.712.852.478 1.36-.183.355-.54.568-.915.568a1.13 1.13 0 0 1-.447-.102zm100.299 2.933a1.024 1.024 0 0 1 .56-1.33v.01a1.017 1.017 0 0 1 1.33.56 1.016 1.016 0 0 1-.944 1.39c-.407 0-.783-.234-.946-.63zm-92.321.608a1.011 1.011 0 0 1-.56-1.318 1.016 1.016 0 0 1 1.322-.57c.518.214.772.802.559 1.32-.162.406-.538.64-.945.64a.992.992 0 0 1-.376-.072zm84.17 2.284a1.016 1.016 0 0 1 .65-1.279 1.003 1.003 0 0 1 1.282.65 1.02 1.02 0 0 1-.965 1.33c-.428 0-.824-.275-.966-.701zm-75.959.69a.999.999 0 0 1-.65-1.279 1.008 1.008 0 0 1 1.27-.65 1.013 1.013 0 1 1-.62 1.929zm67.626 1.623a1.017 1.017 0 0 1 .742-1.237 1.028 1.028 0 0 1 1.23.74 1.018 1.018 0 0 1-.743 1.228v.01a1.87 1.87 0 0 1-.244.02 1.01 1.01 0 0 1-.985-.76zm-59.241.772a1.021 1.021 0 0 1-.741-1.228c.131-.548.69-.883 1.229-.741.549.133.873.68.742 1.229a1.019 1.019 0 0 1-1.23.74zm50.765.943a1.012 1.012 0 0 1 .822-1.177v.01a1.012 1.012 0 0 1 1.18.822 1.026 1.026 0 0 1-.833 1.178c-.051.01-.112.01-.173.01-.488 0-.915-.345-.996-.843zm-42.228.854a1.02 1.02 0 0 1-.823-1.178c.09-.548.62-.923 1.168-.822.56.09.926.619.835 1.177-.093.488-.52.833-1.007.833-.05 0-.112 0-.173-.01zm33.65.273a1.015 1.015 0 0 1 .905-1.116 1.022 1.022 0 0 1 1.117.903 1.024 1.024 0 0 1-.914 1.116c-.03.01-.07.01-.102.01-.518 0-.955-.396-1.006-.913zm-25.01.924a1.017 1.017 0 0 1-.906-1.118c.052-.558.56-.962 1.118-.902.55.05.955.558.905 1.106-.06.528-.499.914-1.017.914h-.1zm16.37-.397a1.018 1.018 0 0 1 2.033-.07 1.012 1.012 0 0 1-.975 1.055h-.04a1.02 1.02 0 0 1-1.017-.985zm-7.672.985a1.01 1.01 0 0 1-.975-1.045 1.012 1.012 0 0 1 1.046-.984c.56.02.996.486.986 1.055-.02.548-.477.974-1.016.974h-.04zm3.017-257.16c0-.568.448-1.025 1.016-1.025.56 0 1.017.457 1.017 1.015 0 .568-.457 1.015-1.017 1.015a1.01 1.01 0 0 1-1.016-1.005zm9.625 1.268a1.013 1.013 0 0 1-.955-1.075c.04-.559.518-.984 1.077-.954.56.04.986.527.955 1.086-.04.537-.487.943-1.016.943h-.06zm-18.293-.913a1.007 1.007 0 0 1 .945-1.076 1.013 1.013 0 1 1 .132 2.02c-.02 0-.051.01-.07.01a1.02 1.02 0 0 1-1.007-.954zm26.86 1.725a1.006 1.006 0 0 1-.873-1.125c.07-.56.579-.955 1.138-.884.549.071.946.578.874 1.137a1.018 1.018 0 0 1-1.007.882c-.04 0-.09 0-.131-.01zm-35.489-.801a1.008 1.008 0 0 1 .875-1.137 1.011 1.011 0 0 1 1.138.872 1.017 1.017 0 0 1-.875 1.137c-.04.01-.09.01-.131.01a1.01 1.01 0 0 1-1.007-.882zm43.986 2.181a1.025 1.025 0 0 1-.803-1.198c.112-.547.65-.903 1.2-.791.549.102.904.64.802 1.187a1.027 1.027 0 0 1-.995.823c-.071 0-.133-.01-.204-.02zm-52.533-.7a1.018 1.018 0 0 1 .793-1.198c.549-.1 1.088.254 1.199.802a1.015 1.015 0 0 1-.803 1.197l.01-.01c-.07.02-.142.02-.202.02a1.01 1.01 0 0 1-.997-.811zm60.928 2.628a1.019 1.019 0 0 1 .518-1.969c.539.153.864.7.721 1.249a1.019 1.019 0 0 1-1.24.72zm-69.364-.588a1.01 1.01 0 0 1 .722-1.239 1.004 1.004 0 0 1 1.24.71 1.014 1.014 0 0 1-.712 1.25 1.26 1.26 0 0 1-.264.03 1.01 1.01 0 0 1-.986-.751zm77.607 3.064a1.03 1.03 0 0 1-.642-1.289 1.024 1.024 0 0 1 1.292-.639c.528.183.822.751.64 1.289-.142.426-.539.69-.966.69a1.19 1.19 0 0 1-.324-.05zm-85.89-.476a1.008 1.008 0 0 1 .64-1.28v-.01a1.024 1.024 0 0 1 1.292.64 1.013 1.013 0 0 1-.966 1.339c-.427 0-.813-.264-.965-.69zm93.968 3.49a1.003 1.003 0 0 1-.549-1.32c.204-.526.804-.77 1.322-.558.519.214.772.813.55 1.33-.164.386-.54.63-.936.63-.132 0-.265-.031-.387-.082zM123.92 54.14a.99.99 0 0 1 .548-1.32h-.01a1.008 1.008 0 0 1 1.331.539 1.023 1.023 0 0 1-.539 1.33h-.01c-.121.05-.254.08-.386.08-.396 0-.772-.234-.934-.629zm109.893 3.907a1.013 1.013 0 0 1-.467-1.36c.253-.497.863-.71 1.361-.467a1.015 1.015 0 0 1-.448 1.928.987.987 0 0 1-.446-.101zm-117.76-.254a1.013 1.013 0 0 1 .468-1.36 1.019 1.019 0 0 1 1.361.457 1.02 1.02 0 0 1-.467 1.36.997.997 0 0 1-.447.101c-.376 0-.733-.203-.915-.558zm125.362 4.303a1.025 1.025 0 0 1-.376-1.39 1.027 1.027 0 0 1 1.392-.377c.488.285.65.904.376 1.39a1.033 1.033 0 0 1-1.392.377zm-132.963-.153a1.003 1.003 0 0 1 .375-1.38 1.006 1.006 0 0 1 1.382.366 1.012 1.012 0 0 1-.366 1.39 1.025 1.025 0 0 1-.508.132 1.02 1.02 0 0 1-.883-.508zm140.29 4.689a1.014 1.014 0 1 1 1.128-1.685 1 1 0 0 1 .276 1.4c-.194.295-.52.457-.844.457-.194 0-.386-.061-.56-.172zm-147.608-.041a1 1 0 0 1 .283-1.4 1.006 1.006 0 0 1 1.404.273 1 1 0 0 1-.275 1.4.962.962 0 0 1-.569.174c-.325 0-.64-.153-.843-.447zm154.611 5.043a1.004 1.004 0 0 1-.183-1.42 1.016 1.016 0 0 1 1.616 1.228 1.013 1.013 0 0 1-1.433.192zm-161.614.072a1.016 1.016 0 0 1 .193-1.421 1.013 1.013 0 1 1 .62 1.816 1.02 1.02 0 0 1-.813-.395zm168.28 5.377a1.013 1.013 0 0 1-.1-1.43 1.029 1.029 0 0 1 1.443-.102c.416.375.467 1.015.09 1.43a.993.993 0 0 1-.761.346 1.03 1.03 0 0 1-.671-.244zm-174.927.183a1.002 1.002 0 0 1 .092-1.43 1.006 1.006 0 0 1 1.432.09 1.021 1.021 0 0 1-.09 1.431 1.007 1.007 0 0 1-.671.254c-.284 0-.56-.122-.763-.345zm181.229 5.682a.999.999 0 0 1-.01-1.43 1.016 1.016 0 1 1 .01 1.43zm-187.51.295a1.01 1.01 0 0 1 0-1.43.996.996 0 0 1 1.434 0 1.01 1.01 0 0 1 0 1.43.976.976 0 0 1-.712.294.984.984 0 0 1-.722-.294zm193.404 5.967a1.003 1.003 0 0 1 .092-1.431 1.015 1.015 0 0 1 1.432.091 1.002 1.002 0 0 1-.09 1.43 1.003 1.003 0 0 1-.671.255.995.995 0 0 1-.763-.345zm-199.288.405a1.02 1.02 0 0 1-.091-1.43c.376-.416 1.016-.467 1.433-.091.427.365.467 1.014.101 1.43a1.016 1.016 0 0 1-.772.345.996.996 0 0 1-.67-.254zm204.767 6.23a1.015 1.015 0 0 1 .183-1.43 1.027 1.027 0 0 1 1.423.183 1.018 1.018 0 0 1-.184 1.431 1.005 1.005 0 0 1-.62.203c-.305 0-.6-.132-.802-.386zm-210.215.519a1.015 1.015 0 0 1-.182-1.421 1.02 1.02 0 0 1 1.423-.193c.446.345.528.984.193 1.431a1.052 1.052 0 0 1-.813.396c-.214 0-.437-.07-.62-.213zm215.245 6.454a1.022 1.022 0 0 1 .275-1.41 1.015 1.015 0 0 1 1.412.272 1.012 1.012 0 0 1-.844 1.584c-.324 0-.64-.162-.843-.446zm-220.245.639a1.012 1.012 0 0 1-.274-1.41 1.014 1.014 0 1 1 1.687 1.126 1.003 1.003 0 0 1-.843.446c-.194 0-.397-.05-.57-.162zm224.818 6.636a1.015 1.015 0 0 1 .366-1.39 1.016 1.016 0 0 1 1.383.375.999.999 0 0 1-.367 1.38.943.943 0 0 1-.508.143c-.345 0-.69-.183-.874-.508zm-229.34.761a1.023 1.023 0 0 1-.376-1.39c.284-.487.905-.65 1.393-.375.487.284.65.903.365 1.39a1.017 1.017 0 0 1-1.382.375zm233.416 6.8a1.006 1.006 0 0 1 .457-1.36 1.024 1.024 0 0 1 1.363.466c.243.497.04 1.107-.458 1.36-.153.07-.305.102-.458.102a.999.999 0 0 1-.904-.569zm-237.451.882a1.017 1.017 0 0 1-.457-1.36c.244-.507.854-.71 1.362-.467.497.254.7.863.457 1.36a1.02 1.02 0 0 1-1.362.467zm241.018 6.93a1.022 1.022 0 0 1 .549-1.329 1.025 1.025 0 0 1 1.331.549 1.018 1.018 0 0 1-.549 1.329 1.01 1.01 0 0 1-1.33-.548zm-244.534.996a1.007 1.007 0 0 1-.55-1.32 1.014 1.014 0 0 1 1.333-.558c.508.213.762.812.549 1.33-.163.395-.54.629-.946.629-.122 0-.255-.03-.386-.081zm247.583 7.032a1.015 1.015 0 0 1 1.92-.66 1.01 1.01 0 0 1-.63 1.289.964.964 0 0 1-.324.06c-.427 0-.824-.264-.966-.69zm-250.57 1.116a1.025 1.025 0 0 1-.641-1.289 1.018 1.018 0 0 1 1.29-.629 1.01 1.01 0 0 1-.325 1.968.92.92 0 0 1-.325-.05zm253.09 7.104a1.02 1.02 0 0 1 .712-1.249 1.034 1.034 0 0 1 1.25.72 1.025 1.025 0 0 1-.721 1.25 1.16 1.16 0 0 1-.265.029c-.447 0-.854-.294-.976-.75zm-255.53 1.207a1.016 1.016 0 0 1-.722-1.238 1.018 1.018 0 0 1 1.24-.72c.549.14.874.699.721 1.247-.12.447-.528.751-.975.751a.792.792 0 0 1-.265-.04zm257.492 7.164a1.025 1.025 0 0 1 .803-1.198 1.018 1.018 0 0 1 1.2.792 1.025 1.025 0 0 1-.804 1.197c-.072.01-.131.02-.203.02-.468 0-.894-.334-.996-.81zm-259.372 1.298a1.017 1.017 0 0 1 .386-1.999c.549.112.914.65.803 1.198a1.019 1.019 0 0 1-.997.811c-.07 0-.132 0-.192-.01zm260.785 7.175a1.023 1.023 0 0 1 .874-1.136 1.026 1.026 0 0 1 1.148.873 1.017 1.017 0 0 1-.874 1.136c-.05.01-.091.01-.132.01a1.02 1.02 0 0 1-1.016-.883zm-262.117 1.39a1.025 1.025 0 0 1-.873-1.146c.07-.548.578-.944 1.138-.873.548.071.944.578.873 1.136-.06.518-.498.884-1.006.884h-.132zm262.98 7.164a1.005 1.005 0 0 1 .946-1.075 1.011 1.011 0 0 1 1.077.944 1.006 1.006 0 0 1-.945 1.075c-.021.01-.04.01-.071.01-.528 0-.976-.416-1.006-.954zm-263.743 1.462a1.012 1.012 0 0 1-.944-1.077 1.021 1.021 0 0 1 1.077-.953c.56.041.986.517.945 1.076-.03.538-.478.954-1.016.954h-.062zm264.038 7.468c0-.05.01-.101.01-.152-.01-.061-.01-.121-.01-.182 0-.56.448-1.015 1.016-1.015a1.004 1.004 0 0 1 1.016 1.015c0 .05-.01.11-.01.172 0 .05.01.111.01.162a1.017 1.017 0 0 1-2.032 0zm-265.257.174a1.017 1.017 0 0 1 2.032 0c0 .557-.456 1.014-1.016 1.014a1.013 1.013 0 0 1-1.016-1.014zm265.928 9.497a1.005 1.005 0 0 1-.945-1.075c.03-.558.518-.985 1.077-.945.56.031.986.518.946 1.076a1.013 1.013 0 0 1-1.007.954c-.03 0-.05-.01-.071-.01zm-265.633-.771a1.007 1.007 0 0 1 .946-1.077 1.007 1.007 0 0 1 1.076.945 1.005 1.005 0 0 1-.944 1.075c-.021 0-.041.01-.062.01-.538 0-.986-.415-1.016-.953zm264.729 9.386a1.011 1.011 0 0 1-.875-1.137c.072-.557.58-.943 1.138-.872.56.07.946.578.875 1.136a1.025 1.025 0 0 1-1.006.883c-.05 0-.092 0-.132-.01zm-263.875-.7a1.01 1.01 0 0 1 .874-1.137 1.013 1.013 0 0 1 1.138.873 1.003 1.003 0 0 1-.874 1.137c-.04.01-.08.01-.133.01-.497 0-.935-.376-1.005-.883zm262.401 9.244a1.017 1.017 0 0 1-.793-1.197c.102-.548.64-.904 1.19-.791.548.1.914.638.802 1.187a1.009 1.009 0 0 1-.995.821c-.072 0-.133-.01-.204-.02zm-260.979-.629a1.024 1.024 0 0 1 .803-1.197 1.017 1.017 0 0 1 1.19.802 1.016 1.016 0 0 1-.793 1.197c-.071.01-.133.01-.203.01-.479 0-.894-.335-.997-.812zm258.956 9.052a1.022 1.022 0 0 1-.721-1.248 1.022 1.022 0 0 1 1.25-.72c.539.151.863.71.712 1.247-.122.457-.53.752-.976.752a1.17 1.17 0 0 1-.265-.031zm-256.964-.548a1.014 1.014 0 0 1 .722-1.248 1.01 1.01 0 0 1 1.24.72 1.01 1.01 0 0 1-.721 1.238c-.082.021-.174.04-.265.04-.447 0-.854-.304-.976-.75zm254.382 8.818a1.012 1.012 0 0 1-.629-1.289 1.01 1.01 0 0 1 1.29-.63c.53.174.813.752.63 1.28v.01c-.141.416-.538.68-.965.68a.952.952 0 0 1-.326-.05zm-251.841-.466a1.019 1.019 0 0 1 .64-1.29 1.02 1.02 0 0 1 1.292.63 1.022 1.022 0 0 1-.64 1.289.87.87 0 0 1-.326.05c-.427 0-.813-.263-.966-.68zm248.723 8.564a1.018 1.018 0 0 1-.55-1.33 1.019 1.019 0 0 1 1.88.782 1.04 1.04 0 0 1-.944.629c-.133 0-.264-.03-.386-.081zm-245.633-.417a1.021 1.021 0 0 1 .549-1.328 1.026 1.026 0 0 1 1.332.548h-.012a1.011 1.011 0 0 1-.934 1.41c-.396 0-.772-.243-.935-.63zm241.984 8.292a1.02 1.02 0 0 1-.468-1.361c.254-.507.864-.71 1.362-.467.508.254.712.864.468 1.36a1.016 1.016 0 0 1-.915.569 1.01 1.01 0 0 1-.447-.1zm-238.366-.356a1.007 1.007 0 0 1 .457-1.36 1.025 1.025 0 0 1 1.363.467c.243.498.04 1.106-.458 1.36a1.066 1.066 0 0 1-.458.101c-.366 0-.731-.212-.904-.568zm234.208 7.966a1.015 1.015 0 1 1 1.008-1.763 1.015 1.015 0 0 1-1.008 1.763zm-230.082-.284v.01a1.018 1.018 0 0 1 1.76-1.025 1.023 1.023 0 0 1-.367 1.39 1.025 1.025 0 0 1-1.392-.376zm225.429 7.61a1.013 1.013 0 0 1-.275-1.41c.304-.467.945-.588 1.412-.284.457.314.58.943.275 1.41a1.005 1.005 0 0 1-.844.447 1.03 1.03 0 0 1-.568-.162zm-220.805-.203a1.024 1.024 0 0 1 .285-1.41 1.014 1.014 0 1 1 1.128 1.685.969.969 0 0 1-.569.172c-.325 0-.64-.162-.844-.447zm215.692 7.205a1.026 1.026 0 0 1-.193-1.43 1.03 1.03 0 0 1 1.433-.184c.436.345.518.974.182 1.421a1.017 1.017 0 0 1-.812.396c-.214 0-.427-.07-.61-.203zm-210.59-.121a1.014 1.014 0 0 1 .183-1.42 1.022 1.022 0 0 1 1.434.18 1.016 1.016 0 0 1-.194 1.422.99.99 0 0 1-.61.214 1.02 1.02 0 0 1-.812-.396zm205.02 6.768a1.02 1.02 0 0 1-.091-1.43 1.025 1.025 0 0 1 1.433-.092 1.01 1.01 0 0 1-.67 1.776c-.234 0-.478-.082-.672-.254zm-199.46-.03a1.012 1.012 0 0 1 .091-1.432 1.024 1.024 0 0 1 1.433.092 1.02 1.02 0 0 1-.091 1.43 1.008 1.008 0 0 1-.671.255.979.979 0 0 1-.762-.346zm193.484 6.31a1.01 1.01 0 0 1 0-1.43 1.015 1.015 0 0 1 1.434 0 1.01 1.01 0 0 1 0 1.43.975.975 0 0 1-.712.295.984.984 0 0 1-.722-.294zm-187.509.063v-.011a1.01 1.01 0 0 1 0-1.43 1.024 1.024 0 0 1 1.443 0 1.006 1.006 0 0 1 0 1.43 1.01 1.01 0 0 1-.721.305c-.264 0-.518-.102-.722-.294zm181.127 5.813a1.013 1.013 0 0 1 .102-1.43 1.007 1.007 0 0 1 1.433.09 1.012 1.012 0 0 1-.102 1.432h.011a1.01 1.01 0 0 1-.671.253c-.285 0-.57-.121-.773-.345zm-174.734.143a1.011 1.011 0 0 1-.101-1.43 1.024 1.024 0 0 1 1.433-.092 1.011 1.011 0 1 1-1.332 1.522zm167.996 5.307a1.017 1.017 0 0 1 .184-1.43 1.017 1.017 0 0 1 1.422.192 1.004 1.004 0 0 1-.183 1.42 1.012 1.012 0 0 1-.62.213.989.989 0 0 1-.803-.395zm-161.237.243a1.027 1.027 0 0 1-.194-1.43 1.02 1.02 0 0 1 1.434-.183h-.01c.446.335.527.975.192 1.42a1.015 1.015 0 0 1-.803.397c-.223 0-.436-.072-.62-.204zm154.153 4.76a1.009 1.009 0 0 1 .275-1.411 1.016 1.016 0 0 1 1.413.274 1.025 1.025 0 0 1-.285 1.41h.01a1.095 1.095 0 0 1-.569.173 1.03 1.03 0 0 1-.844-.447zm-147.05.324a1.016 1.016 0 1 1 1.138-1.685 1 1 0 0 1 .275 1.401 1.014 1.014 0 0 1-1.413.284zm139.651 4.19a1.017 1.017 0 0 1 .377-1.39 1.02 1.02 0 0 1 1.382.376.998.998 0 0 1-.366 1.38.947.947 0 0 1-.508.143c-.356 0-.691-.183-.885-.508zm-132.221.427a1.013 1.013 0 1 1 1.017-1.755c.487.273.65.893.375 1.38a1.032 1.032 0 0 1-1.393.376zm124.549 3.603a1.02 1.02 0 0 1 .467-1.36 1.03 1.03 0 0 1 1.362.457c.244.507.04 1.115-.468 1.36a1.003 1.003 0 0 1-.447.111c-.376 0-.732-.213-.914-.568zm-116.825.518a1.022 1.022 0 0 1-.468-1.36 1.01 1.01 0 0 1 1.362-.457v-.01a1.015 1.015 0 0 1-.446 1.928.994.994 0 0 1-.448-.101zm108.907 3.003a1.019 1.019 0 0 1 1.881-.781 1.023 1.023 0 0 1-.549 1.33c-.133.05-.265.07-.387.07-.406 0-.782-.233-.945-.619zm-100.94.599a1.006 1.006 0 0 1-.548-1.32 1.018 1.018 0 0 1 1.331-.558c.518.224.763.812.549 1.33a1.013 1.013 0 0 1-1.332.548zm92.81 2.384a1.021 1.021 0 0 1 .64-1.288v.01a1.01 1.01 0 0 1 1.291.629 1.03 1.03 0 0 1-.64 1.288 1.2 1.2 0 0 1-.325.052c-.427 0-.823-.265-.966-.691zm-84.608.69a1.015 1.015 0 0 1-.64-1.278 1.015 1.015 0 0 1 1.29-.64c.529.184.814.752.641 1.29-.143.416-.539.69-.966.69a.929.929 0 0 1-.325-.061zm76.285 1.766a1.031 1.031 0 0 1 .721-1.248 1.028 1.028 0 0 1 1.25.72 1.026 1.026 0 0 1-.722 1.248c-.09.02-.182.031-.264.031-.447 0-.864-.294-.985-.751zm-67.91.76a1 1 0 0 1-.722-1.237 1.01 1.01 0 0 1 1.24-.72c.539.141.864.7.722 1.237a1.03 1.03 0 0 1-.986.761c-.082 0-.173-.02-.255-.04zm59.444 1.137a1.016 1.016 0 0 1 .803-1.187 1.01 1.01 0 0 1 1.199.792 1.03 1.03 0 0 1-.997 1.218 1.03 1.03 0 0 1-1.005-.823zm-50.928.832a1.006 1.006 0 0 1-.803-1.187c.112-.557.64-.913 1.19-.801a1 1 0 0 1 .802 1.187 1.011 1.011 0 0 1-1.189.801zm42.36.508a1.01 1.01 0 0 1 .874-1.137 1.026 1.026 0 0 1 1.148.874 1.025 1.025 0 0 1-.884 1.137c-.04.01-.081.01-.122.01a1.02 1.02 0 0 1-1.016-.884zm-33.731.903v-.01a1.013 1.013 0 0 1-.884-1.127c.07-.558.59-.953 1.138-.882.559.07.955.578.884 1.136a1.019 1.019 0 0 1-1.016.883h-.122zm25.092-.122a1.005 1.005 0 0 1 .946-1.075 1.02 1.02 0 0 1 1.087.943 1.027 1.027 0 0 1-.955 1.076h-.062c-.528 0-.985-.406-1.016-.944zm-16.393.954a1.02 1.02 0 0 1-.955-1.075c.04-.559.518-.985 1.087-.944.56.03.976.517.946 1.076-.03.537-.489.943-1.017.943h-.061zm7.714-.74a1.017 1.017 0 0 1 2.032-.001 1.01 1.01 0 0 1-1.016 1.015 1.012 1.012 0 0 1-1.016-1.015zm4.99-271.894a1.012 1.012 0 0 1-.985-1.046 1.018 1.018 0 0 1 1.046-.984c.56.02.996.487.986 1.045a1.02 1.02 0 0 1-1.016.985h-.031zm-9.655-.965a1.013 1.013 0 0 1 .987-1.045 1.01 1.01 0 0 1 1.046.975 1.022 1.022 0 0 1-.986 1.055h-.03a1.02 1.02 0 0 1-1.017-.985zm18.243 1.472a1.015 1.015 0 0 1-.915-1.106c.04-.558.539-.964 1.098-.914.56.051.975.538.925 1.096a1.025 1.025 0 0 1-1.017.924h-.09zm-26.892-.873a1.022 1.022 0 0 1 .926-1.106 1.028 1.028 0 0 1 1.107.923 1.014 1.014 0 0 1-.925 1.097c-.03.01-.06.01-.092.01-.517 0-.965-.396-1.016-.924zm35.44 1.897a1.005 1.005 0 0 1-.854-1.156c.082-.547.6-.934 1.158-.842.55.081.935.598.844 1.156a1.015 1.015 0 0 1-.997.863.766.766 0 0 1-.151-.02zm-44.027-.77a1.017 1.017 0 0 1 .843-1.157h.01a1.025 1.025 0 0 1 1.16.852 1.024 1.024 0 0 1-.854 1.157c-.052.01-.103.01-.153.01-.498 0-.925-.355-1.006-.862zm52.482 2.323a1.002 1.002 0 0 1-.773-1.208 1.01 1.01 0 0 1 1.21-.77 1.016 1.016 0 0 1-.213 2.009.836.836 0 0 1-.224-.03zm-60.99-.66a1.006 1.006 0 0 1 .774-1.207 1.012 1.012 0 0 1 1.209.771 1.01 1.01 0 0 1-.772 1.208c-.072.01-.142.02-.214.02-.477 0-.894-.324-.996-.791zm69.344 2.74a1.01 1.01 0 0 1-.702-1.257 1.015 1.015 0 0 1 1.251-.701 1.02 1.02 0 0 1-.275 1.999c-.091 0-.183-.02-.274-.04zm-77.728-.568a.998.998 0 0 1 .692-1.248 1.01 1.01 0 0 1 1.26.69 1.017 1.017 0 0 1-.701 1.258 1.01 1.01 0 0 1-1.25-.7zm85.93 3.157a1.026 1.026 0 0 1-.62-1.3 1.012 1.012 0 0 1 1.29-.619c.53.182.814.761.62 1.29a1 1 0 0 1-.955.68.976.976 0 0 1-.335-.051zm-94.171-.457a1.025 1.025 0 0 1 .619-1.3 1.029 1.029 0 0 1 1.301.62 1.021 1.021 0 0 1-.966 1.36 1.02 1.02 0 0 1-.954-.68zm102.21 3.551a1.01 1.01 0 0 1-.539-1.33c.214-.516.813-.76 1.331-.547v.01c.519.214.763.812.54 1.329a1.014 1.014 0 0 1-1.333.538zm-110.25-.355a1.006 1.006 0 0 1 .54-1.33 1.003 1.003 0 0 1 1.33.529 1.02 1.02 0 0 1-.935 1.42c-.395 0-.772-.233-.935-.619zm118.085 3.937a1.002 1.002 0 0 1-.457-1.36c.244-.497.854-.71 1.362-.457.498.254.7.853.458 1.36a1.034 1.034 0 0 1-.915.57c-.153 0-.305-.042-.448-.113zm-125.91-.254a1.002 1.002 0 0 1 .457-1.36 1.016 1.016 0 0 1 1.362.447c.244.508.05 1.117-.458 1.37a1.023 1.023 0 0 1-1.362-.457zm133.503 4.323v-.01a1.01 1.01 0 0 1-.376-1.38c.284-.487.903-.65 1.392-.375.487.284.65.903.365 1.39a1.006 1.006 0 0 1-.873.508c-.173 0-.346-.051-.508-.133zm-141.095-.162a1.015 1.015 0 0 1 .376-1.39 1.014 1.014 0 0 1 1.382.365 1.01 1.01 0 0 1-.366 1.39 1.036 1.036 0 0 1-.508.142c-.356 0-.691-.182-.884-.507zm148.422 4.678a1.013 1.013 0 0 1-.284-1.41 1.013 1.013 0 0 1 1.402-.285c.467.315.6.944.285 1.411a1.004 1.004 0 0 1-.844.447 1.02 1.02 0 0 1-.559-.163zm-155.74-.06a1.002 1.002 0 0 1 .286-1.402.996.996 0 0 1 1.402.285 1.002 1.002 0 0 1-.275 1.4h-.01a1.009 1.009 0 0 1-.56.173 1.01 1.01 0 0 1-.842-.457zm162.773 5.022a1.016 1.016 0 0 1-.203-1.42 1.021 1.021 0 0 1 1.423-.203 1.016 1.016 0 0 1-.61 1.826 1.04 1.04 0 0 1-.61-.203zm-169.796.041a1.015 1.015 0 1 1 1.424.193 1 1 0 0 1-1.424-.193zm176.503 5.338a1.015 1.015 0 1 1 1.322-1.544 1.015 1.015 0 0 1-1.322 1.544zm-183.21.152a1.012 1.012 0 0 1 .112-1.431 1.016 1.016 0 0 1 1.432.101 1.02 1.02 0 0 1-.1 1.431h-.01a1.03 1.03 0 0 1-1.434-.101zm189.583 5.631a1.021 1.021 0 0 1-.03-1.44 1.025 1.025 0 0 1 1.443-.021 1.02 1.02 0 0 1 .02 1.431.99.99 0 0 1-.733.315c-.253 0-.508-.102-.7-.285zm-195.934.254a1.013 1.013 0 0 1 .02-1.441 1.014 1.014 0 0 1 1.433.02 1.002 1.002 0 0 1-.02 1.431.996.996 0 0 1-.702.295.996.996 0 0 1-.731-.305zm201.93 5.906a1.024 1.024 0 0 1 .071-1.441 1.016 1.016 0 0 1 1.433.071 1.01 1.01 0 0 1-.061 1.43 1.063 1.063 0 0 1-.691.265c-.274 0-.549-.111-.752-.325zm-207.917.355a1.023 1.023 0 0 1-.06-1.44 1.014 1.014 0 0 1 1.432-.062 1.017 1.017 0 0 1-.692 1.766c-.243 0-.487-.091-.68-.264zm213.537 6.15a1.01 1.01 0 0 1 .142-1.421 1.019 1.019 0 0 1 1.433.152v-.01a1.015 1.015 0 0 1-.793 1.654.973.973 0 0 1-.782-.375zm-219.127.467a1.015 1.015 0 0 1-.152-1.431 1.008 1.008 0 0 1 1.423-.153c.447.345.508.985.162 1.421a1.015 1.015 0 0 1-1.433.163zm224.32 6.372a1.01 1.01 0 0 1 .244-1.41 1.012 1.012 0 0 1 1.413.232 1.02 1.02 0 0 1-.234 1.421 1.054 1.054 0 0 1-.59.183c-.324 0-.63-.142-.832-.426zm-229.493.578a1.018 1.018 0 0 1-.233-1.42h-.011a1.025 1.025 0 0 1 1.423-.244c.458.325.559.964.244 1.421h-.01a1.013 1.013 0 0 1-.823.426c-.204 0-.406-.06-.59-.183zm234.27 6.566c-.305-.467-.152-1.096.325-1.4a1.012 1.012 0 0 1 1.392.334.998.998 0 0 1-.325 1.39.912.912 0 0 1-.528.153.998.998 0 0 1-.864-.477zm-239.006.68a1.004 1.004 0 0 1-.324-1.39.999.999 0 0 1 1.392-.325 1.008 1.008 0 0 1-.529 1.867.967.967 0 0 1-.539-.152zm243.325 6.748a1.014 1.014 0 0 1 .407-1.38 1.01 1.01 0 0 1 1.371.416h.011a1.01 1.01 0 0 1-.417 1.37 1.013 1.013 0 0 1-1.372-.406zm-247.604.791a1.01 1.01 0 0 1-.417-1.37c.265-.497.885-.69 1.373-.415.499.263.681.872.417 1.37a1.007 1.007 0 0 1-1.373.415zm251.456 6.87a1 1 0 0 1 .488-1.34 1.012 1.012 0 1 1 .854 1.837.895.895 0 0 1-.427.092.997.997 0 0 1-.915-.59zm-255.267.914a1.016 1.016 0 1 1 .854-1.847c.508.243.732.842.498 1.35a1.032 1.032 0 0 1-1.352.496zm258.631 6.98a1.007 1.007 0 0 1 .58-1.309 1.003 1.003 0 0 1 1.31.57 1.008 1.008 0 0 1-.569 1.318 1.02 1.02 0 0 1-1.321-.578zM44.11 126.37a1.012 1.012 0 0 1-.59-1.309 1.009 1.009 0 0 1 1.31-.579c.53.193.794.781.59 1.31a1.009 1.009 0 0 1-1.31.578zm264.82 7.073a1.013 1.013 0 0 1 .66-1.279 1.017 1.017 0 0 1 1.281.66 1.023 1.023 0 0 1-.66 1.279 1.1 1.1 0 0 1-.316.04 1.02 1.02 0 0 1-.965-.7zM41.284 134.57a1.015 1.015 0 0 1-.66-1.269 1.015 1.015 0 0 1 1.28-.66c.528.163.834.73.66 1.268a1.02 1.02 0 0 1-1.28.66zm270.013 7.132a1.015 1.015 0 1 1 1.971-.496c.144.537-.192 1.085-.731 1.228a1.019 1.019 0 0 1-1.24-.732zm-272.3 1.219c-.549-.142-.884-.69-.741-1.228v-.01c.131-.539.68-.873 1.23-.73.548.132.874.68.74 1.227-.12.456-.527.771-.985.771a1 1 0 0 1-.244-.03zm274.15 7.164a1.013 1.013 0 0 1 .813-1.177 1.004 1.004 0 0 1 1.19.812 1.014 1.014 0 0 1-.814 1.177c-.061.01-.122.02-.183.02-.487 0-.914-.345-1.006-.832zm-275.928 1.298a1.007 1.007 0 0 1-.814-1.177c.103-.548.63-.913 1.18-.811a1.012 1.012 0 0 1-.183 2.01c-.061 0-.122 0-.183-.022zm277.26 7.195a1.015 1.015 0 0 1 .884-1.135 1.017 1.017 0 1 1 .254 2.018h-.132c-.508 0-.936-.376-1.007-.883zm-278.51 1.37a1.01 1.01 0 0 1-.885-1.127 1.02 1.02 0 0 1 1.139-.882c.549.061.945.568.884 1.126a1.019 1.019 0 0 1-1.006.893c-.041 0-.091 0-.132-.01zm279.313 7.185a1.036 1.036 0 0 1 .954-1.086c.56-.03 1.037.395 1.078.954a1.012 1.012 0 0 1-.946 1.075h-.07c-.53 0-.976-.406-1.016-.943zm-280.025 1.441a1.022 1.022 0 0 1-.955-1.077 1.02 1.02 0 0 1 1.077-.953c.559.041.986.517.955 1.076-.04.538-.487.954-1.016.954h-.06zm280.308 7.468c0-.05.012-.101.012-.152-.012-.061-.012-.112-.012-.172 0-.558.448-1.015 1.017-1.015.56 0 1.016.446 1.016 1.015 0 .05-.01.11-.01.162 0 .06.01.111.01.162a1.01 1.01 0 0 1-1.016 1.014 1.012 1.012 0 0 1-1.017-1.014zm-281.518.174c0-.56.458-1.015 1.017-1.015.56 0 1.016.445 1.016 1.015 0 .557-.457 1.014-1.016 1.014-.56 0-1.017-.457-1.017-1.014zm282.21 9.486a1.012 1.012 0 0 1-.956-1.064 1.02 1.02 0 0 1 1.078-.955c.56.03.986.517.955 1.076-.03.537-.477.954-1.016.954-.02 0-.041 0-.061-.01zm-281.934-.781a1.018 1.018 0 0 1 .955-1.075 1.025 1.025 0 0 1 1.077.954 1.02 1.02 0 0 1-.956 1.075h-.06c-.54 0-.986-.416-1.016-.954zm281.08 9.397a1.015 1.015 0 0 1-.884-1.127c.07-.557.579-.954 1.139-.883.558.062.955.57.884 1.127a1.018 1.018 0 0 1-1.006.893c-.041 0-.092-.01-.132-.01zm-280.278-.71v-.01a1.008 1.008 0 0 1 .885-1.127 1.018 1.018 0 1 1 .253 2.02h-.131c-.499 0-.946-.376-1.007-.884zm278.906 9.254a1.003 1.003 0 0 1-.813-1.187c.101-.548.63-.913 1.18-.812.548.111.913.64.812 1.188a1.02 1.02 0 0 1-.996.831c-.061 0-.122-.01-.183-.02zm-277.564-.65a1.02 1.02 0 0 1 .813-1.187 1.016 1.016 0 0 1 1.18.823.998.998 0 0 1-.815 1.177c-.06.01-.12.02-.182.02a1.02 1.02 0 0 1-.996-.833zm275.653 9.092a1.013 1.013 0 0 1-.741-1.227c.142-.548.69-.882 1.24-.74.538.131.874.689.731 1.227a1.007 1.007 0 0 1-1.23.74zm-273.783-.577a1.006 1.006 0 0 1 .732-1.228 1.016 1.016 0 0 1 1.24.74 1.018 1.018 0 0 1-.987 1.258c-.457 0-.874-.313-.985-.77zm271.355 8.889a1.017 1.017 0 1 1 .62-1.938c.528.172.823.74.66 1.278v-.01a1.02 1.02 0 0 1-.976.71c-.1 0-.203-.01-.304-.04zm-268.968-.508a1.019 1.019 0 0 1 1.942-.619 1.01 1.01 0 0 1-.66 1.28c-.102.029-.203.05-.305.05-.437 0-.833-.275-.977-.71zm266.02 8.656a1.012 1.012 0 0 1-.58-1.308 1.017 1.017 0 0 1 1.322-.58c.519.204.782.793.579 1.31a1.028 1.028 0 0 1-.955.649.95.95 0 0 1-.366-.07zm-263.102-.437a1.007 1.007 0 0 1 .58-1.309 1.01 1.01 0 0 1 1.31.58 1.008 1.008 0 0 1-.58 1.308 1.006 1.006 0 0 1-1.31-.579zm259.667 8.393a.993.993 0 0 1-.498-1.34v-.01c.234-.507.834-.72 1.342-.487a1.01 1.01 0 1 1-.844 1.837zm-256.263-.375v-.01a1.01 1.01 0 0 1 .498-1.34 1.015 1.015 0 0 1 1.352.497l-.01-.01c.244.518.02 1.116-.488 1.35a.955.955 0 0 1-.427.101c-.386 0-.751-.223-.925-.588zm252.33 8.107a1.021 1.021 0 0 1-.417-1.38c.265-.497.884-.68 1.382-.416a1.025 1.025 0 0 1-.488 1.919c-.162 0-.324-.041-.477-.123zm-248.427-.324h-.01a1.023 1.023 0 0 1 .416-1.381 1.026 1.026 0 0 1 1.383.417 1.01 1.01 0 0 1-.417 1.37.904.904 0 0 1-.477.122c-.367 0-.712-.193-.895-.528zm244.026 7.783a1.007 1.007 0 0 1-.325-1.39c.295-.487.915-.63 1.392-.336.479.295.63.924.335 1.4a1.032 1.032 0 0 1-.873.478.99.99 0 0 1-.53-.152zm-239.655-.254a1.005 1.005 0 0 1 .324-1.39 1.013 1.013 0 1 1 .539 1.866c-.335 0-.67-.161-.863-.476zm234.808 7.438a1.022 1.022 0 0 1-.244-1.42 1.022 1.022 0 0 1 1.412-.244 1.015 1.015 0 0 1-.59 1.846c-.202 0-.405-.06-.578-.182zm-229.98-.183a1.01 1.01 0 0 1 .243-1.41 1.011 1.011 0 0 1 1.412.234 1.02 1.02 0 0 1-.234 1.42 1.067 1.067 0 0 1-.59.183c-.314 0-.628-.153-.832-.427zm224.695 7.053a1.018 1.018 0 1 1 1.28-1.583c.427.345.498.984.153 1.43v-.009a1.016 1.016 0 0 1-1.433.162zm-219.422-.102a1.014 1.014 0 1 1 1.576-1.278 1.016 1.016 0 0 1-.793 1.654c-.295 0-.59-.132-.783-.376zm213.73 6.627a1 1 0 0 1-.06-1.43h-.01a1.027 1.027 0 0 1 1.442-.072 1.02 1.02 0 0 1-.69 1.766c-.245 0-.489-.091-.681-.264zm-208.048-.02a1.009 1.009 0 0 1 .06-1.43 1.035 1.035 0 0 1 1.443.06 1.023 1.023 0 0 1-.07 1.44 1.008 1.008 0 0 1-1.432-.071zm201.971 6.19a1 1 0 0 1 .02-1.431 1.004 1.004 0 0 1 1.433.02 1 1 0 0 1-.02 1.43.99.99 0 0 1-.712.285.993.993 0 0 1-.72-.304zm-195.894.06a1.019 1.019 0 0 1-.02-1.43 1.023 1.023 0 0 1 1.433-.02 1.01 1.01 0 0 1 .03 1.43 1.042 1.042 0 0 1-.731.314c-.254 0-.509-.1-.712-.294zm189.44 5.725a1.023 1.023 0 0 1 .112-1.432 1.017 1.017 0 0 1 1.433.11 1.021 1.021 0 0 1-.101 1.432 1.027 1.027 0 0 1-1.443-.11zm-182.987.151a1.012 1.012 0 0 1-.101-1.431 1.016 1.016 0 0 1 1.433-.111 1.02 1.02 0 0 1 .101 1.431.989.989 0 0 1-.762.355c-.243 0-.477-.082-.67-.244zm176.209 5.226a1.006 1.006 0 0 1 .193-1.42 1.018 1.018 0 0 1 1.23 1.623 1.047 1.047 0 0 1-.61.202 1 1 0 0 1-.813-.405zm-169.4.244a1.02 1.02 0 0 1-.203-1.421 1.021 1.021 0 0 1 1.423-.203c.448.345.54.974.204 1.42a1.03 1.03 0 0 1-.813.406c-.213 0-.427-.07-.61-.202zm162.296 4.708a1 1 0 0 1 .285-1.4 1.009 1.009 0 0 1 1.412.284 1.013 1.013 0 0 1-.295 1.4.935.935 0 0 1-.559.172 1.01 1.01 0 0 1-.843-.456zm-155.17.335a1.015 1.015 0 0 1-.285-1.411 1.017 1.017 0 0 1 1.412-.284c.468.315.59.944.285 1.411a1.01 1.01 0 0 1-.854.447c-.183 0-.386-.052-.559-.163zm147.78 4.17a1 1 0 0 1 .367-1.38 1.015 1.015 0 0 1 1.392.365 1.025 1.025 0 0 1-.376 1.39 1.02 1.02 0 0 1-1.382-.375zm-140.352.427v-.01a1.01 1.01 0 0 1-.375-1.38c.284-.488.903-.65 1.392-.376.487.284.65.903.376 1.39a1.037 1.037 0 0 1-1.393.376zm132.69 3.622a1.02 1.02 0 0 1 .457-1.36 1.01 1.01 0 0 1 1.362.447 1.006 1.006 0 0 1-.447 1.36 1.023 1.023 0 0 1-1.372-.447zm-124.996.507h.01a1.028 1.028 0 0 1-.467-1.37c.254-.497.863-.7 1.372-.455.498.253.701.86.457 1.369a1.023 1.023 0 0 1-.915.559c-.152 0-.305-.031-.457-.103zm117.119 3.055a1.006 1.006 0 0 1 .54-1.33v-.009a1.033 1.033 0 0 1 1.331.538 1.037 1.037 0 0 1-.539 1.339c-.132.05-.264.071-.397.071-.396 0-.772-.223-.935-.61zm-109.172.588a1.019 1.019 0 0 1-.549-1.329 1.025 1.025 0 0 1 1.342-.538 1.015 1.015 0 0 1-.396 1.949 1.09 1.09 0 0 1-.397-.082zm101.082 2.477a1.013 1.013 0 1 1 1.91-.68 1.018 1.018 0 0 1-.618 1.299.97.97 0 0 1-.336.06c-.417 0-.813-.263-.956-.68zm-92.93.68a1.026 1.026 0 0 1-.62-1.3 1.015 1.015 0 0 1 1.3-.618c.529.183.803.761.62 1.288-.152.416-.539.68-.965.68-.112 0-.224-.02-.335-.05zm84.648 1.888a1.018 1.018 0 0 1 .7-1.26 1.024 1.024 0 0 1 1.261.7 1.012 1.012 0 0 1-.701 1.25 1.017 1.017 0 0 1-1.26-.69zm-76.326.74a1.019 1.019 0 0 1-.7-1.259 1.007 1.007 0 0 1 1.26-.69c.538.142.854.711.701 1.249a1.03 1.03 0 0 1-.986.74.869.869 0 0 1-.275-.04zm67.91 1.299a1.016 1.016 0 0 1 .773-1.208 1.029 1.029 0 0 1 1.21.782 1.01 1.01 0 0 1-.773 1.206 1.5 1.5 0 0 1-.224.021c-.467 0-.884-.324-.985-.801zm-59.444.812a1.014 1.014 0 1 1 .438-1.98c.55.122.895.66.773 1.208a1.009 1.009 0 0 1-.986.802.906.906 0 0 1-.225-.03zm50.907.72a1.027 1.027 0 0 1 .855-1.167 1.019 1.019 0 0 1 1.158.853 1.012 1.012 0 0 1-.844 1.156c-.06.01-.111.01-.152.01-.498 0-.935-.355-1.017-.852zm-42.318.873a1.024 1.024 0 0 1-.854-1.158 1.024 1.024 0 0 1 1.158-.852c.559.082.935.599.854 1.158a1.024 1.024 0 0 1-1.006.862c-.051 0-.102-.01-.152-.01zm33.72.121a1.008 1.008 0 0 1 .915-1.105 1.005 1.005 0 0 1 1.098.912 1.008 1.008 0 0 1-.915 1.107h-.091c-.519 0-.966-.396-1.007-.914zm-25.051.935a1.015 1.015 0 0 1-.925-1.107c.05-.559.549-.974 1.107-.924a1.018 1.018 0 0 1-.101 2.03h-.081zm16.393-.468a1 1 0 0 1 .986-1.045.998.998 0 0 1 1.036.984 1.016 1.016 0 0 1-.975 1.045h-.03c-.55 0-1.007-.436-1.017-.984zm-7.684.984a1.019 1.019 0 0 1-.986-1.045 1.02 1.02 0 0 1 1.047-.984c.56.02.996.487.986 1.045-.02.548-.467.984-1.016.984h-.031zm8.252-289.591v-.01a1.003 1.003 0 0 1-.986-1.035 1.004 1.004 0 0 1 1.037-.984c.559.01 1.006.476.995 1.035-.02.548-.467.994-1.016.994h-.03zm-9.523-.974a1.026 1.026 0 0 1 .986-1.046 1.026 1.026 0 0 1 1.046.985 1.02 1.02 0 0 1-.985 1.045h-.031a1.02 1.02 0 0 1-1.016-.984zm17.979 1.43a1.013 1.013 0 0 1-.926-1.095c.041-.559.54-.975 1.098-.924.56.04.976.528.925 1.086-.04.538-.488.934-1.006.934h-.091zm-26.496-.872a1.031 1.031 0 0 1 .935-1.106 1.013 1.013 0 0 1 1.098.923 1.006 1.006 0 0 1-.926 1.096c-.03.01-.06.01-.09.01-.518 0-.966-.405-1.017-.923zm34.921 1.806a1.02 1.02 0 0 1-.875-1.147c.082-.547.6-.933 1.16-.862h-.011a1.015 1.015 0 0 1-.142 2.02c-.041 0-.091 0-.132-.01zm-43.387-.78a1.026 1.026 0 0 1 .865-1.148 1.007 1.007 0 0 1 1.148.863 1.016 1.016 0 0 1-.853 1.146c-.051 0-.103.01-.153.01-.499 0-.926-.364-1.007-.872zm51.74 2.201h-.01a1.018 1.018 0 0 1-.792-1.197c.112-.548.64-.904 1.189-.792.56.111.915.64.802 1.197a1.019 1.019 0 0 1-.995.812c-.061 0-.132-.01-.193-.02zm-60.124-.69a1.01 1.01 0 0 1 .793-1.198 1.023 1.023 0 0 1 1.198.792 1.011 1.011 0 0 1-.791 1.198c-.072.02-.143.02-.214.02a1 1 0 0 1-.986-.812zm68.377 2.588a1.017 1.017 0 1 1 .508-1.97 1.015 1.015 0 0 1-.254 2c-.081 0-.172-.01-.254-.03zm-76.67-.589a1.006 1.006 0 0 1 .722-1.248 1.018 1.018 0 0 1 .518 1.968 1.16 1.16 0 0 1-.264.03.997.997 0 0 1-.975-.75zm84.8 2.953a1.02 1.02 0 0 1 .63-1.938c.529.173.824.75.65 1.278a1.007 1.007 0 0 1-1.28.66zm-92.971-.487a1.015 1.015 0 0 1 .65-1.278 1.008 1.008 0 0 1 1.28.65 1.011 1.011 0 0 1-.965 1.328 1.02 1.02 0 0 1-.965-.7zm100.97 3.318a1.016 1.016 0 0 1-.58-1.31c.204-.527.794-.79 1.322-.587.519.202.783.791.58 1.319-.163.395-.55.65-.955.65a1.16 1.16 0 0 1-.367-.072zm-108.98-.395a1.008 1.008 0 0 1 .58-1.31 1.024 1.024 0 0 1 1.321.579 1.024 1.024 0 0 1-.954 1.38c-.407 0-.784-.244-.947-.65zm116.806 3.683a1.022 1.022 0 0 1-.508-1.35 1.019 1.019 0 0 1 1.351-.497c.509.233.732.832.509 1.34-.173.375-.55.598-.935.598-.143 0-.285-.03-.417-.09zm-124.62-.305a1.009 1.009 0 0 1 .498-1.339 1.02 1.02 0 0 1 1.352.498 1.01 1.01 0 0 1-.498 1.339.949.949 0 0 1-.427.102 1.02 1.02 0 0 1-.925-.6zm132.232 4.03a1.006 1.006 0 0 1-.416-1.371c.254-.497.873-.68 1.371-.426.488.264.681.883.417 1.37a1.003 1.003 0 0 1-1.372.426zm-139.835-.204a1.007 1.007 0 0 1 .417-1.37 1.01 1.01 0 0 1 1.373.416 1.016 1.016 0 0 1-.894 1.492.994.994 0 0 1-.896-.538zm147.224 4.364a1.02 1.02 0 0 1-.346-1.39c.295-.478.914-.64 1.403-.346.477.284.63.913.335 1.39a.992.992 0 0 1-.863.487c-.184 0-.357-.04-.53-.14zm-154.612-.112a1.03 1.03 0 0 1 .345-1.4 1.022 1.022 0 0 1 1.393.345 1.005 1.005 0 0 1-.336 1.39 1.05 1.05 0 0 1-.528.152 1.02 1.02 0 0 1-.874-.487zm161.756 4.688h-.01a1.023 1.023 0 0 1-.265-1.41 1.019 1.019 0 0 1 1.424-.265l-.01-.009c.467.324.579.953.274 1.41a1.016 1.016 0 0 1-.844.446c-.203 0-.396-.06-.569-.172zm-168.88-.03a1.013 1.013 0 0 1 .264-1.41 1.025 1.025 0 0 1 1.413.263 1.019 1.019 0 0 1-.844 1.593.996.996 0 0 1-.833-.447zm175.74 4.992a1.004 1.004 0 0 1-.183-1.42 1.008 1.008 0 0 1 1.423-.183c.448.335.53.974.183 1.42a1.012 1.012 0 0 1-1.422.183zm-182.6.081a1.028 1.028 0 0 1 .182-1.43 1.022 1.022 0 0 1 1.434.183 1.022 1.022 0 0 1-.183 1.42.97.97 0 0 1-.63.213c-.295 0-.6-.132-.803-.386zm189.166 5.277a1.004 1.004 0 0 1-.103-1.43 1.017 1.017 0 0 1 1.434-.113 1.022 1.022 0 0 1-.671 1.787 1.02 1.02 0 0 1-.66-.244zm-195.711.162a1.012 1.012 0 0 1 .09-1.43 1.017 1.017 0 0 1 1.333 1.532.97.97 0 0 1-.661.254.99.99 0 0 1-.762-.356zm201.96 5.551a1.014 1.014 0 0 1-.02-1.441 1.023 1.023 0 0 1 1.434-.02 1.01 1.01 0 0 1 .03 1.43 1 1 0 0 1-.732.315c-.254 0-.508-.091-.711-.284zm-208.2.264a1.013 1.013 0 0 1 .02-1.441 1.015 1.015 0 0 1 1.433.02 1.013 1.013 0 0 1-.732 1.726.993.993 0 0 1-.721-.305zm214.115 5.794a1.023 1.023 0 0 1 .063-1.441 1.012 1.012 0 0 1 1.431.061 1.001 1.001 0 0 1-.06 1.431.99.99 0 0 1-.68.274c-.276 0-.55-.112-.754-.325zm-220.02.355a1.02 1.02 0 0 1-.061-1.43 1.016 1.016 0 0 1 1.433-.061 1.01 1.01 0 0 1 .07 1.43.999.999 0 0 1-.75.325c-.245 0-.489-.081-.693-.264zm225.58 6.018a1.013 1.013 0 0 1 .143-1.42 1.027 1.027 0 0 1 1.433.131 1.014 1.014 0 0 1-.143 1.43 1.016 1.016 0 0 1-.64.234c-.295 0-.59-.131-.793-.375zm-231.119.467a1.014 1.014 0 0 1-.143-1.431 1.019 1.019 0 0 1 1.576 1.289 1.024 1.024 0 0 1-.792.365c-.224 0-.448-.071-.64-.223zm236.312 6.22a1.01 1.01 0 0 1 .224-1.42 1.011 1.011 0 0 1 1.413.222 1.019 1.019 0 0 1-.213 1.422 1.034 1.034 0 0 1-.601.192c-.314 0-.629-.142-.823-.416zm-241.474.569a1.03 1.03 0 0 1-.225-1.421 1.013 1.013 0 0 1 1.424-.223 1.016 1.016 0 0 1-1.2 1.644zm246.271 6.392a1.007 1.007 0 0 1 .305-1.4 1.02 1.02 0 0 1 1.403.304 1.006 1.006 0 0 1-.305 1.4.988.988 0 0 1-.55.163c-.334 0-.66-.162-.853-.467zm-251.039.67a1.007 1.007 0 0 1-.304-1.4 1.018 1.018 0 0 1 1.403-.305 1.016 1.016 0 0 1-.55 1.868.99.99 0 0 1-.549-.163zm255.43 6.555a1.01 1.01 0 0 1 .376-1.38 1.03 1.03 0 0 1 1.392.386 1.013 1.013 0 0 1-.386 1.38.963.963 0 0 1-.498.132 1 1 0 0 1-.884-.518zm-259.79.781a1.013 1.013 0 0 1-.386-1.38 1.02 1.02 0 0 1 1.383-.395c.487.284.66.903.386 1.39-.184.325-.53.518-.884.518a.99.99 0 0 1-.499-.133zm263.754 6.688a1.014 1.014 0 0 1 .467-1.36 1.02 1.02 0 0 1 1.362.457 1.017 1.017 0 0 1-.915 1.461c-.376 0-.731-.203-.914-.558zm-267.687.883a1.013 1.013 0 0 1-.457-1.36 1.01 1.01 0 0 1 1.351-.467c.509.254.712.862.468 1.36a1.003 1.003 0 0 1-.914.569c-.143 0-.295-.032-.448-.102zm271.223 6.79a1.015 1.015 0 0 1 .54-1.331 1.008 1.008 0 0 1 1.33.538 1.012 1.012 0 0 1-.935 1.41c-.396 0-.772-.233-.935-.618zm-274.708.993a1.02 1.02 0 0 1-.55-1.33c.224-.517.824-.76 1.342-.537.509.213.752.812.539 1.33a1.015 1.015 0 0 1-1.331.537zm277.798 6.859a1.01 1.01 0 0 1 .61-1.298 1.027 1.027 0 0 1 1.3.619 1.012 1.012 0 0 1-.954 1.36c-.417 0-.814-.264-.956-.681zm-280.837 1.117a1.023 1.023 0 0 1-.62-1.299 1.03 1.03 0 0 1 1.3-.62c.53.194.804.773.621 1.3-.153.416-.549.68-.966.68a.977.977 0 0 1-.335-.06zm283.469 6.931a1.015 1.015 0 0 1 .692-1.268 1.021 1.021 0 0 1 1.26.69 1.02 1.02 0 0 1-.976 1.299c-.437 0-.844-.285-.976-.721zm-286.041 1.187a1.017 1.017 0 0 1-.69-1.259 1.022 1.022 0 0 1 1.26-.69c.539.163.854.722.69 1.258a.997.997 0 0 1-.965.732 1 1 0 0 1-.295-.041zm288.205 6.981a1.024 1.024 0 0 1 .763-1.217 1.015 1.015 0 0 1 1.22.76 1.008 1.008 0 0 1-.763 1.219.865.865 0 0 1-.223.03 1.03 1.03 0 0 1-.997-.792zm-290.298 1.28a1.015 1.015 0 1 1 .458-1.98c.548.122.884.67.762 1.218-.112.467-.53.792-.987.792a.917.917 0 0 1-.233-.03zm291.996 7.01a1.02 1.02 0 0 1 .824-1.176 1.024 1.024 0 0 1 1.179.832 1.027 1.027 0 0 1-.834 1.177.916.916 0 0 1-.173.01c-.488 0-.915-.345-.996-.842zm-293.612 1.35a1.02 1.02 0 0 1-.834-1.167c.102-.557.62-.923 1.18-.831.549.09.924.619.822 1.166a1.003 1.003 0 0 1-.995.843c-.062 0-.112 0-.173-.01zm294.822 7.023a1.018 1.018 0 0 1 2.022-.234 1.022 1.022 0 0 1-.894 1.126c-.04 0-.082.01-.122.01-.508 0-.946-.385-1.006-.902zm-295.96 1.42a1.017 1.017 0 1 1 1.128-.893 1.023 1.023 0 0 1-1.016.904c-.031 0-.072-.01-.112-.01zm296.7 7.002a1.006 1.006 0 0 1 .956-1.065 1.004 1.004 0 0 1 1.068.953 1.004 1.004 0 0 1-.955 1.066c-.02.01-.031.01-.052.01-.538 0-.985-.416-1.016-.964zm-297.35 1.491a1.01 1.01 0 0 1-.956-1.065v-.01a1.013 1.013 0 0 1 2.023.112 1.016 1.016 0 0 1-1.016.963h-.051zm297.605 7.317c0-.05.01-.112.021-.172a.877.877 0 0 1-.02-.173c0-.558.447-1.015 1.015-1.015.56 0 1.017.447 1.017 1.005v.01c0 .05-.01.112-.02.173.01.06.02.121.02.172 0 .569-.457 1.015-1.017 1.015a1.011 1.011 0 0 1-1.016-1.015zm-298.796.183c0-.558.458-1.014 1.017-1.014.56 0 1.016.446 1.016 1.014 0 .558-.456 1.015-1.016 1.015a1.019 1.019 0 0 1-1.017-1.015zm299.518 9.346a1.003 1.003 0 0 1-.955-1.065h-.01a1.034 1.034 0 0 1 1.077-.964 1.015 1.015 0 0 1-.06 2.029h-.052zm-299.273-.771.01-.01a1.006 1.006 0 0 1 .955-1.067c.56-.03 1.037.396 1.068.955a1.013 1.013 0 0 1-.955 1.075h-.052a1.03 1.03 0 0 1-1.026-.953zm298.49 9.254a1.016 1.016 0 1 1 .234-2.02 1.017 1.017 0 0 1-.111 2.03c-.04 0-.082-.01-.122-.01zm-297.748-.72a1.007 1.007 0 0 1 .894-1.117 1.016 1.016 0 0 1 1.129.894v-.01a1.012 1.012 0 0 1-.895 1.126c-.04.01-.082.01-.121.01a1.01 1.01 0 0 1-1.007-.903zm296.488 9.143a1.014 1.014 0 0 1-.823-1.177 1.015 1.015 0 0 1 2.002.345 1.022 1.022 0 0 1-1.006.842c-.05 0-.111 0-.173-.01zm-295.268-.65a1.02 1.02 0 0 1 .833-1.177 1.013 1.013 0 0 1 1.169.832 1.005 1.005 0 0 1-.824 1.168c-.06.01-.121.019-.173.019a1.03 1.03 0 0 1-1.005-.843zm293.53 8.99a1.024 1.024 0 0 1-.762-1.217 1.014 1.014 0 0 1 1.22-.761c.549.122.884.67.762 1.218a1.017 1.017 0 0 1-.986.78c-.081 0-.152-.009-.234-.02zm-291.823-.588a1.015 1.015 0 0 1 .762-1.218 1.013 1.013 0 0 1 1.22.762 1.024 1.024 0 0 1-.762 1.217c-.072.01-.153.02-.235.02-.457 0-.873-.313-.985-.78zm289.598 8.808a1.014 1.014 0 0 1-.681-1.257 1.01 1.01 0 0 1 1.26-.691c.538.162.843.72.691 1.258-.132.447-.539.73-.975.73a.957.957 0 0 1-.295-.04zm-287.414-.517a1.01 1.01 0 0 1 .693-1.259 1.015 1.015 0 0 1 1.26.691 1.013 1.013 0 0 1-.976 1.298 1.02 1.02 0 0 1-.977-.73zm284.73 8.595a.997.997 0 0 1-.609-1.289h-.01a1.026 1.026 0 0 1 1.3-.619c.529.193.803.77.62 1.3a1.015 1.015 0 0 1-1.3.608zm-282.066-.447a.998.998 0 0 1 .61-1.289 1.01 1.01 0 0 1 1.3.61 1.01 1.01 0 0 1-.61 1.298c-.112.04-.233.061-.345.061a1.02 1.02 0 0 1-.955-.68zm278.906 8.382a1.013 1.013 0 0 1-.529-1.329 1 1 0 0 1 1.321-.538c.519.213.762.812.55 1.329a1.04 1.04 0 0 1-.946.62c-.132 0-.264-.032-.396-.082zm-275.786-.406a1.005 1.005 0 0 1 .539-1.329 1.007 1.007 0 0 1 1.33.538 1.005 1.005 0 0 1-.538 1.329 1.013 1.013 0 0 1-1.33-.538zm272.188 8.138a1.013 1.013 0 1 1 .894-1.816c.509.244.712.853.468 1.36a1.022 1.022 0 0 1-.915.558.984.984 0 0 1-.447-.102zm-268.61-.354a1.008 1.008 0 0 1 .456-1.36 1.024 1.024 0 0 1 1.362.467c.244.497.04 1.106-.457 1.36-.152.07-.305.1-.457.1-.376 0-.731-.213-.904-.567zm264.565 7.864a1.015 1.015 0 1 1 .997-1.766c.487.274.66.893.385 1.39a1.01 1.01 0 0 1-.884.508.968.968 0 0 1-.498-.132zm-260.552-.294a1.002 1.002 0 0 1 .377-1.38 1.004 1.004 0 0 1 1.382.375 1 1 0 0 1-.376 1.38 1.015 1.015 0 0 1-1.383-.374zm256.08 7.559a1.013 1.013 0 0 1-.305-1.4 1.03 1.03 0 0 1 1.413-.304c.468.304.6.933.305 1.41v-.01a1.024 1.024 0 0 1-1.412.304zm-251.638-.233a1.007 1.007 0 0 1 .304-1.4 1.012 1.012 0 0 1 1.404.304 1.016 1.016 0 0 1-1.708 1.096zm246.77 7.235a1.008 1.008 0 0 1-.223-1.42 1.031 1.031 0 0 1 1.422-.224c.448.335.55.965.224 1.421a1.033 1.033 0 0 1-.823.416c-.213 0-.417-.061-.6-.193zm-241.922-.162a1.018 1.018 0 1 1 1.422.223 1.079 1.079 0 0 1-.6.193c-.313 0-.62-.153-.822-.416zm236.657 6.87a1.016 1.016 0 0 1-.142-1.43v.009a1.02 1.02 0 0 1 1.434-.153c.426.356.498.996.142 1.432a1.038 1.038 0 0 1-.793.375c-.223 0-.447-.081-.64-.233zm-231.402-.092A1.018 1.018 0 0 1 61 269.885a1.025 1.025 0 0 1-.143 1.432 1.048 1.048 0 0 1-.65.232c-.295 0-.579-.131-.782-.375zm225.772 6.495a1.015 1.015 0 0 1-.06-1.441 1.023 1.023 0 0 1 1.433-.06c.405.385.436 1.024.06 1.44a1.042 1.042 0 0 1-.752.324c-.243 0-.487-.09-.681-.263zm-220.142-.02a1.002 1.002 0 0 1 .06-1.431 1.006 1.006 0 0 1 1.433.06 1.011 1.011 0 0 1-.06 1.432.987.987 0 0 1-.692.263c-.274 0-.538-.111-.741-.324zm214.146 6.089a1.024 1.024 0 0 1 .03-1.442 1.022 1.022 0 0 1 1.433.02 1.022 1.022 0 0 1-.02 1.441 1.037 1.037 0 0 1-1.444-.02h.001zm-208.16.06a1.012 1.012 0 0 1-.02-1.441 1.013 1.013 0 0 1 1.432-.02c.406.386.417 1.035.03 1.441a1.036 1.036 0 0 1-.73.304 1.07 1.07 0 0 1-.712-.284zm201.839 5.652a1.013 1.013 0 0 1 .111-1.43 1.003 1.003 0 0 1 1.424.1 1.013 1.013 0 0 1-.102 1.432.982.982 0 0 1-.66.253c-.285 0-.57-.121-.773-.355zm-195.507.142a1.002 1.002 0 0 1-.103-1.43 1.016 1.016 0 0 1 1.434-.102 1.02 1.02 0 0 1 .1 1.43 1.012 1.012 0 0 1-.771.346c-.234 0-.468-.081-.66-.244zm188.88 5.206a1.007 1.007 0 0 1 .183-1.42 1.01 1.01 0 0 1 1.423.182 1.005 1.005 0 0 1-.182 1.42 1.016 1.016 0 0 1-.62.214.988.988 0 0 1-.803-.396zm-182.234.223a1.004 1.004 0 0 1-.183-1.42 1.02 1.02 0 0 1 1.433-.182h-.01c.446.344.528.973.182 1.42a.985.985 0 0 1-.802.395c-.214 0-.437-.07-.62-.213zm175.303 4.74a1.014 1.014 0 0 1 .265-1.412 1.026 1.026 0 0 1 1.412.264 1.02 1.02 0 0 1-.833 1.593c-.325 0-.65-.162-.844-.445zm-168.351.304a1.021 1.021 0 0 1-.265-1.412 1.027 1.027 0 0 1 1.413-.263c.468.315.58.955.264 1.41a1 1 0 0 1-1.412.265zm161.155 4.262a1.012 1.012 0 0 1 .347-1.402 1.023 1.023 0 0 1 1.391.347 1.015 1.015 0 0 1-.345 1.389v.011a1.023 1.023 0 0 1-1.392-.345zm-153.93.385a1.006 1.006 0 0 1-.335-1.39c.284-.488.915-.64 1.392-.345.478.283.63.913.346 1.39a1.02 1.02 0 0 1-.874.487 1.02 1.02 0 0 1-.53-.142zm146.48 3.754a1.022 1.022 0 0 1 .429-1.38 1.021 1.021 0 0 1 1.37.427 1.014 1.014 0 0 1-.416 1.37h-.01c-.152.08-.315.121-.467.121-.366 0-.721-.203-.906-.538zm-138.99.467a1.01 1.01 0 0 1-.426-1.37 1.02 1.02 0 0 1 1.372-.425c.497.263.691.882.427 1.38a1.005 1.005 0 0 1-1.372.415zm131.329 3.238a1.02 1.02 0 0 1 .497-1.35v.01a1.024 1.024 0 0 1 1.352.497c.234.508.01 1.106-.499 1.35a1.018 1.018 0 0 1-1.35-.507zm-123.615.558a1.02 1.02 0 0 1-.497-1.35 1.01 1.01 0 0 1 1.34-.497c.52.233.743.832.509 1.339a1.018 1.018 0 0 1-1.352.508zm115.749 2.708a1.022 1.022 0 0 1 .578-1.318 1.017 1.017 0 0 1 1.322.578 1.017 1.017 0 0 1-.956 1.38 1.02 1.02 0 0 1-.944-.64zm-107.821.63a1.015 1.015 0 0 1-.58-1.31c.204-.526.793-.78 1.321-.577.519.202.772.791.57 1.31a1.007 1.007 0 0 1-1.311.577zm99.771 2.182a1.016 1.016 0 0 1 .65-1.278 1 1 0 0 1 1.28.649 1.02 1.02 0 0 1-.965 1.329 1.02 1.02 0 0 1-.965-.7zm-91.661.7a1.011 1.011 0 0 1-.66-1.278 1.02 1.02 0 0 1 1.28-.65h.01c.528.173.823.74.65 1.279-.142.426-.538.7-.975.7a.811.811 0 0 1-.305-.051zm83.46 1.644a1.02 1.02 0 1 1 1.971-.518 1.016 1.016 0 0 1-.986 1.269 1.03 1.03 0 0 1-.986-.751zm-75.218.761a1.01 1.01 0 0 1-.732-1.238 1.025 1.025 0 0 1 1.25-.72c.54.141.864.689.722 1.237a1.028 1.028 0 0 1-.986.761.746.746 0 0 1-.254-.04zm66.893 1.106a1.016 1.016 0 0 1 .803-1.197 1.012 1.012 0 0 1 1.189.792 1.015 1.015 0 0 1-.792 1.196c-.071.01-.132.02-.204.02a1.02 1.02 0 0 1-.996-.81zm-58.53.822a1.006 1.006 0 0 1-.79-1.187 1.02 1.02 0 0 1 1.198-.802c.549.112.904.65.793 1.197a1.02 1.02 0 0 1-.997.812c-.071 0-.132 0-.203-.02zm50.116.568a1.005 1.005 0 0 1 .863-1.146 1.01 1.01 0 0 1 1.148.852 1.02 1.02 0 0 1-.863 1.157c-.04 0-.091.01-.143.01-.497 0-.935-.365-1.005-.873zm-41.649.883a1.01 1.01 0 0 1-.864-1.147c.082-.558.59-.943 1.148-.862.56.07.945.59.864 1.147-.07.507-.508.872-1.005.872-.041 0-.092 0-.143-.01zm33.173.02a1.012 1.012 0 0 1 .924-1.095 1.012 1.012 0 1 1 .173 2.018c-.03.011-.06.011-.091.011-.519 0-.965-.406-1.006-.933zm-24.635.944a1.013 1.013 0 0 1-.926-1.096c.04-.558.528-.974 1.098-.924.549.041.966.53.925 1.097-.05.528-.488.923-1.016.923h-.081zm16.118-.517a1.012 1.012 0 1 1 2.022-.062 1.012 1.012 0 0 1-.986 1.046h-.02c-.55 0-1.006-.436-1.016-.984zm-8.537-.05a1.018 1.018 0 0 1 1.047-.985c.559.01 1.005.477.986 1.045a1.026 1.026 0 0 1-1.048.984 1.024 1.024 0 0 1-.985-1.045zm3.922-306.873a1.02 1.02 0 0 1 1.016-1.024c.56 0 1.017.456 1.017 1.014s-.457 1.015-1.017 1.015a1.01 1.01 0 0 1-1.016-1.005zm9.514 1.218a1.02 1.02 0 0 1-.966-1.066c.03-.558.519-.984 1.077-.954.56.02.986.508.955 1.066-.03.537-.477.954-1.005.954h-.061zm-18.071-.924a1.017 1.017 0 0 1 .966-1.075 1.013 1.013 0 0 1 1.067.964 1.01 1.01 0 0 1-.955 1.065h-.062c-.537 0-.985-.416-1.016-.954zm26.546 1.594a1.014 1.014 0 1 1 .213-2.02c.56.061.966.559.906 1.116a1.022 1.022 0 0 1-1.007.914c-.04 0-.07-.01-.112-.01zm-35.062-.843a1.015 1.015 0 0 1 .894-1.125 1.024 1.024 0 0 1 1.128.902 1.022 1.022 0 0 1-.904 1.116c-.04.01-.071.01-.112.01-.518 0-.956-.385-1.006-.903zm43.487 1.97a1.034 1.034 0 0 1-.843-1.168 1.02 1.02 0 0 1 1.169-.842c.559.09.935.609.844 1.157a1.022 1.022 0 0 1-1.007.862c-.05 0-.101-.01-.163-.01zm-51.963-.762a1.02 1.02 0 0 1 .843-1.167 1.026 1.026 0 0 1 1.17.842 1.02 1.02 0 0 1-.844 1.167c-.05 0-.112.01-.163.01-.489 0-.925-.355-1.006-.852zm60.318 2.334a1.011 1.011 0 0 1-.773-1.208 1.023 1.023 0 0 1 1.21-.781c.549.122.894.66.772 1.208a1.02 1.02 0 0 1-1.209.78zm-68.703-.67a1.01 1.01 0 0 1 .772-1.207 1.012 1.012 0 0 1 1.21.77 1.005 1.005 0 0 1-.772 1.208.845.845 0 0 1-.224.031c-.468 0-.884-.325-.986-.801zm76.966 2.7a1.009 1.009 0 0 1-.712-1.249 1.003 1.003 0 0 1 1.25-.71c.538.142.854.7.701 1.248a1.01 1.01 0 0 1-.975.74c-.092 0-.183-.01-.264-.03zm-85.26-.569a1.018 1.018 0 0 1 .703-1.258 1.034 1.034 0 0 1 1.26.71 1.027 1.027 0 0 1-.987 1.29c-.436 0-.853-.295-.975-.742zm93.39 3.044a1.012 1.012 0 0 1-.64-1.288 1.008 1.008 0 0 1 1.28-.64.999.999 0 0 1 .64 1.279 1.02 1.02 0 0 1-.965.7 1.12 1.12 0 0 1-.315-.051zm-101.55-.477a1.012 1.012 0 0 1 .64-1.288 1 1 0 0 1 1.28.639 1 1 0 0 1-.63 1.279.96.96 0 0 1-.325.061c-.426 0-.822-.274-.964-.691zm109.549 3.39a1.01 1.01 0 0 1-.57-1.32 1.02 1.02 0 0 1 1.321-.568c.519.213.773.802.57 1.32a1.022 1.022 0 0 1-1.321.568zm-117.558-.386a1.026 1.026 0 0 1 .57-1.319 1.027 1.027 0 0 1 1.32.568 1.022 1.022 0 0 1-.568 1.32.988.988 0 0 1-.376.07c-.407 0-.783-.233-.946-.639zm125.383 3.734a1.008 1.008 0 0 1-.498-1.34 1.018 1.018 0 0 1 1.85.853 1.026 1.026 0 0 1-.926.588.94.94 0 0 1-.426-.1zm-133.198-.294a1.015 1.015 0 0 1 .488-1.35 1.024 1.024 0 0 1 1.352.497 1.01 1.01 0 0 1-.915 1.442c-.386 0-.752-.224-.925-.589zm140.83 4.069a1.011 1.011 0 0 1-.427-1.37c.265-.497.884-.68 1.372-.426.5.264.691.883.427 1.37a1.025 1.025 0 0 1-.894.548c-.163 0-.325-.04-.478-.122zm-148.452-.213a1.016 1.016 0 0 1 .417-1.37v-.01c.497-.253 1.118-.072 1.371.426a1.007 1.007 0 0 1-.416 1.37 1.007 1.007 0 0 1-1.372-.416zm155.862 4.394a1.02 1.02 0 0 1-.347-1.4c.285-.477.915-.63 1.393-.346.478.295.64.914.345 1.39a.994.994 0 0 1-.874.498.969.969 0 0 1-.517-.142zm-163.26-.132a1.005 1.005 0 0 1 .334-1.39 1.015 1.015 0 1 1 1.058 1.735.987.987 0 0 1-.528.142.992.992 0 0 1-.865-.487zm170.435 4.698a1.012 1.012 0 0 1-.276-1.41 1.024 1.024 0 0 1 1.414-.264c.467.315.59.943.273 1.41a1.027 1.027 0 0 1-.843.447.995.995 0 0 1-.568-.183zm-177.601-.04a1.01 1.01 0 0 1 .264-1.41 1.017 1.017 0 0 1 1.413.273 1.01 1.01 0 0 1-.265 1.4 1.025 1.025 0 0 1-.578.183.987.987 0 0 1-.834-.446zm184.511 4.992a1.015 1.015 0 0 1 1.23-1.613c.448.335.539.974.193 1.42a1.001 1.001 0 0 1-1.423.193zm-191.421.051a1.015 1.015 0 0 1 .192-1.42 1.01 1.01 0 0 1 1.423.182 1.007 1.007 0 0 1-.193 1.42.987.987 0 0 1-.61.214 1.05 1.05 0 0 1-.812-.396zM277.3 56.402a1.015 1.015 0 0 1-.112-1.432 1.005 1.005 0 0 1 1.423-.11 1 1 0 0 1 .122 1.42 1.01 1.01 0 0 1-1.433.122zm-204.685.132a1.015 1.015 0 0 1 .122-1.43 1.016 1.016 0 0 1 1.433.11 1.022 1.022 0 0 1-.772 1.675c-.295 0-.58-.122-.783-.355zm211.027 5.53a1.001 1.001 0 0 1-.052-1.43 1.026 1.026 0 0 1 1.444-.041 1.01 1.01 0 0 1-.701 1.745 1.01 1.01 0 0 1-.691-.274zm-217.348.224a1.01 1.01 0 0 1 .04-1.432 1.014 1.014 0 0 1 1.434.031 1.031 1.031 0 0 1-.032 1.441 1.055 1.055 0 0 1-.7.274 1.01 1.01 0 0 1-.742-.314zm223.364 5.773a1 1 0 0 1 .041-1.43 1.004 1.004 0 0 1 1.433.03 1.023 1.023 0 0 1-.04 1.44 1.012 1.012 0 0 1-.693.275 1.01 1.01 0 0 1-.74-.315zm-229.371.315a1.023 1.023 0 0 1-.041-1.44 1.013 1.013 0 0 1 1.433-.031c.417.375.427 1.024.051 1.43a1.025 1.025 0 0 1-.742.314 1.02 1.02 0 0 1-.701-.273zm235.062 5.998a1.025 1.025 0 0 1 .112-1.442 1.028 1.028 0 0 1 1.434.121 1.023 1.023 0 0 1-.113 1.432 1.024 1.024 0 0 1-.66.243.997.997 0 0 1-.773-.354zm-240.733.404a1.012 1.012 0 0 1-.111-1.43 1.013 1.013 0 0 1 1.422-.121c.437.364.488 1.004.122 1.43a1.025 1.025 0 0 1-.772.355c-.234 0-.468-.07-.661-.234zm246.07 6.19a1.005 1.005 0 0 1 .192-1.42 1.015 1.015 0 0 1 1.23 1.613.99.99 0 0 1-.61.214c-.315 0-.61-.143-.813-.406zm-251.385.508a1.006 1.006 0 0 1-.193-1.42 1 1 0 0 1 1.423-.193c.446.335.528.974.192 1.42a1.018 1.018 0 0 1-.812.396.976.976 0 0 1-.61-.203zm256.353 6.373a1.02 1.02 0 0 1 .265-1.41 1.036 1.036 0 0 1 1.422.263 1.012 1.012 0 0 1-.273 1.41 1.002 1.002 0 0 1-.57.184c-.324 0-.64-.163-.844-.447zm-261.303.599a1.013 1.013 0 0 1-.274-1.41c.315-.458.945-.58 1.413-.265.457.315.579.944.274 1.4a1.017 1.017 0 0 1-.844.447.966.966 0 0 1-.569-.172zm265.898 6.535a1.017 1.017 0 0 1 .345-1.39 1.003 1.003 0 0 1 1.392.344 1.009 1.009 0 0 1-.335 1.391 1.01 1.01 0 0 1-.528.142c-.346 0-.681-.173-.874-.487zm-270.47.7a1.014 1.014 0 1 1 1.047-1.735c.486.284.64.913.354 1.39a1.033 1.033 0 0 1-.874.497.997.997 0 0 1-.528-.152zm274.677 6.677a1.01 1.01 0 0 1 .417-1.38 1.015 1.015 0 0 1 1.373.416 1.03 1.03 0 0 1-.417 1.38 1.005 1.005 0 0 1-.48.112c-.364 0-.72-.193-.893-.528zm-278.845.802a1.02 1.02 0 0 1-.416-1.38c.254-.488.873-.68 1.371-.416.499.263.681.872.417 1.37a1.004 1.004 0 0 1-.894.537c-.163 0-.325-.03-.478-.11zm282.626 6.778a1.02 1.02 0 0 1 1.85-.863 1.02 1.02 0 0 1-.498 1.35 1.038 1.038 0 0 1-.428.092c-.386 0-.751-.214-.924-.579zm-286.376.913a1.024 1.024 0 0 1-.498-1.35 1.02 1.02 0 0 1 1.351-.496c.509.233.732.842.489 1.349a1.026 1.026 0 0 1-.915.589 1 1 0 0 1-.427-.092zm289.75 6.86a1.017 1.017 0 0 1 .57-1.32 1.015 1.015 0 0 1 1.32.56 1.018 1.018 0 0 1-.57 1.318.998.998 0 0 1-.375.081c-.406 0-.783-.244-.945-.639zm-293.084 1.024a1.024 1.024 0 0 1-.568-1.318 1.02 1.02 0 0 1 1.32-.569c.518.203.773.792.57 1.32a1.02 1.02 0 0 1-1.322.567zm296.031 6.932a1.022 1.022 0 0 1 .64-1.289 1.03 1.03 0 0 1 1.29.64 1.024 1.024 0 0 1-.64 1.288.91.91 0 0 1-.324.05c-.427 0-.823-.263-.966-.689zm-298.927 1.127a1.021 1.021 0 0 1-.64-1.29 1.027 1.027 0 0 1 1.29-.639c.53.182.813.751.64 1.29a1.036 1.036 0 0 1-.965.689c-.112 0-.214-.021-.325-.05zm301.437 6.99a1.017 1.017 0 1 1 1.961-.547 1.018 1.018 0 0 1-.71 1.248c-.091.02-.184.04-.275.04-.437 0-.854-.293-.976-.74zm-303.877 1.198a1.009 1.009 0 0 1-.711-1.247 1.004 1.004 0 0 1 1.25-.711c.54.141.854.71.701 1.249h.01a1.03 1.03 0 0 1-.986.74 1.1 1.1 0 0 1-.264-.031zm305.94 7.033a1.01 1.01 0 0 1 .773-1.208 1.013 1.013 0 1 1 .437 1.979.782.782 0 0 1-.214.03c-.467 0-.894-.325-.995-.801zM21.19 143.285a1.005 1.005 0 0 1-.772-1.208c.11-.547.66-.892 1.208-.77.55.121.894.66.772 1.206a1.007 1.007 0 0 1-.985.802.786.786 0 0 1-.223-.03zm309.558 7.063a.998.998 0 0 1 .833-1.158c.549-.1 1.077.275 1.168.832a1.018 1.018 0 0 1-.832 1.168c-.062.01-.113.01-.173.01-.488 0-.915-.355-.996-.852zm-311.093 1.338a.997.997 0 0 1-.844-1.156c.092-.548.61-.934 1.169-.842.549.09.925.61.833 1.167a1.012 1.012 0 0 1-.996.852.794.794 0 0 1-.162-.02zm312.241 7.074a1.015 1.015 0 0 1 .905-1.117 1.008 1.008 0 0 1 1.117.893 1.024 1.024 0 0 1-.903 1.127h-.113a1.02 1.02 0 0 1-1.006-.903zm-313.318 1.41a1.022 1.022 0 0 1-.915-1.116h.01a1.01 1.01 0 0 1 1.118-.903c.548.061.956.559.894 1.117h.01a1.022 1.022 0 0 1-1.015.903h-.102zm314.02 7.053a1.02 1.02 0 0 1 .954-1.076 1.024 1.024 0 0 1 1.078.964 1.019 1.019 0 0 1-.956 1.065h-.06c-.54 0-.987-.415-1.017-.953zm-314.65 1.472a1.02 1.02 0 0 1-.955-1.076c.019-.558.508-.984 1.066-.954a1.016 1.016 0 0 1-.06 2.03h-.052zm314.893 7.346c0-.051.01-.101.01-.162-.01-.051-.01-.112-.01-.172 0-.559.447-1.015 1.016-1.015.56 0 1.016.446 1.016 1.015 0 .06-.01.111-.01.172 0 .05.01.111.01.162a1.01 1.01 0 0 1-1.016 1.015 1.012 1.012 0 0 1-1.016-1.015zm-316.073.173a1.018 1.018 0 0 1 2.033 0c0 .558-.457 1.015-1.017 1.015a1.019 1.019 0 0 1-1.016-1.015zm316.805 9.386a1.011 1.011 0 0 1-.956-1.065 1.007 1.007 0 0 1 1.067-.964c.56.03.986.507.966 1.065h-.01c-.03.537-.477.964-1.016.964h-.051zm-316.561-.791a1.004 1.004 0 0 1 .956-1.065 1.01 1.01 0 0 1 1.067.953 1.015 1.015 0 0 1-.956 1.076h-.06c-.539 0-.986-.426-1.007-.964zm315.819 9.295a1.016 1.016 0 0 1-.894-1.117 1.01 1.01 0 0 1 1.118-.893c.559.05.955.558.904 1.118a1.022 1.022 0 0 1-1.016.902c-.03 0-.071 0-.112-.01zm-315.127-.72a1.008 1.008 0 0 1 .904-1.117c.56-.07 1.057.335 1.118.893a1.03 1.03 0 0 1-.895 1.126h-.11a1.02 1.02 0 0 1-1.017-.902zm313.938 9.183a1.013 1.013 0 1 1 .325-1.999 1.012 1.012 0 0 1-.163 2.009c-.06 0-.112 0-.162-.01zm-312.78-.67a1.02 1.02 0 0 1 .844-1.167 1.028 1.028 0 0 1 1.168.842 1.018 1.018 0 0 1-.842 1.167c-.052.01-.113.01-.163.01-.489 0-.925-.354-1.007-.852zm311.123 9.052a1.025 1.025 0 0 1-.782-1.208c.122-.547.66-.893 1.209-.771s.894.66.783 1.208a1.02 1.02 0 0 1-.996.792c-.072 0-.142 0-.214-.021zM20.49 210.34v.01a1.021 1.021 0 0 1 .773-1.218 1.011 1.011 0 0 1 1.21.77v.012a1.01 1.01 0 0 1-.773 1.207c-.072.01-.142.021-.214.021a1.02 1.02 0 0 1-.996-.802zm307.383 8.889a1.018 1.018 0 0 1-.711-1.248 1.028 1.028 0 0 1 1.25-.71c.539.152.854.71.712 1.258-.122.447-.54.74-.987.74-.081 0-.173-.02-.264-.04zm-305.299-.538a1 1 0 0 1 .701-1.247 1.013 1.013 0 0 1 1.25.7h.01a1.021 1.021 0 0 1-.71 1.248 1.008 1.008 0 0 1-1.25-.7v-.001zm302.739 8.687a.998.998 0 0 1-.64-1.28 1.019 1.019 0 0 1 1.29-.638c.528.172.813.75.64 1.289-.152.416-.539.69-.966.69a.874.874 0 0 1-.324-.061zm-300.209-.467v-.01a.999.999 0 0 1 .64-1.279 1 1 0 0 1 1.282.64 1 1 0 0 1-.63 1.277.978.978 0 0 1-.326.062c-.427 0-.823-.274-.966-.69zm297.2 8.483a1.002 1.002 0 0 1-.57-1.309 1.004 1.004 0 0 1 1.322-.568c.519.203.772.792.57 1.319-.164.396-.55.64-.946.64a.956.956 0 0 1-.376-.082zm-294.221-.416a1.002 1.002 0 0 1 .568-1.32 1.015 1.015 0 0 1 1.321.559 1.019 1.019 0 0 1-.568 1.32c-.123.05-.255.08-.377.08-.407 0-.782-.243-.944-.64zm290.775 8.26a1.025 1.025 0 0 1-.498-1.35c.245-.506.844-.73 1.352-.497.508.244.733.842.498 1.35a1.01 1.01 0 0 1-.925.589c-.142 0-.284-.03-.427-.092zm-287.371-.385a1.001 1.001 0 0 1 .498-1.34 1.013 1.013 0 0 1 1.352.486 1.02 1.02 0 0 1-.499 1.35 1.058 1.058 0 0 1-.426.092 1.01 1.01 0 0 1-.925-.588zm283.51 8.026a1.017 1.017 0 0 1 .956-1.796c.497.264.68.873.415 1.37a1.002 1.002 0 0 1-.894.538.999.999 0 0 1-.477-.112zm-279.679-.334a1.008 1.008 0 0 1 .428-1.37 1.014 1.014 0 0 1 1.371.415 1.015 1.015 0 0 1-.894 1.492c-.366 0-.722-.203-.905-.537zm275.41 7.742a1 1 0 0 1-.345-1.39 1.01 1.01 0 0 1 1.392-.345 1.017 1.017 0 0 1-.529 1.887.99.99 0 0 1-.518-.152zm-271.161-.275a1 1 0 0 1 .345-1.39 1.004 1.004 0 0 1 1.392.345 1.002 1.002 0 0 1-.345 1.39.97.97 0 0 1-.52.143c-.344 0-.68-.172-.872-.488zm266.487 7.45a1.019 1.019 0 0 1 1.148-1.685c.467.324.58.954.274 1.41a1.013 1.013 0 0 1-.843.447c-.204 0-.397-.051-.58-.173zm-261.844-.214a1.019 1.019 0 0 1 .265-1.41 1.005 1.005 0 0 1 1.413.263 1.02 1.02 0 0 1-.264 1.411.99.99 0 0 1-.57.173 1.02 1.02 0 0 1-.844-.437zm256.803 7.124a1.018 1.018 0 0 1-.194-1.421v-.01a1.008 1.008 0 0 1 1.423-.182c.447.335.54.974.193 1.42a1.03 1.03 0 0 1-.803.396 1.05 1.05 0 0 1-.62-.203zM49.24 272.22a1.014 1.014 0 0 1 .194-1.42 1.007 1.007 0 0 1 1.422.182 1.03 1.03 0 0 1-.192 1.43 1.056 1.056 0 0 1-.62.204.991.991 0 0 1-.804-.396zm246.364 6.768a1.006 1.006 0 0 1-.122-1.431 1.016 1.016 0 1 1 .772 1.675.979.979 0 0 1-.65-.244zm-240.966-.081a1.004 1.004 0 0 1 .122-1.432 1.017 1.017 0 0 1 1.432.122 1.023 1.023 0 0 1-.121 1.431 1.01 1.01 0 0 1-.652.234c-.294 0-.578-.121-.781-.355zm235.204 6.403a1.013 1.013 0 0 1 1.392-1.471 1.02 1.02 0 0 1 .041 1.44 1.025 1.025 0 0 1-.732.315.986.986 0 0 1-.7-.284zM60.4 285.3a1 1 0 0 1 .031-1.43 1.026 1.026 0 0 1 1.443.04 1.02 1.02 0 0 1-.742 1.714.994.994 0 0 1-.732-.324zm223.354 6.018a1.002 1.002 0 0 1 .03-1.432h.011a1.013 1.013 0 0 1 1.433.031 1.022 1.022 0 0 1-.04 1.441 1.018 1.018 0 0 1-.701.274.987.987 0 0 1-.733-.314zm-217.266.06a1.014 1.014 0 0 1 1.392-1.472 1.01 1.01 0 0 1 .04 1.431.997.997 0 0 1-1.432.041zm210.854 5.601a1.022 1.022 0 0 1 .122-1.43 1.006 1.006 0 0 1 1.433.122 1.005 1.005 0 0 1-.122 1.43v-.01a.98.98 0 0 1-.651.244c-.295 0-.58-.122-.782-.356zm-204.441.143a1.024 1.024 0 0 1-.122-1.431 1.016 1.016 0 0 1 1.432-.112c.427.365.478 1.004.122 1.43a1.018 1.018 0 0 1-1.433.112zm197.743 5.164a1.018 1.018 0 0 1 .193-1.42 1.032 1.032 0 0 1 1.433.193 1.037 1.037 0 0 1-.192 1.43 1.108 1.108 0 0 1-.62.204 1.03 1.03 0 0 1-.814-.407zm-191.025.234h-.012a1.017 1.017 0 0 1-.192-1.42 1 1 0 0 1 1.422-.193.995.995 0 0 1 .194 1.42 1.016 1.016 0 0 1-.803.397c-.213 0-.427-.072-.61-.204zm184.053 4.719a1.012 1.012 0 0 1 .275-1.41 1.024 1.024 0 0 1 1.412.263 1.014 1.014 0 0 1-.274 1.41.991.991 0 0 1-.57.183c-.325 0-.65-.162-.843-.446zm-177.061.305a1.016 1.016 0 1 1 1.138-1.685c.467.314.59.943.274 1.41a1.017 1.017 0 0 1-1.412.275zm169.834 4.25a1.009 1.009 0 0 1 .347-1.39 1.01 1.01 0 0 1 1.392.336 1.02 1.02 0 0 1-.346 1.4 1.022 1.022 0 0 1-1.393-.346zm-162.578.387a1.03 1.03 0 0 1-.346-1.4c.296-.478.915-.63 1.403-.346h-.01c.487.294.64.914.355 1.4a1.018 1.018 0 0 1-.873.488c-.184 0-.357-.051-.53-.142zm155.12 3.775a1.012 1.012 0 1 1 1.788-.955 1.009 1.009 0 0 1-.416 1.37 1.014 1.014 0 0 1-.479.122c-.365 0-.71-.203-.894-.537zm-147.61.467a1.025 1.025 0 0 1-.427-1.381c.265-.487.885-.68 1.373-.416a1.01 1.01 0 0 1-.477 1.907.994.994 0 0 1-.469-.11zm139.936 3.277a1.011 1.011 0 0 1 .488-1.35 1.022 1.022 0 0 1 1.351.498 1.023 1.023 0 0 1-.497 1.35c-.132.06-.285.09-.427.09a.996.996 0 0 1-.915-.588zm-132.211.548a1.021 1.021 0 0 1-.499-1.35 1.02 1.02 0 0 1 1.352-.497c.508.243.732.842.488 1.35a.995.995 0 0 1-.914.588.997.997 0 0 1-.427-.091zm124.345 2.78a1.005 1.005 0 0 1 .558-1.319h.012a.997.997 0 0 1 1.31.568 1.008 1.008 0 0 1-.569 1.32h.01c-.121.04-.255.07-.376.07a1.01 1.01 0 0 1-.945-.639zm-116.418.619a1.001 1.001 0 0 1-.57-1.32 1.02 1.02 0 0 1 1.322-.567c.518.213.772.802.569 1.329a1.026 1.026 0 0 1-1.321.558zm108.359 2.273a1.015 1.015 0 0 1 .64-1.278c.539-.182 1.107.1 1.291.629a1.006 1.006 0 0 1-.64 1.289.878.878 0 0 1-.326.05c-.426 0-.824-.264-.965-.69zm-100.26.7a1.023 1.023 0 0 1-.64-1.289 1.014 1.014 0 0 1 1.28-.638c.54.172.824.75.641 1.278a1.019 1.019 0 0 1-1.28.65zm92.069 1.756a1.009 1.009 0 0 1 .71-1.248 1.02 1.02 0 0 1 1.25.71 1.018 1.018 0 0 1-.71 1.248c-.092.02-.183.04-.275.04-.437 0-.854-.294-.975-.75zm-83.836.761a1.025 1.025 0 0 1-.712-1.248 1.012 1.012 0 0 1 1.25-.71c.549.141.865.71.712 1.248a1.01 1.01 0 0 1-.976.74 1.27 1.27 0 0 1-.274-.03zm75.522 1.248a1.011 1.011 0 0 1 .772-1.208 1.013 1.013 0 1 1 .438 1.98c-.072.02-.154.02-.225.02a1 1 0 0 1-.985-.792zm-67.158.812a1.011 1.011 0 0 1-.772-1.208.998.998 0 0 1 1.198-.771v-.01c.55.122.906.66.784 1.208a1.02 1.02 0 0 1-.997.802c-.07 0-.142-.011-.213-.02zm58.742.741a1.014 1.014 0 0 1 .834-1.167h.01a1.005 1.005 0 0 1 1.16.842 1.009 1.009 0 0 1-.834 1.157c-.061.01-.113.02-.173.02-.489 0-.915-.355-.997-.852zm-50.286.862a1.014 1.014 0 0 1-.834-1.167c.081-.548.61-.923 1.16-.831.558.081.934.608.843 1.156a1.013 1.013 0 0 1-1.007.852c-.05 0-.102 0-.162-.01zm41.8.224a1.015 1.015 0 0 1 .905-1.117 1.022 1.022 0 0 1 1.118.903 1.016 1.016 0 0 1-.905 1.117c-.04 0-.07.01-.111.01-.508 0-.956-.386-1.007-.913zm-33.263.923a1.015 1.015 0 1 1 .214-2.02c.558.062.964.56.903 1.118-.05.526-.498.912-1.006.912-.04 0-.07-.01-.111-.01zm24.726-.285a1.02 1.02 0 0 1 .966-1.064 1.01 1.01 0 0 1 1.066.953 1.026 1.026 0 0 1-.954 1.076h-.062a1.03 1.03 0 0 1-1.016-.965zm-17.104-.1c.03-.558.508-.996 1.067-.955.559.031.986.508.966 1.067-.03.558-.508.983-1.068.953v.01a1.027 1.027 0 0 1-.965-1.075zm8.547.273c0-.558.457-1.015 1.016-1.015.57 0 1.016.457 1.016 1.015 0 .569-.446 1.014-1.016 1.014a1.012 1.012 0 0 1-1.016-1.014z"
            fill="#00B9E4" />
        
    </g>
</svg>