<svg xmlns="http://www.w3.org/2000/svg" width="500" height="550" fill="none" viewBox="0 0 500 550"><path fill="#D9D9D9" d="M144.332 18.2651C158.309 15.6042 171.559 5.22514 185.384 2.15285 196.591-.3374 208.932.736754 220.62.736754 227.15.736754 235.386 2.94226 240.862 5.98463 244.91 8.23361 244.795 23.4969 246.193 28.3922 258.125 70.1535 255.106 116.765 255.106 161.172V186.328C255.106 195.96 258.105 205.408 258.105 214.817 258.105 224.272 246.724 235.078 243.861 244.305 240.555 254.957 240.112 263.987 240.112 275.042 240.112 290.771 243.111 305.77 243.111 321.607 243.111 338.295 241.19 352.884 238.28 369.254 236.298 380.402 237.423 393 235.531 403.407 233.701 413.47 225.495 422.046 223.619 431.895 222.098 439.879 220.542 448.736 218.371 456.552 214.549 470.312 216.594 485.201 211.624 498.868 207.014 511.546 203.959 522.86 198.129 534.52 196.732 537.316 192.982 551.333 189.799 549.514 181.647 544.856 166.029 548.015 156.813 548.015 133.529 548.015 110.261 549.514 87.1743 549.514H11.455C9.49372 549.514 1.84638 550.648.542733 549.181-.539943 547.963 5.1048 539.057 5.87391 537.519 13.4126 522.442 22.8275 506.047 32.863 492.537 37.3429 486.507 40.3806 479.362 44.4416 473.045 49.0304 465.907 54.5822 459.033 58.0194 451.221 62.5701 440.878 69.8673 430.646 76.0121 421.15 85.3381 406.737 92.6126 387.168 98.4197 371.087 101.967 361.262 110.231 354.056 112.997 344.098 116.442 331.694 124.384 320.378 129.157 308.445 132.663 299.682 134.359 289.978 137.487 281.04 141.057 270.84 146.319 260.124 148.649 249.636 149.82 244.37 152.96 240.751 155.044 236.187 154.176 237.997 153.148 239.352 153.148 235.808 153.148 213.628 154.998 191.991 156.146 170.168 157.843 137.923 158.793 106.976 147.067 75.7064 143.833 67.0827 140.329 53.8911 133.655 47.2179 131.355 44.9177 130.839 37.6485 133.322 34.8896 137.85 29.8588 141.263 24.116 144.332 18.2651ZM471.019 62.5451C467.402 60.4174 460.621 57.6334 456.592 54.4534 456.625 54.5422 456.658 54.6294 456.691 54.715 460.621 64.8211 459.654 78.3713 458.69 88.8678 456.429 113.491 449.376 137.862 444.03 161.922 437.978 189.154 432.493 216.695 425.287 243.638 411.8 294.07 398.074 348.498 396.132 400.908 395.007 431.283 398.666 461.22 399.048 491.371 399.273 509.182 398.002 527.229 399.048 545.016 399.319 549.616 432.531 548.015 437.366 548.015 443.545 548.015 449.853 548.378 456.025 548.015 459.652 547.802 455.003 540.69 454.525 539.019 451.821 529.552 453.026 519.197 453.026 509.364 453.026 498.585 444.269 500.274 436.866 492.871 430.12 486.125 430.836 483.541 439.698 483.541 452.905 483.541 465.405 479.043 478.516 479.043 480.196 479.043 492.803 480.391 493.426 478.21 494.469 474.561 494.711 469.28 495.092 465.465 497.705 439.343 511.928 401.942 475.184 395.41 466.003 393.778 455.691 395.077 446.362 395.077 442.405 395.077 438.032 397.186 438.032 393.578 438.032 384.449 444.462 318.608 441.781 318.608 436.272 318.608 445.802 310.652 447.362 309.612 450.221 307.705 454.016 307.917 457.346 308.102L457.524 308.112C464.878 308.521 474.339 314.744 481.431 317.109 486.423 318.773 486.013 318.06 486.013 312.277 486.013 299.513 486.886 286.393 487.595 273.626 488.452 258.2 496.338 238.134 489.345 224.146 485.141 215.738 475.872 216.002 469.519 210.652 466.072 207.749 462.184 208.663 458.357 207.57 456.54 207.05 459.321 198.522 459.773 197.074 461.93 190.174 460.523 181.082 460.523 173.833 460.523 168.189 461.744 160.948 460.19 155.507 458.926 151.086 456.557 146.202 456.025 141.68 455.626 138.291 465.446 137.204 469.519 139.014 477.178 142.418 478.357 146.019 483.764 151.426 487.138 154.8 490.511 168.037 490.511 157.423 490.511 150.334 491.797 142.159 494.676 135.682 497.199 130.005 496.508 121.004 496.508 114.691 496.508 108.106 499.349 100.857 497.925 94.4489 496.219 86.7755 488.715 84.0362 486.013 77.9556 483.626 72.5847 476.096 65.532 471.019 62.5451Z"/></svg>