<svg xmlns="http://www.w3.org/2000/svg" width="512" height="512" viewBox="0 0 512 512"><path fill-rule="evenodd" d="M 235 23.634 C 226.134 25.319, 215.278 30.594, 206.744 37.364 C 202.049 41.089, 183.636 61.969, 184.385 62.718 C 185.135 63.468, 188.905 60.906, 196.376 54.568 C 205.583 46.758, 211.995 42.350, 218.441 39.398 C 231.545 33.399, 243.843 32.317, 252.596 36.392 C 257.279 38.573, 260.410 40.545, 278.823 52.914 C 295.751 64.286, 315.908 71.734, 320.556 68.335 C 322.249 67.097, 322.190 67, 319.747 67 C 312.857 67, 296.788 57.356, 273 38.947 C 256.775 26.389, 245.151 21.706, 235 23.634 M 345.688 25.923 C 346.891 26.455, 353.416 28.081, 360.188 29.538 C 366.960 30.994, 374.750 32.878, 377.500 33.723 C 386.389 36.455, 399.882 43.838, 411.324 52.229 C 448.467 79.468, 459.705 91.560, 465.530 110.552 C 471.130 128.808, 466.926 151.452, 455.272 165.805 C 453.349 168.172, 451.988 170.322, 452.247 170.581 C 452.506 170.840, 455.381 168.453, 458.635 165.276 C 469.661 154.513, 475.295 139.067, 475.334 119.500 C 475.353 109.823, 474.995 107.466, 472.357 99.904 C 465.680 80.763, 451.899 66.220, 418.673 43.249 C 408.560 36.257, 399.144 31.813, 388.018 28.780 C 378.946 26.307, 375.163 25.847, 360.500 25.434 C 349.100 25.113, 344.221 25.274, 345.688 25.923 M 145.660 31.048 C 121.920 35.032, 92.022 52.046, 66.789 75.930 C 61.448 80.986, 55.023 87.856, 52.511 91.197 C 44.392 101.998, 35.310 123.784, 34.460 134.500 L 33.984 140.500 36.323 133.828 C 41.878 117.983, 48.088 109.134, 67.082 90 C 88.546 68.378, 127.174 43.656, 148.500 37.891 C 159.690 34.866, 166.186 34.887, 169.454 37.957 C 173.193 41.470, 172.972 46.874, 168.923 50.923 C 167.231 52.615, 166.051 54, 166.301 54 C 168.211 54, 174.127 50.631, 174.964 49.067 C 177.590 44.161, 174.836 36.320, 169.125 32.439 C 166.052 30.351, 164.454 30.017, 158.018 30.118 C 153.883 30.182, 148.322 30.601, 145.660 31.048 M 355.075 59.087 C 347.899 60.495, 341.057 63.004, 331.837 67.607 C 324.426 71.307, 322.333 72.955, 317.356 79.004 L 311.539 86.076 304.769 85.409 C 300.242 84.962, 298 85.093, 298 85.803 C 298 86.387, 298.788 87.104, 299.750 87.396 C 304.663 88.885, 317.095 90.784, 321.500 90.717 C 324.250 90.676, 329.547 91.662, 333.272 92.909 C 339.063 94.849, 340.323 95.708, 341.977 98.839 C 343.282 101.308, 343.926 101.887, 343.956 100.618 C 344.038 97.101, 340.064 92.251, 335.231 89.969 C 332.433 88.649, 327.435 87.464, 323 87.069 L 315.500 86.403 321.229 80.701 C 324.380 77.566, 327.689 75, 328.583 75 C 332.449 75, 344.802 82.786, 351.577 89.494 C 362.722 100.528, 376.377 124.347, 387.698 152.500 C 396.221 173.695, 397.411 216.393, 389.956 233.528 C 388.767 236.263, 386.296 242.550, 384.467 247.500 C 375.834 270.857, 370.234 281.112, 359.995 292.315 C 342.588 311.361, 313.888 322.827, 275.201 326.193 C 267.467 326.866, 261.359 327.773, 261.629 328.208 C 261.898 328.644, 268.846 329, 277.070 329 C 69.189 271.059, 75.363 249.400, 84.201 225.276 C 86.316 219.503, 86.362 218.933, 84.838 217.409 C 83.314 215.886, 83.124 215.902, 82.212 217.633 M 186.210 242.750 C 180.625 250.722, 177.201 269.973, 178.519 286 C 178.903 290.675, 179.384 298.050, 179.587 302.390 C 180.123 313.841, 182.368 321.542, 187.200 328.500 C 196.008 341.183, 207.925 355.058, 222.155 369.199 C 242.535 389.451, 248.557 393.675, 265.168 399.371 C 271.906 401.681, 274.271 401.982, 284.668 401.853 C 295.516 401.719, 295.918 401.650, 289.500 401.028 C 271.259 399.260, 251.514 390.240, 235 376.132 C 208.495 353.487, 190.350 332.571, 185.146 318.661 C 182.814 312.427, 181.441 295.152, 181.625 274.341 C 181.751 260.026, 183.526 250.689, 187.630 242.750 C 188.412 241.238, 188.845 240, 188.594 240 C 188.342 240, 187.269 241.238, 186.210 242.750 M 231.286 248.451 C 221.093 251.636, 211.966 258.931, 208.148 266.943 C 205.777 271.918, 205.501 273.652, 205.514 283.500 C 205.526 293.475, 205.794 295.081, 208.394 300.735 C 209.970 304.165, 211.950 307.540, 212.793 308.235 C 214.574 309.705, 214.431 309.293, 210.699 302.193 C 205.824 292.921, 205.514 276.882, 210.034 267.851 C 212.104 263.717, 218.643 256, 220.077 256 C 220.447 256, 219.915 257.688, 218.895 259.750 C 214.785 268.064, 214.332 279.764, 217.727 289.939 C 221.172 300.267, 233.650 315.255, 242.114 319.235 C 246.928 321.498, 254.087 322.353, 260.756 321.460 L 266.500 320.691 258.135 319.342 C 244.184 317.091, 237.031 312.563, 228.620 300.661 C 219.809 288.193, 217.497 275.472, 221.925 263.833 C 225.779 253.706, 231.019 249.337, 238.163 250.295 C 242.471 250.873, 244.074 249.645, 241.094 248.050 C 238.609 246.720, 236.555 246.804, 231.286 248.451 M 174.118 274.809 C 174.043 280.122, 174.361 282.895, 175 282.500 C 176.140 281.795, 176.140 273.980, 175 269.500 C 174.453 267.349, 174.203 268.850, 174.118 274.809 M 410.483 301.050 C 405.826 315.073, 385.763 332.060, 357 346.335 C 341.967 353.796, 325.587 359.200, 297.500 365.966 C 276.672 370.983, 270.017 371.769, 262.707 370.072 C 259.572 369.344, 259.108 369.425, 260.034 370.541 C 261.828 372.703, 271.622 374.267, 278.895 373.554 C 307.883 370.710, 344.313 359.671, 368.613 346.367 C 393.943 332.500, 413.954 312.189, 413.990 300.309 C 414.006 295.203, 412.306 295.562, 410.483 301.050 M 450.396 343.250 C 448.185 345.587, 443.062 351.473, 439.012 356.330 C 415.992 383.932, 396.180 397.061, 365.171 405.265 C 354.243 408.156, 352.336 408.357, 335.200 408.426 C 317.660 408.497, 316.988 408.572, 319.044 410.237 C 323.248 413.641, 328.956 414.501, 347 414.453 C 361.673 414.414, 365.950 414.045, 373.475 412.168 C 397.882 406.083, 414.025 397.331, 427.308 382.985 C 433.099 376.730, 437.140 370.838, 450.765 348.785 C 452.561 345.878, 454.754 342.488, 455.637 341.250 C 458.545 337.178, 454.781 338.614, 450.396 343.250 M 45.044 353.539 C 29.067 368.779, 25.510 392.853, 36.185 413.500 C 43.053 426.784, 54.526 438.606, 73.976 452.442 C 103.229 473.251, 122.380 480.831, 147.500 481.540 C 156.607 481.798, 159.153 481.652, 156 481.052 C 134.495 476.963, 110.679 464.552, 79.332 441.098 C 54.746 422.702, 41.022 405.307, 37.940 388.633 C 35.832 377.229, 40.507 362.865, 49.074 354.427 C 51.783 351.759, 54 349.221, 54 348.788 C 54 346.589, 50.239 348.584, 45.044 353.539 M 197.500 405 C 197.840 405.550, 198.568 406, 199.118 406 C 199.668 406, 199.840 405.550, 199.500 405 C 199.160 404.450, 198.432 404, 197.882 404 C 197.332 404, 197.160 404.450, 197.500 405 M 289.738 419.828 C 297.062 425.350, 304.508 426.251, 309.850 422.262 C 314.467 418.816, 313.487 418.417, 300.501 418.459 C 289.864 418.494, 288.241 418.700, 289.738 419.828 M 181.106 456.353 C 181.439 456.734, 184.193 458.947, 187.225 461.273 C 190.257 463.598, 197.409 469.712, 203.119 474.860 C 216.530 486.952, 225.468 493.306, 235.989 498.231 C 251.798 505.630, 266.710 507.789, 279.320 504.505 C 290.408 501.617, 298.264 496.045, 307.385 484.599 C 312.369 478.345, 317.859 467.999, 316.195 468 C 315.813 468.001, 312.092 471.263, 307.926 475.250 C 298.575 484.200, 291.209 488.660, 280.798 491.676 C 270.504 494.657, 263.563 494.609, 251.488 491.472 C 236.216 487.504, 218.822 479.258, 204.622 469.255 C 201.939 467.365, 197.889 464.983, 195.622 463.961 C 193.355 462.939, 189.025 460.653, 186 458.882 C 182.975 457.110, 180.773 455.972, 181.106 456.353 M 336.606 459.627 C 334.857 461.820, 331.297 464.354, 327.606 466.036 C 321.729 468.714, 321.606 468.845, 324.315 469.534 C 326.430 470.072, 328.539 469.530, 332.788 467.357 C 338.979 464.190, 344.032 458.273, 341.771 456.837 C 339.872 455.632, 339.734 455.707, 336.606 459.627"/></svg>