<svg class="drawing no-bg" viewBox="0 0 1048 685" xmlns="http://www.w3.org/2000/svg"><g class="center-origin" stroke="#c9e11412" fill="none">0000<path d="M638.324 197.797 342.5 0c915.1 412 916.1-.481 915.1 482.48" stroke-width=".5"/><path d="M638.324 197.797 342.965 6.905c914.635 403.21 915.448-7.386 915.217 474.958" stroke-width=".5"/><path d="M638.324 197.797 341.187 13.81C1257.6 411.138 1256.807-.481 1258.21 481.027" stroke-width=".5"/><path d="M640.79 197.7 339.676 20.713C1257.6 410.14 1258.372-.337 1256.964 479.838" stroke-width=".5"/><path d="M640.79 197.7 342.397 27.62C1257.6 411.994 1256.732-.338 1257.103 478.29" stroke-width=".5"/><path d="M643.05 197.7 347.113 34.523c910.488 377.393 909.502-35.505 910.656 441.99" stroke-width=".6"/><path d="M643.05 197.7 346.666 41.428C1257.6 410.89 1256.673-.981 1257.224 474.726" stroke-width=".72"/><path d="M645.328 197.7 339.564 48.332c918.036 363.66 918.61-47.628 917.218 424.812" stroke-width=".84"/><path d="M645.328 197.7 334.515 55.237C1257.6 411.88 1257.111.705 1258.472 471.914" stroke-width=".96"/><path d="M647.691 197.7 339.765 62.142C1257.6 410.065 1258.597-.996 1257.682 471.045" stroke-width="1.08"/><path d="M647.691 197.7 350.278 69.047c907.322 341.08 908.103-70.044 906.698 401.365" stroke-width="1.2"/><path d="M650.277 197.7 352.044 75.951C1257.6 410.47 1258.583.596 1257.414 469.807" stroke-width="1.32"/><path d="M650.277 197.7 340.711 82.856C1257.6 410.777 1257.628.597 1258.6 469.003" stroke-width="1.44"/><path d="M653.25 197.7 329.817 89.761C1257.6 410.737 1257.405-.753 1256.619 467.855" stroke-width="1.56"/><path d="M653.25 197.7 334.688 96.666C1257.6 410.58 1256.83-.753 1258.238 466.342" stroke-width="1.68"/><path d="m656.473 197.867-305.404-94.296c906.531 306.475 906.476-104.083 907.53 361.01" stroke-width="1.8"/><path d="m656.473 197.867-298.421-87.39C1257.6 410.206 1257.143-.513 1258.49 462.782" stroke-width="1.92"/><path d="m659.824 198.188-315.06-80.807c912.836 294.263 911.992-118.374 912.3 343.79" stroke-width="2.04"/><path d="m659.824 198.188-333.083-73.902C1257.6 411.94 1258.546-.993 1257.924 459.899" stroke-width="2.16"/><path d="m662.906 198.355-334.991-67.164C1257.6 410.394 1257.369-.961 1256.627 458.994" stroke-width="2.28"/><path d="m662.906 198.355-314.022-60.26C1257.6 411.977 1256.698-.96 1257.168 458.346" stroke-width="2.4"/><path d="M665.71 198.559 363.479 145C1257.6 411.822 1256.902-.993 1256.884 457.748" stroke-width="2.52"/><path d="m665.71 198.559-314.305-46.654C1257.6 410.033 1258.333-.993 1256.92 456.975" stroke-width="2.64"/><path d="M668.32 198.914 326.271 158.81C1257.6 410.328 1257.104.242 1258.468 455.868" stroke-width="2.76"/><path d="m668.32 198.914-347.807-33.2C1257.6 410.11 1258.593.242 1257.489 454.391" stroke-width="2.88"/><path d="m670.473 199.395-326.931-26.776C1257.6 411.505 1258.08.318 1256.722 452.65" stroke-width="3"/><path d="m670.473 199.395-303.369-19.871C1257.6 411.647 1258.307.318 1256.894 450.843" stroke-width="3.12"/><path d="m672.387 199.719-312.495-13.29C1257.6 410 1258.337-.655 1258.276 449.2" stroke-width="3.24"/><path d="m672.387 199.719-343.313-6.386C1257.6 411.134 1256.668-.655 1257.236 447.888" stroke-width="3.36"/><path d="m674.305 199.898-360.563.34C1257.6 410.43 1257.92.751 1258.547 446.947" stroke-width="3.48"/><path d="m674.305 199.898-338.98 7.245C1257.6 411.572 1258.576.751 1257.817 446.28" stroke-width="3.6"/><path d="m676.191 200.223-308.323 13.825c889.732 196.82 890.638-213.72 890.154 231.64" stroke-width="3.72"/><path d="m676.191 200.223-307.06 20.73C1257.6 411.998 1257.28.326 1258.547 444.942" stroke-width="3.84"/><path d="m678.137 200.531-342.739 27.326C1257.6 410.36 1257.488.811 1256.606 443.877" stroke-width="3.96"/><path d="m678.137 200.531-369.235 34.231C1257.6 410.503 1256.962.812 1258.369 442.437" stroke-width="4.08"/><path d="m679.95 200.8-354.983 40.867C1257.6 411.885 1257.99.753 1258.52 440.714" stroke-width="4.2"/><path d="m679.95 200.8-314.945 47.772C1257.6 411.68 1257.848.753 1258.569 438.904" stroke-width="4.32"/><path d="m681.703 200.977-303.905 54.5C1257.6 411.962 1256.69.075 1258.015 437.234" stroke-width="4.44"/><path d="M681.703 200.977 345.017 262.38C1257.6 410.188 1258.195.076 1256.797 435.882" stroke-width="4.56"/><path d="m683.629 201.195-376.463 68.09C1257.6 410.028 1256.62-.65 1257.794 434.904" stroke-width="4.68"/><path d="m683.629 201.195-370.042 74.996c944.013 135.431 943.8-276.84 944.99 158.023" stroke-width="4.8"/><path d="m685.55 201.52-327.382 81.575c899.432 126.972 899.14-284.04 900.388 150.53" stroke-width="4.92"/><path d="M685.55 201.52 384.49 290C1257.6 410.375 1256.601-.944 1257.548 432.907" stroke-width="5.04"/><path d="m687.281 201.766-330.058 95.139C1257.6 411.777 1258.467.985 1257.103 431.88" stroke-width="5.16"/><path d="M687.281 201.766 309.428 303.81C1257.6 411.962 1256.611.986 1257.451 430.479" stroke-width="5.28"/><path d="M688.652 201.992 302.58 310.714C1257.6 411.392 1257.127.501 1258.48 428.78" stroke-width="5.4"/><path d="M688.652 201.992 347.501 317.62C1257.6 411.294 1257.114.501 1258.474 426.967" stroke-width="5.52"/><path d="M689.512 202.262 387.898 324.524C1257.6 411.256 1256.618.97 1257.406 425.273" stroke-width="5.64"/><path d="m689.512 202.262-318.63 129.167C1257.6 411.499 1258.502.97 1257.169 423.88" stroke-width="5.76"/><path d="M690.04 202.39 316.167 338.335c941.432 73.555 940.444-337.86 941.275 84.528" stroke-width="5.88"/></g></svg>