<svg xmlns="http://www.w3.org/2000/svg" width="515" height="515" viewBox="0 0 515 515"><path fill-rule="evenodd" d="M 285.108 25.590 C 282.731 27.955, 282.727 27.997, 284.432 32.461 C 285.375 34.931, 285.868 37.404, 285.527 37.956 C 285.186 38.507, 285.375 39.832, 285.946 40.899 C 286.678 42.266, 286.660 42.947, 285.887 43.204 C 284.518 43.661, 281.911 51, 283.118 51 C 283.603 51, 284 52.350, 284 54 C 284 55.972, 283.497 57, 282.531 57 C 281.637 57, 281.288 57.586, 281.638 58.500 C 282.060 59.599, 283.791 60, 288.107 60 C 291.369 60, 294 60.446, 294 61 C 294 61.555, 291.340 62, 288.019 62 C 281.242 62, 282.078 60.706, 279.933 74.500 C 279.249 78.900, 278.616 87.225, 278.526 93 C 278.437 98.775, 277.804 104.841, 277.120 106.479 C 276.348 108.327, 276.119 111.227, 276.516 114.116 C 276.876 116.732, 276.656 120.467, 276.014 122.637 C 274.273 128.526, 271.969 157.258, 273.127 158.653 C 273.766 159.423, 273.702 160.066, 272.938 160.538 C 272.240 160.970, 271.996 162.586, 272.324 164.609 C 272.623 166.454, 272.429 168.235, 271.892 168.566 C 271.356 168.898, 271.015 171.071, 271.135 173.394 C 271.256 175.717, 271.042 178.123, 270.661 178.740 C 270.279 179.357, 270.408 180.134, 270.945 180.466 C 271.563 180.848, 271.583 181.965, 271 183.500 C 270.453 184.938, 270.444 186.157, 270.978 186.486 C 271.479 186.796, 271.200 188.669, 270.351 190.701 C 269.447 192.866, 268.645 198.674, 268.387 204.929 C 268.147 210.743, 267.581 217.090, 267.130 219.032 C 266.521 221.652, 266.681 222.913, 267.749 223.910 C 268.717 224.814, 268.986 226.281, 268.571 228.378 C 268.230 230.095, 267.589 235.100, 267.145 239.500 C 266.702 243.900, 265.713 249.212, 264.949 251.305 C 263.832 254.362, 263.808 255.263, 264.830 255.895 C 265.849 256.525, 265.816 257.505, 264.663 260.851 C 263.873 263.146, 263.625 265.268, 264.113 265.570 C 265.296 266.301, 265.248 271.352, 264.047 272.553 C 263.523 273.077, 262.903 277.330, 262.669 282.003 C 262.289 289.588, 262.043 290.476, 260.372 290.279 C 259.342 290.158, 259.063 290.308, 259.750 290.612 C 260.438 290.917, 261 291.939, 261 292.883 C 261 293.828, 261.540 295.140, 262.200 295.800 C 263.045 296.645, 263.067 297, 262.275 297 C 261.569 297, 261.265 298.584, 261.461 301.250 C 261.635 303.634, 261.126 306.758, 260.301 308.365 C 259.434 310.052, 258.932 313.339, 259.078 316.365 C 259.214 319.189, 259.064 322.175, 258.745 323 C 258.426 323.825, 257.935 326.488, 257.655 328.918 C 257.272 332.241, 256.436 333.891, 254.282 335.576 C 252.707 336.809, 227.336 358.015, 197.901 382.701 C 148.968 423.740, 70.829 488.690, 48.332 507.024 C 43.289 511.134, 39.308 514.642, 39.486 514.819 C 39.986 515.319, 127.893 442.762, 204 379.032 C 244.385 345.215, 252.762 338.350, 255.837 336.555 C 257.108 335.813, 257.134 337.399, 256.038 348.904 C 256.017 349.127, 248.688 356.479, 239.750 365.244 L 223.500 381.178 238.347 367.589 C 255.583 351.812, 254.877 352.125, 254.608 360.400 L 254.399 366.800 246.384 375.650 C 232.009 391.524, 181.535 449.539, 183.425 448.017 C 184.437 447.202, 196.968 433.252, 211.271 417.017 C 246.647 376.865, 252.152 370.818, 252.770 371.437 C 253.269 371.936, 246.400 383.908, 244.989 385 C 244.292 385.539, 187.496 464.068, 164.707 496 C 157.053 506.725, 151.671 514.600, 152.747 513.500 C 153.824 512.400, 170.148 490.125, 189.023 464 C 242.954 389.356, 253.396 375.599, 247.574 386.857 C 246.708 388.531, 246 390.873, 246 392.062 C 246 393.251, 242.472 399.011, 238.160 404.862 C 233.848 410.713, 219.830 430.575, 207.009 449 C 194.189 467.425, 181.702 485.313, 179.262 488.750 C 176.821 492.188, 175.064 495, 175.357 495 C 176.031 495, 192.598 471.809, 215.006 439.500 C 243.532 398.370, 242.915 398.903, 232.970 424 C 231.771 427.025, 230.192 431.075, 229.461 433 C 228.730 434.925, 225.919 441.900, 223.214 448.500 C 220.509 455.100, 217.030 463.650, 215.483 467.500 C 213.935 471.350, 211.459 477.200, 209.980 480.500 C 208.501 483.800, 205.833 490.550, 204.052 495.500 C 202.270 500.450, 199.955 506.349, 198.906 508.610 C 195.789 515.330, 194.598 515, 221.953 515 L 246.906 515 248.385 511.750 C 249.967 508.274, 251.944 502.687, 263.531 468.955 C 267.601 457.105, 271.701 445.630, 272.641 443.455 C 273.582 441.280, 274.511 438.600, 274.706 437.500 C 275.431 433.412, 277.364 426.770, 286.492 397 L 295.844 366.500 296.939 292.500 C 298.276 202.140, 299.077 171.042, 300.063 171.302 C 300.478 171.411, 301.888 169.925, 303.198 168 C 307.003 162.408, 307.200 162.675, 328.456 202.283 C 350.918 244.138, 349.799 242.232, 349.268 237.742 C 348.907 234.693, 348.975 234.613, 350.410 236.397 C 351.249 237.441, 351.699 238.678, 351.409 239.147 C 351.119 239.616, 351.276 240, 351.757 240 C 352.239 240, 354.314 243.591, 356.369 247.981 C 358.423 252.370, 360.673 256.533, 361.368 257.231 C 362.063 257.929, 363.777 261.005, 365.176 264.066 C 366.576 267.127, 375.141 283.327, 384.210 300.066 C 393.278 316.805, 405.077 338.712, 410.428 348.750 C 420.093 366.879, 423.117 371.768, 418.495 361.792 C 417.168 358.928, 416.296 356.370, 416.558 356.109 C 417.610 355.056, 413.099 347.302, 479.764 464.750 C 504.766 508.797, 508.578 515, 510.644 515 C 513.905 515, 516.817 520.563, 475.134 447.171 C 393.396 303.254, 334.246 198.113, 332.668 193.930 C 332.059 192.319, 331.210 191, 330.781 191 C 330.351 191, 330 190.138, 330 189.083 C 330 188.029, 329.503 187.001, 328.896 186.799 C 327.921 186.474, 326.001 183.168, 315.619 163.937 C 314.264 161.428, 312.446 158.785, 311.578 158.065 C 309.681 156.490, 309.526 155, 311.259 155 C 313.961 155, 315.157 150.995, 314.497 144.153 C 313.647 135.333, 310 116.748, 308.885 115.550 C 308.398 115.027, 308 113.361, 308 111.847 C 308 110.334, 306.356 101.086, 304.346 91.297 C 301.462 77.247, 300.567 70.236, 300.096 57.999 L 299.500 42.498 293.678 32.749 C 290.477 27.387, 287.777 23.047, 287.678 23.105 C 287.580 23.164, 286.424 24.282, 285.108 25.590 M 246 97 C 238.575 100.793, 232.950 103.896, 233.500 103.896 C 234.050 103.896, 240.575 100.793, 248 97 C 255.425 93.207, 261.050 90.104, 260.500 90.104 C 259.950 90.104, 253.425 93.207, 246 97 M 196.388 126.430 C 159.600 144.817, 129.775 159.892, 130.110 159.930 C 130.446 159.969, 161.046 144.935, 198.110 126.522 C 235.175 108.109, 265 93.034, 264.388 93.022 C 263.776 93.010, 233.176 108.044, 196.388 126.430 M 216 111.500 C 209.125 115.018, 203.950 117.896, 204.500 117.896 C 205.050 117.896, 211.125 115.018, 218 111.500 C 224.875 107.982, 230.050 105.104, 229.500 105.104 C 228.950 105.104, 222.875 107.982, 216 111.500 M 226.500 129.465 C 203.950 140.659, 185.767 149.858, 186.093 149.909 C 186.419 149.959, 205.319 140.804, 228.093 129.565 C 250.867 118.326, 269.050 109.127, 268.500 109.122 C 267.950 109.117, 249.050 118.271, 226.500 129.465 M 189 124.500 C 182.125 128.018, 176.950 130.896, 177.500 130.896 C 178.050 130.896, 184.125 128.018, 191 124.500 C 197.875 120.982, 203.050 118.104, 202.500 118.104 C 201.950 118.104, 195.875 120.982, 189 124.500 M 127.500 184.565 C 57.100 219.978, -0.108 248.964, 0.370 248.977 C 1.497 249.007, 252.437 123.148, 254.749 121.393 C 255.712 120.662, 256.275 120.089, 256 120.120 C 255.725 120.151, 197.900 149.151, 127.500 184.565 M 165 136 C 159.775 138.694, 155.950 140.898, 156.500 140.898 C 157.050 140.898, 161.775 138.694, 167 136 C 172.225 133.306, 176.050 131.102, 175.500 131.102 C 174.950 131.102, 170.225 133.306, 165 136 M 136.500 196.566 C 65.550 231.983, 7.950 260.963, 8.500 260.967 C 9.050 260.971, 67.550 231.993, 138.500 196.571 C 209.450 161.150, 267.050 132.169, 266.500 132.171 C 265.950 132.172, 207.450 161.150, 136.500 196.566 M 212.500 164.836 C 159.881 192.044, 67.212 239.416, 40.250 252.890 C 30.212 257.906, 22 262.271, 22 262.590 C 22 263.205, 99.591 224.060, 162 191.959 C 182.625 181.350, 213.450 165.553, 230.500 156.854 C 247.550 148.156, 260.825 141.041, 260 141.044 C 259.175 141.047, 237.800 151.753, 212.500 164.836 M 129.500 152.990 C 117.400 158.951, 107.784 163.867, 108.132 163.914 C 108.480 163.961, 118.830 159.086, 131.132 153.080 C 143.434 147.075, 153.050 142.159, 152.500 142.156 C 151.950 142.153, 141.600 147.029, 129.500 152.990 M 165 159.500 C 157.025 163.567, 150.950 166.895, 151.500 166.895 C 152.050 166.895, 159.025 163.567, 167 159.500 C 174.975 155.433, 181.050 152.105, 180.500 152.105 C 179.950 152.105, 172.975 155.433, 165 159.500 M 250.750 161.060 C 244.287 164.336, 239 167.241, 239 167.516 C 239 167.791, 244.400 165.308, 251 162 C 257.600 158.692, 263 155.763, 263 155.492 C 263 154.811, 263.749 154.471, 250.750 161.060 M 79 184.500 C 58.925 194.615, 42.950 202.891, 43.500 202.891 C 44.050 202.891, 60.925 194.615, 81 184.500 C 101.075 174.385, 117.050 166.109, 116.500 166.109 C 115.950 166.109, 99.075 174.385, 79 184.500 M 227 179.576 C 212.975 187.010, 176.863 205.944, 146.750 221.650 C 116.638 237.357, 92 250.392, 92 250.618 C 92 250.844, 94.813 249.614, 98.250 247.885 C 116.041 238.937, 253.102 167.231, 253.856 166.477 C 255.699 164.634, 249.316 167.748, 227 179.576 M 198.761 187.861 C 179.654 197.643, 163.679 206.023, 163.261 206.485 C 162.315 207.528, 232.140 172.119, 233.450 170.891 C 235.214 169.237, 233.566 170.043, 198.761 187.861 M 126 178.500 C 118.025 182.567, 111.950 185.895, 112.500 185.895 C 113.050 185.895, 120.025 182.567, 128 178.500 C 135.975 174.433, 142.050 171.105, 141.500 171.105 C 140.950 171.105, 133.975 174.433, 126 178.500 M 250.750 182.062 C 246.488 184.241, 243 186.249, 243 186.523 C 243 186.798, 246.600 185.212, 251 183 C 255.400 180.788, 259 178.758, 259 178.489 C 259 177.815, 259.374 177.653, 250.750 182.062 M 52 190 C 46.775 192.694, 42.950 194.898, 43.500 194.898 C 44.050 194.898, 48.775 192.694, 54 190 C 59.225 187.306, 63.050 185.102, 62.500 185.102 C 61.950 185.102, 57.225 187.306, 52 190 M 231.750 192.061 C 226.387 194.788, 222 197.244, 222 197.519 C 222 197.794, 226.500 195.760, 232 193 C 237.500 190.240, 242 187.761, 242 187.491 C 242 186.813, 242.562 186.562, 231.750 192.061 M 197.732 216.888 C 170.360 231.636, 147.635 244.051, 147.232 244.478 C 146.156 245.619, 149.228 244.016, 198.500 217.733 C 244.564 193.161, 250.241 190.019, 248.500 190.054 C 247.950 190.064, 225.105 202.140, 197.732 216.888 M 86 198 C 79.675 201.243, 74.950 203.897, 75.500 203.897 C 76.050 203.897, 81.675 201.243, 88 198 C 94.325 194.757, 99.050 192.103, 98.500 192.103 C 97.950 192.103, 92.325 194.757, 86 198 M 256.399 199.588 C 227.032 215.103, 212 223.258, 212 223.675 C 212 223.951, 216.613 221.718, 222.250 218.713 C 227.887 215.707, 239.137 209.778, 247.250 205.537 C 260.087 198.825, 263.166 197, 261.649 197 C 261.456 197, 259.093 198.165, 256.399 199.588 M 189.226 214.383 C 172.025 223.366, 157.625 231.059, 157.226 231.478 C 156.224 232.531, 163.234 228.992, 194.250 212.789 C 216.918 200.946, 222.468 197.854, 220.750 198.025 C 220.613 198.038, 206.427 205.399, 189.226 214.383 M 17 215 C 7.375 219.892, -0.050 223.894, 0.500 223.894 C 1.050 223.894, 9.375 219.892, 19 215 C 28.625 210.108, 36.050 206.106, 35.500 206.106 C 34.950 206.106, 26.625 210.108, 17 215 M 247.500 211 C 240.153 215.155, 239.212 216.463, 246.097 212.950 C 251.968 209.955, 256.649 207.005, 255.500 207.024 C 254.950 207.034, 251.350 208.823, 247.500 211 M 54 213.500 C 48.225 216.469, 43.950 218.897, 44.500 218.897 C 45.050 218.897, 50.225 216.469, 56 213.500 C 61.775 210.531, 66.050 208.103, 65.500 208.103 C 64.950 208.103, 59.775 210.531, 54 213.500 M 231.222 219.971 C 219.925 226.455, 219.487 227.371, 230.500 221.483 C 240.581 216.093, 240.492 216.148, 239.917 215.610 C 239.688 215.396, 235.775 217.359, 231.222 219.971 M 227.703 234.960 C 209.114 245.301, 193.589 254.101, 193.203 254.516 C 191.641 256.194, 258.896 219.339, 260.964 217.384 C 263.326 215.152, 263.014 215.317, 227.703 234.960 M 107.750 234.058 C 96.888 239.532, 88 244.235, 88 244.510 C 88 244.785, 97 240.505, 108 235 C 119 229.495, 128 224.768, 128 224.495 C 128 223.807, 129.494 223.102, 107.750 234.058 M 253.257 227.773 C 249.824 229.739, 247.216 231.550, 247.462 231.796 C 247.880 232.214, 255.028 228.374, 259.473 225.345 C 263.321 222.721, 259.407 224.250, 253.257 227.773 M 128.776 245.839 C 115.177 252.866, 103.702 258.998, 103.276 259.466 C 102.336 260.497, 152.102 235.112, 153.450 233.873 C 155.255 232.214, 153.400 233.114, 128.776 245.839 M 172.750 244.062 C 168.488 246.241, 165 248.249, 165 248.523 C 165 248.798, 168.600 247.212, 173 245 C 177.400 242.788, 181 240.758, 181 240.489 C 181 239.815, 181.374 239.653, 172.750 244.062 M 176 271.719 C 145.475 289.046, 103.635 312.622, 83.021 324.111 C 62.408 335.600, 45.941 345, 46.427 345 C 48.995 345, 232.878 241.513, 231.917 240.608 C 231.688 240.393, 206.525 254.393, 176 271.719 M 242.250 253.744 C 234.963 257.982, 229 261.780, 229 262.184 C 229 262.750, 254.998 248.012, 256.917 246.359 C 259.280 244.323, 253.088 247.440, 242.250 253.744 M 205.763 267.316 C 186.112 278.490, 169.690 288.012, 169.267 288.476 C 168.250 289.596, 165.834 290.928, 205.500 268.496 C 237.525 250.386, 243.265 247, 241.945 247 C 241.695 247, 225.413 256.142, 205.763 267.316 M 155.750 253.062 C 151.488 255.241, 148 257.249, 148 257.523 C 148 257.798, 151.600 256.212, 156 254 C 160.400 251.788, 164 249.758, 164 249.489 C 164 248.815, 164.374 248.653, 155.750 253.062 M 81.750 255.561 C 76.938 258.014, 73 260.246, 73 260.521 C 73 260.795, 77.050 258.986, 82 256.500 C 86.950 254.014, 91 251.759, 91 251.490 C 91 250.814, 91.468 250.608, 81.750 255.561 M 33.500 271.516 C 14.800 281.110, -0.158 288.969, 0.260 288.980 C 1.139 289.003, 33.817 272.664, 55 261.609 C 62.975 257.447, 69.050 254.049, 68.500 254.058 C 67.950 254.066, 52.200 261.922, 33.500 271.516 M 145.500 266.598 C 132.850 273.499, 95.275 293.803, 62 311.718 C 28.725 329.633, 1.050 344.727, 0.500 345.260 C -0.966 346.680, 2.200 345.017, 51 318.744 C 144.272 268.526, 171.079 253.793, 168.750 254.025 C 168.613 254.039, 158.150 259.696, 145.500 266.598 M 182.796 259.810 C 178.009 262.430, 173.734 264.969, 173.296 265.452 C 172.361 266.482, 190.050 257.142, 191.450 255.866 C 193.209 254.263, 191.539 255.024, 182.796 259.810 M 229.097 273.405 C 214.115 282.428, 201.551 290.150, 201.178 290.565 C 200.004 291.873, 254.607 259.581, 256.450 257.878 C 258.907 255.607, 254.432 258.148, 229.097 273.405 M 138.750 262.062 C 134.488 264.241, 131 266.249, 131 266.523 C 131 266.798, 134.600 265.212, 139 263 C 143.400 260.788, 147 258.758, 147 258.489 C 147 257.815, 147.374 257.653, 138.750 262.062 M 87.750 267.059 C 80.188 270.884, 74 274.239, 74 274.514 C 74 274.788, 80.300 271.857, 88 268 C 95.700 264.143, 102 260.765, 102 260.493 C 102 259.810, 102.935 259.379, 87.750 267.059 M 364 269 C 366.212 273.400, 368.247 277, 368.522 277 C 368.797 277, 367.212 273.400, 365 269 C 362.788 264.600, 360.753 261, 360.478 261 C 360.203 261, 361.788 264.600, 364 269 M 184.500 287.508 C 160.850 301.357, 110 330.793, 71.500 352.924 C 33 375.054, 1.050 393.640, 0.500 394.227 C -0.802 395.615, -4.499 397.686, 42 370.979 C 123.642 324.086, 226.716 264.425, 227.917 263.367 C 231.176 260.495, 220.406 266.483, 184.500 287.508 M 120.750 271.561 C 115.938 274.014, 112 276.246, 112 276.521 C 112 276.795, 116.050 274.986, 121 272.500 C 125.950 270.014, 130 267.759, 130 267.490 C 130 266.814, 130.468 266.608, 120.750 271.561 M 238.998 274.944 C 235.854 277.186, 150.665 329.358, 101 359.458 C 80.375 371.958, 63.050 382.665, 62.500 383.252 C 60.756 385.115, 238.701 277.335, 241.433 274.874 C 243.329 273.167, 241.414 273.222, 238.998 274.944 M 74 282.866 C 64.925 287.714, 44.900 298.315, 29.500 306.425 C 14.100 314.535, 1.050 321.634, 0.500 322.200 C -1.114 323.860, 88.561 276.713, 90.450 274.908 C 92.217 273.220, 90.535 274.033, 74 282.866 M 251.500 278.138 C 235.045 288.340, 215 301.293, 215 301.725 C 215 302.003, 216.012 301.572, 217.250 300.767 C 218.488 299.963, 227.938 294.028, 238.250 287.579 C 254.282 277.553, 258.174 274.911, 256.750 275.019 C 256.613 275.029, 254.250 276.433, 251.500 278.138 M 54.750 284.059 C 47.188 287.884, 41 291.239, 41 291.514 C 41 291.788, 47.300 288.857, 55 285 C 62.700 281.143, 69 277.765, 69 277.493 C 69 276.810, 69.935 276.379, 54.750 284.059 M 101.750 281.561 C 96.938 284.014, 93 286.246, 93 286.521 C 93 286.795, 97.050 284.986, 102 282.500 C 106.950 280.014, 111 277.759, 111 277.490 C 111 276.814, 111.468 276.608, 101.750 281.561 M 234 297.124 C 223.825 303.770, 215.050 309.694, 214.500 310.288 C 213.285 311.599, 214.114 311.094, 235.500 297.492 C 253.374 286.124, 255.009 284.988, 253.450 285.019 C 252.928 285.030, 244.175 290.477, 234 297.124 M 80.750 292.561 C 75.938 295.014, 72 297.246, 72 297.521 C 72 297.795, 76.050 295.986, 81 293.500 C 85.950 291.014, 90 288.759, 90 288.490 C 90 287.814, 90.468 287.608, 80.750 292.561 M 177.500 304.148 C 165.400 311.365, 132.550 330.769, 104.500 347.269 C 76.450 363.769, 53.050 377.724, 52.500 378.281 C 50.474 380.332, 196.979 294.202, 199.450 291.889 C 201.565 289.909, 198.577 291.578, 177.500 304.148 M 226.011 313.089 C 209.793 324.082, 196.068 333.565, 195.511 334.162 C 194.478 335.270, 240.702 304.668, 251.416 297.151 C 254.669 294.868, 256.919 293.023, 256.416 293.050 C 255.912 293.078, 242.230 302.095, 226.011 313.089 M 15.750 304.059 C 7.087 308.433, 0 312.237, 0 312.512 C 0 312.787, 7.200 309.406, 16 305 C 24.800 300.594, 32 296.766, 32 296.494 C 32 295.809, 33.122 295.287, 15.750 304.059 M 59.750 303.561 C 54.938 306.014, 51 308.246, 51 308.521 C 51 308.795, 55.050 306.986, 60 304.500 C 64.950 302.014, 69 299.759, 69 299.490 C 69 298.814, 69.468 298.608, 59.750 303.561 M 218 327.127 C 200.675 339.253, 169.287 361.101, 148.250 375.680 C 127.212 390.258, 110 402.391, 110 402.641 C 110 403.155, 109.998 403.157, 145.500 378.651 C 228.740 321.194, 251.851 304.973, 250.385 305.040 C 249.898 305.063, 235.325 315.002, 218 327.127 M 37.750 315.062 C 33.487 317.241, 30 319.249, 30 319.523 C 30 319.798, 33.600 318.212, 38 316 C 42.400 313.788, 46 311.758, 46 311.489 C 46 310.815, 46.374 310.653, 37.750 315.062 M 189.500 317.124 C 182.265 321.726, 175.986 326.512, 182 322.841 C 194.337 315.309, 199.285 311.909, 197.750 312.018 C 197.613 312.028, 193.900 314.325, 189.500 317.124 M 207.044 345.526 C 182.043 363.944, 161.118 379.548, 160.544 380.201 C 159.253 381.671, 157.445 382.975, 210 344.514 C 260.262 307.731, 254.564 311.995, 253.417 312.019 C 252.912 312.030, 232.045 327.108, 207.044 345.526 M 57.733 350.870 C 26.511 368.377, 0.636 383.054, 0.233 383.486 C -0.891 384.690, 1.304 383.487, 50 356.216 C 75.025 342.202, 99.888 328.279, 105.250 325.276 C 113.467 320.675, 116.148 318.910, 114.750 319.020 C 114.612 319.030, 88.955 333.363, 57.733 350.870 M 224.500 341.661 C 177.337 377.235, 55.111 468.685, 27 489.431 C 2.853 507.252, -2.555 511.420, 1 509.471 C 6.204 506.617, 247.505 326.197, 253.964 320.330 C 258.409 316.293, 251.519 321.281, 224.500 341.661 M 14.750 327.062 C 10.487 329.241, 7 331.249, 7 331.523 C 7 331.798, 10.600 330.212, 15 328 C 19.400 325.788, 23 323.758, 23 323.489 C 23 322.815, 23.374 322.653, 14.750 327.062 M 246.840 333.207 C 237.520 340.550, 158.693 405.049, 154 409.173 C 147.678 414.727, 185.786 384.218, 221.500 355.131 C 255.067 327.794, 253.623 329, 252.790 329 C 252.454 329, 249.777 330.893, 246.840 333.207 M 175.137 347.476 C 168.337 352.069, 162.262 356.373, 161.637 357.041 C 161.012 357.710, 166.688 354.141, 174.250 349.111 C 181.813 344.080, 188 339.748, 188 339.482 C 188 338.766, 188.419 338.506, 175.137 347.476 M 219 375.168 C 192.662 399.598, 148.365 440.323, 72.693 509.678 C 69.499 512.605, 67.159 515, 67.492 515 C 68.098 515, 125.422 462.631, 200.500 393.489 C 254.569 343.694, 253.176 344.999, 252.287 345.011 C 251.854 345.017, 236.875 358.588, 219 375.168 M 22.217 357.893 C 2.790 368.700, -6.450 374.285, 3.500 369.203 C 12.707 364.501, 45.420 346.013, 44.500 346.032 C 43.950 346.043, 33.922 351.380, 22.217 357.893 M 241.599 371.338 C 233.910 380.118, 178.486 441.117, 126.513 498 C 117.719 507.625, 111.382 514.825, 112.431 514 C 113.479 513.175, 137.324 487.305, 165.418 456.510 C 193.513 425.716, 223.925 392.490, 233 382.676 C 250.056 364.229, 252.857 360.938, 251.372 361.088 C 250.892 361.136, 246.495 365.749, 241.599 371.338 M 149.003 388.090 C 143.779 391.942, 139.054 395.614, 138.503 396.249 C 137.303 397.630, 137.211 397.693, 149.750 388.570 C 157.610 382.851, 160.035 380.823, 158.750 381.043 C 158.613 381.066, 154.226 384.237, 149.003 388.090 M 59.418 409.285 C 36.823 423.703, 17.248 436.322, 15.918 437.326 L 13.500 439.152 16 437.740 C 21.405 434.685, 101 383.824, 101 383.425 C 101 382.734, 102.082 382.061, 59.418 409.285 M 433.500 392 C 435.986 396.950, 438.245 401, 438.520 401 C 438.795 401, 436.986 396.950, 434.500 392 C 432.014 387.050, 429.755 383, 429.480 383 C 429.205 383, 431.014 387.050, 433.500 392 M 19.331 397.270 C 8.787 403.443, 0.308 408.641, 0.487 408.821 C 0.867 409.200, 39 387.004, 39 386.403 C 39 385.745, 39.236 385.615, 19.331 397.270 M 444.397 412.730 C 449.564 423.090, 449.587 423.162, 447.473 422.351 C 446.518 421.985, 447.351 424.154, 449.692 428.133 C 453.276 434.224, 454.263 435.423, 456.500 436.408 C 457.166 436.701, 457.166 437.123, 456.499 437.674 C 455.853 438.206, 456.297 440.086, 457.749 442.962 C 458.987 445.416, 460 446.823, 460 446.089 C 460 444.997, 460.281 444.988, 461.553 446.044 C 462.407 446.753, 460.607 442.241, 457.553 436.018 C 454.499 429.795, 452 424.133, 452 423.435 C 452 422.738, 451.595 422.017, 451.100 421.833 C 450.604 421.650, 448.297 417.900, 445.973 413.500 C 440.009 402.212, 438.876 401.658, 444.397 412.730 M 139.500 460.066 C 91.403 505.368, 77.159 519.058, 84.460 512.969 C 86.088 511.611, 107.405 491.600, 131.831 468.500 C 156.258 445.400, 179.676 423.259, 183.871 419.299 C 188.067 415.338, 191.275 412.082, 191 412.064 C 190.725 412.046, 167.550 433.647, 139.500 460.066 M 124.500 432.612 C 111.300 443.315, 99.825 452.798, 99 453.686 C 98.175 454.573, 108.855 446.201, 122.734 435.080 C 144.395 417.724, 150.356 412.693, 148.809 413.077 C 148.639 413.119, 137.700 421.910, 124.500 432.612 M 65.629 432.481 C 61.300 435.429, 57.250 438.387, 56.629 439.054 C 56.008 439.721, 59.663 437.495, 64.750 434.108 C 69.838 430.720, 74 427.735, 74 427.474 C 74 426.770, 74.113 426.703, 65.629 432.481 M 85.077 434.514 C 80.995 437.501, 77.170 440.471, 76.577 441.114 C 75.263 442.541, 86.517 434.781, 90.581 431.458 C 95.730 427.249, 92.729 428.915, 85.077 434.514 M 46.629 445.481 C 42.300 448.429, 38.250 451.387, 37.629 452.054 C 37.008 452.721, 40.663 450.495, 45.750 447.108 C 50.837 443.720, 55 440.735, 55 440.474 C 55 439.770, 55.113 439.703, 46.629 445.481 M 23.133 461.479 C 17.981 464.975, 13.256 468.381, 12.633 469.049 C 12.010 469.716, 16.337 467.043, 22.250 463.109 C 28.163 459.174, 33 455.740, 33 455.478 C 33 454.768, 33.215 454.638, 23.133 461.479 M 141.958 494.250 C 133.548 503.738, 125.971 512.400, 125.121 513.500 L 123.574 515.500 125.645 513.500 C 130.148 509.152, 158.409 477, 157.728 477 C 157.465 477, 150.369 484.762, 141.958 494.250"/></svg>