<svg xmlns="http://www.w3.org/2000/svg" width="512" height="512" viewBox="0 0 512 512" version="1.1">
	<path d="M 89.485 4.250 C 89.730 6.588, 90.163 10.637, 90.447 13.250 L 90.962 18 82.112 18 C 65.720 18, 51.905 21.443, 35.783 29.546 C 24.716 35.108, 13.010 39.710, 8 40.466 C 5.525 40.840, 2.713 41.369, 1.750 41.640 C 0.113 42.103, 0 45.363, 0 91.970 L 0 141.806 5.250 145.277 C 22.271 156.533, 49.477 166.213, 73.250 169.471 C 78.472 170.187, 78.434 170.103, 77.067 178.066 C 75.602 186.605, 75.066 194.406, 74.908 209.500 C 74.789 220.788, 74.449 223.855, 73.153 225.330 C 70.779 228.033, 70.528 243.326, 72.422 270 C 74.284 296.224, 76.349 364.487, 75.847 383.200 C 75.441 398.309, 77.113 396.033, 58.751 406.473 C 41.445 416.311, 33.191 421.979, 27.963 427.612 C 19.728 436.484, 19.101 442.786, 25.723 450.115 C 30.556 455.465, 35.895 458.434, 45.500 461.112 C 56.355 464.140, 76.250 464.343, 90.236 461.569 C 95.591 460.507, 100.195 459.862, 100.469 460.135 C 100.742 460.408, 100.428 462.055, 99.771 463.795 C 98.734 466.544, 98.842 467.311, 100.596 469.660 C 104.817 475.314, 114.906 477.976, 132 477.945 C 158.477 477.898, 179.560 466.934, 193.819 445.795 C 197.946 439.676, 205.114 422.956, 207.878 413 C 210.889 402.157, 212.060 395.700, 212.914 385.248 C 213.330 380.160, 213.982 375.685, 214.363 375.304 C 214.744 374.923, 220.331 375.687, 226.778 377.004 C 235.502 378.784, 242.790 379.499, 255.277 379.800 L 272.053 380.203 273.671 383.351 C 281.095 397.801, 294.636 411.909, 309.250 420.423 C 311.863 421.945, 313.995 423.485, 313.988 423.845 C 313.982 424.205, 310.051 426.525, 305.253 429 C 287.131 438.348, 273.083 450.037, 268.004 459.993 C 263.845 468.145, 266.466 477.419, 274.020 481.277 C 277.250 482.927, 280.557 483.012, 320 482.464 C 386.883 481.535, 407.920 479.804, 423.500 473.947 C 441.761 467.082, 452.047 453.754, 451.983 437.040 C 451.913 418.751, 439.938 396.363, 422.542 382 C 418.878 378.975, 415.507 376.366, 415.050 376.203 C 414.592 376.040, 418.376 371.765, 423.458 366.703 C 438.901 351.320, 443.586 338.715, 442.792 314.689 C 442.273 298.988, 440.032 291.456, 431.941 278.214 C 429.127 273.610, 426.976 269.694, 427.162 269.512 C 427.348 269.330, 430.425 268.206, 434 267.015 C 461.790 257.751, 491.452 229.631, 500.236 204.223 C 504.058 193.166, 504.546 179.791, 501.448 171 C 498.652 163.066, 489.983 154.419, 483.916 153.513 C 475.442 152.247, 473.330 154.116, 463.055 171.977 C 455.059 185.875, 444.540 199.419, 434.065 209.300 C 425.203 217.659, 411.237 228.080, 403.411 232.172 L 397.322 235.355 388.411 227.551 C 360.976 203.526, 336.276 191.660, 292.500 181.476 C 267.179 175.586, 229.012 163.073, 215.390 156.197 C 204.971 150.937, 197.210 140.476, 196.417 130.622 C 196.191 127.805, 195.536 119.233, 194.962 111.573 C 193.044 85.973, 185.724 57.795, 172.459 24.950 C 167.695 13.152, 163.367 2.695, 162.843 1.712 C 162.020 0.170, 160.707 -0.037, 153.307 0.212 L 144.725 0.500 141.732 8.750 C 140.086 13.287, 138.338 17, 137.847 17 C 137.357 17, 134.488 13.175, 131.472 8.500 L 125.988 0 107.513 0 L 89.038 0 89.485 4.250 M 188.060 132.400 C 183.841 139.767, 173.538 150.785, 166.497 155.458 C 147.910 167.796, 127.394 172.663, 97.845 171.746 L 81.189 171.229 80.620 173.864 C 80.307 175.314, 79.502 187.132, 78.831 200.127 C 77.724 221.562, 77.760 223.903, 79.225 225.368 C 80.113 226.256, 82.234 231.599, 83.938 237.241 C 91.642 262.741, 104.069 291.100, 116.441 311.414 C 126.524 327.967, 131.155 333.399, 142.815 342.344 C 143.898 343.175, 144.012 339.124, 143.460 319.427 C 142.797 295.757, 143.939 266.759, 146.077 253 C 148.672 236.297, 154.083 216.039, 159.171 203.978 C 168.764 181.238, 185.654 162.929, 202.069 157.477 L 207.011 155.836 202.471 150.668 C 197.131 144.590, 193.268 137.174, 192.203 130.955 L 191.439 126.500 188.060 132.400 M 213.348 344.656 C 213.707 350.516, 214 358.792, 214 363.047 C 214 371.993, 212.253 370.776, 229.913 374.131 C 240.272 376.099, 271 377.947, 271 376.602 C 271 376.235, 270.368 374.424, 269.596 372.575 C 268.299 369.472, 267.439 368.980, 258.346 366.140 C 242.196 361.095, 227.734 351.228, 218 338.612 C 216.075 336.117, 214.094 334.059, 213.598 334.038 C 213.077 334.016, 212.971 338.501, 213.348 344.656 M 131.882 339.063 C 131.816 340.403, 131.847 341.929, 131.949 342.453 C 132.489 345.218, 129.625 385.393, 127.527 404.473 C 126.199 416.558, 125.263 426.596, 125.447 426.780 C 126.083 427.417, 130.056 421.105, 133.061 414.682 C 139.417 401.101, 144 375.225, 144 352.923 C 144 346.390, 143.878 346.053, 140.750 343.907 C 138.963 342.681, 136.262 340.541, 134.750 339.152 L 132 336.626 131.882 339.063" stroke="none" fill="black" fill-rule="evenodd"/>
</svg>