<svg xmlns="http://www.w3.org/2000/svg" width="512" height="512" viewBox="0 0 512 512"><path fill-rule="evenodd" d="M 317.637 174.505 C 317.175 175.709, 316.220 176.084, 314.473 175.750 C 311.431 175.169, 311.486 174.960, 309.964 193 C 308.587 209.333, 314.098 204.778, 271.500 224.793 C 201.634 257.622, 131.282 289.497, 39.250 330.022 C 16.775 339.919, -0 347.858, -0 348.597 C -0 349.456, 2.930 348.594, 8.750 346.024 C 96.354 307.340, 186.033 266.590, 274 225.496 C 309.978 208.689, 309.371 208.895, 308.381 213.844 C 307.280 219.350, 242.624 251.773, 142.500 297.028 C 124.224 305.288, 110.157 311.727, 88.500 321.746 C 55.112 337.192, 3.422 360.168, 1.784 360.291 C 0.514 360.387, 0 361.259, 0 363.320 C 0 365.239, 0.421 366.043, 1.250 365.706 C 3.793 364.672, 58.306 339.867, 82.500 328.735 C 119.175 311.859, 180.583 283.040, 229 259.981 C 296.054 228.046, 298 227.223, 298 230.776 C 298 232.390, 292.723 235.371, 270.251 246.452 C 254.989 253.978, 240.357 261.455, 237.736 263.067 C 235.115 264.680, 232.414 266.004, 231.735 266.009 C 230.219 266.020, 208.902 276.261, 205.188 278.762 C 203.710 279.758, 200.700 281.178, 198.500 281.917 C 196.300 282.656, 180.816 289.952, 164.092 298.130 C 147.367 306.309, 133.164 313, 132.530 313 C 131.896 313, 130.411 313.900, 129.230 315 C 128.050 316.100, 126.265 317, 125.264 317 C 124.264 317, 122.335 317.777, 120.979 318.727 C 119.623 319.677, 117.970 320.534, 117.306 320.631 C 115.150 320.948, 103.188 326.887, 102.515 327.975 C 102.156 328.557, 101.443 328.774, 100.931 328.457 C 100.419 328.141, 100 328.385, 100 329 C 100 329.615, 99.550 329.840, 99 329.500 C 98.450 329.160, 98 329.385, 98 330 C 98 330.615, 97.550 330.840, 97 330.500 C 96.450 330.160, 96 330.359, 96 330.941 C 96 331.523, 94.938 332, 93.640 332 C 92.341 332, 89.678 333.087, 87.721 334.415 C 85.764 335.743, 83.901 336.568, 83.581 336.248 C 83.262 335.928, 83 336.192, 83 336.833 C 83 337.475, 81.936 338, 80.635 338 C 79.334 338, 77.144 338.885, 75.769 339.967 C 74.393 341.049, 72.983 341.649, 72.634 341.301 C 72.285 340.952, 72 341.218, 72 341.892 C 72 342.566, 71.550 342.840, 71 342.500 C 70.450 342.160, 70 342.359, 70 342.941 C 70 343.523, 68.936 344, 67.635 344 C 66.334 344, 64.144 344.885, 62.769 345.967 C 61.393 347.049, 59.983 347.649, 59.634 347.301 C 59.285 346.952, 59 347.218, 59 347.892 C 59 348.566, 58.550 348.840, 58 348.500 C 57.450 348.160, 57 348.385, 57 349 C 57 349.615, 56.550 349.840, 56 349.500 C 55.450 349.160, 55 349.359, 55 349.941 C 55 350.523, 54.663 350.929, 54.250 350.841 C 52.969 350.570, 18.698 365.654, 6.500 371.857 C 3.750 373.256, 1.163 374.310, 0.750 374.200 C 0.337 374.090, 0 375.536, 0 377.413 L 0 380.826 16.250 373.301 C 72.001 347.481, 131.439 319.024, 209 281.016 C 313.228 229.940, 307.887 232.328, 306.623 237.366 C 305.559 241.604, 189.300 301.211, 99.970 343.317 C 87.740 349.082, 77.500 353.951, 53.500 365.414 C 45.250 369.355, 29.842 376.611, 19.259 381.539 C 0.176 390.427, 0.019 390.526, 0.009 393.690 L -0 396.881 15.750 389.372 C 58.760 368.867, 123.121 337.177, 205.889 295.750 C 256.162 270.587, 298.129 250, 299.148 250 C 304.071 250, 295.621 256.670, 283.958 261.989 C 280.956 263.359, 278.169 264.934, 277.765 265.489 C 277.361 266.045, 277.024 266.176, 277.015 265.780 C 277.007 265.384, 275.362 266.172, 273.360 267.530 C 271.359 268.889, 269.196 270, 268.555 270 C 267.913 270, 265.864 271.125, 264 272.500 C 262.136 273.875, 259.799 275, 258.806 275 C 257.813 275, 257 275.477, 257 276.059 C 257 276.641, 256.550 276.840, 256 276.500 C 255.450 276.160, 255 276.434, 255 277.108 C 255 277.782, 254.738 278.072, 254.419 277.752 C 254.099 277.432, 252.219 278.269, 250.242 279.611 C 248.264 280.953, 245.601 282.313, 244.323 282.634 C 243.045 282.954, 242 283.645, 242 284.167 C 242 284.690, 241.550 284.840, 241 284.500 C 240.450 284.160, 240 284.385, 240 285 C 240 285.615, 239.581 285.859, 239.069 285.543 C 238.557 285.226, 237.837 285.454, 237.470 286.049 C 237.102 286.644, 233.478 288.708, 229.416 290.636 C 225.354 292.564, 221.772 294.560, 221.456 295.071 C 221.140 295.582, 220.009 296, 218.941 296 C 217.873 296, 217 296.477, 217 297.059 C 217 297.641, 216.550 297.840, 216 297.500 C 215.450 297.160, 215 297.385, 215 298 C 215 298.615, 214.550 298.840, 214 298.500 C 213.450 298.160, 213 298.315, 213 298.843 C 213 299.789, 207.214 302.422, 205.750 302.143 C 205.338 302.064, 205 302.398, 205 302.883 C 205 303.634, 204.157 304.057, 200 305.391 C 199.725 305.480, 198.375 306.278, 197 307.165 C 195.625 308.051, 192.813 309.312, 190.750 309.966 C 188.688 310.620, 187 311.570, 187 312.078 C 187 312.585, 186.321 313, 185.491 313 C 184.662 313, 182.119 314.350, 179.841 316 C 177.564 317.650, 175.051 319, 174.258 319 C 173.464 319, 171.671 319.900, 170.273 321 C 168.874 322.100, 166.891 323, 165.865 323 C 164.839 323, 164 323.477, 164 324.059 C 164 324.641, 163.550 324.840, 163 324.500 C 162.450 324.160, 162 324.385, 162 325 C 162 325.615, 161.550 325.840, 161 325.500 C 160.450 325.160, 160 325.385, 160 326 C 160 326.615, 159.550 326.840, 159 326.500 C 158.450 326.160, 158 326.385, 158 327 C 158 327.615, 157.550 327.840, 157 327.500 C 156.450 327.160, 156 327.350, 156 327.922 C 156 328.494, 154.762 329.256, 153.250 329.615 C 151.738 329.975, 149.713 330.953, 148.750 331.789 C 147.788 332.626, 147 332.983, 147 332.582 C 147 332.182, 145.814 332.788, 144.365 333.927 C 142.916 335.067, 140.891 336, 139.865 336 C 138.839 336, 138 336.477, 138 337.059 C 138 337.641, 137.550 337.840, 137 337.500 C 136.450 337.160, 136 337.385, 136 338 C 136 338.615, 135.550 338.840, 135 338.500 C 134.450 338.160, 134 338.385, 134 339 C 134 339.615, 133.550 339.840, 133 339.500 C 132.450 339.160, 132 339.385, 132 340 C 132 340.615, 131.550 340.840, 131 340.500 C 130.450 340.160, 130 340.385, 130 341 C 130 341.615, 129.550 341.840, 129 341.500 C 128.450 341.160, 128 341.350, 128 341.922 C 128 342.494, 126.793 343.265, 125.317 343.635 C 123.841 344.006, 121.029 345.398, 119.067 346.729 C 117.105 348.061, 114.263 349.397, 112.750 349.700 C 111.237 350.002, 110 350.670, 110 351.184 C 110 351.698, 109.550 351.840, 109 351.500 C 108.450 351.160, 108 351.385, 108 352 C 108 352.615, 107.588 352.864, 107.085 352.553 C 106.582 352.242, 106.020 352.328, 105.835 352.744 C 105.512 353.472, 98.260 357.450, 97.078 357.548 C 96.760 357.574, 94.925 358.596, 93 359.818 C 91.075 361.041, 88.375 362.326, 87 362.675 C 85.625 363.023, 84.275 363.576, 84 363.904 C 83.725 364.232, 79.225 366.472, 74 368.883 C 68.775 371.294, 63.825 373.651, 63 374.122 C 57.085 377.501, 53.869 379, 52.540 379 C 51.693 379, 51 379.450, 51 380 C 51 380.550, 50.663 380.920, 50.250 380.823 C 49.837 380.725, 44.063 383.313, 37.418 386.573 C 30.772 389.833, 24.247 393.026, 22.918 393.669 C -0.304 404.903, -0 404.707, -0 408.473 L -0 412.003 74.186 374.907 C 140.803 341.596, 182.424 320.255, 229 295.528 C 237.525 291.002, 250.575 284.128, 258 280.251 C 265.425 276.374, 278.867 269.332, 287.871 264.601 C 306.481 254.823, 305 255.398, 305 257.952 C 305 260.828, 292.948 268.074, 247.500 292.522 C 233.422 300.095, 196.118 319.854, 182 327.216 C 145.083 346.466, 138.308 349.986, 120.500 359.174 C 110.050 364.566, 78.665 380.570, 50.755 394.739 L 0.010 420.500 0.005 424.872 C 0.001 428.392, 0.259 429.030, 1.326 428.144 C 2.056 427.539, 22.418 416.856, 46.576 404.405 C 104.777 374.409, 129.393 361.384, 218.819 313.265 C 274.200 283.465, 294.432 273.032, 295.252 273.852 C 298.063 276.663, 141.114 363.371, 21.750 424.950 L 0 436.171 0 441.136 L 0 446.102 3.250 443.690 C 5.038 442.364, 21.125 433.498, 39 423.988 C 56.875 414.479, 94 394.325, 121.500 379.203 C 167.794 353.746, 185.768 343.671, 256.500 303.532 C 290.302 284.350, 302.954 277.621, 303.741 278.407 C 305.018 279.685, 269.458 301.648, 221 329.511 C 214.125 333.464, 199.950 341.649, 189.500 347.701 C 179.050 353.753, 168.475 359.839, 166 361.226 C 163.525 362.613, 151.600 369.360, 139.500 376.219 C 119.490 387.562, 61.926 419.565, 46 428.201 C 42.425 430.139, 30.965 436.399, 20.534 442.113 C 10.102 447.826, 1.215 452.388, 0.784 452.250 C 0.353 452.113, 0 454.700, 0 458 C 0 461.300, 0.198 464, 0.440 464 C 2.760 464, 169.938 367.296, 244.952 322.563 C 285.857 298.170, 293.912 293.579, 294.598 294.264 C 295.174 294.840, 284.176 302.210, 275.500 307.062 C 272.200 308.908, 269.350 310.774, 269.167 311.209 C 268.983 311.644, 268.233 312, 267.500 312 C 266.767 312, 266.017 312.375, 265.833 312.833 C 265.429 313.843, 254.300 321, 253.134 321 C 252.678 321, 251.268 321.900, 250 323 C 248.732 324.100, 247.088 325, 246.347 325 C 245.606 325, 245 325.477, 245 326.059 C 245 326.641, 244.615 326.880, 244.145 326.590 C 243.675 326.299, 242.260 327.159, 241 328.500 C 239.740 329.841, 238.325 330.701, 237.855 330.410 C 237.385 330.120, 237 330.307, 237 330.827 C 237 331.347, 235.381 332.611, 233.403 333.636 C 231.425 334.661, 228.950 335.944, 227.903 336.487 C 226.856 337.030, 226 337.844, 226 338.296 C 226 338.748, 225.550 338.840, 225 338.500 C 224.450 338.160, 224 338.359, 224 338.941 C 224 339.523, 223.325 340, 222.500 340 C 221.675 340, 221 340.378, 221 340.839 C 221 341.761, 215.952 344.454, 214.750 344.175 C 214.338 344.079, 214 344.450, 214 345 C 214 345.550, 213.531 346, 212.958 346 C 212.385 346, 210.967 346.884, 209.807 347.965 C 208.646 349.046, 207.315 349.695, 206.849 349.406 C 206.382 349.118, 206 349.359, 206 349.941 C 206 350.523, 205.325 351, 204.500 351 C 203.675 351, 203 351.477, 203 352.059 C 203 352.641, 202.550 352.840, 202 352.500 C 201.450 352.160, 201 352.385, 201 353 C 201 353.615, 200.618 353.882, 200.151 353.594 C 199.685 353.305, 198.354 353.954, 197.193 355.035 C 196.033 356.116, 194.615 357, 194.042 357 C 193.469 357, 193 357.351, 193 357.781 C 193 358.210, 191.763 359.117, 190.250 359.796 C 185.589 361.889, 179.110 365.820, 176.850 367.925 C 175.666 369.028, 174.315 369.695, 173.849 369.406 C 173.382 369.118, 173 369.385, 173 370 C 173 370.615, 172.618 370.882, 172.151 370.594 C 171.685 370.305, 170.354 370.954, 169.193 372.035 C 168.033 373.116, 166.615 374, 166.042 374 C 165.469 374, 165 374.477, 165 375.059 C 165 375.641, 164.618 375.882, 164.151 375.594 C 163.685 375.305, 162.447 375.858, 161.401 376.822 C 160.356 377.785, 158.037 379.175, 156.250 379.908 C 154.463 380.642, 153 381.638, 153 382.121 C 153 382.605, 152.325 383, 151.500 383 C 150.675 383, 150 383.477, 150 384.059 C 150 384.641, 149.550 384.840, 149 384.500 C 148.450 384.160, 148 384.385, 148 385 C 148 385.615, 147.615 385.880, 147.145 385.590 C 146.675 385.299, 145.260 386.159, 144 387.500 C 142.740 388.841, 141.325 389.701, 140.855 389.410 C 140.385 389.120, 140 389.268, 140 389.740 C 140 390.212, 138.425 391.168, 136.500 391.864 C 134.575 392.560, 133 393.550, 133 394.065 C 133 394.579, 132.325 395, 131.500 395 C 130.675 395, 130 395.477, 130 396.059 C 130 396.641, 129.550 396.840, 129 396.500 C 128.450 396.160, 128 396.359, 128 396.941 C 128 397.523, 127.325 398, 126.500 398 C 125.675 398, 125 398.450, 125 399 C 125 399.550, 124.566 400, 124.035 400 C 123.505 400, 121.148 401.311, 118.799 402.913 C 116.449 404.515, 114.183 405.613, 113.764 405.354 C 113.344 405.094, 113 405.385, 113 406 C 113 406.615, 112.550 406.840, 112 406.500 C 111.450 406.160, 111 406.385, 111 407 C 111 407.615, 110.618 407.882, 110.151 407.594 C 109.685 407.305, 108.354 407.954, 107.193 409.035 C 106.033 410.116, 104.615 411, 104.042 411 C 103.469 411, 103 411.338, 103 411.752 C 103 412.165, 100.862 413.621, 98.250 414.987 C 95.638 416.353, 92.905 418.040, 92.179 418.735 C 91.452 419.431, 90.480 420, 90.018 420 C 89.557 420, 87.289 421.238, 84.979 422.750 C 82.669 424.262, 80.491 425.520, 80.139 425.544 C 79.788 425.569, 77.250 427.001, 74.500 428.726 C 71.750 430.452, 69.100 431.856, 68.612 431.847 C 68.123 431.837, 67.448 432.205, 67.112 432.665 C 66.775 433.124, 65.487 434.063, 64.250 434.750 C 63.013 435.438, 60.987 436.563, 59.750 437.250 C 58.513 437.938, 57.169 438.950, 56.765 439.500 C 56.361 440.050, 56.024 440.145, 56.015 439.711 C 56.007 439.277, 55.015 439.840, 53.811 440.961 C 52.608 442.082, 50.808 443, 49.811 443 C 48.815 443, 48 443.450, 48 444 C 48 444.550, 47.586 445, 47.079 445 C 46.573 445, 42.635 447.175, 38.329 449.832 C 30.083 454.922, 21.792 459.635, 13.541 463.923 C 10.814 465.340, 7.970 467.063, 7.220 467.750 C 6.470 468.438, 5.214 469, 4.429 469 C 3.643 469, 3 469.450, 3 470 C 3 470.550, 2.325 471, 1.500 471 C 0.308 471, 0 472.451, 0 478.059 C 0 481.941, 0.338 484.916, 0.750 484.670 C 61.584 448.320, 190.046 369.036, 240 337.010 C 269.698 317.970, 299.135 299.801, 299.574 300.240 C 300.484 301.150, 232.756 346.595, 175.500 383.492 C 164.500 390.581, 151.225 399.146, 146 402.526 C 140.775 405.906, 128.400 413.732, 118.500 419.917 C 108.600 426.102, 92.625 436.138, 83 442.218 C 73.375 448.298, 63.582 454.449, 61.238 455.886 C 58.894 457.324, 45.619 465.536, 31.738 474.134 C 17.857 482.733, 5.038 490.508, 3.250 491.410 C 1.338 492.376, 0 493.816, 0 494.910 C 0 496.426, 1.615 495.709, 8.750 491.027 C 16.970 485.634, 35.084 474.391, 72.500 451.462 C 104.492 431.857, 170.835 389.288, 247 339.492 C 292.445 309.782, 294.077 308.743, 294.565 309.232 C 296.751 311.418, 92.771 447.603, 15.750 495.379 C 0.383 504.911, 0 505.232, 0 508.574 L 0 512 6.314 512 L 12.628 512 74.064 470.827 C 138.678 427.525, 169.132 406.476, 244.500 353.028 C 298.619 314.650, 300.016 313.683, 300.555 314.222 C 303.320 316.987, 54.394 499.085, 44.970 501.192 C 44.213 501.361, 43.528 500.825, 43.449 500 C 43.370 499.175, 43.236 497.938, 43.152 497.250 C 42.712 493.637, 40 496.283, 40 500.326 C 40 505.003, 38.157 507.485, 32.500 510.427 C 29.540 511.967, 29.603 511.988, 37.156 511.994 C 44.329 512, 44.780 511.873, 44.288 509.995 C 43.389 506.557, 40.866 508.488, 134.500 440.958 C 161.450 421.522, 198.302 394.661, 216.393 381.268 C 258.936 349.774, 266.005 345.757, 232.290 372.236 C 143.669 441.837, 76.125 492, 71.029 492 C 68.897 492, 67.954 492.593, 67.449 494.250 C 66.365 497.806, 64.111 499.901, 54.641 506.152 L 45.781 512 64.859 512 C 81.772 512, 83.869 511.822, 83.336 510.433 C 81.863 506.595, 86.811 502.009, 127 469.959 C 156.367 446.540, 206.666 405.676, 226.461 389.155 C 241.833 376.326, 251.478 369.644, 241.422 378.791 C 231.180 388.107, 209.146 407.530, 196.942 418 C 189.570 424.325, 175.171 436.700, 164.944 445.500 C 143.619 463.850, 143.764 463.727, 114.767 487.869 C 102.814 497.821, 91.159 507.321, 88.867 508.981 L 84.700 512 88.224 512 C 90.893 512, 92.689 511.122, 95.624 508.382 C 97.756 506.392, 123.125 484.468, 152 459.663 C 180.875 434.858, 223.555 397.899, 246.844 377.531 C 291.767 338.244, 298 333.070, 298 335.058 C 298 338.540, 224.092 409.205, 160.301 466.715 C 124.844 498.681, 125.391 498.245, 121.749 497.445 C 119.652 496.984, 118.919 497.178, 119.053 498.156 C 119.518 501.555, 118.716 503.353, 114.873 507.522 L 110.745 512 133.623 511.976 L 156.500 511.952 161 505.260 C 166.220 497.497, 221.782 435.707, 219.233 440.500 C 217.706 443.372, 169.832 500.491, 163.707 506.750 L 158.568 512 162.843 512 C 165.438 512, 166.875 511.607, 166.500 511 C 166.160 510.450, 166.359 510, 166.941 510 C 167.523 510, 168 509.403, 168 508.674 C 168 507.945, 169.093 506.322, 170.429 505.067 L 172.857 502.785 173.179 506.066 C 173.711 511.501, 175.697 510.661, 176.192 504.791 C 176.825 497.292, 177.244 496.729, 222.244 442.947 C 244.385 416.486, 264.848 391.835, 267.718 388.168 C 270.588 384.501, 274.352 379.700, 276.082 377.500 C 280.314 372.120, 293.001 358.803, 292.996 359.747 C 292.991 360.892, 289.740 365.983, 285.142 372.048 C 282.869 375.047, 281.007 377.993, 281.004 378.595 C 280.999 380.048, 277.503 383.170, 276.738 382.405 C 276.408 382.075, 275.567 383.762, 274.868 386.153 C 274.169 388.544, 273.125 390.831, 272.549 391.235 C 271.972 391.639, 271.855 391.976, 272.289 391.985 C 273.071 392, 272.143 393.333, 268.750 397.072 C 267.788 398.132, 267 399.600, 267 400.334 C 267 401.068, 265.200 404.238, 263 407.379 C 260.800 410.519, 259 413.519, 259 414.044 C 259 414.570, 258.550 415, 258 415 C 257.450 415, 257 415.689, 257 416.531 C 257 417.374, 256.325 418.322, 255.500 418.638 C 254.675 418.955, 254 419.855, 254 420.638 C 254 421.422, 253.325 422.322, 252.500 422.638 C 251.675 422.955, 251 423.793, 251 424.500 C 251 425.207, 250.325 426.045, 249.500 426.362 C 248.675 426.678, 248 427.626, 248 428.469 C 248 429.311, 247.631 430, 247.181 430 C 246.394 430, 236 443.371, 236 444.383 C 236 444.655, 234.650 446.355, 233 448.161 C 231.350 449.968, 230 451.965, 230 452.600 C 230 453.235, 229.329 454.312, 228.509 454.993 C 226.528 456.636, 189 506.578, 189 507.570 C 189 507.995, 188.255 509.165, 187.345 510.171 C 185.744 511.941, 187.409 512, 238.717 512 L 291.744 512 294.379 498.250 C 295.829 490.688, 299.510 471.225, 302.561 455 C 305.611 438.775, 310.555 412.675, 313.547 397 C 324.147 341.476, 323.315 352.069, 322.661 281 C 321.908 199.069, 320.409 167.281, 317.637 174.505 M 344.284 266.152 C 344.853 267.777, 371.709 314.223, 391.322 347.500 C 396.833 356.850, 404.117 369.225, 407.510 375 C 423.796 402.725, 456.402 457.281, 465.742 472.435 C 482.292 499.288, 484.638 502.222, 476.375 485.730 C 467.479 467.975, 458.992 453.137, 430.703 405.885 C 415.025 379.697, 394.674 345.272, 385.479 329.385 C 376.284 313.498, 366.584 297.350, 363.923 293.500 C 361.263 289.650, 356.085 282, 352.416 276.500 C 345.420 266.010, 343.282 263.290, 344.284 266.152 M 335.871 273.604 C 339.963 284.639, 355.968 325.851, 367.482 355 C 372.804 368.475, 379.886 386.475, 383.219 395 C 411.036 466.151, 426.997 505, 428.412 505 C 429.942 505, 415.589 466.410, 393.173 410.250 C 383.349 385.637, 371.365 355.375, 366.542 343 C 341.218 278.023, 337.690 269.648, 334.549 267.041 C 333.368 266.061, 333.719 267.801, 335.871 273.604 M 511.360 503 C 511.360 508.225, 511.529 510.363, 511.735 507.750 C 511.941 505.137, 511.941 500.863, 511.735 498.250 C 511.529 495.637, 511.360 497.775, 511.360 503 M 329.563 500.897 C 329.258 501.391, 329.295 503.227, 329.646 504.978 C 330.389 508.695, 331.960 507.198, 331.985 502.750 C 332 500.080, 330.688 499.077, 329.563 500.897 M 417.273 507.995 C 417.398 510.192, 417.781 511.992, 418.125 511.995 C 419 512.002, 420.111 505.989, 419.437 504.897 C 418.126 502.776, 417.063 504.298, 417.273 507.995 M 394.810 507.523 C 393.420 508.913, 395.333 512, 397.584 512 C 399.602 512, 399.818 511.681, 399.105 509.750 C 398.291 507.546, 395.984 506.349, 394.810 507.523"/></svg>