<svg xmlns="http://www.w3.org/2000/svg" width="512" height="512" viewBox="0 0 512 512" version="1.1">
	<path d="M 16 0.750 C 16 1.163, 17.105 5.325, 18.457 10 C 19.809 14.675, 21.618 24.049, 22.478 30.831 C 23.476 38.696, 24.792 44.633, 26.114 47.223 C 28.940 52.762, 35.738 59.849, 46.685 68.665 C 58.324 78.039, 68.227 88.708, 71.444 95.340 C 73.296 99.157, 74.210 103.318, 74.955 111.326 C 75.510 117.280, 76.467 124.022, 77.083 126.309 C 81.116 141.287, 97.871 162.216, 111.060 168.750 C 114.668 170.537, 118.380 172, 119.310 172 C 121.541 172, 121.501 172.157, 117.949 177.421 C 113.116 184.581, 107.017 198.425, 105.462 205.766 C 102.897 217.871, 103.751 228.433, 109.071 250.374 C 110.907 257.945, 112.880 271.122, 114.515 286.742 C 117.341 313.725, 117.907 315.671, 124.915 322.453 C 127.162 324.627, 129 326.785, 129 327.249 C 129 327.712, 127.021 332.234, 124.602 337.296 C 115.977 355.346, 117.096 359.406, 134.243 372.285 C 144.415 379.926, 159.663 394.616, 163.648 400.615 C 164.775 402.312, 164.819 403.300, 163.870 405.615 C 163.205 407.237, 162.670 413.533, 162.648 420 C 162.616 429.455, 163.011 432.641, 164.871 437.917 C 168.651 448.638, 174.790 456.247, 182.841 460.193 C 186.986 462.224, 189.421 462.533, 204.898 462.988 L 222.296 463.500 223.646 468.140 C 226.456 477.795, 240.011 488.972, 248.934 488.991 C 259.880 489.014, 270.538 478.760, 274.538 464.356 C 274.753 463.580, 279.943 463.092, 290.678 462.838 C 305.126 462.496, 306.927 462.248, 311.412 459.982 C 322.423 454.419, 332.326 442.338, 336.007 429.976 C 338.479 421.675, 338.658 408.579, 336.403 400.985 L 334.806 395.607 341.845 389.054 C 349.787 381.659, 351.433 378.849, 352.420 371 C 353.352 363.582, 359.213 346.290, 363.668 337.812 C 365.664 334.013, 371.947 324.514, 377.629 316.703 C 394.514 293.490, 398 285.096, 398 267.648 C 398 256.672, 396.486 249.555, 392.090 239.859 C 389.202 233.489, 389.142 233.015, 389.175 216.927 C 389.212 199.284, 387.802 189.285, 384.048 180.582 C 381.898 175.598, 382.295 174.058, 385.739 174.015 C 388.127 173.986, 400.547 168.588, 405.500 165.427 C 415.195 159.241, 425.262 146.972, 431.607 133.611 C 434.463 127.597, 435.373 124.042, 436.531 114.367 C 437.312 107.840, 438.411 100.893, 438.973 98.930 C 441.166 91.268, 451.905 79.098, 468.038 65.993 C 484.587 52.550, 486.652 48.567, 490.496 22.679 C 491.358 16.878, 492.949 9.556, 494.031 6.409 C 495.114 3.262, 496 0.532, 496 0.343 C 496 0.155, 478.751 -0, 457.669 -0 L 419.338 -0 417.943 2.606 C 415.577 7.028, 406.635 14.307, 398.418 18.500 C 378.510 28.660, 370.737 39.826, 356.650 78.500 C 349.115 99.189, 344.547 110.516, 342.446 113.723 L 340.976 115.967 334.238 110.913 C 319.103 99.561, 302.682 91.698, 286.064 87.846 C 274.808 85.237, 249.690 84.290, 236.304 85.970 C 213.787 88.795, 193.427 96.810, 175.068 110.076 L 166.636 116.169 164.868 113.834 C 161.911 109.928, 157.387 100.059, 153.486 89 C 142.740 58.536, 137.647 46.774, 130.968 37 C 125.906 29.592, 123.213 27.240, 111.500 20 C 100.279 13.064, 97.109 10.387, 92.852 4.250 L 89.904 0 52.952 0 C 32.628 0, 16 0.337, 16 0.750 M 242.661 92.528 C 228.710 94.215, 219.077 96.382, 209.966 99.881 L 202.665 102.685 208.583 103.366 C 222.395 104.954, 235.384 116.059, 239.568 129.857 C 244.533 146.231, 242.096 159.982, 227.759 196.500 C 211.867 236.975, 200.365 280.586, 188.988 343.500 C 182.247 380.781, 181.996 381.767, 175.134 398.038 C 170.096 409.983, 168.717 417.955, 170.056 427.392 C 171.771 439.490, 177.456 449.152, 185.177 453.090 C 188.271 454.669, 191.910 455.220, 202.367 455.692 C 221.509 456.557, 221.501 456.560, 227.500 446.848 C 230.250 442.396, 232.627 438.427, 232.783 438.028 C 232.939 437.628, 229.520 437.028, 225.186 436.694 C 213.535 435.795, 206.626 432.894, 199.914 426.081 C 193.384 419.453, 191 413.666, 191 404.448 C 191 396.426, 192.147 393.427, 201.876 376 C 208.313 364.469, 211.201 360.366, 215.980 355.962 L 221.989 350.424 224.014 331.962 C 225.127 321.808, 226.459 311.025, 226.973 308 C 227.486 304.975, 229.524 289, 231.501 272.500 C 235.705 237.406, 238.046 220.208, 241.982 195.500 C 243.560 185.600, 245.395 172.550, 246.061 166.500 C 247.483 153.583, 249.019 149, 251.926 149 C 255.353 149, 256.854 152.987, 258.517 166.514 C 259.395 173.656, 261.226 187.150, 262.585 196.500 C 263.945 205.850, 265.946 219.694, 267.034 227.265 C 269.043 241.255, 276.021 308.999, 278.079 334.500 L 279.209 348.500 285.560 354.787 C 295.271 364.400, 309.127 388.396, 310.986 398.819 C 313.192 411.186, 308.590 422.595, 298.629 429.455 C 292.091 433.958, 286.033 435.847, 274.717 436.908 C 269.886 437.362, 265.725 437.942, 265.469 438.198 C 265.212 438.454, 267.030 442.227, 269.508 446.582 L 274.014 454.500 279.757 455.113 C 282.916 455.450, 290 455.499, 295.500 455.223 C 307.200 454.634, 310.513 453.293, 317.806 446.189 C 323.496 440.647, 327.148 434.077, 329.426 425.284 C 332.268 414.316, 331.463 408.841, 324.445 391.433 C 321.600 384.377, 319.922 377.004, 315.938 354.071 C 308.505 311.287, 306.452 301.261, 298.417 268.500 C 290.686 236.982, 284.927 218.050, 275.757 194 C 268.312 174.473, 265.406 164.977, 263.933 155.358 C 262.854 148.306, 262.924 146.113, 264.488 138.061 C 266.002 130.267, 266.931 127.955, 270.499 123.109 C 278.627 112.067, 291.214 105.500, 304.248 105.500 C 308.509 105.500, 311.997 105.401, 311.998 105.280 C 312.007 104.393, 295.049 97.516, 289 95.954 C 283.030 94.411, 256.137 90.696, 254 91.118 C 253.725 91.172, 248.622 91.807, 242.661 92.528 M 251.719 181 C 251.429 181.825, 250.716 186.100, 250.134 190.500 C 249.553 194.900, 248.176 204.800, 247.074 212.500 C 243.998 234.014, 240.158 262.210, 238.494 275.500 C 235.481 299.576, 231 338.978, 231 341.401 L 231 343.889 236.750 341.195 C 244.854 337.399, 255.767 337.407, 264.894 341.216 L 271.289 343.884 270.677 332.692 C 269.019 302.375, 253.290 176.524, 251.719 181 M 197.188 202.039 C 188.124 210.116, 180.677 211.722, 170.293 207.837 C 161.892 204.694, 152.174 204.811, 144.954 208.143 C 133.695 213.339, 128 220.783, 128 230.304 C 128 244.661, 138.404 259.910, 150.731 263.620 C 159.612 266.292, 172.589 261.773, 179.693 253.532 C 187.903 244.008, 196.341 226.144, 200.095 210.335 C 202.946 198.333, 202.565 197.247, 197.188 202.039 M 333.723 207.894 C 320.950 212.109, 312 222.589, 312 233.330 C 312 244.562, 317.228 252.306, 328.654 257.999 C 337.945 262.629, 345.888 262.824, 354.174 258.625 C 361.871 254.725, 366.474 250.750, 369.751 245.176 C 372.020 241.317, 372.488 239.364, 372.433 234 C 372.352 226.176, 370.197 221.159, 364.572 215.700 C 355.805 207.193, 344.509 204.334, 333.723 207.894 M 150 218.792 C 144.786 221.639, 142 226.325, 142 232.247 C 142 244.980, 152.928 252.973, 164.364 248.605 C 176.124 244.114, 179.445 230.688, 171.028 221.664 C 167.383 217.757, 166.915 217.562, 160.358 217.230 C 155.020 216.959, 152.725 217.305, 150 218.792 M 334.450 218.407 C 325.140 222.462, 322.130 235.247, 328.659 243.006 C 339.115 255.433, 359 248.677, 359 232.698 C 359 227.532, 356.140 222.685, 351.078 219.274 C 347.176 216.644, 339.425 216.240, 334.450 218.407 M 347.409 229.376 C 346.562 231.584, 347.689 232.711, 349.217 231.183 C 350.119 230.281, 350.122 229.722, 349.233 228.833 C 348.343 227.943, 347.909 228.072, 347.409 229.376 M 165 229.810 C 165 230.347, 165.713 231.059, 166.584 231.394 C 167.557 231.767, 168.015 231.544, 167.771 230.813 C 167.273 229.318, 165 228.495, 165 229.810 M 249.813 426.683 C 250.534 426.972, 251.397 426.936, 251.729 426.604 C 252.061 426.272, 251.471 426.036, 250.417 426.079 C 249.252 426.127, 249.015 426.364, 249.813 426.683" stroke="none" fill="black" fill-rule="evenodd"/>
</svg>