<svg xmlns="http://www.w3.org/2000/svg" width="512" height="512"><path d="M16 .75c0 .413 1.105 4.575 2.457 9.25 1.352 4.675 3.161 14.049 4.021 20.831.998 7.865 2.314 13.802 3.636 16.392 2.826 5.539 9.624 12.626 20.571 21.442 11.639 9.374 21.542 20.043 24.759 26.675 1.852 3.817 2.766 7.978 3.511 15.986.555 5.954 1.512 12.696 2.128 14.983 4.033 14.978 20.788 35.907 33.977 42.441 3.608 1.787 7.32 3.25 8.25 3.25 2.231 0 2.191.157-1.361 5.421-4.833 7.16-10.932 21.004-12.487 28.345-2.565 12.105-1.711 22.667 3.609 44.608 1.836 7.571 3.809 20.748 5.444 36.368 2.826 26.983 3.392 28.929 10.4 35.711 2.247 2.174 4.085 4.332 4.085 4.796 0 .463-1.979 4.985-4.398 10.047-8.625 18.05-7.506 22.11 9.641 34.989 10.172 7.641 25.42 22.331 29.405 28.33 1.127 1.697 1.171 2.685.222 5-.665 1.622-1.2 7.918-1.222 14.385-.032 9.455.363 12.641 2.223 17.917 3.78 10.721 9.919 18.33 17.97 22.276 4.145 2.031 6.58 2.34 22.057 2.795l17.398.512 1.35 4.64c2.81 9.655 16.365 20.832 25.288 20.851 10.946.023 21.604-10.231 25.604-24.635.215-.776 5.405-1.264 16.14-1.518 14.448-.342 16.249-.59 20.734-2.856 11.011-5.563 20.914-17.644 24.595-30.006 2.472-8.301 2.651-21.397.396-28.991l-1.597-5.378 7.039-6.553c7.942-7.395 9.588-10.205 10.575-18.054.932-7.418 6.793-24.71 11.248-33.188 1.996-3.799 8.279-13.298 13.961-21.109C394.514 293.49 398 285.096 398 267.648c0-10.976-1.514-18.093-5.91-27.789-2.888-6.37-2.948-6.844-2.915-22.932.037-17.643-1.373-27.642-5.127-36.345-2.15-4.984-1.753-6.524 1.691-6.567 2.388-.029 14.808-5.427 19.761-8.588 9.695-6.186 19.762-18.455 26.107-31.816 2.856-6.014 3.766-9.569 4.924-19.244.781-6.527 1.88-13.474 2.442-15.437 2.193-7.662 12.932-19.832 29.065-32.937 16.549-13.443 18.614-17.426 22.458-43.314.862-5.801 2.453-13.123 3.535-16.27C495.114 3.262 496 .532 496 .343 496 .155 478.751 0 457.669 0h-38.331l-1.395 2.606c-2.366 4.422-11.308 11.701-19.525 15.894-19.908 10.16-27.681 21.326-41.768 60-7.535 20.689-12.103 32.016-14.204 35.223l-1.47 2.244-6.738-5.054c-15.135-11.352-31.556-19.215-48.174-23.067-11.256-2.609-36.374-3.556-49.76-1.876-22.517 2.825-42.877 10.84-61.236 24.106l-8.432 6.093-1.768-2.335c-2.957-3.906-7.481-13.775-11.382-24.834-10.746-30.464-15.839-42.226-22.518-52-5.062-7.408-7.755-9.76-19.468-17-11.221-6.936-14.391-9.613-18.648-15.75L89.904 0H52.952C32.628 0 16 .337 16 .75m226.661 91.778c-13.951 1.687-23.584 3.854-32.695 7.353l-7.301 2.804 5.918.681c13.812 1.588 26.801 12.693 30.985 26.491 4.965 16.374 2.528 30.125-11.809 66.643-15.892 40.475-27.394 84.086-38.771 147-6.741 37.281-6.992 38.267-13.854 54.538-5.038 11.945-6.417 19.917-5.078 29.354 1.715 12.098 7.4 21.76 15.121 25.698 3.094 1.579 6.733 2.13 17.19 2.602 19.142.865 19.134.868 25.133-8.844 2.75-4.452 5.127-8.421 5.283-8.82.156-.4-3.263-1-7.597-1.334-11.651-.899-18.56-3.8-25.272-10.613-6.53-6.628-8.914-12.415-8.914-21.633 0-8.022 1.147-11.021 10.876-28.448 6.437-11.531 9.325-15.634 14.104-20.038l6.009-5.538 2.025-18.462c1.113-10.154 2.445-20.937 2.959-23.962.513-3.025 2.551-19 4.528-35.5 4.204-35.094 6.545-52.292 10.481-77 1.578-9.9 3.413-22.95 4.079-29 1.422-12.917 2.958-17.5 5.865-17.5 3.427 0 4.928 3.987 6.591 17.514.878 7.142 2.709 20.636 4.068 29.986 1.36 9.35 3.361 23.194 4.449 30.765 2.009 13.99 8.987 81.734 11.045 107.235l1.13 14 6.351 6.287c9.711 9.613 23.567 33.609 25.426 44.032 2.206 12.367-2.396 23.776-12.357 30.636-6.538 4.503-12.596 6.392-23.912 7.453-4.831.454-8.992 1.034-9.248 1.29-.257.256 1.561 4.029 4.039 8.384l4.506 7.918 5.743.613c3.159.337 10.243.386 15.743.11 11.7-.589 15.013-1.93 22.306-9.034 5.69-5.542 9.342-12.112 11.62-20.905 2.842-10.968 2.037-16.443-4.981-33.851-2.845-7.056-4.523-14.429-8.507-37.362-7.433-42.784-9.486-52.81-17.521-85.571-7.731-31.518-13.49-50.45-22.66-74.5-7.445-19.527-10.351-29.023-11.824-38.642-1.079-7.052-1.009-9.245.555-17.297 1.514-7.794 2.443-10.106 6.011-14.952 8.128-11.042 20.715-17.609 33.749-17.609 4.261 0 7.749-.099 7.75-.22.009-.887-16.949-7.764-22.998-9.326-5.97-1.543-32.863-5.258-35-4.836-.275.054-5.378.689-11.339 1.41M251.719 181c-.29.825-1.003 5.1-1.585 9.5-.581 4.4-1.958 14.3-3.06 22-3.076 21.514-6.916 49.71-8.58 63-3.013 24.076-7.494 63.478-7.494 65.901v2.488l5.75-2.694c8.104-3.796 19.017-3.788 28.144.021l6.395 2.668-.612-11.192C269.019 302.375 253.29 176.524 251.719 181m-54.531 21.039c-9.064 8.077-16.511 9.683-26.895 5.798-8.401-3.143-18.119-3.026-25.339.306-11.259 5.196-16.954 12.64-16.954 22.161 0 14.357 10.404 29.606 22.731 33.316 8.881 2.672 21.858-1.847 28.962-10.088 8.21-9.524 16.648-27.388 20.402-43.197 2.851-12.002 2.47-13.088-2.907-8.296m136.535 5.855C320.95 212.109 312 222.589 312 233.33c0 11.232 5.228 18.976 16.654 24.669 9.291 4.63 17.234 4.825 25.52.626 7.697-3.9 12.3-7.875 15.577-13.449 2.269-3.859 2.737-5.812 2.682-11.176-.081-7.824-2.236-12.841-7.861-18.3-8.767-8.507-20.063-11.366-30.849-7.806M150 218.792c-5.214 2.847-8 7.533-8 13.455 0 12.733 10.928 20.726 22.364 16.358 11.76-4.491 15.081-17.917 6.664-26.941-3.645-3.907-4.113-4.102-10.67-4.434-5.338-.271-7.633.075-10.358 1.562m184.45-.385c-9.31 4.055-12.32 16.84-5.791 24.599C339.115 255.433 359 248.677 359 232.698c0-5.166-2.86-10.013-7.922-13.424-3.902-2.63-11.653-3.034-16.628-.867m12.959 10.969c-.847 2.208.28 3.335 1.808 1.807.902-.902.905-1.461.016-2.35-.89-.89-1.324-.761-1.824.543M165 229.81c0 .537.713 1.249 1.584 1.584.973.373 1.431.15 1.187-.581-.498-1.495-2.771-2.318-2.771-1.003m84.813 196.873c.721.289 1.584.253 1.916-.079.332-.332-.258-.568-1.312-.525-1.165.048-1.402.285-.604.604" fill-rule="evenodd"/></svg>