<svg width="519" height="449" viewBox="0 0 519 449" fill="none" xmlns="http://www.w3.org/2000/svg">
    <path fill-rule="evenodd" clip-rule="evenodd" d="M337.076 0.32251L384.573 3.54031L428.532 16.9507L484.652 60.5998L513.751 122.955L518.538 192.5L497.123 268.452L513.751 353.672L497.123 409.792L457.631 391.085L351.626 409.792L423.258 418.161L462.934 405.762L475.333 409.792L462.934 434.031L437.145 445.6L384.573 448.414L336.465 430.064L273.974 380.964L241.241 348.231L171.12 324.921L140.562 268.452L122.707 251.519L75.0953 243.088L61.7045 260.446L37.4025 281.772L17.5642 275.325L0.70166 236.64L10.1249 180.597L51.7853 133.977L65.6721 100.252L92.9498 86.8612L118.29 80.3379L140.562 65.535L182.222 39.2492L232.81 13.9554L284.886 3.54028L337.076 0.32251ZM241.241 209.859L226.858 192.5L229.033 177.125L237.015 165.055L256.281 158.21L281.14 156.048L299.268 171.174L304.727 186.249L294.542 206.892L266.535 215.81L241.241 209.859ZM450.039 141.416L445.08 155.303L450.039 177.125L470.374 184.069L488.724 177.125L494.18 158.279L488.724 141.416L478.309 133.977L463.43 134.969L450.039 141.416ZM380.109 300.123L370.649 320.457L375.713 348.231L393.004 363.11L419.786 371.045L447.047 368.701L478.309 357.158L484.756 342.316L487.492 324.921L482.277 309.05L460.455 289.708L437.145 283.26L419.786 284.937L402.923 289.708L380.109 300.123Z" fill="#D9D9D9"/>
    <path d="M414.331 324.921L408.875 332.36L411.319 342.316L423.258 348.231L434.416 335.43L427.99 320.457L414.331 324.921ZM462.934 318.368L457.631 332.36L462.934 340.295L475.333 337.754L478.309 328.888L475.333 320.457L462.934 318.368Z" fill="#D9D9D9"/>
    </svg>
    