<svg width="520" height="450" viewBox="0 0 520 450" fill="none" xmlns="http://www.w3.org/2000/svg">
<path fill-rule="evenodd" clip-rule="evenodd" d="M337.076 1.3224L384.573 4.5402L428.532 17.9506L484.652 61.5997L513.751 123.955L518.538 193.5L497.123 269.452L513.751 354.672L497.123 410.792L457.631 392.085L351.626 410.792L423.258 419.161L462.934 406.762L475.333 410.792L462.934 435.031L437.145 446.6L384.573 449.414L336.465 431.064L273.974 381.964L241.241 349.231L171.12 325.921L140.562 269.452L122.707 252.519L75.0954 244.088L61.7046 261.446L37.4026 282.772L17.5643 276.325L0.701782 237.64L10.125 181.597L51.7854 134.977L65.6722 101.252L92.9499 87.8611L118.29 81.3378L140.562 66.5349L182.222 40.2491L232.81 14.9553L284.886 4.54017L337.076 1.3224ZM241.241 210.859L226.858 193.5L229.033 178.125L237.015 166.055L256.281 159.21L281.14 157.048L299.268 172.174L304.727 187.249L294.542 207.892L266.535 216.81L241.241 210.859ZM450.039 142.416L445.08 156.303L450.039 178.125L470.374 185.069L488.724 178.125L494.18 159.279L488.724 142.416L478.309 134.977L463.43 135.969L450.039 142.416ZM380.109 301.123L370.649 321.457L375.713 349.231L393.004 364.11L419.786 372.045L447.047 369.701L478.309 358.158L484.756 343.316L487.492 325.921L482.277 310.05L460.455 290.708L437.145 284.26L419.786 285.937L402.923 290.708L380.109 301.123Z" fill="#D9D9D9"/>
<path d="M414.331 325.921L408.875 333.36L411.319 343.316L423.258 349.231L434.416 336.43L427.99 321.457L414.331 325.921Z" fill="#D9D9D9"/>
<path d="M462.934 319.368L457.631 333.36L462.934 341.295L475.333 338.754L478.309 329.888L475.333 321.457L462.934 319.368Z" fill="#D9D9D9"/>
<path fill-rule="evenodd" clip-rule="evenodd" d="M337.076 1.3224L384.573 4.5402L428.532 17.9506L484.652 61.5997L513.751 123.955L518.538 193.5L497.123 269.452L513.751 354.672L497.123 410.792L457.631 392.085L351.626 410.792L423.258 419.161L462.934 406.762L475.333 410.792L462.934 435.031L437.145 446.6L384.573 449.414L336.465 431.064L273.974 381.964L241.241 349.231L171.12 325.921L140.562 269.452L122.707 252.519L75.0954 244.088L61.7046 261.446L37.4026 282.772L17.5643 276.325L0.701782 237.64L10.125 181.597L51.7854 134.977L65.6722 101.252L92.9499 87.8611L118.29 81.3378L140.562 66.5349L182.222 40.2491L232.81 14.9553L284.886 4.54017L337.076 1.3224ZM241.241 210.859L226.858 193.5L229.033 178.125L237.015 166.055L256.281 159.21L281.14 157.048L299.268 172.174L304.727 187.249L294.542 207.892L266.535 216.81L241.241 210.859ZM450.039 142.416L445.08 156.303L450.039 178.125L470.374 185.069L488.724 178.125L494.18 159.279L488.724 142.416L478.309 134.977L463.43 135.969L450.039 142.416ZM380.109 301.123L370.649 321.457L375.713 349.231L393.004 364.11L419.786 372.045L447.047 369.701L478.309 358.158L484.756 343.316L487.492 325.921L482.277 310.05L460.455 290.708L437.145 284.26L419.786 285.937L402.923 290.708L380.109 301.123Z" stroke="black"/>
<path d="M414.331 325.921L408.875 333.36L411.319 343.316L423.258 349.231L434.416 336.43L427.99 321.457L414.331 325.921Z" stroke="black"/>
<path d="M462.934 319.368L457.631 333.36L462.934 341.295L475.333 338.754L478.309 329.888L475.333 321.457L462.934 319.368Z" stroke="black"/>
</svg>
