<svg xmlns="http://www.w3.org/2000/svg" width="512" height="512" viewBox="0 0 512 512" version="1.1">
	<path d="M 98.263 41.516 C 88.197 43.700, 80.534 48.364, 70.445 58.449 C 61.321 67.569, 50.362 82.910, 42.550 97.500 C 39.431 103.324, 37.012 106.025, 28.151 113.578 C 22.293 118.571, 13.563 127.040, 8.750 132.398 L 0 142.140 -0 212.646 L -0 283.152 4.655 289.326 C 11.340 298.191, 16.717 303.653, 23 307.959 C 39.603 319.337, 61.224 326.444, 94.500 331.458 C 107.058 333.350, 130.893 335.102, 133.786 334.346 C 136.049 333.754, 137.983 328.971, 137.994 323.939 L 138 321.378 152.839 320.209 C 184.380 317.725, 196.706 313.367, 226.059 294.326 C 234.617 288.774, 244.292 282.752, 247.559 280.943 C 278.012 264.079, 287.773 256.911, 299.912 242.500 C 307.115 233.948, 310.516 229.183, 309.873 228.540 C 309.655 228.322, 306.407 229.495, 302.655 231.148 C 298.904 232.800, 294.268 234.407, 292.352 234.718 L 288.869 235.283 293.336 228.891 C 298.510 221.489, 304.153 208.462, 306.420 198.687 C 309.733 184.403, 307.921 167.509, 301.039 148.500 C 299.446 144.100, 297.898 137.418, 297.600 133.652 C 296.440 119.021, 288.386 108.293, 270.753 97.894 C 267.042 95.706, 259.617 90.831, 254.253 87.062 C 236.376 74.499, 218.089 66.433, 201.694 63.881 C 191.655 62.317, 171.707 63.309, 158.548 66.026 C 151.370 67.508, 147.475 67.925, 147.245 67.236 C 147.053 66.658, 145.991 65.131, 144.886 63.842 C 143.781 62.554, 141.217 59.533, 139.189 57.129 C 134.298 51.334, 122.276 43.481, 116.289 42.169 C 107.568 40.259, 104.560 40.150, 98.263 41.516 M 94.665 50.394 C 91.456 51.742, 87.059 54.073, 84.894 55.573 C 77.221 60.891, 63.898 76.508, 56.974 88.302 L 54.742 92.103 66.121 84.686 C 86.018 71.717, 100.562 65.551, 117.160 63.046 C 123.517 62.087, 125.805 62.148, 130.617 63.404 C 133.806 64.237, 136.564 64.769, 136.746 64.587 C 136.929 64.405, 134.761 62.172, 131.930 59.627 C 120.144 49.030, 106.156 45.565, 94.665 50.394 M 135.632 71.865 C 132.141 75.440, 132.012 75.770, 133.917 76.268 C 135.715 76.738, 138.388 75.354, 142.408 71.871 C 143.304 71.095, 141.443 68, 140.081 68 C 139.709 68, 137.708 69.739, 135.632 71.865 M 485.455 83.455 C 483.450 85.459, 483 86.907, 483 91.349 C 483 103.428, 480.078 124.181, 473.059 161.962 C 471.376 171.016, 470 178.868, 470 179.412 C 470 181.433, 468.166 178.411, 466.667 173.920 C 464.711 168.056, 460.804 160, 459.917 160 C 458.375 160, 458.027 165.771, 458.019 191.500 C 458.010 219.892, 458.799 238, 460.044 238 C 461.801 238, 463.312 223.960, 463.739 203.649 C 464.196 181.948, 464.211 181.818, 466.030 184.810 C 468.212 188.396, 471.648 189.784, 473.568 187.853 C 477.417 183.982, 487.885 130.019, 489.672 104.834 C 490.015 100.010, 490.636 96.275, 491.052 96.532 C 493.056 97.770, 508.866 138.369, 511.289 148.500 C 511.553 149.600, 511.820 144.851, 511.884 137.947 L 512 125.394 506.952 113.080 C 501.272 99.222, 494.553 85.376, 492.235 82.750 C 490.131 80.367, 488.358 80.551, 485.455 83.455 M 348.545 169.496 C 344.719 170.846, 339.319 173.514, 336.545 175.426 C 331.370 178.990, 321.261 188.862, 326 185.722 C 341.148 175.686, 353.833 172.371, 367.500 174.877 C 391.993 179.368, 428.624 212.814, 444.849 245.500 C 458.615 273.234, 467.100 313.774, 469.965 365.500 C 471.429 391.945, 471.204 445.946, 469.513 474 C 467.842 501.717, 467.158 510.176, 466.537 510.797 C 466.300 511.033, 462.145 510.500, 457.303 509.612 C 446.962 507.714, 425.127 507.478, 409.856 509.100 C 404.160 509.705, 392.975 510.245, 385 510.301 C 371.220 510.398, 370.103 510.255, 362.510 507.413 C 356.765 505.262, 354.170 503.731, 353.275 501.961 C 351.598 498.648, 351.667 490.922, 353.562 469.500 C 355.886 443.241, 355.359 445.240, 360.290 443.980 C 362.606 443.389, 367.200 442.074, 370.500 441.058 L 376.500 439.211 366.250 439.106 L 356 439 355.874 435.250 L 355.747 431.500 354.697 435.250 C 353.723 438.730, 353.377 439, 349.896 439 C 338.675 439, 318.438 434.444, 303.549 428.567 C 295.281 425.303, 294.423 425.148, 292.299 426.540 C 291.035 427.368, 290.001 428.598, 290.002 429.273 C 290.003 429.948, 289.351 437.250, 288.553 445.500 C 287.755 453.750, 286.602 466.909, 285.990 474.741 C 285.378 482.574, 284.324 490.899, 283.648 493.241 C 282.436 497.433, 282.331 497.512, 276.958 498.243 C 273.956 498.652, 263.462 500.114, 253.638 501.493 C 234.493 504.180, 217.493 504.710, 208.799 502.891 C 201.815 501.430, 192.399 496.390, 189.463 492.541 C 186.692 488.907, 185.058 482.545, 185.024 475.250 C 184.999 469.747, 185.084 469.610, 191.750 464.375 C 195.802 461.192, 195.815 460.672, 192.556 432 C 190.021 409.707, 188.430 400.384, 187.009 399.506 C 185.235 398.409, 182.972 400.371, 181.995 403.853 C 180.832 408, 177.008 448.522, 176.985 456.948 C 176.976 460.002, 176.624 463.043, 176.202 463.707 C 174.756 465.983, 161.397 467.313, 152.037 466.112 C 139.093 464.452, 116.859 456.716, 112.498 452.355 C 110.502 450.359, 110.501 424.735, 112.494 394.500 C 113.292 382.400, 113.921 367.550, 113.891 361.500 C 113.842 351.549, 113.712 350.786, 112.528 353.500 C 110.305 358.593, 105.970 381.698, 104.469 396.456 C 103.683 404.180, 103.031 419.470, 103.020 430.434 C 102.996 454.844, 103.648 456.935, 112.814 461.820 C 119.289 465.271, 129.328 469.018, 139 471.594 C 145.999 473.457, 167.928 474.161, 173.599 472.704 L 176.699 471.907 177.337 479.456 C 178.109 488.591, 179.629 492.477, 184.569 497.945 C 188.943 502.786, 194.278 506.112, 202.580 509.174 C 207.864 511.123, 210.540 511.364, 227.500 511.422 C 243.321 511.476, 248.173 511.128, 256.500 509.343 C 262 508.164, 269.875 506.898, 274 506.531 C 285.580 505.499, 287.619 504.594, 289.410 499.692 C 291.760 493.261, 293.780 481.552, 294.447 470.500 C 294.779 465, 295.574 454.522, 296.213 447.215 C 297.214 435.778, 297.593 434.029, 298.938 434.644 C 299.797 435.036, 305.450 437.054, 311.500 439.128 C 324.355 443.534, 332.336 444.982, 343.817 444.992 C 351.268 444.999, 352.081 445.182, 351.617 446.750 C 347.153 461.823, 343.783 481.258, 343.771 492 C 343.760 501.392, 344.515 504.082, 348.491 508.806 L 351.178 512 409.339 511.993 L 467.500 511.986 469.392 506.243 C 473.731 493.077, 477.368 469.015, 478.422 446.500 C 478.731 439.900, 479.227 429.325, 479.524 423 C 480.181 409.039, 477.602 352.462, 475.490 334.500 C 471.261 298.536, 462.891 265.447, 452.478 243.529 C 439.386 215.970, 411.605 186.932, 386 174.040 C 371.559 166.768, 360.186 165.389, 348.545 169.496 M 511.208 199.139 C 511.093 200.040, 507.610 207.629, 503.466 216.004 C 494.977 233.158, 494.921 231.712, 504.250 236.105 C 506.863 237.335, 509 238.636, 509 238.996 C 509 239.356, 505.738 241.726, 501.750 244.262 C 491.637 250.694, 469.304 268.637, 470.243 269.577 C 470.515 269.848, 473.384 268.549, 476.619 266.690 C 479.853 264.830, 489.137 259.565, 497.250 254.989 L 512 246.669 512 238.783 C 512 230.919, 511.991 230.893, 509 229.850 C 507.350 229.275, 506 228.611, 506 228.374 C 506 228.137, 507.367 225.236, 509.037 221.927 C 511.874 216.307, 512.052 215.304, 511.744 206.705 C 511.563 201.642, 511.322 198.237, 511.208 199.139 M 8.110 277.795 C 6.676 280.474, 15.116 292.277, 23.063 298.709 C 31.032 305.157, 44.936 312.119, 56.634 315.518 C 70.918 319.668, 93.853 323.950, 110.256 325.528 C 130.294 327.455, 129.674 327.487, 130.245 324.500 C 130.520 323.061, 130.251 321.977, 129.611 321.947 C 119.226 321.451, 99.593 319.131, 91.276 317.418 C 74.418 313.945, 53.976 305.327, 40 295.801 C 36.425 293.364, 28.430 287.912, 22.234 283.685 C 16.037 279.458, 10.541 276, 10.019 276 C 9.497 276, 8.638 276.808, 8.110 277.795 M 185.523 446.500 C 185.777 450.350, 185.989 454.827, 185.993 456.450 C 185.998 458.431, 186.331 459.069, 187.007 458.393 C 187.683 457.717, 187.529 454.447, 186.537 448.443 L 185.059 439.500 185.523 446.500" stroke="none" fill="black" fill-rule="evenodd"/>
</svg>