<svg xmlns="http://www.w3.org/2000/svg" width="512" height="512" viewBox="0 0 512 512" version="1.1">
	<path d="M 369.309 3.257 C 364.415 10.501, 359.311 22.599, 354.020 39.500 C 348.938 55.731, 345.397 60.289, 333.949 65.337 C 324.671 69.428, 319.589 69.952, 288.301 70.049 C 258.391 70.142, 249.349 69.447, 240.209 66.356 C 225.967 61.538, 219.296 55.762, 207.552 38.078 C 192.108 14.824, 180.869 6.891, 167.634 9.902 C 149.441 14.041, 138.235 37.331, 126.048 96.328 C 123.720 107.599, 120 136.323, 120 143.027 C 120 143.415, 117.916 145.356, 115.369 147.340 C 99.595 159.629, 72.653 188.976, 57.193 210.708 C 31.598 246.686, 15.465 288.644, 8.375 337.676 C 4.958 361.300, 4.516 393.815, 7.390 410 C 15.545 455.912, 43.517 489.588, 88 507.049 C 101.212 512.235, 94.403 511.978, 218.572 511.989 L 334.644 512 342.072 506.916 C 353.994 498.755, 363.398 488.576, 370.275 476.388 C 388.886 443.405, 395.924 375.469, 387.476 310.358 C 384.773 289.519, 379.455 273.610, 372.741 266.281 L 370.709 264.061 373.104 263.149 C 381.095 260.108, 389.693 256.193, 398.113 251.761 L 407.727 246.701 421.113 250.826 C 438.659 256.231, 473.485 265.894, 478.056 266.625 C 481.212 267.130, 481.982 266.810, 484.327 264.023 C 485.797 262.276, 487 260.401, 487 259.858 C 487 257.789, 484.838 254.968, 482.220 253.621 C 480.174 252.568, 441.332 240.415, 426.750 236.265 C 425.032 235.776, 424.261 234, 425.767 234 C 426.189 234, 428.884 231.945, 431.756 229.433 L 436.977 224.865 448.738 225.996 C 468.075 227.857, 497.697 232.988, 509.750 236.565 C 513.434 237.659, 512.370 235.228, 508.250 233.138 C 498.688 228.287, 466.765 220.324, 449.250 218.421 C 445.813 218.047, 443 217.511, 443 217.229 C 443 216.947, 444.736 213.967, 446.857 210.608 C 448.978 207.249, 451.912 202.136, 453.376 199.246 L 456.038 193.991 464.769 194.556 C 469.571 194.866, 475.075 195.300, 477 195.521 C 488.302 196.815, 499.423 197.173, 498.500 196.213 C 495.723 193.322, 472.969 188, 463.390 188 C 460.425 188, 458 187.804, 458 187.563 C 458 187.323, 458.932 183.386, 460.072 178.813 C 463.082 166.739, 463.732 145.827, 461.560 131 C 454.792 84.817, 435.454 30.163, 417.950 7.750 L 411.898 0 391.699 0.007 L 371.500 0.014 369.309 3.257 M 406.500 48.651 C 395.489 51.277, 389.533 55.215, 385.698 62.405 C 382.537 68.333, 382.547 82.568, 385.718 89 C 388.740 95.131, 396.305 102.569, 401.559 104.576 C 407.058 106.676, 417.940 106.159, 423.350 103.540 C 427.475 101.544, 434 95.885, 434 94.303 C 434 93.775, 432.021 95.239, 429.602 97.557 C 423.960 102.963, 416.844 105.445, 409.024 104.736 C 395.026 103.467, 386.146 93.399, 385.207 77.733 C 384.419 64.603, 389.293 55.905, 399.598 52.049 C 405.646 49.786, 415.777 49.307, 419.316 51.117 C 421.265 52.114, 421.339 52.070, 420 50.714 C 418.432 49.125, 409.947 47.829, 406.500 48.651 M 401.990 60.945 C 394.033 65.154, 391.297 77.271, 396.166 86.735 C 403.325 100.649, 423.442 98.229, 428.554 82.839 C 430.038 78.369, 430.033 77.617, 428.490 72.969 C 426.580 67.220, 423.040 62.589, 418.931 60.464 C 414.995 58.429, 406.279 58.676, 401.990 60.945 M 166 61.602 C 163.525 62.501, 159.795 64.585, 157.712 66.233 C 154.067 69.115, 149.958 75.529, 150.039 78.210 C 150.061 78.920, 150.668 78.150, 151.389 76.500 C 154.629 69.083, 162.800 63.046, 171.500 61.642 C 173.989 61.240, 178.334 61.655, 183 62.739 C 189.435 64.233, 191.174 65.130, 195.250 69.057 C 200.643 74.251, 201.125 74.342, 197.400 69.458 C 191.660 61.933, 175.921 57.995, 166 61.602 M 165.073 73.062 C 159.936 76.783, 157.606 81.813, 158.274 87.738 C 159.303 96.870, 166.957 103.565, 176.098 103.328 C 181.482 103.189, 185.365 101.373, 189.436 97.090 C 191.846 94.556, 192.449 92.936, 192.802 88.057 C 193.155 83.176, 192.835 81.469, 191.014 78.523 C 187.371 72.628, 182.562 70, 175.418 70 C 170.180 70, 168.692 70.440, 165.073 73.062 M 149.141 92 C 149.141 92.825, 149.527 94.400, 150 95.500 C 150.542 96.761, 150.859 96.945, 150.859 96 C 150.859 95.175, 150.473 93.600, 150 92.500 C 149.458 91.239, 149.141 91.055, 149.141 92 M 155.500 103.903 C 159.927 108.702, 167.277 112.619, 173.647 113.574 C 179.222 114.410, 187.576 111.885, 192 108.026 L 195.500 104.973 190.279 108.118 C 186.158 110.601, 183.577 111.369, 178.026 111.766 C 169.122 112.403, 163.462 110.389, 156.528 104.116 L 151.500 99.567 155.500 103.903 M 361 127.662 C 341.743 129.543, 326 136.304, 326 142.694 C 326 146.602, 331.874 150.339, 344 154.146 C 350.636 156.229, 353.401 156.496, 368 156.464 C 385.907 156.424, 392.830 155.215, 402.767 150.393 C 408.368 147.674, 411.571 143.374, 410.503 140.008 C 409.154 135.758, 394.473 130.068, 379.678 128.061 C 372.087 127.031, 368.287 126.950, 361 127.662 M 243.500 130.684 C 232.406 131.649, 218.405 136.556, 213.250 141.285 C 206.733 147.263, 215.160 154.950, 232.815 159.130 C 235.392 159.740, 242.900 160.270, 249.500 160.307 C 267.586 160.408, 285.412 155.865, 290.458 149.867 C 293.717 145.995, 293.667 143.722, 290.250 140.436 C 282.405 132.890, 263.492 128.945, 243.500 130.684 M 358.077 133.589 C 355.512 135.747, 355 136.899, 355 140.516 C 355 144.012, 355.512 145.257, 357.635 146.927 C 361.912 150.292, 369.426 149.375, 372.718 145.087 C 374.983 142.137, 374.240 137.086, 371.077 133.923 C 367.246 130.092, 362.381 129.967, 358.077 133.589 M 246.888 136.445 C 245.451 137.256, 243.683 139.352, 242.957 141.103 C 241.795 143.909, 241.868 144.713, 243.569 147.860 C 244.835 150.203, 246.755 151.907, 249.146 152.812 C 252.351 154.025, 253.217 153.991, 256.304 152.526 C 262.194 149.731, 263.647 141.705, 259.021 137.519 C 256.450 135.192, 250.104 134.631, 246.888 136.445 M 111.332 307.904 C 106.524 309.133, 99.651 313.494, 96.039 317.609 C 91.107 323.225, 88.798 329.431, 88.450 338 L 88.146 345.500 88.891 338.500 C 91.005 318.614, 105.805 306.336, 125.217 308.365 C 140.096 309.920, 150.390 319.305, 152.953 333.652 C 155.446 347.603, 147.771 361.003, 133.216 368.116 C 126.085 371.601, 114.448 371.458, 107 367.794 C 103.975 366.306, 99.925 363.848, 98 362.334 L 94.500 359.579 97.335 362.683 C 98.895 364.390, 103.002 367.225, 106.464 368.982 C 111.718 371.649, 113.850 372.167, 119.384 372.125 C 130.342 372.041, 136.534 369.493, 144.835 361.651 C 157.761 349.440, 157.600 326.579, 144.508 315.284 C 137.383 309.136, 133.464 307.658, 123.500 307.362 C 118.550 307.215, 113.074 307.459, 111.332 307.904 M 110.278 319.549 C 104.924 322.217, 100.892 326.620, 98.449 332.468 C 95.624 339.229, 97.253 347.060, 102.748 353.143 C 109.629 360.759, 118.029 363.296, 127.369 360.581 C 137.688 357.581, 143.935 349.546, 143.978 339.218 C 144.006 332.554, 142.263 328.488, 137.366 323.793 C 129.996 316.726, 119.304 315.051, 110.278 319.549 M 89.089 347.500 C 89.033 350.001, 92.380 357.499, 94 358.500 C 94.664 358.910, 94.442 358.078, 93.506 356.650 C 92.570 355.221, 91.204 352.128, 90.469 349.776 C 89.735 347.424, 89.114 346.400, 89.089 347.500" stroke="none" fill="black" fill-rule="evenodd"/>
</svg>