<svg xmlns="http://www.w3.org/2000/svg" width="507" height="512" fill="none" viewBox="0 0 507 512"><path fill="#000" fill-rule="evenodd" d="M364.309 3.257C359.415 10.501 354.311 22.599 349.02 39.5C343.938 55.731 340.397 60.289 328.949 65.337C319.671 69.428 314.589 69.952 283.301 70.049C253.391 70.142 244.349 69.447 235.209 66.356C220.967 61.538 214.296 55.762 202.552 38.078C187.108 14.824 175.869 6.891 162.634 9.902C144.441 14.041 133.235 37.331 121.048 96.328C118.72 107.599 115 136.323 115 143.027C115 143.415 112.916 145.356 110.369 147.34C94.5951 159.629 67.6531 188.976 52.1931 210.708C26.5981 246.686 10.4651 288.644 3.37507 337.676C-0.0419269 361.3 -0.483927 393.815 2.39007 410C10.5451 455.912 38.5171 489.588 83.0001 507.049C96.2121 512.235 89.4031 511.978 213.572 511.989L329.644 512L337.072 506.916C348.994 498.755 358.398 488.576 365.275 476.388C383.886 443.405 390.924 375.469 382.476 310.358C379.773 289.519 374.455 273.61 367.741 266.281L365.709 264.061L368.104 263.149C376.095 260.108 384.693 256.193 393.113 251.761L402.727 246.701L416.113 250.826C433.659 256.231 468.485 265.894 473.056 266.625C476.212 267.13 476.982 266.81 479.327 264.023C480.797 262.276 482 260.401 482 259.858C482 257.789 479.838 254.968 477.22 253.621C475.174 252.568 436.332 240.415 421.75 236.265C420.032 235.776 419.261 234 420.767 234C421.189 234 423.884 231.945 426.756 229.433L431.977 224.865L443.738 225.996C463.075 227.857 492.697 232.988 504.75 236.565C508.434 237.659 507.37 235.228 503.25 233.138C493.688 228.287 461.765 220.324 444.25 218.421C440.813 218.047 438 217.511 438 217.229C438 216.947 439.736 213.967 441.857 210.608C443.978 207.249 446.912 202.136 448.376 199.246L451.038 193.991L459.769 194.556C464.571 194.866 470.075 195.3 472 195.521C483.302 196.815 494.423 197.173 493.5 196.213C490.723 193.322 467.969 188 458.39 188C455.425 188 453 187.804 453 187.563C453 187.323 453.932 183.386 455.072 178.813C458.082 166.739 458.732 145.827 456.56 131C449.792 84.817 430.454 30.163 412.95 7.75L406.898 0L386.699 0.007L366.5 0.014L364.309 3.257ZM356 127.662C336.743 129.543 321 136.304 321 142.694C321 146.602 326.874 150.339 339 154.146C345.636 156.229 348.401 156.496 363 156.464C380.907 156.424 387.83 155.215 397.767 150.393C403.368 147.674 406.571 143.374 405.503 140.008C404.154 135.758 389.473 130.068 374.678 128.061C367.087 127.031 363.287 126.95 356 127.662ZM238.5 130.684C227.406 131.649 213.405 136.556 208.25 141.285C201.733 147.263 210.16 154.95 227.815 159.13C230.392 159.74 237.9 160.27 244.5 160.307C262.586 160.408 280.412 155.865 285.458 149.867C288.717 145.995 288.667 143.722 285.25 140.436C277.405 132.89 258.492 128.945 238.5 130.684ZM353.077 133.589C350.512 135.747 350 136.899 350 140.516C350 144.012 350.512 145.257 352.635 146.927C356.912 150.292 364.426 149.375 367.718 145.087C369.983 142.137 369.24 137.086 366.077 133.923C362.246 130.092 357.381 129.967 353.077 133.589ZM241.888 136.445C240.451 137.256 238.683 139.352 237.957 141.103C236.795 143.909 236.868 144.713 238.569 147.86C239.835 150.203 241.755 151.907 244.146 152.812C247.351 154.025 248.217 153.991 251.304 152.526C257.194 149.731 258.647 141.705 254.021 137.519C251.45 135.192 245.104 134.631 241.888 136.445Z" clip-rule="evenodd"/></svg>