<svg xmlns="http://www.w3.org/2000/svg" width="512" height="512" viewBox="0 0 512 512" version="1.1">
	<path d="M 144 5.934 C 126.351 9.193, 103.942 19.005, 89.476 29.808 C 75.520 40.229, 59.157 57.203, 46.873 74 C 45.465 75.925, 41.276 82.583, 37.564 88.795 C 8.571 137.314, -3.638 193.558, 4.453 241.323 C 11.698 284.087, 33.807 325.033, 66.105 355.500 C 73.679 362.645, 82 369.550, 82 368.690 C 82 368.427, 80.243 363.777, 78.096 358.356 C 52.210 292.996, 64.046 221.181, 108.876 171.602 C 123.917 154.968, 144.020 139.101, 161.694 129.915 L 169.889 125.656 158.194 120.266 C 141.062 112.369, 139.095 111.483, 132.500 108.686 C 129.200 107.287, 122.361 104.198, 117.302 101.821 L 108.105 97.500 124.302 97.476 C 139.236 97.453, 141.131 97.239, 148.578 94.736 C 166.951 88.562, 185.550 71.340, 191.022 55.435 C 193.583 47.992, 193.734 33.514, 191.324 26.428 C 188.956 19.463, 180.400 11.147, 172.500 8.132 C 165.830 5.585, 151.761 4.500, 144 5.934 M 0 36.202 L 0 61.841 6.750 62.503 C 12.190 63.037, 32.127 66.656, 46 69.626 C 47.963 70.047, 48.178 69.933, 47 69.096 C 46.175 68.510, 45.893 68.024, 46.373 68.015 C 46.854 68.007, 41.679 62.245, 34.873 55.211 C 22.404 42.322, 10.490 27.546, 3.687 16.531 L 0 10.563 0 36.202 M 121.009 42.855 C 116.144 45.465, 112.663 52.233, 113.477 57.500 C 114.782 65.938, 120.788 71, 129.497 71 C 135.091 71, 138.739 69.054, 141.747 64.465 C 146.748 56.836, 144.547 46.766, 137.016 42.824 C 132.533 40.478, 125.417 40.492, 121.009 42.855 M 176.558 125.291 L 170.616 126.500 168.250 132.395 C 161.678 148.770, 158.837 165.565, 158.759 188.500 C 158.674 213.541, 161.703 233.392, 169.031 255.830 C 188.956 316.836, 230.192 355.118, 299 376.490 C 329.623 386.002, 370.488 392.876, 417.500 396.423 C 456.297 399.350, 469.714 400.006, 490.750 400.003 L 512 400 512 361.647 L 512 323.295 505.750 317.448 C 502.313 314.232, 492.399 304.729, 483.719 296.329 C 448.822 262.557, 402.097 224.559, 359 194.902 C 317.281 166.193, 272.360 143.176, 238.500 133.159 C 214.271 125.991, 188.936 122.773, 176.558 125.291 M 309.250 424.715 L 305 425.115 304.996 432.307 C 304.991 441.253, 302.598 456.348, 300.024 463.671 C 294.401 479.670, 280.093 495.525, 260.828 507.103 L 252.681 512 265.288 512 L 277.896 512 283.698 507.111 C 306.623 487.793, 317.095 465.233, 317.400 434.500 C 317.512 423.286, 318.016 423.891, 309.250 424.715 M 351.500 425.907 L 346.500 426.500 346.834 436 C 347.404 452.231, 344.743 470.715, 339.960 483.739 C 337.413 490.677, 331.455 502.453, 327.791 507.792 L 324.847 512.083 333.157 511.792 L 341.468 511.500 346.246 502 C 351.203 492.145, 355.265 480.406, 356.982 470.971 C 359.890 454.994, 360.299 424.773, 357.602 425.157 C 356.996 425.244, 354.250 425.581, 351.500 425.907 M 207 442.005 C 207 467.369, 204.317 481.343, 195.998 499.304 C 194.420 502.712, 192.155 506.962, 190.966 508.750 L 188.804 512 196.744 512 L 204.685 512 208.247 504.250 C 216.354 486.612, 219.997 466.307, 219.999 438.750 L 220 427 215.750 426.986 C 213.412 426.979, 210.488 426.701, 209.250 426.370 L 207 425.767 207 442.005 M 164.701 441.250 C 164.026 456.214, 161.898 465.282, 156.586 475.829 C 150.054 488.800, 138.138 501.732, 126.358 508.636 C 123.961 510.041, 122 511.372, 122 511.595 C 122 511.818, 127.183 512, 133.519 512 L 145.037 512 150.941 506.059 C 168.508 488.383, 177.974 463.956, 177.994 436.250 L 178 428 171.650 428 L 165.300 428 164.701 441.250" stroke="none" fill="black" fill-rule="evenodd"/>
</svg>