<svg xmlns="http://www.w3.org/2000/svg" width="512" height="521" viewBox="0 0 512 521" version="1.1">
	<path d="M 427.286 148.392 C 417.032 151.739, 409.652 158.168, 403.055 169.500 L 398.980 176.500 393.074 176.500 C 385.361 176.500, 385.980 174.857, 384.658 198.844 C 384.021 210.389, 383.154 220.181, 382.732 220.602 C 381.644 221.688, 371.945 219.059, 369.221 216.940 C 367.316 215.457, 365.350 215.223, 357.221 215.508 C 351.875 215.696, 346.150 215.452, 344.500 214.966 C 342.850 214.480, 339.655 213.885, 337.400 213.644 C 332.862 213.159, 328.718 211.257, 322.696 206.895 C 317.457 203.100, 314.702 203.222, 310.358 207.441 C 308.409 209.333, 305.394 211.172, 303.657 211.526 C 301.921 211.881, 299.375 213.483, 298 215.087 L 295.500 218.004 183 218.508 C 44.680 219.128, 17.891 219.571, 16.820 221.257 C 14.375 225.108, 11.937 225.026, 128.250 225 C 189.988 224.986, 253.242 224.980, 268.816 224.987 L 297.133 225 296.816 227.750 L 296.500 230.500 155.623 230.500 L 14.746 230.500 15.388 242.500 C 15.741 249.100, 16.260 265.750, 16.540 279.500 C 17.355 319.377, 17.492 320.012, 25.321 319.986 C 33.697 319.959, 37 315.879, 37 305.562 C 37 302.115, 37.121 302, 40.750 301.985 C 45.814 301.964, 47.170 300.897, 47.902 296.354 C 48.496 292.675, 48.710 292.486, 52.627 292.199 L 56.730 291.898 57.213 299.413 C 57.879 309.801, 59.561 311.238, 68.875 309.375 L 72 308.750 72 286.434 C 72 259.428, 54.171 263.213, 185.077 262.427 L 296.500 261.757 298.126 264.744 C 299.280 266.862, 300.767 267.921, 303.239 268.385 C 305.157 268.745, 307.575 269.992, 308.613 271.158 C 313.250 276.363, 320.781 276.588, 324.882 271.643 C 326.913 269.194, 334.624 266.049, 338.304 266.169 C 340.062 266.226, 343.260 265.529, 345.411 264.620 C 347.667 263.667, 350.206 263.258, 351.411 263.654 C 355.646 265.046, 367.274 263.994, 370.640 261.914 C 372.412 260.818, 376.116 259.655, 378.872 259.329 L 383.881 258.736 384.190 278.842 C 384.557 302.635, 384.919 303.544, 393.880 303.135 L 398.843 302.908 402.569 309.999 C 418.151 339.651, 457.699 338.937, 473.580 308.716 L 477.239 301.753 482.369 302.349 C 491.202 303.376, 490.500 308.695, 490.500 240.787 C 490.500 171.484, 491.048 175.736, 482.224 176.590 L 476.500 177.144 473.529 170.399 C 465.900 153.078, 444.351 142.823, 427.286 148.392 M 413.300 163.265 C 408.193 168.658, 404.999 174.621, 405.015 178.730 C 405.034 183.350, 406.570 181.507, 407.553 175.683 C 407.963 173.261, 409.871 169.781, 412.684 166.327 C 417.664 160.213, 418.062 158.237, 413.300 163.265 M 431.007 169.593 C 423.473 172.860, 420.363 177.673, 419.055 188.088 C 417.986 196.604, 418.313 196.227, 411.499 196.792 L 406 197.248 406 239.497 L 406 281.746 411.059 282.232 C 417.496 282.850, 417.914 283.330, 419.059 291.412 C 422.935 318.783, 453.441 317.740, 456.565 290.130 C 457.347 283.214, 458.667 282, 465.406 282 L 468.681 282 469.338 260.250 C 469.700 248.287, 469.996 229.162, 469.998 217.750 L 470 197 465.500 197 C 459.742 197, 457.002 194.504, 456.994 189.250 C 456.972 174.154, 443.678 164.098, 431.007 169.593 M 390.096 196.654 C 389.991 209.206, 390.272 213.555, 391.228 214.162 C 392.228 214.796, 392.232 214.973, 391.250 214.985 C 390.391 214.995, 390 216.875, 390 221 C 390 227.135, 391.443 229.246, 392.185 224.195 C 393.368 216.135, 393.090 183.812, 391.824 182.255 C 390.683 180.850, 390.739 180.715, 392.238 181.277 C 393.194 181.635, 396.344 182.160, 399.238 182.445 C 404.814 182.992, 401.966 182.008, 393.869 180.590 L 390.237 179.954 390.096 196.654 M 476.194 190.250 C 475.777 191.488, 475.676 204.200, 475.968 218.500 C 476.261 232.800, 476.275 251.184, 476 259.352 C 475.725 267.521, 475.831 274.721, 476.235 275.352 C 477.024 276.586, 477.059 275.251, 477.514 225.750 C 477.684 207.255, 477.431 193, 476.932 193 C 476.440 193, 476.470 191.894, 477 190.500 C 477.523 189.125, 477.725 188, 477.450 188 C 477.175 188, 476.610 189.012, 476.194 190.250 M 312.607 215.582 C 311.323 218.929, 311.921 222.164, 313.750 221.764 C 314.712 221.553, 315.387 220.845, 315.250 220.191 C 315.113 219.536, 315.388 219, 315.861 219 C 316.335 219, 316.508 217.875, 316.245 216.500 C 315.710 213.703, 313.538 213.155, 312.607 215.582 M 302.639 219.694 C 301.309 221.025, 301.988 226, 303.500 226 C 304.493 226, 305 225.007, 305 223.059 C 305 220.124, 303.850 218.484, 302.639 219.694 M 324 223 C 324 225.200, 324.420 227, 324.933 227 C 326.283 227, 327.241 223.334, 326.500 221 C 325.431 217.630, 324 218.775, 324 223 M 336.448 221.274 C 335.652 223.348, 336.218 226.050, 337.500 226.303 C 338.894 226.578, 339.400 222, 338.117 220.717 C 337.382 219.982, 336.880 220.149, 336.448 221.274 M 361.826 223.709 C 361.249 226.115, 361.929 229, 363.073 229 C 363.583 229, 364 227.875, 364 226.500 C 364 225.125, 364.034 223.674, 364.075 223.275 C 364.242 221.658, 362.224 222.047, 361.826 223.709 M 370.172 227.169 C 370.479 229.326, 370.989 229.482, 378.310 229.665 C 385.007 229.832, 386.075 229.630, 385.810 228.253 C 385.463 226.454, 376 225.316, 376 227.073 C 376 227.611, 374.615 227.335, 372.922 226.460 C 369.900 224.897, 369.850 224.910, 370.172 227.169 M 309.838 232.427 C 309.343 241.999, 310.529 245.041, 311.425 236.500 C 311.829 232.650, 312.236 228.872, 312.330 228.104 C 312.423 227.336, 311.977 226.524, 311.338 226.300 C 310.552 226.024, 310.066 228.011, 309.838 232.427 M 390.362 229.500 C 390.712 230.414, 390.363 231, 389.469 231 C 387.747 231, 387.643 231.932, 388.975 235.435 C 390.471 239.369, 391.471 238.500, 391.782 232.996 C 391.964 229.762, 391.662 228, 390.925 228 C 390.298 228, 390.045 228.675, 390.362 229.500 M 389.368 249.141 C 389.656 254.838, 389.917 267.318, 389.946 276.872 C 389.994 292.197, 390.177 294.098, 391.500 293 C 392.969 291.781, 393.808 275.141, 392.468 273.801 C 392.175 273.509, 391.838 265.708, 391.718 256.467 C 391.550 243.537, 391.194 239.563, 390.172 239.223 C 389.103 238.867, 388.946 240.802, 389.368 249.141 M 403.250 286.737 C 400.363 286.939, 398 287.561, 398 288.120 C 398 289.282, 407.599 288.335, 410 286.935 C 411.333 286.158, 411.333 286.078, 410 286.215 C 409.175 286.300, 406.137 286.535, 403.250 286.737 M 463.326 286.659 C 463.839 287.172, 467.073 287.770, 472.452 288.346 C 475.837 288.708, 476.155 288.587, 474.669 287.500 C 473.137 286.380, 462.239 285.572, 463.326 286.659 M 461 291.926 C 461 295.884, 460.217 298.793, 457.954 303.247 C 454.747 309.557, 454.732 311.738, 457.918 308.318 C 461.761 304.193, 464.075 298.195, 463.665 293.422 C 463.068 286.471, 461 285.311, 461 291.926 M 442 314.642 C 439.360 315.490, 435.640 315.870, 433 315.563 C 429.841 315.195, 429.096 315.310, 430.500 315.949 C 434.626 317.827, 447 316.029, 447 313.551 C 447 313.248, 446.887 313.044, 446.750 313.099 C 446.613 313.153, 444.475 313.848, 442 314.642" stroke="none" fill="black" fill-rule="evenodd"/>
</svg>