<svg xmlns="http://www.w3.org/2000/svg" width="512" height="512" viewBox="0 0 512 512" version="1.1">
	<path d="M 154.715 2.009 C 148.902 6.582, 147.789 12.622, 150.447 25.164 C 152.321 34.006, 154.115 37.260, 161.389 45.015 C 169.162 53.303, 175.648 61.956, 181.655 72.054 C 187.113 81.230, 196.716 91.577, 203.419 95.506 C 209.954 99.335, 219.958 102.607, 230.902 104.493 C 241.231 106.274, 244.257 107.563, 257.345 115.760 C 265.944 121.145, 266.172 121.385, 265.533 124.399 C 263.392 134.499, 263.613 136.982, 268.766 160.859 C 269.208 162.909, 269.028 163.088, 267.387 162.228 C 266.349 161.684, 263.025 160.702, 260 160.045 C 192.200 145.331, 194.618 145.612, 146.500 146.872 C 104.217 147.979, 94.461 149.163, 75.329 155.515 C 55.470 162.108, 48.264 166.998, 27.917 187.688 C 14.685 201.144, 9.726 207.470, 3.187 219.235 L 0 224.970 -0 269.954 L -0 314.939 5.028 323.451 C 7.793 328.132, 12.223 334.567, 14.872 337.751 C 19.612 343.446, 19.699 343.676, 20.266 352.020 C 21.370 368.239, 28.140 395.445, 34.070 407.490 C 38.094 415.664, 44.184 422.603, 52.613 428.618 C 57.521 432.120, 59.703 434.540, 62.231 439.283 C 66.796 447.849, 79.076 460.230, 86.279 463.527 C 89.404 464.958, 92.247 466.590, 92.595 467.153 C 93.680 468.910, 108.923 479.867, 116.166 484.097 C 125.397 489.488, 143.101 497.312, 156 501.700 C 163.868 504.376, 168.512 505.346, 174.524 505.567 C 180.076 505.772, 185.500 506.808, 192.127 508.931 L 201.707 512 281.403 512 C 369.607 512, 362.167 512.542, 372.252 505.377 C 375.122 503.338, 378.200 502, 380.021 502 C 381.680 502, 390.341 498.688, 399.268 494.641 C 408.196 490.593, 420.675 484.962, 427 482.126 C 433.325 479.290, 441.493 474.724, 445.152 471.979 C 458.361 462.067, 472.689 444.494, 480.997 428.014 C 485.919 418.251, 496.429 401.062, 504.697 389.251 L 512.067 378.724 511.783 368.662 L 511.500 358.599 503.406 370.050 C 488.720 390.824, 481.342 402.307, 472.468 418.203 C 456.646 446.544, 444.160 460.410, 426.500 469.249 C 419.208 472.899, 396.334 483, 395.360 483 C 395.053 483, 397.495 480.976, 400.786 478.501 C 410.607 471.119, 425.832 456.157, 434.222 445.643 C 446.284 430.528, 454.582 417.168, 463.804 398.008 C 468.739 387.757, 476.053 374.719, 481.475 366.508 C 492.509 349.801, 496.849 341.431, 500.990 328.877 C 505.743 314.463, 507.283 303.639, 506.732 288.500 C 506.357 278.193, 505.712 273.739, 503.614 267 C 498.474 250.480, 491.836 238.968, 479.279 224.793 C 476.011 221.104, 470.449 213.229, 466.919 207.293 C 459.067 194.091, 448.056 182.729, 436.331 175.729 C 414.383 162.628, 368.507 147.069, 351.574 146.985 C 349.883 146.976, 347.860 146.564, 347.078 146.069 C 343.842 144.021, 363.404 140.774, 379 140.770 C 398.917 140.766, 409.689 143.967, 440.500 159.048 C 484.188 180.432, 493.278 189.014, 505.056 220 C 506.833 224.675, 509.117 229.687, 510.132 231.138 C 511.837 233.577, 512.003 236.841, 512.311 274.138 C 512.521 299.650, 512.603 294.429, 512.533 259.948 L 512.422 205.396 509.578 200.448 C 497.903 180.139, 483.618 168.702, 447.364 150.640 C 421.279 137.643, 416.227 135.555, 403 132.308 C 387.945 128.613, 373.162 128.162, 357 130.906 C 343.738 133.158, 322.812 137.947, 314.500 140.632 C 308.476 142.579, 295.303 149.413, 292.436 152.080 C 289.546 154.768, 288.577 154.522, 285.228 150.250 L 282.289 146.500 285.111 142.648 C 286.663 140.529, 288.850 136.345, 289.970 133.351 C 291.090 130.357, 292.919 126.120, 294.033 123.935 C 295.857 120.360, 296.273 120.076, 298.185 121.099 C 303.051 123.703, 309.104 122.626, 319.039 117.387 C 335.277 108.825, 357.304 94.758, 376.015 81 C 382.373 76.325, 392.855 68.900, 399.308 64.500 C 423.316 48.129, 452.167 25.447, 455.552 20.281 C 456.978 18.104, 456.928 17.575, 454.922 13.559 C 453.725 11.161, 450.712 7.077, 448.227 4.484 L 443.708 -0.232 428.104 0.276 C 414.703 0.712, 410.382 1.294, 397.500 4.397 C 375.422 9.717, 366.424 12.816, 350.500 20.584 C 339.438 25.980, 332.961 30.823, 327.209 38 C 322.946 43.319, 306.435 63.061, 302.637 67.381 C 301.612 68.546, 299.637 70.975, 298.247 72.777 C 296.858 74.580, 295.574 75.908, 295.395 75.729 C 295.216 75.549, 296.404 68.996, 298.035 61.165 C 299.666 53.334, 301 44.945, 301 42.522 C 301 36.714, 302.317 36.144, 305.112 40.744 C 307.991 45.482, 308.932 46.107, 311.291 44.844 C 312.836 44.017, 313.070 43.144, 312.547 40.164 C 310.766 30.018, 308.787 25.501, 304.045 20.759 C 299.925 16.639, 298.739 16, 295.215 16 C 292.065 16, 290.701 16.565, 289.179 18.500 C 287.753 20.312, 286.253 21, 283.729 21 C 279.535 21, 277.992 22.639, 277.296 27.831 C 276.829 31.313, 277.195 32.210, 280.636 36.019 C 283.082 38.727, 284.386 41.068, 284.188 42.398 C 283.183 49.180, 278.674 66, 277.862 66 C 277.332 66, 276.264 64.484, 275.490 62.630 C 272.435 55.319, 260.636 41.939, 248.888 32.467 C 235.450 21.631, 218.453 11.807, 199.500 3.921 C 191.689 0.671, 191.098 0.584, 174.485 0.217 C 158.251 -0.141, 157.344 -0.059, 154.715 2.009 M 171.702 17.632 C 170.559 18.775, 170.900 23.825, 172.353 27.282 C 173.098 29.052, 176.870 33.976, 180.736 38.224 C 184.602 42.472, 191.242 51.247, 195.492 57.724 C 204.173 70.955, 208.852 76.318, 214.060 79.008 C 218.033 81.060, 226.927 83.452, 234.483 84.501 C 240.709 85.365, 251.538 89.352, 255.494 92.237 C 258.504 94.432, 271.874 102, 272.742 102 C 272.998 102, 271.792 100.388, 270.062 98.418 C 267.484 95.482, 266.954 94.083, 267.127 90.668 C 267.296 87.309, 266.404 84.851, 262.529 78 C 253.263 61.620, 243.480 51.457, 224.715 38.718 C 209.964 28.703, 174.669 14.664, 171.702 17.632 M 406 23.549 C 376.370 30.349, 350.504 41.255, 344.737 49.379 C 343.519 51.096, 338.675 57, 333.972 62.500 C 317.030 82.317, 304 99.273, 304 101.502 C 304 102.228, 306.532 100.849, 322.882 91.211 C 340.196 81.005, 349.899 74.333, 407.584 32.972 C 413.680 28.601, 419.488 24.119, 420.489 23.012 C 422.274 21.039, 422.253 21.001, 419.405 21.070 C 417.807 21.108, 411.775 22.224, 406 23.549 M 99.500 161.607 C 89.028 163.477, 74.188 168.374, 65.769 172.738 C 43.720 184.169, 9.164 225.576, 9.697 239.926 C 9.793 242.510, 9.110 245.840, 8.056 247.926 C 5.728 252.537, 3 266.159, 3 273.174 C 3 286.335, 7.649 304.390, 14.544 318 C 20.476 329.710, 20.600 329.709, 21.288 317.893 C 22.113 303.746, 28.841 270.939, 33.469 258.500 C 38.808 244.148, 43.175 236.409, 60.703 210.235 C 81.602 179.029, 91.268 169.236, 108 162.321 C 112.660 160.395, 113.042 160.058, 110.500 160.113 C 108.850 160.150, 103.900 160.822, 99.500 161.607 M 0.461 270 C 0.461 295.575, 0.591 306.038, 0.749 293.250 C 0.907 280.463, 0.907 259.538, 0.749 246.750 C 0.591 233.963, 0.461 244.425, 0.461 270" stroke="none" fill="black" fill-rule="evenodd"/>
</svg>