<svg xmlns="http://www.w3.org/2000/svg" width="350" height="350" viewBox="0 0 350 350"><path fill-rule="evenodd" fill="black" d="M174.703  4.204-3.056 7.796-1.681 3.592-3.11 7.58-3.177 8.862-.066 1.283-.432 2.782-.812 3.332-.916 1.327-3.602 10.106-4.436 14.5-2.142 11.288-1.167 34.525 1.707 40.655.555 1.185.662 2.717.237 3.404-.532.862-.365.998.54.439.977-.604 1.168-.26.748 1.347-.311 1.187-.156 1.906.342 1.597.499-.308.907.54.907 1.885 0 1.344.639 3.677 1.421 5.183.781 1.506 1.155 3.432.83 4.278-.388 1.011-.189 1.291.579.817.668-.413 1.17-.155 1.17.601 0 .728.89 2.984 1.978 5.014 1.392 2.597 1.643 3.896.848 4.387-.793.491-.686 1.025.361 1.796.82.603 2.327 2.897 3.35 5.097 1.906 4.102 3.206 5.518 4.963 5.406.55-.035.438-.291-.25-.568-.687-.278-1.25-1.319-1.25-2.314 0-.996-.704-2.08-1.563-2.41-.86-.33-1.284-1.053-.941-1.607.342-.554.239-1.007-.23-1.007-.468 0-1.421-2.132-2.118-4.737-.697-2.605-2.01-5.558-2.918-6.561-1.325-1.464-1.391-1.984-.337-2.636 1.083-.669 1.079-1.229-.021-3.189-1.454-2.591-2.028-6.091-.883-5.384.393.243 1.523 2.594 2.512 5.224 4.769 12.691 18.416 37.012 26.577 47.364 1.867 2.369 2.637 4.292 2.274 5.681-.59 2.257-3.173 2.014-4.652-.437-1.653-2.739-2.685-1.196-1.165 1.743.873 1.687 1.37 3.6 1.105 4.25-.352.864-.503.846-.561-.068-.141-2.23-2.077-1.32-2.129 1-.042 1.93-24.339-45.407-27.606-53.785-2.828-7.253-7.18-23.427-7.597-28.237-.252-2.9-.69-5.505-.975-5.789-1.552-1.552-23.765 8.871-29.42 13.804-2.577 2.248-3.518 2.686-3.039 1.414.383-1.013.959-2.893 1.282-4.178.322-1.284 1.177-2.561 1.901-2.839.723-.278 1.642-1.998 2.041-3.822.399-1.825 2.467-6.985 4.594-11.468 2.128-4.482 3.869-9.172 3.869-10.421 0-1.249.595-2.982 1.322-3.85.728-.869 1.934-3.604 2.68-6.079.747-2.475 1.704-4.968 2.126-5.539.422-.572 1.215-2.822 1.763-5a295.789 295.789 0 0 1 2.145-7.961c2.611-9.081 2.308-12.444-.836-9.3-.933.933-1.215.767-1.269-.75-.038-1.073-.232-3.187-.432-4.7-.199-1.513.057-2.75.569-2.75.513 0 .932-.436.932-.969 0-.532-.579-.746-1.286-.475-.786.302-1.285-.292-1.285-1.531 0-1.114.578-2.025 1.285-2.025s1.286.42 1.286.933c0 .513.9 1.218 2 1.567s2 1.081 2 1.626c0 .546-.52.671-1.155.279-.634-.393-.889-.286-.565.238.323.524.199 1.582-.276 2.351-.948 1.534.461 5.006 2.031 5.006.531 0 .965-1.152.965-2.559 0-1.77-.385-2.334-1.25-1.828-.687.402-.518-.134.377-1.191C139.686 72.58 141.361 62 140.094 62c-.337 0-1.175.9-1.862 2-.74 1.186-.838 2-.24 2 .554 0 1.008.675 1.008 1.5 0 2.124-1.64 1.86-4.174-.674-1.585-1.585-1.72-1.999-.5-1.531.921.353 1.674.206 1.674-.326 0-.533-.45-.969-1-.969s-1-.587-1-1.304c0-3.179-6.182-11.168-7.377-9.533-.636.869-2.731 2.65-4.656 3.959-7.416 5.038-27.171 24.837-26.518 26.577.258.689-.128.977-.91.678-.754-.29-1.622.29-1.95 1.301-.326 1.002-2.054 3.397-3.841 5.322-3.024 3.258-7.2 8.878-10.748 14.467-.825 1.299-3.287 4.988-5.471 8.198-2.185 3.209-6.145 10.785-8.801 16.835-2.657 6.05-5.267 11.9-5.8 13-2.878 5.932-8.158 21.929-10.561 32-.788 3.3-1.843 7.125-2.346 8.5-.503 1.375-1.147 4.075-1.432 6-.791 5.343-2.372 10.767-2.478 8.5-.117-2.507 4.199-21.69 6.974-31 3.842-12.887 7.492-22.58 13.863-36.82 1.679-3.751 3.052-7.238 3.052-7.75 0-.511.45-.93 1-.93s1.001-.562 1.002-1.25c.002-1.783 13.403-21.872 20.502-30.736C100.047 74.353 125.923 50 130.02 50c2.023 0 3.446 2.678 1.728 3.251-.739.246-.337 1.678 1.142 4.07 2.127 3.442 4.13 4.112 4.095 1.37-.01-.78-.317-.715-.891.191-1.126 1.779-2.26-1.537-2.681-7.845-.316-4.725-3.046-8.248-4.531-5.847-.554.897-1.617.92-4.308.094-1.964-.603-3.778-.763-4.029-.357-.251.407-1.833.538-3.514.291-2.5-.367-2.944-.154-2.437 1.167.409 1.066.084 1.615-.956 1.615-.989 0-1.361-.558-1-1.5.749-1.951-1.035-1.92-9.432.164-6.753 1.676-8.549 2.84-7.752 5.021.239.652-.104 1.411-.76 1.687-.657.276-.119.417 1.196.315 1.314-.103 2.605.423 2.868 1.168.347.983-.102 1.171-1.64.683-1.629-.518-2.114-.254-2.103 1.145.013 1.513.172 1.57.949.341.762-1.205 1.114-1.022 1.921 1 .951 2.382.991 2.391 1.052.257.047-1.647.491-2.054 1.727-1.58 1.248.479 1.45.284.808-.781-.731-1.212-.608-1.219.836-.048 1.928 1.565 2.162.875.657-1.938-1.122-2.095-.044-2.613 1.736-.833.801.801 1.282.528 1.767-1 .698-2.199 2.532-2.912 2.532-.984 0 .624.882.886 1.999.594 1.099-.288 2.243-.129 2.541.354.298.482-.628 1.17-2.059 1.529-1.585.398-2.404 1.165-2.097 1.965.277.721-.034 1.53-.69 1.797-.657.268-.358.522.663.565 1.31.056 1.675-.395 1.239-1.532-.453-1.18-.192-1.448.974-1 .877.336 1.768.611 1.98.611.213 0 .132.666-.181 1.48-.641 1.67-7.428 6.151-8.693 5.739-.454-.148-.532.205-.174.784.358.579-.627 2.277-2.188 3.775-1.56 1.497-4.119 4.297-5.686 6.222-1.567 1.925-4.599 5.386-6.738 7.691-2.14 2.305-3.89 4.538-3.89 4.962 0 .424-1.725 2.588-3.833 4.809-3.238 3.412-5.824 7.164-14.157 20.538C61.098 123.095 54 135.252 54 135.997c0 1.926-6.393 9.985-7.062 8.903-.389-.63-2.225-.89-4.308-.609-2.775.374-3.63.136-3.63-1.008 0-.89-.582-1.274-1.435-.946-.79.303-1.69.013-2-.643-.437-.923-.693-.922-1.132.006-1.545 3.272-4.634 6.16-6.021 5.628-.871-.334-3.165.746-5.404 2.545-4.429 3.56-4.675 3.65-4.675 1.722 0-.772.605-1.172 1.345-.888.94.36 1.162-.045.739-1.346-.475-1.458-.387-1.552.407-.434.78 1.099 1.339.306 2.434-3.448.781-2.681 2.281-5.348 3.331-5.926 1.051-.579 2.136-1.278 2.411-1.553.275-.275 3.875-2.245 8-4.379 7.026-3.634 10-5.947 10-7.781 0-.427-.675-.518-1.5-.202-.832.32-1.5.029-1.5-.653 0-.949-.353-.937-1.547.054-1.245 1.033-1.294 1.467-.25 2.217.948.681.834.784-.421.382-.945-.303-1.938-.194-2.208.242-.593.96-3.637.817-5.366-.252-.793-.49-1.156-.288-.983.548.18.868-.587 1.237-2.225 1.071-1.708-.173-2.077.021-1.166.611 1.066.69 1 .992-.332 1.503-2.313.888-2.502.829-2.502-.778 0-2.509-2.425-2.403-5.25.229-3.439 3.204-3.77.904-.396-2.757 1.294-1.405 3.069-4.805 3.944-7.555 1.57-4.936 1.566-4.968-.276-2.528-1.026 1.36-1.669 2.79-1.429 3.178.24.388-.358.977-1.328 1.308-5.938 2.027-12.355 20.639-12.427 36.042-.05 10.878 3.769 30.654 6.276 32.5.373.275 1.193 2.412 1.821 4.75 1.02 3.796 3.065 5.925 3.065 3.191 0-.582.472-.767 1.05-.41.655.405.332 1.272-.862 2.309-1.232 1.071-1.634 2.193-1.132 3.16 3.057 5.894 8.195 19.501 10.45 27.671.785 2.844 2.3 6.606 3.366 8.359l1.939 3.188 1.522-2.359c.837-1.297 2.304-4.384 3.26-6.859 2.931-7.587 11.661-16.5 15.007-15.321.605.213 1.672-.302 2.372-1.146.7-.843 1.889-1.533 2.642-1.533.753 0 1.931-.9 2.618-2 .687-1.1 1.732-2 2.321-2 .59 0 2.366-1.35 3.947-3s3.352-3 3.936-3C74.588 206 87 193.011 87 191.806c0-6.352 3.753-1.517 3.867 4.981.295 16.906.641 18.559 6.135 29.312 6.42 12.566 10.854 19.514 14.894 23.338 1.707 1.615 3.104 3.481 3.104 4.146 0 5.134 19.854 12.932 34.108 13.397.334.011.89-2.686 1.235-5.992.541-5.174 4.136-14.861 5.134-13.835.186.191.462 5.972.615 12.847.152 6.875.608 13.4 1.011 14.5 1.053 2.868 1.855 5.482 1.766 5.76-.33 1.046 10.057 15.091 14.928 20.185 3.34 3.493 5.803 6.622 5.472 6.953-.331.331-.162.602.376.602 1.589 0 5.449 4.038 4.825 5.048-.316.511.13.659.989.329 1.047-.402 1.395-.15 1.052.762-.295.783.868 2.307 2.738 3.59 4.823 3.306 8.069 6.376 10.656 10.076 8.942 12.793 45.23 12.726 56.073-.103 2.925-3.461 3.744-4.196 10.682-9.593 4.209-3.274 18.34-21.618 18.34-23.808 0-.271.902-1.758 2.003-3.306 1.102-1.547 1.729-3.529 1.393-4.404-.335-.875-.16-1.591.39-1.591 2.019 0 5.641-14.714 4.091-16.623-.501-.618-.64-1.832-.308-2.697s-.11-4.029-.983-7.03c-.872-3.002-1.586-7.471-1.586-9.931 0-2.648-.58-4.956-1.422-5.654-.782-.649-1.739-3.057-2.126-5.351-.388-2.294-1.362-5.173-2.165-6.398-.803-1.226-1.175-2.689-.827-3.251.348-.563.111-2.045-.527-3.294l-1.16-2.271 2.02 2c2.219 2.197 8.953 15.268 11.721 22.75.967 2.613 1.896 4.75 2.065 4.75 2.927 0 16.074-10.422 18.076-14.33.893-1.743 1.959-3.395 2.369-3.67 1.296-.87 6.214-12.434 6.379-15 .054-.825.66-1.387 1.347-1.25.688.138 1.287-.312 1.333-1 .102-1.526.528-4.133 1.43-8.75 1.546-7.913 2.123-15.639 1.33-17.815-.464-1.273-.843-3.72-.843-5.436 0-29.222-26.835-48.381-57.313-40.917-5.7 1.395-9.485 4.172-4.687 3.439.825-.127 3.3-.471 5.5-.766l4-.536-4.75 1.546c-5.679 1.848-5.665 1.74-1.25 9.917 1.925 3.565 3.5 7.128 3.5 7.918s.675 1.695 1.5 2.012c1.898.728 1.963 2.638.089 2.638-.776 0-2.395-2.033-3.597-4.517-1.203-2.484-3.085-4.998-4.184-5.586-1.277-.683-1.819-1.746-1.505-2.948.271-1.035.051-1.784-.487-1.665s-3.079-3.615-5.647-8.297-5.538-9.857-6.6-11.5c-11.152-17.245-15.406-23.416-20.775-30.134-3.452-4.319-6.595-8.303-6.985-8.853-.39-.55-2.306-2.855-4.259-5.121-1.952-2.267-3.55-4.577-3.55-5.134 0-.556-.945-1.259-2.101-1.561-1.155-.302-1.854-.948-1.553-1.435.301-.486-.329-1.516-1.4-2.288-1.07-.771-1.946-1.978-1.946-2.682 0-.703-.45-1.279-1-1.279s-1.001-.562-1.001-1.25c-.001-.687-1.788-3.262-3.97-5.721-2.183-2.458-4.485-5.715-5.115-7.237-.63-1.522-1.493-2.552-1.917-2.29-.424.262-1.304-.167-1.957-.954-.652-.786-1.825-1.184-2.605-.885-.78.3-1.682-.142-2.004-.982-.322-.839-1.216-1.768-1.986-2.064-1.403-.538 4.874 8.329 15.843 22.383 3.219 4.125 7.703 9.975 9.963 13 2.26 3.025 4.39 5.725 4.734 6 3.526 2.823 34.041 45.116 35.515 49.221.296.825-3.542 3.163-10.81 6.586-8.339 3.927-13.148 6.975-18.497 11.724-3.976 3.53-8.128 6.899-9.227 7.487-1.099.588-3.42 3.589-5.158 6.668-2.933 5.198-3.22 5.433-4.01 3.297-.468-1.266-1.571-2.828-2.451-3.471-1.242-.908-1.362-1.615-.538-3.155 3.504-6.547-6.985-24.945-17.725-31.09-2.521-1.443-4.743-2.739-4.937-2.881-.194-.142.601-3.125 1.767-6.628 7.811-23.472 7.218-60.433-1.071-66.76-.824-.629-.325-13.917.606-16.15.379-.908 2.19-1.933 4.023-2.277 4.104-.77 6.528-4.208 6.528-9.258 0-3.686-.03-3.716-1.557-1.536-1.589 2.27-6.212 3.276-4.838 1.053.486-.787.178-.961-.941-.531-.915.351-1.664.202-1.664-.33 0-.533-.937-.969-2.083-.969-1.233 0-1.905-.51-1.647-1.25.241-.687 1.22-1.108 2.177-.935 2.246.407 8.533-3.863 8.561-5.815.018-1.21.187-1.241.873-.159.467.738 4.585 1.989 9.15 2.782 10.08 1.749 17.038 4.982 27.743 12.889.15.111.003.906-.327 1.766-.75 1.955-7.447-1.548-7.447-3.896 0-1.036-.715-1.241-2.645-.756-2.505.628-2.607.51-1.929-2.231.559-2.261.45-2.634-.496-1.704-4.599 4.519-.588 23.857 7.388 35.621 1.048 1.546 3.015 4.897 4.37 7.446 1.355 2.549 3.555 5.931 4.888 7.515 1.333 1.584 2.424 3.225 2.424 3.647 0 .421 5.256 5.449 11.681 11.173 6.425 5.724 12.5 11.195 13.5 12.157 1 .963 2.221 1.75 2.712 1.75.491 0 1.118.587 1.394 1.305.395 1.03 20.489 11.915 22.678 12.285.294.05 2.292.873 4.438 1.828 2.147.955 7.145 2.357 11.106 3.115 8.15 1.559 11.637 2.9 16.085 6.183 4.921 3.632 5.461 2.971 3.416-4.181-1.017-3.555-2.133-9.518-2.48-13.25-1.185-12.73-1.599-15.241-3.487-21.15-2.681-8.392-9.504-20.846-14.988-27.357-.592-.703-2.008-2.52-3.146-4.038-1.138-1.517-2.553-2.46-3.144-2.095-.599.37-.787.199-.425-.386 1.044-1.69-3.094-6.07-4.181-4.425-.711 1.077-.997 1.029-1.488-.25-.349-.91-.089-1.589.61-1.595.671-.006-.972-2.031-3.649-4.5-4.724-4.356-6.364-5.482-5.17-3.55.319.516-.217 1.437-1.191 2.047-1.544.968-1.483 1.031.479.494 1.238-.338 2.236-.247 2.218.203-.057 1.464-2.648 4.304-3.317 3.635-.358-.358-.651-.126-.651.515 0 .642-.498 1.167-1.107 1.167s-.862-.638-.563-1.417c.299-.78-.14-1.68-.975-2-2.1-.806-2.057-.83-2.669 1.512-.46 1.758-1.041 1.986-3.618 1.42-2.327-.511-3.219-.285-3.687.935-.415 1.081-1.277 1.4-2.625.973-1.264-.402-1.769-.253-1.365.401 2.146 3.472-2.199 1.173-8.69-4.598-7.892-7.016-15.334-12.899-21.936-17.34-2.138-1.438-4.56-3.576-5.383-4.75-.822-1.175-2.445-2.136-3.605-2.136-4.12 0-.113-1.723 4.473-1.923 1.055-.047 1.75-.868 1.75-2.069 0-2.555-4.054-2.237-8.797.692-3.208 1.981-3.393 1.987-6.807.247-1.929-.984-7.322-2.796-11.982-4.027-4.881-1.29-8.318-2.701-8.106-3.329.202-.6-.347-1.639-1.22-2.309-1.366-1.048-1.379-1.229-.088-1.295.825-.043-.525-1.162-3-2.487-5.483-2.936-11.997-3.266-14.297-.724m57.131 29.284c1.216 1.132 1.949 2.482 1.629 3-.319.517.683.933 2.228.924l2.809-.016-3.386-2.984c-3.773-3.326-6.762-4.168-3.28-.924m-115.139.64c-.993.257-1.622.993-1.397 1.634.225.641-.538 1.713-1.695 2.381-2.089 1.206-2.087 1.214.241 1.25 1.473.022 2.526-.664 2.836-1.849.356-1.362 1.092-1.729 2.656-1.326 1.922.494 2.01.37.792-1.117-.755-.92-1.43-1.621-1.5-1.557-.071.064-.94.327-1.933.584m99.305.241c0 .518.43 1.207.956 1.532.526.325.703 1.252.393 2.059-.309.807-.038 1.468.603 1.468s.888-.45.548-1c-.915-1.481.837-1.213 3.059.468C224.39 56.609 225 56.349 225 53c0-2-.5-3-1.5-3-1.816 0-1.991 1.635-.25 2.338.747.301.545.536-.5.583-.963.043-1.75-.391-1.75-.965s-.787-.911-1.75-.75c-.978.164-1.64-.258-1.5-.956.137-.687-.2-1.25-.75-1.25s-1 .423-1 .941M90.69 51.436c-1.166.884-1.427 1.609-.734 2.037.592.366.837 1.053.544 1.527-.293.474-.075 1.144.484 1.49.559.345 1.053.264 1.098-.181.045-.445.286-2.046.534-3.559.518-3.147.504-3.157-1.926-1.314m45.982 1.531c-1.771 1.791-1.763 1.869.252 2.509 1.615.512 1.944 1.204 1.47 3.092-.34 1.352-.17 2.432.381 2.432 1.66 0 2.112-3.849.599-5.104-.795-.66-1.16-1.996-.829-3.037.721-2.271.466-2.257-1.873.108M261 52.946c-13.348 1.147-12.491 2.695 1.451 2.621 6.902-.037 12.549-.168 12.549-.291 0-.344-5.859-3.297-6.2-3.125-.165.083-3.675.441-7.8.795M78.283 58.831c-2.869 1.468-5.232 3.156-5.25 3.752-.018.596-.659 1.084-1.424 1.084-1.829 0-7.483 4.502-7.554 6.016-.03.65-.9 1.45-1.933 1.778-1.032.328-3.17 1.728-4.75 3.111L54.5 77.087l2.095 1.741c1.152.958 2.395 2.401 2.761 3.207.928 2.042.086-2.008-.94-4.522-.548-1.34.224-.927 2.37 1.268 5.115 5.233 9.298.225 4.83-5.781-.968-1.301-.885-1.319.623-.137 2.277 1.786 8.51-3.213 7.907-6.341-.305-1.587-.109-1.736 1.035-.787C77.287 67.483 81 66.898 81 64.819c0-1.15.518-1.558 1.5-1.181 1.979.76 1.9-.095-.203-2.199-1.605-1.604-1.581-1.664.417-1.03 1.829.581 2.039.359 1.53-1.618-.527-2.044-.41-2.143 1.083-.919.92.755 1.673.916 1.673.357 0-.807-2.616-2.493-3.332-2.148-.092.045-2.516 1.283-5.385 2.75M228 57.5c-.86 1.036-.898 1.5-.122 1.5.617 0 1.122-.436 1.122-.969 0-.532.675-.709 1.5-.393.825.317 1.5 1.004 1.5 1.528s-.52.631-1.155.239c-.699-.433-.883-.276-.467.397.747 1.21 3.622.516 3.622-.874 0-.766-3.184-2.928-4.312-2.928-.244 0-1.003.675-1.688 1.5m55.149 3.154c-.743.813-1.019 1.785-.613 2.162.406.376.939.122 1.184-.566.726-2.033 2.017-1.433 2.691 1.25.68 2.712 2.256 3.422 2.256 1.018 0-2.797-3.959-5.569-5.518-3.864M219 60.492c0 .295 1.463 1.475 3.25 2.621 2.5 1.603 2.731 1.967 1 1.579-1.238-.278-2.25-.282-2.25-.009 0 .273 1.012 1.341 2.25 2.373 2.467 2.058 4.75 2.512 4.75.944 0-.55-1.012-1.007-2.25-1.015-1.727-.012-1.919-.225-.824-.918.784-.496 1.578-1.9 1.764-3.119.286-1.875.106-2.024-1.171-.964-1.223 1.015-1.984.942-4.014-.389-1.378-.903-2.505-1.399-2.505-1.103M257.5 62c-.792 1.282 3.517 1.282 5.5 0 1.141-.738.737-.973-1.691-.985-1.755-.008-3.469.435-3.809.985m9.5 7c-4.863.756-4.59 1.046 1.251 1.322 2.428.115 3.75-.263 3.75-1.072-.001-.687-.114-1.182-.251-1.1-.137.083-2.275.465-4.75.85m9-.069c0 .453.675 1.384 1.5 2.069 1.219 1.011 1.5.967 1.5-.239 0-1.707 5.012-1.215 6.196.609.382.59.998.769 1.369.399.37-.371.057-1.277-.696-2.014-1.493-1.461-9.869-2.161-9.869-.824M62.204 75.59c-.924 1.015-1.004 1.924-.28 3.167.918 1.577 1.018 1.584 1.046.076.016-.916.593-1.873 1.28-2.125.838-.307.921-.801.25-1.499-.69-.718-1.402-.6-2.296.381M52 79.772c0 1.055-.9 2.733-2 3.728-1.1.995-2 1.483-2 1.084 0-.4-1.575.944-3.5 2.985S41 91.817 41 92.473c0 .657-.298 1.492-.663 1.856-.364.365-.821 2.113-1.015 3.886-.194 1.773-1.031 3.602-1.859 4.065-.828.464-1.254 1.25-.946 1.747.429.695 5.475-.93 8.337-2.685.195-.12-.367-1.665-1.25-3.434-1.509-3.025-1.486-3.402.379-6.312 1.389-2.168 1.988-2.571 2-1.346.021 2.167 1.593 2.297 2.399.198.404-1.054.198-1.313-.643-.808-.759.455-.684.061.191-1.018.795-.978 2.239-1.549 3.252-1.285 1.131.296 1.569.069 1.155-.6-.401-.65-.088-.856.791-.518 3.001 1.151 5.204-1.753 3.704-4.883C55.216 77.963 52 76.922 52 79.772M35.165 98.877c-.735.466-1.297 1.134-1.25 1.485.227 1.701-.135 2.363-2.92 5.334-1.647 1.757-2.995 3.67-2.995 4.25 0 .58-.45 1.054-1 1.054s-.985.787-.967 1.75c.027 1.426.402 1.287 2.021-.75 5.558-6.993 6.065-7.416 7.115-5.927.768 1.092.891.907.521-.786-.266-1.22.144-2.734.913-3.373 2.735-2.269 1.491-4.894-1.438-3.037m3.91 12.373c.343 2.642-.126 3.668-1.446 3.161-.754-.289-2.126.228-3.048 1.151-2.326 2.326-1.054 3.176 1.413.944C37.215 115.4 38 115.16 38 115.892c0 .774.874.562 2.458-.595 2.858-2.09 4.162-4.472 1.991-3.639-.797.306-1.449.058-1.449-.551 0-.609-.47-1.107-1.044-1.107-.574 0-.971.563-.881 1.25m94.116 32.827c-12.156 3.098-23.356 10.983-26.168 18.423-2.435 6.443-2.15 6.559 3.194 1.298 2.96-2.914 5.221-5.636 5.023-6.048-.197-.412.267-.75 1.032-.75s1.958-1.062 2.653-2.36c1.238-2.313 6.833-5.64 9.486-5.64.739 0 1.936-.713 2.659-1.585 1.261-1.519 7.256-1.378 11.558.272 2.07.795 1.718-3.433-.378-4.545-1.173-.622-4.161-.314-9.059.935M41.32 147.68c-2.128 2.128-8.709 6.921-9.047 6.589-.125-.123-1.319.868-2.654 2.203-1.524 1.524-1.997 2.601-1.272 2.898.806.33.777.496-.097.551-.687.043-1.25.712-1.25 1.485 0 .914.7 1.224 2 .884 1.1-.288 2-.879 2-1.313 0-.434.847-.568 1.881-.298 1.148.3 2.754-.419 4.118-1.843l2.237-2.336-.679 4.75c-.654 4.568.514 6.614 1.825 3.198.373-.973.186-1.299-.501-.875-2.491 1.54.545-4.262 3.99-7.625 3.249-3.171 7.129-8.217 7.129-9.271 0-1.311-5.618.11-6.218 1.573-.395.963-1.237 1.75-1.872 1.75-.825 0-.793-.436.11-1.524 1.879-2.265.442-2.938-1.7-.796m209.18 5.554c-4.453 1.931-6.89 3.709-6.127 4.472.145.145 2.015-.629 4.157-1.721 2.141-1.092 4.36-1.999 4.931-2.017.572-.017 1.913-.692 2.98-1.5 2.889-2.185.006-1.814-5.941.766m-15.663 8.799c-8.16 5.664-12.351 11.299-6.732 9.052 1.317-.527 1.979-.987 1.471-1.022-1.545-.106 3.513-4.912 8.616-8.186 2.645-1.697 4.808-3.264 4.808-3.481 0-1.238-3.184.18-8.163 3.637m-211.801 2.423c-1.517 1.828-.585 3.472 1.718 3.031.96-.183 2.083-.368 2.496-.41.413-.043.75-.485.75-.983 0-.499-1.012-.719-2.25-.489-1.238.229-1.687.15-1-.177 1.426-.678 1.694-2.428.372-2.428-.482 0-1.421.655-2.086 1.456m115.464 1.257c-2.968.714-4.263 2.275-1.95 2.35 1.699.056 1.652.183-.364.992-3.169 1.271-1.864 3.153 1.341 1.935 1.35-.514 3.135-.673 3.964-.355 1.709.656 2.078-1.165.441-2.177-.588-.363-.827-1.29-.532-2.059.557-1.451.418-1.484-2.9-.686m-103 7.291C30.036 177.946 26.052 181 25.07 181c-.654 0-.913.445-.577.989.363.588-.088.72-1.115.326-1.312-.504-1.574-.269-1.095.979.346.903.242 1.882-.233 2.175-1.225.757-.022 4.688 1.3 4.248.602-.201 1.346-1.428 1.652-2.727.349-1.477 2.106-3.141 4.692-4.444 5.541-2.789 8.501-5.596 7.807-7.403-.313-.816.009-1.85.715-2.298.988-.626.938-.806-.216-.78-.825.019-1.95.442-2.5.939m166.013 19.366c-6.725 3.724-8.615 5.928-6.713 7.83 1.649 1.649 4.7-.174 4.7-2.809 0-1.89 1.464-3.109 6.876-5.726 1.582-.765 2.456-1.651 1.942-1.968-.514-.318-3.576.885-6.805 2.673m-173.588 4.413c-2.314 4.069-1.249 5.67 1.674 2.515 1.349-1.455 2.3-3.101 2.114-3.659-.678-2.035-2.25-1.56-3.788 1.144M171 199.443c0 1.19 2.251 5.025 3.4 5.792.797.532.794.739-.011.75-.647.009-.91 1.068-.631 2.531.307 1.605 1.06 2.42 2.079 2.25 1.043-.173 1.783.68 2.131 2.456.354 1.813.937 2.469 1.744 1.965.681-.426.96-1.724.637-2.962-.317-1.211-.924-1.988-1.349-1.725-.425.263-1.018-.463-1.319-1.612-.301-1.149-1.022-1.796-1.602-1.437-.616.381-.834.073-.522-.739.294-.765-.157-1.965-1-2.665-.844-.701-1.32-1.622-1.057-2.047.263-.425-.192-1.329-1.011-2.009-.819-.68-1.489-.926-1.489-.548m-4.986 29.528c-1.658 3.285-2.982 6.772-2.944 7.75.039.979.66.179 1.38-1.776.721-1.955 2.273-5.442 3.45-7.75 1.178-2.307 1.913-4.195 1.635-4.195-.279 0-1.863 2.687-3.521 5.971m42.436-4.891c-.358.579.138 1.629 1.101 2.334 1.223.894 1.404 1.495.6 1.992-.633.392-1.151.16-1.151-.514 0-2.664-1.361.332-1.714 3.774-.233 2.27.116 3.973.919 4.482.899.57.606.826-.955.837-1.578.01-2.25.612-2.25 2.015 0 1.1-.505 2-1.122 2-.776 0-.738.464.122 1.5 1.056 1.273.819 1.5-1.569 1.5-2.712 0-2.744.056-.872 1.563 1.377 1.108 1.578 1.714.691 2.083-.687.286-1.25 1.012-1.25 1.612 0 .6 1.112.046 2.471-1.23 2.067-1.942 2.724-2.111 4.023-1.033 1.323 1.098 1.45 1.022.859-.518-.477-1.242-.328-1.58.477-1.082 1.457.901 1.488.068.094-2.536-.964-1.802-.872-1.901.892-.957 1.468.785 2.758.658 5.076-.498 3.095-1.544 4.115-3.902 1.994-4.609-.613-.204-1.256-1.657-1.428-3.23-.173-1.572-.909-3.285-1.636-3.806-.986-.707-.886-.808.396-.397 2.768.887 3.191-1.333.696-3.656-2.623-2.445-5.509-3.17-6.464-1.626m-40.7 22.678c-4.21 2.611-3.268 3.547 1.25 1.242 2.2-1.122 4-2.257 4-2.52 0-.997-2.601-.364-5.25 1.278"/></svg>