<svg xmlns="http://www.w3.org/2000/svg" width="512" height="512" viewBox="0 0 512 512" version="1.1">
	<path d="M 155.087 7.126 C 151.559 11, 144.373 17.844, 139.116 22.335 C 116.470 41.682, 103.403 56.201, 88.118 79 C 65.808 112.277, 58.217 140.769, 55.347 202.003 L 54.714 215.506 57.401 218.700 C 61.771 223.893, 63.040 223.784, 73.252 217.341 C 83.430 210.919, 99.669 195.927, 109.368 184 C 112.722 179.875, 119.692 171.550, 124.855 165.500 C 135.726 152.764, 143.320 141.774, 151.459 127 C 154.641 121.225, 158.033 115.375, 158.997 114 C 162.470 109.048, 168.810 95.359, 170.806 88.500 C 173.406 79.569, 176.601 62.253, 177.949 49.789 C 179.093 39.221, 179.354 9.776, 178.358 3.750 L 177.738 0 169.619 0.041 L 161.500 0.082 155.087 7.126 M 203.445 8.250 C 203.831 12.787, 205.453 26.283, 207.049 38.240 C 214.169 91.580, 214.282 93.034, 214.085 128.500 C 213.985 146.650, 213.468 165.775, 212.937 171 C 211.881 181.390, 206.060 210.964, 203.193 220.500 L 201.389 226.500 192.444 227.078 C 169.691 228.547, 136.028 242.630, 123.896 255.756 C 115.722 264.598, 103.531 285.482, 100.413 295.982 C 98.975 300.823, 96.188 319.351, 93.491 342 C 90.457 367.483, 90.655 366.528, 88.469 366.240 C 87.386 366.098, 78.175 365.712, 68 365.382 C 51.708 364.855, 48.356 365.027, 39.914 366.824 C 30.075 368.919, 17.390 374.186, 6.267 380.796 L 0.035 384.500 0.017 432.442 L -0 480.384 3.958 486.942 C 6.135 490.549, 10.998 497.550, 14.764 502.500 L 21.611 511.500 70.573 511.759 L 119.535 512.019 121.460 508.443 C 124.590 502.632, 135.143 493.464, 141.396 491.125 C 151.830 487.221, 169.042 485.819, 179 488.062 C 186.294 489.705, 192 492.169, 192 493.676 C 192 495.508, 188.487 502.390, 184.815 507.750 L 181.904 512 188.884 512 C 195.361 512, 196.003 511.802, 197.804 509.250 C 205.347 498.556, 209.521 483.096, 212.046 456.500 C 213.209 444.243, 212.831 435.621, 210.614 423.887 L 209.365 417.274 217.932 416.654 C 228.065 415.922, 238.989 413.053, 247.246 408.957 C 250.523 407.331, 253.345 406, 253.517 406 C 253.688 406, 255.515 409.038, 257.576 412.750 C 264.068 424.442, 268.886 430.854, 279.310 441.676 C 306.922 470.344, 323.238 476.992, 370 478.627 C 402.096 479.749, 422.395 473.864, 445.575 456.716 C 475.444 434.618, 489.243 406.530, 490.735 364.793 C 491.394 346.347, 490.072 334.503, 485.941 321.838 C 482.008 309.777, 477.755 302.657, 469.553 294.400 C 457.168 281.932, 446.986 278.446, 409.903 273.975 C 392.288 271.851, 383.382 271.462, 377.516 272.563 L 374.289 273.168 371.585 264.334 C 365.024 242.901, 360.713 230.179, 358.594 226 C 354.427 217.781, 344.369 199.592, 340.347 193 C 338.165 189.425, 333.306 180.875, 329.548 174 C 325.790 167.125, 318.761 154.525, 313.929 146 C 309.096 137.475, 301.995 123.525, 298.149 115 C 287.749 91.949, 286.050 88.767, 275.987 73.500 C 270.306 64.880, 262.936 51.622, 256.810 39 C 251.337 27.725, 244.754 14.343, 242.180 9.262 L 237.500 0.025 230.750 0.012 C 227.037 0.006, 224 0.180, 224 0.400 C 224 0.619, 225.466 2.982, 227.257 5.650 C 229.048 8.317, 232.761 15.445, 235.507 21.488 C 246.237 45.101, 258.203 68, 265.410 78.717 C 272.707 89.566, 285.229 113.220, 290.358 125.843 C 291.732 129.223, 297.779 140.654, 303.796 151.244 C 309.814 161.835, 316.358 173.724, 318.338 177.665 C 320.319 181.606, 324.348 188.806, 327.291 193.665 C 335.456 207.145, 347.563 229.662, 350.938 237.648 C 353.922 244.706, 361 269.198, 361 272.463 C 361 273.993, 359.270 274.117, 342.003 273.823 C 327.966 273.584, 323.005 273.183, 323.003 272.288 C 322.994 268.720, 318.350 259.602, 313.624 253.872 C 304.023 242.232, 288.674 233.221, 271 228.850 C 262.402 226.723, 259.292 226.500, 238.250 226.500 C 217.198 226.500, 215 226.342, 215 224.830 C 215 223.912, 216.766 215.137, 218.923 205.330 C 225.258 176.544, 225.343 175.533, 225.330 129.500 C 225.317 84.423, 225.056 80.660, 219.109 40 C 217.459 28.725, 215.799 15.113, 215.418 9.750 L 214.726 0 208.734 0 L 202.742 0 203.445 8.250 M 261.158 3.250 C 272.503 38.221, 281.878 52.100, 314.837 82.715 C 330.270 97.051, 336.792 102.017, 350.187 109.632 C 369.916 120.849, 387.184 127.034, 408.500 130.520 C 432.497 134.444, 434.447 132.114, 428.041 107.164 C 426.393 100.749, 423.899 90.573, 422.497 84.550 C 416.737 59.810, 405.985 45.755, 378.511 27.054 C 367.094 19.283, 362.941 17.087, 340.764 7.092 L 325.028 0 292.566 0 L 260.104 0 261.158 3.250 M 184.500 239.486 C 171.955 241.826, 146.392 252.605, 136.950 259.537 C 131.721 263.375, 124.303 273.676, 117.012 287.224 C 112.403 295.786, 110.016 305.444, 107.551 325.500 C 105.127 345.214, 105.079 344.683, 110.251 355.140 C 114.900 364.539, 118.063 368.893, 121.631 370.803 C 124.531 372.355, 134.279 373.849, 146 374.538 C 161.421 375.444, 168.510 376.738, 176.679 380.139 C 185.574 383.842, 197.795 394.211, 202.740 402.250 C 204.313 404.808, 204.899 405, 211.128 405 C 214.811 405, 221.176 404.359, 225.274 403.575 C 233.958 401.913, 249.011 396.219, 248.976 394.609 C 248.964 393.999, 248.037 390.125, 246.917 386 C 245.289 380, 244.889 375.552, 244.920 363.760 C 245 333.050, 250.082 319.410, 268.709 299.906 C 281.213 286.814, 292.298 279.860, 305.296 276.956 C 308.483 276.244, 311.322 275.288, 311.604 274.831 C 311.887 274.374, 310.668 271.282, 308.897 267.958 C 304.402 259.524, 295.974 252.055, 284.728 246.539 C 269.765 239.199, 267.056 238.725, 237.319 238.249 L 211.138 237.830 208.097 247.665 C 206.424 253.074, 204.343 258.512, 203.471 259.750 C 200.306 264.245, 193.984 261.350, 194.016 255.421 C 194.024 253.815, 194.683 249.800, 195.480 246.500 C 196.277 243.200, 196.945 239.938, 196.964 239.250 C 197.008 237.707, 193.702 237.770, 184.500 239.486 M 466.300 384.862 C 455.551 388.576, 444.886 398.439, 439.199 409.926 C 435.676 417.040, 435.525 417.774, 435.585 427.426 C 435.648 437.419, 437.366 444.955, 439.764 445.755 C 441.294 446.265, 455.105 432.954, 460.690 425.587 C 468.445 415.356, 477 394.472, 477 385.770 C 477 383.407, 476.596 383.005, 474.250 383.033 C 472.738 383.051, 469.160 383.874, 466.300 384.862" stroke="none" fill="black" fill-rule="evenodd"/>
</svg>