<svg xmlns="http://www.w3.org/2000/svg" width="512" height="512" viewBox="0 0 512 512" version="1.1">
	<path d="M 512 512, L 0 512, L 0 0 L 256 256 L 512 0 L 512 512 265.319C514.768 259.513 513.464 254.736 510.883 251.108C507.752 246.709 502.907 244.29 497.247 244.29C381.82 244.29 362.978 209.093 343.013 171.83C331.203 149.772 319.008 127.002 288.94 110.356C303.966 77.4923 319.797 58.0844 319.96 57.8872L332.859 42.2271L312.859 44.191C311.221 44.354 274.669 48.2047 237.295 74.1905C208.53 22.3133 157.596 6.65319 155.332 5.97567L138.343 0.924316L145.487 17.382C145.607 17.6564 156.001 41.9698 159.817 80.3653C157.322 79.2504 154.723 78.2127 152.047 77.2779C123.24 67.1151 96.3968 61.9694 72.2635 61.9694C42.7958 61.9694 27.7189 69.8681 27.0928 70.2025L13.7826 77.3379L26.8699 84.8763C27.1614 85.0479 54.9997 101.197 94.51 133.083C77.4692 150.587 64.2876 172.902 55.3684 197.756C54.6223 197.713 53.9534 197.593 53.1729 197.593C24.6486 197.593 0.197998 235.577 0.197998 266.682V283.114L15.8066 278.775L16.1582 278.672C21.2954 285.773 31.4667 291.605 43.6963 292.042C49.8968 343.147 79.5103 382.992 127.623 407.957L101.534 442.245C98.7348 440.914 95.8358 439.804 92.8634 438.926C89.1686 433.605 84.5814 428.962 79.3045 425.204C64.725 414.836 47.7528 413.197 45.1714 416.577C42.5728 419.973 157.631 501.849 160.229 498.47C162.793 495.083 156.173 479.911 141.61 469.543C136.265 465.758 130.318 462.905 124.021 461.104C122.273 458.614 120.322 456.274 118.189 454.106L146.67 416.637C180.375 430.17 221.377 437.442 268.417 437.442C271.754 437.442 275.021 437.305 278.297 437.194V500.709" stroke="none" fill="black" fill-rule="evenodd"/>
</svg>