<svg xmlns="http://www.w3.org/2000/svg" width="512" height="512" viewBox="0 0 512 512" version="1.1">
	<path d="M 73.788 3.687 C 72.650 13.441, 77.623 25.905, 86.750 36.171 C 89.638 39.418, 92 42.413, 92 42.826 C 92 43.239, 89.963 45.279, 87.474 47.359 C 84.985 49.440, 79.598 54.975, 75.503 59.659 C 67.865 68.396, 66.105 72.300, 67.429 77.574 C 68.343 81.214, 74.487 87.350, 81.209 91.335 L 86.918 94.720 82.421 97.949 C 67.656 108.553, 54.630 135.830, 56.523 152.182 C 56.885 155.308, 57.776 158.679, 58.503 159.674 C 59.772 161.409, 60.010 161.394, 64.290 159.314 L 68.753 157.146 69.825 162.480 C 71.371 170.181, 73.459 174.599, 76.490 176.586 C 79.044 178.259, 79.320 178.243, 83.574 176.176 L 88 174.026 88.008 178.763 C 88.018 185.273, 89.804 195.720, 91.450 198.904 C 95.042 205.849, 102.255 209.452, 114.925 210.630 L 121.589 211.249 112.987 219.874 C 103.444 229.444, 100.155 235.702, 97.918 248.551 C 93.917 271.526, 102.248 289.083, 121.720 298.706 C 129.322 302.463, 129.512 302.500, 141.448 302.500 C 152.930 302.500, 153.819 302.349, 160.250 299.303 C 163.963 297.544, 167 296.289, 167 296.513 C 167 296.738, 163.677 299.379, 159.615 302.383 C 148.092 310.904, 139.918 322.033, 133.822 337.500 C 130.147 346.824, 128.859 360.854, 130.982 368.436 C 132.188 372.742, 132.147 372.886, 128.239 378.176 C 118.954 390.746, 115.527 402.045, 115.556 420 C 115.574 430.754, 115.906 433.331, 117.935 438.449 C 122.407 449.732, 131.905 457, 142.178 457 C 144.280 457, 146 457.283, 146 457.629 C 146 457.975, 144.479 459.941, 142.621 461.998 C 137.656 467.494, 134.995 475.472, 135.022 484.788 C 135.049 494.349, 136.991 498.996, 144.103 506.516 L 149.290 512 178.665 512 L 208.040 512 211.895 509.566 C 214.016 508.227, 216.721 505.899, 217.906 504.392 L 220.062 501.652 226.781 504.058 C 231.897 505.890, 235.528 506.461, 242 506.451 C 266.239 506.416, 282.552 492.310, 284.678 469.546 C 285.199 463.971, 284.102 457.642, 281.393 450.581 C 280.912 449.329, 281.360 449.245, 284.160 450.057 C 285.997 450.591, 288.850 450.747, 290.500 450.405 C 295.577 449.353, 306.467 443.134, 310.987 438.707 C 318.973 430.883, 324.539 414.791, 326.796 393 C 327.329 387.848, 327.962 385.582, 328.819 385.761 C 344.532 389.050, 357.265 388.071, 367.337 382.799 C 375.504 378.524, 388.784 365.336, 392.307 358 C 398.643 344.808, 399.676 330.252, 394.829 322.466 C 393.470 320.285, 392.059 317.990, 391.693 317.367 C 391.326 316.744, 393.608 317.296, 396.763 318.593 C 399.918 319.891, 404.215 320.963, 406.312 320.976 C 411.379 321.008, 420.124 316.761, 423.939 312.416 C 434.382 300.523, 441.088 272.004, 436.500 259 C 435.675 256.662, 435 254.638, 435 254.502 C 435 254.367, 436.743 253.977, 438.873 253.636 C 444.910 252.671, 454.567 245.599, 460.114 238.081 C 473.664 219.716, 472.757 194.850, 457.827 175.370 L 452.998 169.070 457.582 171.035 C 467.561 175.313, 480.916 171.906, 497.040 160.968 C 500.087 158.901, 503.234 156.423, 504.033 155.460 C 505.324 153.905, 505.267 153.586, 503.523 152.605 C 498.338 149.686, 496.188 145.899, 491.564 131.542 C 486.730 116.529, 482.653 108.900, 476.698 103.717 C 473.040 100.534, 463.847 95.613, 459.679 94.607 C 458.127 94.233, 457.026 93.605, 457.232 93.213 C 462.015 84.087, 470.496 65.485, 472.831 59 C 474.514 54.325, 477.202 47.125, 478.805 43 C 480.408 38.875, 482.848 32.568, 484.227 28.985 L 486.733 22.470 460.617 22.485 C 438.224 22.498, 433.383 22.226, 426.669 20.582 L 418.839 18.663 419.538 9.332 L 420.238 -0 417.119 -0 L 414 0 413.993 6.750 C 413.989 10.463, 413.732 16.650, 413.422 20.500 L 412.858 27.500 414.850 25.237 C 415.946 23.992, 417 22.501, 417.192 21.924 C 417.408 21.277, 419.452 21.699, 422.521 23.023 C 432.844 27.477, 451.846 29.041, 473.250 27.200 C 478.063 26.786, 482 26.501, 482 26.568 C 482 26.887, 464.518 67.131, 459.123 79.231 C 455.755 86.784, 453 93.832, 453 94.895 C 453 96.303, 455.031 97.830, 460.488 100.526 C 469.291 104.876, 476.094 110.564, 479.413 116.349 C 480.723 118.632, 483.683 127.025, 485.991 135 C 488.298 142.975, 491.068 150.942, 492.146 152.704 L 494.106 155.908 489.897 158.565 C 471.558 170.142, 459.726 171.832, 446.888 164.707 C 436.117 158.729, 419.093 154.003, 402.873 152.487 L 396.245 151.867 395.574 145.054 C 394.682 135.998, 389.869 126.093, 383.157 119.500 L 378.067 114.500 387.216 113.270 C 400.703 111.456, 405.474 109.562, 411.529 103.617 C 415.721 99.502, 417.161 97.178, 418.884 91.748 C 423.789 76.298, 429.592 66.902, 437.663 61.344 C 440.598 59.322, 442.883 57.550, 442.740 57.406 C 442.596 57.263, 438.931 57.761, 434.595 58.514 C 428.680 59.542, 425.812 60.611, 423.106 62.797 C 418.198 66.763, 410.729 77.948, 407.511 86.149 C 404.386 94.115, 401.964 97.450, 397.706 99.652 C 394.258 101.435, 371.905 106.969, 368.076 106.988 C 366.742 106.995, 362.065 105.153, 357.681 102.896 C 345.751 96.754, 339.822 95, 330.990 95 L 323.294 95 322.472 83.250 C 320.353 52.915, 322.435 47.203, 339.586 36.311 C 343.753 33.665, 348.560 30.600, 350.270 29.500 C 351.979 28.400, 355.880 24.463, 358.939 20.750 C 361.997 17.038, 368.261 10.850, 372.859 7 L 381.217 0 377.016 -0 C 373.348 -0, 372.081 0.667, 367.035 5.250 C 363.857 8.137, 358.627 13.589, 355.413 17.364 C 352.019 21.353, 346.413 26.333, 342.035 29.250 C 337.891 32.012, 333.232 35.448, 331.683 36.886 C 329.727 38.701, 327.762 39.500, 325.259 39.500 C 321.795 39.500, 321.573 39.718, 319.659 45 C 317.996 49.586, 317.665 53.027, 317.663 65.710 L 317.661 80.920 315.080 78.919 C 312.932 77.252, 302.011 69.785, 301.277 69.480 C 301.155 69.429, 301.484 67.838, 302.010 65.944 C 302.535 64.050, 305.278 60.025, 308.105 57 C 310.931 53.975, 314.326 50.092, 315.649 48.370 C 319.066 43.924, 323 27.636, 323 17.937 C 323 9.422, 321.995 5.704, 318.759 2.250 C 316.837 0.198, 315.742 -0, 306.339 -0 L 296.027 -0 292.763 3.562 C 290.336 6.210, 288.425 7.267, 285.310 7.685 C 279.170 8.509, 276.172 7.405, 273.848 3.468 C 271.956 0.261, 271.434 0, 266.901 0 C 264.206 0, 262 0.239, 262 0.532 C 262 0.825, 262.689 2.713, 263.531 4.728 C 266.021 10.687, 269.961 15.073, 274.883 17.364 C 277.422 18.546, 280.613 20.297, 281.973 21.256 C 285.599 23.814, 288.174 23.421, 294.150 19.397 C 305.554 11.718, 307.628 10.771, 309.323 12.466 C 312.941 16.084, 312.222 33.254, 308.064 42.500 C 307.075 44.700, 303.971 49.096, 301.167 52.269 C 298.363 55.442, 295.521 59.868, 294.850 62.105 L 293.632 66.172 289.066 65.489 C 286.555 65.113, 284.227 64.637, 283.893 64.432 C 283.559 64.227, 283.052 59.127, 282.767 53.100 C 281.993 36.780, 278.493 30.895, 266.198 25.243 C 262.136 23.376, 258.545 22.676, 250.848 22.252 L 240.801 21.698 241.510 10.849 L 242.219 -0 239.609 -0 L 237 0 237 10.941 C 237 16.959, 236.643 22.103, 236.206 22.373 C 235.769 22.643, 233.470 21.994, 231.097 20.932 C 225.782 18.553, 225.690 18.552, 226.953 20.913 C 228.443 23.695, 235.289 25.781, 245.032 26.419 C 255.649 27.115, 262.419 29.081, 268.581 33.259 C 275.248 37.779, 277.176 42.042, 277.780 53.589 L 278.273 63 274.594 63 C 269.854 63, 256.794 65.698, 251.733 67.723 C 246.834 69.684, 246.824 69.669, 244.537 57.196 C 242.931 48.437, 242.901 46.945, 244.226 41.750 C 245.032 38.588, 245.424 36.001, 245.096 36.002 C 244.768 36.003, 243.173 38.104, 241.552 40.670 C 237.370 47.289, 236.995 54.308, 240.313 63.849 L 242.837 71.106 236.668 77.410 C 228.534 85.722, 224.472 92.752, 221.880 103.004 C 218.165 117.693, 220.950 137.984, 228.554 151.637 C 231.575 157.062, 231.770 157.831, 230.236 158.264 C 229.281 158.534, 226.250 159.659, 223.500 160.764 L 218.500 162.774 218.585 148.742 L 218.669 134.710 214.981 127.105 C 212.952 122.922, 209.649 117.356, 207.641 114.735 C 205.633 112.114, 203.880 109.546, 203.745 109.029 C 203.610 108.512, 205.525 107.056, 208 105.794 C 210.704 104.416, 213.067 102.307, 213.919 100.510 C 215.888 96.364, 216.951 84.922, 217.544 61.500 C 217.822 50.500, 218.771 35.131, 219.654 27.347 C 221.196 13.738, 221.186 13.050, 219.379 9.425 C 218.345 7.352, 216.513 5.021, 215.306 4.244 L 213.113 2.831 213.306 10.665 C 213.413 14.974, 212.947 23.450, 212.271 29.500 C 211.595 35.550, 210.960 47.925, 210.860 57 C 210.761 66.075, 210.169 79.518, 209.546 86.874 C 208.486 99.387, 208.245 100.393, 205.793 102.502 C 202.530 105.309, 198.922 104.825, 193.925 100.909 C 187.148 95.600, 180.618 93.699, 169 93.650 C 147.779 93.562, 132.921 100.584, 123.177 115.309 L 120.578 119.236 109.539 118.800 C 103.468 118.561, 97.600 117.844, 96.500 117.208 C 92.744 115.035, 87 113.100, 87 114.009 C 87 115.583, 95.263 119.834, 101.460 121.448 C 104.738 122.302, 110.078 123, 113.327 123 C 118.980 123, 119.205 123.096, 118.575 125.250 C 114.065 140.664, 113.681 143.396, 114.782 152.260 C 116.559 166.563, 124.189 179.918, 135.529 188.574 C 138.143 190.570, 141.641 192.676, 143.301 193.255 C 146.287 194.296, 146.205 194.363, 135.510 199.653 C 126.272 204.223, 123.875 205, 119.010 205 C 107.790 205, 97.739 200.196, 95.998 194 C 95.457 192.075, 94.746 186.900, 94.418 182.500 C 94.091 178.100, 93.408 173.129, 92.901 171.452 C 91.902 168.153, 94.051 158.051, 98.132 146.858 C 99.316 143.610, 100.058 140.724, 99.779 140.446 C 99.154 139.820, 95.617 147.908, 91.940 158.371 C 89.359 165.716, 88.893 166.369, 84.978 168.121 C 82.670 169.155, 80.467 170, 80.082 170 C 79.697 170, 78.617 167.637, 77.683 164.750 C 76.028 159.635, 76.036 159.465, 77.992 158.128 C 79.113 157.362, 80 155.637, 80 154.223 C 80 151.800, 79.918 151.765, 78.105 153.405 C 76.303 155.036, 76.083 154.992, 73.589 152.498 C 71.678 150.587, 70.361 150.050, 68.733 150.517 C 62.113 152.419, 62.632 153.019, 63.410 144.364 C 65.277 123.605, 78.778 103.579, 95.785 96.344 C 99.242 94.873, 101.717 93.350, 101.285 92.958 C 100.853 92.566, 98.025 91.459, 95 90.497 C 88.202 88.336, 78.740 82.756, 76.030 79.311 C 71.281 73.274, 74.925 66.897, 92 51.358 C 96.675 47.104, 100.647 43.266, 100.827 42.830 C 101.007 42.394, 98.431 39.516, 95.102 36.434 C 85.532 27.574, 80.033 16.211, 80.011 5.250 C 80 0.130, 79.928 -0, 77.109 -0 C 74.522 -0, 74.174 0.387, 73.788 3.687 M 159.639 1.250 C 160.056 1.938, 161.828 4.525, 163.578 7 C 168.565 14.052, 170.709 18.982, 172.447 27.395 C 174.936 39.449, 179.546 47.115, 186.481 50.734 L 189.462 52.290 186.250 48.632 C 184.483 46.619, 182.305 43.557, 181.410 41.827 C 177.599 34.457, 179.638 18.363, 185.959 5.925 L 188.970 0 185.439 0 C 182.156 0, 181.736 0.369, 179.464 5.250 C 178.119 8.138, 177.015 11.036, 177.010 11.691 C 177.004 12.346, 176.539 13.167, 175.976 13.515 C 175.394 13.875, 173.601 11.092, 171.827 7.074 L 168.702 0 163.792 0 C 160.127 0, 159.074 0.317, 159.639 1.250 M 104.500 13.144 C 101.412 15.217, 99.378 17.360, 99.180 18.750 C 98.804 21.399, 100.192 21.679, 102.128 19.345 C 106.728 13.798, 116.698 14.049, 125.737 19.939 C 133.063 24.713, 133.918 25.720, 139.836 36.547 C 143.932 44.042, 146.827 47.574, 157.614 58.238 C 164.701 65.244, 172.241 72.159, 174.369 73.605 C 179.063 76.795, 201.256 88.078, 201.788 87.545 C 202.966 86.367, 202.994 79.309, 201.826 77.897 C 201.097 77.016, 196 74.424, 190.500 72.139 C 179.843 67.709, 173.961 63.529, 158.644 49.500 C 152.074 43.483, 148.579 39.269, 144.543 32.500 C 141.591 27.550, 137.449 21.859, 135.338 19.853 C 130.006 14.788, 121.714 10.873, 115.063 10.282 C 110.001 9.832, 109.050 10.090, 104.500 13.144 M 393.481 18.480 C 389.461 26.539, 385.337 31.434, 376.859 38.208 C 370.167 43.556, 367.614 49.410, 367.587 59.470 C 367.575 63.886, 367.946 69.819, 368.411 72.654 C 369.814 81.213, 368.485 86.532, 363.808 91.071 C 360.192 94.580, 359.996 95, 361.978 95 C 367.482 95, 374.089 89.477, 375.550 83.656 C 375.901 82.257, 375.695 76.474, 375.092 70.806 C 374.349 63.818, 374.313 58.582, 374.979 54.544 C 375.877 49.105, 376.515 48.020, 382.332 42.044 C 389.515 34.664, 391.598 31.427, 395.435 21.679 C 399.635 11.011, 398.299 8.824, 393.481 18.480 M 356.143 39.031 C 352.435 46.449, 350.591 54.902, 351.326 61.109 C 351.807 65.169, 351.621 65.866, 349.940 66.306 C 348.871 66.585, 348.249 66.405, 348.558 65.907 C 348.866 65.408, 348.690 65, 348.166 65 C 345.612 65, 346.389 68.119, 349.584 70.695 C 352.163 72.774, 353.427 74.885, 354.469 78.853 C 356.550 86.785, 357.764 87.180, 358.696 80.230 C 359.065 77.477, 358.590 74.861, 357.114 71.525 C 355.061 66.885, 355.044 66.442, 356.471 55.128 C 357.981 43.156, 358.942 38.845, 360.925 35.139 C 361.852 33.409, 361.792 33, 360.613 33 C 359.812 33, 357.800 35.714, 356.143 39.031 M 404.089 40.475 C 400.365 47.734, 400.381 51.673, 404.155 56.470 C 407.050 60.151, 408.044 58.511, 406.770 52.158 C 405.751 47.080, 406.368 41.355, 408.537 35.750 C 408.909 34.788, 408.808 34, 408.312 34 C 407.816 34, 405.915 36.914, 404.089 40.475 M 443 47.309 C 443 48.029, 443.661 49.491, 444.468 50.559 C 445.276 51.626, 445.951 53.125, 445.968 53.890 C 445.986 54.654, 446.725 55.809, 447.610 56.457 C 449.051 57.510, 448.814 58.409, 445.363 64.997 L 441.506 72.359 441.503 84.994 C 441.500 96.801, 441.662 97.866, 443.978 101.253 C 445.340 103.247, 446.583 104.751, 446.738 104.595 C 446.894 104.439, 446.679 100.979, 446.261 96.906 C 444.982 84.456, 446.236 73.526, 449.853 65.612 C 453.450 57.738, 453.586 57, 451.441 57 C 450.584 57, 450.151 56.565, 450.479 56.034 C 451.317 54.678, 447.424 47.377, 445.461 46.623 C 443.211 45.760, 443 45.819, 443 47.309 M 103.547 50.925 C 103.211 51.467, 106.317 53.472, 110.448 55.380 C 114.578 57.289, 122.458 61.584, 127.957 64.925 C 133.457 68.266, 138.238 71, 138.583 71 C 138.928 71, 141.242 72.371, 143.725 74.047 C 146.208 75.723, 148.497 76.837, 148.811 76.522 C 149.125 76.208, 146.259 72.896, 142.441 69.162 C 135.481 62.355, 121.597 53.755, 114.751 52.011 C 108.244 50.353, 104.145 49.956, 103.547 50.925 M 383 58.863 C 383 59.337, 386.126 62.050, 389.948 64.891 C 393.769 67.733, 398.890 72.338, 401.329 75.126 C 406.063 80.537, 408.262 80.350, 405.393 74.779 C 400.775 65.815, 391.909 58, 386.356 58 C 384.510 58, 383 58.388, 383 58.863 M 326.482 62.030 C 326.131 62.596, 327.022 64.959, 328.460 67.280 C 329.899 69.601, 332.476 73.750, 334.189 76.500 C 335.901 79.250, 338.257 83.933, 339.425 86.906 C 341.474 92.125, 344.186 95.148, 345.574 93.760 C 346.863 92.470, 343.667 79.531, 340.591 73.589 C 338.657 69.854, 335.855 66.347, 333.165 64.295 C 328.542 60.769, 327.483 60.410, 326.482 62.030 M 94 72.415 C 94 74.291, 102.332 80.332, 109.642 83.756 C 115.123 86.323, 116.370 86.500, 129 86.500 C 144.511 86.500, 156.313 85.316, 155.407 83.850 C 155.017 83.218, 149.453 83.115, 140.007 83.565 C 121.469 84.448, 114.745 83.059, 102.807 75.884 C 98.338 73.198, 94.528 71, 94.340 71 C 94.153 71, 94 71.637, 94 72.415 M 449 114.961 C 449 115.504, 450.238 116.606, 451.750 117.409 C 456.505 119.933, 459.516 123.505, 463.312 131.121 C 466.915 138.349, 476.534 150, 478.899 150 C 479.556 150, 478.700 148.265, 476.996 146.145 C 475.292 144.024, 471.558 137.870, 468.699 132.468 C 465.473 126.374, 462.172 121.591, 460 119.866 C 455.900 116.609, 449 113.532, 449 114.961 M 399 123.297 C 399 124.031, 400.913 125.677, 403.250 126.954 C 422.384 137.412, 431.918 143.841, 438.750 150.896 C 442.738 155.013, 445.990 157.733, 445.978 156.941 C 445.941 154.502, 442.461 147.680, 439.405 144.054 C 432.077 135.361, 399 118.368, 399 123.297 M 302.976 197.133 C 302.905 209.656, 297.550 220.413, 285.208 232.820 C 280.097 237.958, 276.722 241.908, 277.708 241.598 C 285.831 239.042, 297.669 239.061, 306.919 241.646 C 309.018 242.232, 309.231 242.069, 308.530 240.411 C 307.057 236.926, 306.743 227.079, 307.951 222.255 C 309.579 215.753, 314.525 206.176, 318.282 202.250 C 319.993 200.463, 321.192 198.988, 320.946 198.974 C 320.701 198.960, 317.350 197.818, 313.500 196.437 C 309.650 195.056, 305.712 193.665, 304.750 193.346 C 303.264 192.854, 302.996 193.426, 302.976 197.133 M 148.105 195.909 C 147.133 196.528, 148.500 197.147, 152.605 197.946 C 165.348 200.428, 175.269 204.615, 182.707 210.650 L 186.913 214.063 186.371 209.281 C 186.072 206.652, 186.279 202.545, 186.829 200.156 C 187.793 195.972, 187.750 195.835, 185.665 196.449 C 178.847 198.460, 157.324 197.908, 150.962 195.560 C 150.158 195.264, 148.872 195.421, 148.105 195.909 M 198 240.124 C 198 242.102, 197.703 245.890, 197.339 248.541 L 196.679 253.362 200.589 251.027 C 207.988 246.609, 208.005 246.531, 202.726 241.252 L 198 236.526 198 240.124 M 245.704 254.740 L 239.908 255.103 242.455 258.128 C 243.855 259.793, 245.274 262.244, 245.609 263.577 C 246.413 266.781, 247.619 266.637, 249.438 263.120 C 250.257 261.536, 252.109 258.836, 253.553 257.120 L 256.178 254 253.839 254.189 C 252.553 254.293, 248.892 254.541, 245.704 254.740 M 342.340 280.635 C 342.691 282.761, 342.995 285.625, 343.016 287 C 343.053 289.454, 343.106 289.437, 345.907 286.059 L 348.760 282.618 357.130 284.455 C 361.734 285.466, 367.413 287.371, 369.750 288.689 C 372.087 290.006, 374 290.922, 374 290.724 C 374 290.525, 373.308 288.031, 372.461 285.182 L 370.923 280 362.711 279.976 C 355.410 279.954, 349.494 279.140, 343.601 277.348 C 341.894 276.829, 341.766 277.163, 342.340 280.635 M 261.357 318.489 C 261.711 319.410, 262 322.192, 262 324.671 L 262 329.178 264.963 326.685 C 266.593 325.313, 268.472 324.009, 269.140 323.787 C 271.025 323.158, 269.261 321.174, 264.789 318.893 C 261.255 317.089, 260.800 317.036, 261.357 318.489 M 237.813 511.683 C 238.534 511.972, 239.397 511.936, 239.729 511.604 C 240.061 511.272, 239.471 511.036, 238.417 511.079 C 237.252 511.127, 237.015 511.364, 237.813 511.683" stroke="none" fill="black" fill-rule="evenodd"/>
</svg>