<svg xmlns="http://www.w3.org/2000/svg" width="512" height="512" viewBox="0 0 512 512" version="1.1">
	<path d="M 184 9.032 C 155.034 13.017, 135.838 20.612, 122.156 33.500 L 114.726 40.500 105.613 40.409 C 91.769 40.272, 65.512 32.501, 39.755 20.919 C 23.208 13.478, 20.155 12.882, 15.759 16.234 C 9.570 20.955, 4.761 26.517, 2.274 31.831 C 0.013 36.663, -0.184 38.115, 0.174 47.331 C 0.530 56.497, 0.888 58.092, 3.807 63.500 C 5.589 66.800, 9.771 72.875, 13.103 77 C 25.955 92.916, 29.770 101.358, 30.702 115.950 C 31.218 124.035, 31.022 125.180, 27.085 137 C 21.520 153.713, 19.472 162.020, 17.100 177.500 C 10.283 221.990, 11.832 262.303, 21.977 304.500 C 35.377 360.231, 60.750 403.292, 101.441 439.359 C 111.253 448.056, 130.191 462.647, 137 466.756 C 155.518 477.930, 174.457 486.405, 194.431 492.459 C 207.611 496.453, 232.428 501.629, 242.813 502.550 C 246.491 502.876, 256.615 504.011, 265.312 505.072 C 289.027 507.964, 310.663 507.703, 332.291 504.263 C 347.923 501.777, 351.974 501.525, 376.500 501.513 C 401.436 501.501, 404.188 501.676, 412.500 503.803 C 433.961 509.294, 444.065 510.176, 454.465 507.467 C 471.547 503.018, 482.372 490.879, 484.509 473.776 C 485.307 467.386, 483.805 449.719, 480.873 431.002 C 478.318 414.691, 478.320 394.816, 480.878 377.391 C 481.937 370.181, 483.472 362.981, 484.289 361.391 C 487.193 355.744, 495.194 329.318, 497.578 317.500 C 498.909 310.900, 500.497 298.075, 501.106 289 C 502.987 260.979, 501.055 243.294, 493.677 221 C 480.709 181.817, 462.462 147.872, 439.385 120 C 428.882 107.313, 404.463 82.879, 393.578 74.163 C 384.284 66.720, 361.330 51.480, 348.409 44.173 C 296.910 15.049, 235.567 1.937, 184 9.032 M 190 16.683 C 188.625 16.908, 183.470 17.763, 178.545 18.582 C 155.564 22.403, 138.023 30.046, 127.047 41.022 C 118.707 49.362, 115.184 50.588, 102.157 49.681 C 87.876 48.687, 62.600 40.648, 35.497 28.479 C 28.785 25.465, 22.598 23, 21.747 23 C 20.897 23, 17.909 25.508, 15.107 28.573 C 11.436 32.590, 9.558 35.714, 8.382 39.758 C 6.863 44.983, 6.868 45.751, 8.458 50.934 C 10.225 56.697, 15.244 64.789, 24.004 76 C 35.256 90.399, 39.108 101.373, 39.087 118.969 C 39.077 127.681, 38.600 130.148, 34.145 144.555 C 27.947 164.597, 27.542 166.445, 23.853 191.500 C 22.053 203.722, 22.035 253.345, 23.826 265.500 C 31.001 314.201, 41.382 345.436, 61.216 378 C 86.579 419.644, 133.491 460.212, 174 475.532 C 178.125 477.092, 182.175 478.883, 183 479.511 C 184.638 480.759, 197.880 484.803, 210.500 487.909 C 222.779 490.931, 234.201 492.877, 249 494.470 C 256.425 495.269, 266.325 496.464, 271 497.125 C 285.078 499.118, 314.247 498.610, 330.500 496.090 C 374.580 489.254, 388.420 489.531, 425 497.982 C 447.089 503.085, 462.354 499.239, 470.836 486.434 C 475.609 479.228, 476.345 474.244, 475.061 457.797 C 474.448 449.934, 473.192 438.775, 472.270 433 C 468.625 410.164, 470.771 372.123, 476.529 357.500 C 487.464 329.727, 492.977 301.413, 492.981 273 C 492.985 247.926, 489.656 232.967, 477.291 202.500 C 462.984 167.249, 447.689 142.410, 423.303 114.826 C 397.926 86.123, 365.418 61.814, 328.632 44.033 C 288.093 24.438, 251.685 15.828, 210.658 16.136 C 200.671 16.211, 191.375 16.457, 190 16.683 M 276.831 130.968 C 262.781 133.506, 249.184 139.758, 230.500 152.273 C 214.269 163.144, 206.783 169.283, 200.345 177 C 189.592 189.891, 186.397 200.978, 190.896 209.797 C 195.340 218.508, 226.957 243.844, 258.500 263.972 C 262.350 266.429, 267.949 270.218, 270.943 272.394 C 276.284 276.274, 276.340 276.367, 273.943 277.336 C 272.599 277.879, 263.625 282.051, 254 286.608 C 235.320 295.450, 229.298 297.496, 219 298.501 C 210.171 299.362, 202.535 302.026, 189.503 308.791 C 175.472 316.075, 173.677 318.391, 174.175 328.573 C 174.634 337.951, 178.581 345.870, 192.583 365.500 C 209.715 389.520, 216.541 396.584, 225.091 399.146 C 228.635 400.207, 229.360 400.110, 231.893 398.237 L 234.728 396.141 236.892 399.068 C 239.671 402.827, 245.895 405.938, 259 410.120 C 268.130 413.033, 270.870 413.472, 280 413.485 C 289.332 413.498, 291.140 413.200, 296.253 410.804 C 303.070 407.609, 311.167 400.217, 318.116 390.843 L 323.146 384.058 327.504 384.656 C 331.049 385.141, 333.042 384.698, 338.181 382.279 C 346.645 378.296, 351.393 373.809, 373.604 348.805 C 383.997 337.105, 396.581 323.250, 401.568 318.016 C 411.359 307.742, 418.493 297.981, 419.572 293.382 C 419.944 291.797, 422.017 288.658, 424.178 286.407 C 429.944 280.402, 431.142 274.728, 430.642 255.783 C 430.225 239.975, 428.485 227.867, 425.141 217.500 C 419.602 200.325, 407.739 185.969, 392.853 178.426 C 390.286 177.125, 385.327 173.897, 381.834 171.253 C 378.340 168.609, 372.336 164.218, 368.491 161.496 C 364.646 158.773, 358.183 153.674, 354.129 150.163 C 344.937 142.203, 339.306 139.549, 333.343 140.366 C 328.274 141.061, 321.149 144.448, 320.344 146.545 C 319.440 148.902, 318.539 148.311, 313.750 142.215 C 307.096 133.745, 300.923 130.664, 290 130.360 C 285.325 130.231, 279.399 130.504, 276.831 130.968 M 275 140.427 C 260.319 143.690, 248.167 150.202, 223.385 168.086 C 204.592 181.647, 194.324 198.053, 199.285 206.590 C 203.021 213.018, 237.525 239.850, 261.720 255.144 C 268.749 259.587, 277.089 265.454, 280.254 268.183 C 283.979 271.395, 286.142 272.678, 286.389 271.822 C 286.600 271.095, 288.399 263.750, 290.389 255.500 C 292.378 247.250, 295.360 235.325, 297.014 229 C 298.669 222.675, 301.574 207.286, 303.469 194.802 C 306.637 173.937, 310.395 158.639, 313.176 155.288 C 314.419 153.790, 305.177 144.788, 298.764 141.250 C 294.068 138.660, 284.452 138.327, 275 140.427 M 330.500 150.164 C 327.018 152.086, 322.879 156.379, 321.019 160 C 317.803 166.259, 316.009 174.056, 311.464 201.516 C 309.005 216.375, 306.092 231.675, 304.991 235.516 C 302.004 245.935, 297.842 263.175, 298.222 263.555 C 298.405 263.738, 309.117 253.658, 322.027 241.155 C 345.937 217.999, 349.769 214.818, 360.699 209.048 C 369.736 204.278, 375.380 198.292, 377.912 190.793 C 379.061 187.393, 380 183.830, 380 182.875 C 380 181.798, 375.553 177.974, 368.310 172.822 C 361.881 168.249, 353.507 161.649, 349.701 158.157 C 340.506 149.719, 335.263 147.536, 330.500 150.164 M 386.674 191.102 C 385.460 201.353, 379.644 207.939, 362.509 218.465 C 352.604 224.549, 348.585 227.938, 332.778 243.537 C 322.725 253.457, 311.612 264.143, 308.082 267.285 C 304.551 270.426, 301.875 273.209, 302.135 273.468 C 303.144 274.478, 319.951 274.205, 328.500 273.041 C 333.450 272.367, 340.112 271.860, 343.305 271.914 C 351.854 272.059, 373.391 275.691, 382 278.440 C 394.132 282.314, 399.795 283.283, 407.203 282.753 C 420.378 281.811, 422.441 277.768, 421.620 254.500 C 420.443 221.142, 411.253 200.522, 392.270 188.646 C 389.943 187.191, 387.868 186, 387.659 186 C 387.450 186, 387.007 188.296, 386.674 191.102 M 328.500 282.046 C 325.750 282.474, 317.118 282.864, 309.317 282.912 C 296.635 282.991, 295.075 283.189, 294.569 284.782 C 294.249 285.790, 296.011 291.113, 298.623 297.032 C 301.164 302.790, 308.179 322.350, 314.211 340.500 C 320.243 358.650, 325.644 374.063, 326.212 374.750 C 330.406 379.825, 344.579 369.047, 365.391 344.955 C 382.052 325.669, 395.303 311, 396.064 311 C 396.783 311, 411.003 292.849, 410.998 291.938 C 410.996 291.697, 406.834 291.437, 401.748 291.359 C 394.870 291.254, 390.578 290.582, 385 288.735 C 365.394 282.245, 343.707 279.677, 328.500 282.046 M 274 287.433 C 270.425 288.684, 262.325 292.296, 256 295.460 C 239.614 303.654, 235.993 304.913, 224.096 306.550 C 212.239 308.182, 205.022 310.534, 194 316.356 C 183.595 321.853, 183 322.478, 183.001 327.905 C 183.002 334.552, 186.921 341.950, 200.533 361 C 213.296 378.862, 223.396 390, 226.832 390 C 229.398 390, 231.437 387.031, 233.013 381 C 234.843 373.997, 240.064 364.144, 245.833 356.805 C 248.728 353.122, 253.725 344.791, 256.937 338.290 C 260.348 331.388, 266.319 321.693, 271.289 314.986 C 277.391 306.750, 280.270 301.879, 281.464 297.771 C 283.201 291.797, 283.218 285.832, 281.500 285.406 C 280.950 285.269, 277.575 286.181, 274 287.433 M 288.239 306.065 C 287.128 308.504, 284.140 313.200, 281.597 316.500 C 273.905 326.481, 268.484 335.080, 264.574 343.500 C 262.530 347.900, 258.257 355.100, 255.077 359.500 C 246.563 371.280, 244.343 375.106, 242.584 381.028 C 240.350 388.552, 240.549 389.838, 244.523 393.587 C 249.721 398.489, 270.144 405.008, 280.207 404.978 C 292.252 404.942, 298.500 400.905, 310.710 385.268 L 317.172 376.992 314.672 370.246 C 313.296 366.536, 307.804 350.350, 302.467 334.278 C 297.129 318.207, 292.198 304.286, 291.509 303.344 C 290.395 301.819, 290.035 302.118, 288.239 306.065" stroke="none" fill="black" fill-rule="evenodd"/>
</svg>