<svg xmlns="http://www.w3.org/2000/svg" width="512" height="512" viewBox="0 0 512 512"><path fill-rule="evenodd" d="M 184 9.032 C 155.034 13.017, 135.838 20.612, 122.156 33.500 L 114.726 40.500 105.613 40.409 C 91.769 40.272, 65.512 32.501, 39.755 20.919 C 23.208 13.478, 20.155 12.882, 15.759 16.234 C 9.570 20.955, 4.761 26.517, 2.274 31.831 C 0.013 36.663, -0.184 38.115, 0.174 47.331 C 0.530 56.497, 0.888 58.092, 3.807 63.500 C 5.589 66.800, 9.771 72.875, 13.103 77 C 25.955 92.916, 29.770 101.358, 30.702 115.950 C 31.218 124.035, 31.022 125.180, 27.085 137 C 21.520 153.713, 19.472 162.020, 17.100 177.500 C 10.283 221.990, 11.832 262.303, 21.977 304.500 C 35.377 360.231, 60.750 403.292, 101.441 439.359 C 111.253 448.056, 130.191 462.647, 137 466.756 C 155.518 477.930, 174.457 486.405, 194.431 492.459 C 207.611 496.453, 232.428 501.629, 242.813 502.550 C 246.491 502.876, 256.615 504.011, 265.312 505.072 C 289.027 507.964, 310.663 507.703, 332.291 504.263 C 347.923 501.777, 351.974 501.525, 376.500 501.513 C 401.436 501.501, 404.188 501.676, 412.500 503.803 C 433.961 509.294, 444.065 510.176, 454.465 507.467 C 471.547 503.018, 482.372 490.879, 484.509 473.776 C 485.307 467.386, 483.805 449.719, 480.873 431.002 C 478.318 414.691, 478.320 394.816, 480.878 377.391 C 481.937 370.181, 483.472 362.981, 484.289 361.391 C 487.464 329.727, 492.977 301.413, 492.981 273 C 492.985 247.926, 489.656 232.967, 477.291 202.500 C 462.984 167.249, 447.689 142.410, 423.303 114.826 C 397.926 86.123, 365.418 61.814, 328.632 44.033 C 288.093 24.438, 251.685 15.828, 210.658 16.136 C 200.671 16.211, 191.375 16.457, 190 16.683 M 276.831 130.968 C 262.781 133.506, 249.184 139.758, 230.500 152.273 C 214.269 163.144, 206.783 169.283, 200.345 177 C 189.592 189.891, 186.397 200.978, 190.896 209.797 C 195.340 218.508, 226.957 243.844, 258.500 263.972 C 262.350 266.429, 267.949 270.218, 270.943 272.394 C 276.284 276.274, 276.340 276.367, 273.943 277.336 C 272.599 277.879, 263.625 282.051, 254 286.608 C 235.320 295.450, 229.298 297.496, 219 298.501 C 210.171 299.362, 202.535 302.026, 189.503 308.791 C 175.472 316.075, 173.677 318.391, 174.175 328.573 C 174.634 337.951, 178.581 345.870, 192.583 365.500 C 209.715 389.520, 216.541 396.584, 225.091 399.146 C 228.635 400.207, 229.360 400.110, 231.893 398.237 L 234.728 396.141 236.892 399.068 C 239.671 402.827, 245.895 405.938, 259 410.120 C 268.130 413.033, 270.870 413.472, 280 413.485 C 289.332 413.498, 291.140 413.200, 296.253 410.804 C 303.070 407.609, 311.167 400.217, 318.116 390.843 L 323.146 384.058 327.504 384.656 C 331.049 385.141, 333.042 384.698, 338.181 382.279 C 346.645 378.296, 351.393 373.809, 373.604 348.805 C 383.997 337.105, 396.581 323.250, 401.568 318.016 C 411.359 307.742, 418.493 297.981, 419.572 293.382 C 419.944 291.797, 422.017 288.658, 424.178 286.407 C 429.944 280.402, 431.142 274.728, 430.642 255.783 C 430.225 239.975, 428.485 227.867, 425.141 217.500 C 419.602 200.325, 407.739 185.969, 392.853 178.426 C 390.286 177.125, 385.327 173.897, 381.834 171.253 C 378.340 168.609, 372.336 164.218, 368.491 161.496 C 364.646 158.773, 358.183 153.674, 354.129 150.163 C 344.937 142.203, 339.306 139.549, 333.343 140.366 C 328.274 141.061, 321.149 144.448, 320.344 146.545 C 319.440 148.902, 318.539 148.311, 313.750 142.215 C 307.096 133.745, 300.923 130.664, 290 130.360 C 285.325 130.231, 279.399 130.504, 276.831 130.968 M 275 140.427 C 260.319 143.690, 248.167 150.202, 223.385 168.086 C 204.592 181.647, 194.324 198.053, 199.285 206.590 C 203.021 213.018, 237.525 239.850, 261.720 255.144 C 268.749 259.587, 277.089 265.454, 280.254 268.183 C 283.979 271.395, 286.142 272.678, 286.389 271.822 C 286.600 271.095, 288.399 263.750, 290.389 255.500 C 292.378 247.250, 295.360 235.325, 297.014 229 C 298.669 222.675, 301.574 207.286, 303.469 194.802 C 306.637 173.937, 310.395 158.639, 313.176 155.288 C 314.419 153.790, 305.177 144.788, 298.764 141.250 C 294.068 138.660, 284.452 138.327, 275 140.427 M 330.500 150.164 C 327.018 152.086, 322.879 156.379, 321.019 160 C 317.803 166.259, 316.009 174.056, 311.464 201.516 C 309.005 216.375, 306.092 231.675, 304.991 235.516 C 302.004 245.935, 297.842 263.175, 298.222 263.555 C 298.405 263.738, 309.117 253.658, 322.027 241.155 C 345.937 217.999, 349.769 214.818, 360.699 209.048 C 369.736 204.278, 375.380 198.292, 377.912 190.793 C 379.061 187.393, 380 183.830, 380 182.875 C 380 181.798, 375.553 177.974, 368.310 172.822 C 361.881 168.249, 353.507 161.649, 349.701 158.157 C 340.506 149.719, 335.263 147.536, 330.500 150.164 M 386.674 191.102 C 385.460 201.353, 379.644 207.939, 362.509 218.465 C 352.604 224.549, 348.585 227.938, 332.778 243.537 C 322.725 253.457, 311.612 264.143, 308.082 267.285 C 304.551 270.426, 301.875 273.209, 302.135 273.468 C 303.144 274.478, 319.951 274.205, 328.500 273.041 C 333.450 272.367, 340.112 271.860, 343.305 271.914 C 351.854 272.059, 373.391 275.691, 382 278.440 C 394.132 282.314, 399.795 283.283, 407.203 282.753 C 420.378 281.811, 422.441 277.768, 421.620 254.500 C 420.443 221.142, 411.253 200.522, 392.270 188.646 C 389.943 187.191, 387.868 186, 387.659 186 C 387.450 186, 387.007 188.296, 386.674 191.102 M 328.500 282.046 C 325.750 282.474, 317.118 282.864, 309.317 282.912 C 296.635 282.991, 295.075 283.189, 294.569 284.782 C 294.249 285.790, 296.011 291.113, 298.623 297.032 C 301.164 302.790, 308.179 322.350, 314.211 340.500 C 320.243 358.650, 325.644 374.063, 326.212 374.750 C 330.406 379.825, 344.579 369.047, 365.391 344.955"/></svg>