<svg xmlns="http://www.w3.org/2000/svg" width="512" height="512" viewBox="0 0 512 512" version="1.1">
	<path d="M 138 81.444 C 121.914 87.388, 113.332 91.290, 111.250 93.607 C 105.788 99.687, 110.137 110.957, 119.765 115.671 C 124.463 117.972, 125.916 118.200, 133.265 117.795 C 139.625 117.445, 142.696 116.729, 146.753 114.652 L 152.007 111.963 155.753 113.904 C 157.814 114.972, 162.495 118.468, 166.156 121.673 C 169.816 124.878, 174.654 128.603, 176.905 129.951 C 179.388 131.437, 180.638 132.762, 180.081 133.319 C 179.577 133.823, 168.440 134.622, 155.332 135.093 C 122.924 136.259, 115.700 137.981, 104.169 147.289 C 100.501 150.249, 94.708 154.340, 91.296 156.380 C 80.574 162.790, 73.013 173.292, 70.832 184.804 C 70.221 188.028, 66.553 197.118, 62.380 205.749 C 52.374 226.444, 50.895 231.913, 50.272 250.512 C 49.465 274.622, 50.701 279.335, 65.742 309.500 C 70.404 318.850, 78.175 335.950, 83.012 347.500 C 98.746 385.077, 112.783 413.413, 124.622 431.500 C 129.602 439.108, 132.192 442.711, 141.591 455.105 C 144.784 459.317, 146.308 462.803, 148.537 471 C 151.137 480.563, 151.807 481.911, 156.040 486.103 C 160.907 490.922, 167.070 493.767, 182 498.087 C 187.998 499.823, 193.045 500.354, 207.204 500.739 C 232.678 501.433, 238.759 499.894, 258.797 487.687 L 267.095 482.633 278.797 482.315 C 310.831 481.447, 329.044 473.413, 346.614 452.400 C 359.839 436.584, 363.589 428.315, 366.518 408.500 C 367.412 402.450, 368.533 395.025, 369.008 392 C 369.483 388.975, 371.209 377.275, 372.844 366 C 374.479 354.725, 376.942 341, 378.317 335.500 C 379.969 328.891, 381.039 321.092, 381.473 312.500 C 382.629 289.617, 385.297 276.290, 391.009 264.881 C 398.128 250.661, 401.141 241.082, 401.730 230.788 C 402.411 218.906, 400.992 209.465, 396.294 194.619 C 391.953 180.903, 389.084 175.134, 383.687 169.270 C 378.703 163.854, 366.159 154.138, 359.156 150.268 C 356.400 148.746, 352.793 145.634, 351.141 143.353 C 349.489 141.072, 346.643 138.068, 344.818 136.676 C 337.903 131.403, 321.302 121.880, 316.500 120.431 C 310.704 118.682, 276.329 113.976, 267.500 113.722 C 262.523 113.579, 260.307 114.124, 254.500 116.921 C 248.006 120.048, 246.615 120.326, 235.262 120.766 L 223.024 121.241 214.597 113.264 C 209.962 108.877, 203.580 103.825, 200.414 102.039 C 197.249 100.252, 192.373 96.642, 189.579 94.016 C 183.557 88.356, 174.910 83.813, 164.849 81.025 C 154.955 78.284, 146.182 78.421, 138 81.444" stroke="none" fill="black" fill-rule="evenodd"/>
</svg>