<svg xmlns="http://www.w3.org/2000/svg" width="512" height="512" viewBox="0 0 512 512"><path fill-rule="evenodd" d="M 91 1.797 C 89.075 2.714, 74.242 9.901, 58.038 17.768 L 28.576 32.071 14.538 33.286 L 0.500 34.500 0.231 56.018 L -0.038 77.535 9.731 76.868 C 15.104 76.502, 24.769 75.468, 31.209 74.572 C 41.569 73.130, 44.220 72.322, 54.209 67.562 C 60.419 64.603, 81.250 54.752, 100.500 45.671 C 119.750 36.591, 139.708 27.077, 144.852 24.530 L 154.204 19.900 153.520 16.257 C 153.144 14.253, 151.701 9.776, 150.312 6.307 L 147.787 0 121.144 0.064 C 98.419 0.119, 93.985 0.373, 91 1.797 M 446.288 24.158 C 444.618 26.179, 444.147 30.478, 442.967 54.500 C 442.372 66.600, 441.697 78.075, 441.466 80 C 441.235 81.925, 440.739 100.297, 440.363 120.827 C 439.130 188.205, 443.067 235.472, 456.027 308.890 C 461.642 340.700, 476.315 401.955, 481.393 414.788 C 482.761 418.246, 486.440 428.991, 489.567 438.665 C 495.231 456.184, 497.572 460.548, 500.801 459.608 C 501.736 459.336, 504.579 458.821, 507.120 458.463 L 511.740 457.812 512.478 413.984 C 512.883 389.879, 512.939 369.710, 512.601 369.164 C 511.596 367.538, 507.403 350.657, 503.494 332.500 C 500.036 316.442, 498.317 307.266, 494.594 285 C 493.720 279.775, 492.559 273.250, 492.014 270.500 C 490.726 263.997, 488.565 244.925, 486.008 217.500 C 484.880 205.400, 483.711 193.475, 483.410 191 C 482.246 181.435, 481.838 108.146, 482.872 94.500 C 483.455 86.800, 484.710 68.453, 485.660 53.729 C 487.296 28.364, 487.296 26.867, 485.659 25.229 C 484.175 23.744, 481.350 23.452, 465.664 23.158 C 451.277 22.889, 447.162 23.101, 446.288 24.158 M 331.269 61.750 C 330.846 63.263, 330.577 71.250, 330.672 79.500 C 330.804 91.040, 331.449 97.614, 333.465 108 C 349.572 190.976, 358.533 255.331, 362.984 320 C 363.570 328.525, 364.273 338.650, 364.546 342.500 C 364.818 346.350, 365.480 355.800, 366.016 363.500 C 366.553 371.200, 367.051 397.750, 367.123 422.500 C 367.195 447.250, 367.534 477.400, 367.877 489.500 L 368.500 511.500 389.910 511.770 L 411.320 512.041 410.631 453.270 C 409.958 395.770, 409.065 367.680, 407.015 339.500 C 406.455 331.800, 405.754 322.125, 405.458 318 C 401.461 262.381, 391.768 188.888, 381.982 140 C 377.668 118.449, 374.980 101.645, 372.464 80.500 C 371.067 68.758, 369.835 63.005, 368.715 62.999 C 368.597 62.998, 361.525 62.099, 353 61 C 332.473 58.354, 332.216 58.363, 331.269 61.750 M 206.500 97.037 C 193.300 99.138, 176.860 101.587, 169.968 102.480 C 149.816 105.090, 111.136 106.779, 73.620 106.687 L 38.741 106.602 36.870 108.912 C 35.209 110.963, 35 113.099, 35 128 C 35 143.027, 35.199 145.025, 36.911 147.139 L 38.822 149.500 72.161 149.500 C 125.858 149.500, 169.100 147.097, 200 142.395 C 212.599 140.478, 240.421 134.380, 243.094 132.950 C 244.820 132.026, 245.001 130.684, 245.011 118.715 C 245.017 111.447, 245.296 103.846, 245.630 101.823 C 246.139 98.748, 245.817 97.726, 243.664 95.573 C 240.206 92.115, 236.505 92.261, 206.500 97.037 M 83.500 224.107 C 75.800 228.009, 65.108 233.631, 59.739 236.600 C 54.371 239.570, 49.808 242, 49.599 242 C 49.391 242, 43.433 245.203, 36.360 249.117 C 29.287 253.031, 18.212 258.885, 11.750 262.125 L -0 268.015 -0 291.508 C -0 304.428, 0.283 315, 0.628 315 C 0.974 315, 3.561 313.709, 6.378 312.131 C 9.195 310.552, 16.900 306.435, 23.500 302.981 C 30.100 299.527, 37.750 295.482, 40.500 293.992 C 43.250 292.503, 58.100 284.628, 73.500 276.492 C 88.900 268.357, 102.730 260.843, 104.233 259.795 C 106.881 257.947, 109.097 257.910, 175.983 258.602 L 245 259.315 245 238.687 L 245 218.060 216.250 217.768 C 200.438 217.607, 167.250 217.371, 142.500 217.245 L 97.500 217.014 83.500 224.107 M 1 391.359 L 1 412.909 4.250 413.403 C 6.038 413.674, 22.350 414.385, 40.500 414.981 C 75.026 416.116, 131.508 418.575, 143.500 419.464 C 147.350 419.750, 160.400 420.444, 172.500 421.006 C 193.764 421.994, 232.211 423.982, 269.500 426.021 C 293.726 427.346, 304.319 427.281, 305.800 425.800 C 307.321 424.279, 307.489 388.782, 305.988 385.977 C 304.751 383.665, 302.100 383.219, 285.500 382.528 C 278.350 382.230, 267.775 381.754, 262 381.470 C 250.471 380.903, 194.239 378.328, 176 377.531 C 169.675 377.255, 157.750 376.792, 149.500 376.502 C 141.250 376.212, 131.575 375.768, 128 375.515 C 124.425 375.262, 115.875 374.810, 109 374.512 C 102.125 374.214, 81.875 373.325, 64 372.538 C 46.125 371.750, 24.637 370.814, 16.250 370.457 L 1 369.809 1 391.359"/></svg>