<svg xmlns="http://www.w3.org/2000/svg" width="512" height="512" viewBox="0 0 512 512" version="1.1">
	<path d="M 338 57.531 C 328.925 58.230, 314.975 59.506, 307 60.367 C 292.395 61.944, 247.074 69.240, 241.500 70.911 C 239.850 71.405, 233.100 72.782, 226.500 73.971 C 188.078 80.888, 164.942 86.697, 114.500 102.091 C 69.456 115.837, 41.322 126.500, 29.514 134.301 C 21.662 139.489, 15.973 142.977, 9.574 146.528 C 5.610 148.727, 4.294 149.040, 2.837 148.131 C 1.842 147.509, 0.796 147, 0.514 147 C 0.231 147, 0 155.130, 0 165.067 L 0 183.135 2.250 182.474 C 3.488 182.110, 10.168 179.201, 17.096 176.009 C 28.436 170.784, 30.581 170.137, 38.596 169.523 C 63.477 167.616, 103.409 162.717, 116 160.027 C 118.475 159.498, 122.300 158.786, 124.500 158.445 C 126.700 158.103, 134.350 156.756, 141.500 155.452 C 172.072 149.875, 231.029 142.934, 280.500 139.088 C 317.694 136.196, 391.771 135.143, 392.175 137.500 C 392.640 140.214, 369.842 149.413, 348.632 155.070 C 310.679 165.192, 301.539 167.254, 271.500 172.471 C 253.900 175.527, 229.150 180.017, 216.500 182.448 C 203.850 184.878, 188.325 187.798, 182 188.935 C 175.675 190.072, 163.075 192.374, 154 194.050 C 144.925 195.726, 132.100 198.001, 125.500 199.107 C 112.824 201.229, 88.556 206.468, 83.500 208.174 C 81.850 208.730, 74.425 209.789, 67 210.526 C 59.575 211.263, 47.337 213.242, 39.804 214.923 C 32.272 216.604, 21.697 218.438, 16.304 219 C 10.912 219.561, 5.038 220.261, 3.250 220.555 L 0 221.091 0 235.673 L 0 250.256 4.250 249.573 C 6.588 249.197, 20.425 247.100, 35 244.913 C 49.575 242.726, 65.550 240.319, 70.500 239.564 C 75.450 238.809, 79.838 238.400, 80.250 238.655 C 80.662 238.910, 81 240.412, 81 241.994 C 81 249.142, 85.434 254.003, 94.256 256.525 C 99.635 258.063, 105.348 258.341, 135.500 258.530 C 168.508 258.737, 171.183 258.618, 182.500 256.428 C 197.805 253.468, 227.078 251.407, 229.789 253.100 C 231.263 254.021, 237.603 253.801, 258.590 252.102 C 273.390 250.904, 290.675 249.511, 297 249.008 C 303.325 248.504, 317.275 247.840, 328 247.533 C 338.725 247.225, 351.550 246.512, 356.500 245.947 C 366.141 244.848, 396.147 242.598, 423 240.962 C 432.075 240.409, 444.225 239.517, 450 238.980 C 461.042 237.952, 502.866 237.533, 503.774 238.440 C 504.065 238.731, 494.672 243.627, 482.901 249.319 C 458.044 261.339, 461.967 259.614, 432 271.700 C 419.075 276.913, 405.350 282.529, 401.500 284.179 C 381.821 292.618, 359.195 305.627, 355.683 310.522 C 349.507 319.130, 354.397 331.620, 366.305 337.655 C 373.319 341.209, 385.557 343.219, 395.500 342.450 C 418.344 340.682, 432.463 338.391, 447.766 333.969 L 458.247 330.941 472.624 335.694 C 485.356 339.905, 487 340.701, 487 342.659 C 487 346.571, 488.838 349.865, 491.907 351.452 C 495.723 353.425, 498.586 353.402, 506.015 351.336 L 512 349.672 512 335.444 L 512 321.217 509.311 320.542 C 507.832 320.171, 501.271 318.777, 494.732 317.445 C 488.092 316.093, 481.653 314.177, 480.149 313.106 C 472.516 307.671, 457.588 306.285, 445 309.843 C 428.736 314.440, 400.703 319, 388.703 319 C 380.306 319, 380.555 318.354, 391.610 311.464 C 402.616 304.604, 422.798 295.724, 450.500 285.553 C 472.442 277.497, 476.240 275.906, 493.704 267.451 L 511.830 258.676 512.540 248.256 C 513.336 236.581, 512.756 216.422, 511.591 215.259 C 511.173 214.842, 498.607 214.559, 483.666 214.632 C 456.977 214.761, 424.685 216.620, 400 219.449 C 393.125 220.236, 380.651 221.143, 372.281 221.462 C 363.910 221.782, 352.660 222.680, 347.281 223.458 C 341.901 224.236, 329.175 225.163, 319 225.518 C 308.825 225.872, 294.650 226.776, 287.500 227.526 C 280.350 228.276, 265.950 229.802, 255.500 230.917 C 245.050 232.031, 227.991 233.415, 217.591 233.992 C 207.191 234.569, 197.741 235.260, 196.591 235.527 C 190.670 236.901, 157.646 239.182, 136.500 239.678 C 113.489 240.218, 104 239.479, 104 237.150 C 104 236.065, 108.920 232.620, 112.500 231.198 C 114.150 230.542, 120.900 229.090, 127.500 227.972 C 139.382 225.958, 154.347 222.567, 158.814 220.877 C 160.086 220.395, 171.561 217.958, 184.314 215.461 C 197.066 212.964, 209.525 210.466, 212 209.909 C 214.475 209.353, 226.175 207.094, 238 204.890 C 280.125 197.037, 285.602 195.977, 294 194.051 C 298.675 192.978, 307.450 191.009, 313.500 189.675 C 329.813 186.077, 350.576 180.686, 377.500 173.059 C 390.700 169.320, 405.100 165.551, 409.500 164.683 C 431.989 160.248, 439.586 158.649, 451.500 155.843 C 476.504 149.954, 496.029 143.883, 506.250 138.820 L 512 135.971 511.991 110.736 L 511.983 85.500 506.241 81.853 C 489.183 71.016, 468.326 64.119, 440.243 60.029 C 412.933 56.052, 370.624 55.018, 338 57.531 M 334.500 77.534 C 309.232 79.315, 292.261 81.453, 259.278 87.011 C 225.700 92.669, 175.961 103.593, 161.500 108.486 C 159.300 109.230, 153.450 111.031, 148.500 112.487 C 136.557 116, 104.129 126.292, 91 130.735 C 80.047 134.442, 75 136.627, 75 137.662 C 75 138.298, 76.978 138.064, 93.500 135.474 C 99 134.611, 110.250 133.039, 118.500 131.980 C 126.750 130.921, 139.125 129.171, 146 128.091 C 152.875 127.012, 166.600 125.396, 176.500 124.502 C 186.400 123.607, 198.550 122.246, 203.500 121.478 C 217.208 119.350, 238.538 117.232, 258.500 116.017 C 268.400 115.414, 283.475 114.430, 292 113.830 C 300.525 113.229, 331.800 112.598, 361.500 112.427 C 404.717 112.178, 417.197 111.808, 424 110.576 C 437.629 108.108, 438.848 108.299, 448.741 114.447 C 458.475 120.497, 464.554 126.114, 463.720 128.288 C 463.388 129.151, 459.707 130.412, 454.337 131.503 C 442.775 133.850, 438.341 136.335, 427.500 146.540 C 418.908 154.627, 418.681 154.948, 422.500 153.607 C 424.700 152.834, 431.900 150.970, 438.500 149.466 C 455.504 145.589, 482.216 137.416, 490.739 133.482 C 503.835 127.437, 510 121.522, 510 115 C 510 105.313, 493.365 93.936, 466.987 85.584 C 456.117 82.141, 452.870 81.413, 434.511 78.295 C 422.411 76.240, 359.644 75.763, 334.500 77.534 M 0.400 235.500 C 0.401 243.750, 0.556 246.992, 0.744 242.704 C 0.932 238.417, 0.931 231.667, 0.742 227.704 C 0.552 223.742, 0.399 227.250, 0.400 235.500" stroke="none" fill="black" fill-rule="evenodd"></path>
</svg>