<svg xmlns="http://www.w3.org/2000/svg" width="512" height="512" viewBox="0 0 512 512" version="1.1">
	<path d="M 0 22.246 L 0 28.500 131.750 28.578 L 263.500 28.655 263.769 50.828 L 264.038 73 287.019 73 L 310 73 310 92 L 310 111 294.500 111.188 C 285.975 111.291, 277.762 111.403, 276.250 111.438 C 273.506 111.500, 273.499 111.484, 273.208 103.750 L 272.916 96 285.013 96 L 297.110 96 296.805 91.250 L 296.500 86.500 281.076 86.223 C 269.419 86.014, 265.445 86.258, 264.807 87.223 C 264.343 87.925, 264.005 91.650, 264.055 95.500 C 264.105 99.350, 264.113 109.813, 264.073 118.750 L 264 135 258.010 135 L 252.020 135 251.760 88.250 L 251.500 41.500 193.558 41.242 C 161.690 41.100, 135.290 41.325, 134.891 41.742 C 134.492 42.159, 133.842 52.513, 133.447 64.750 L 132.727 87 115.864 87 L 99 87 99 79.500 L 99 72 109 72 L 119 72 119 56.500 L 119 41 60.469 41 C 14.516 41, 1.854 41.269, 1.552 42.250 C 1.340 42.938, 0.899 50.587, 0.570 59.250 L -0.026 75 5.487 75 L 11 75 11 63 L 11 51 39 51 L 67 51 67 58.031 C 67 65.809, 67.272 65.514, 59.250 66.454 C 54.416 67.020, 54 66.906, 54 65.008 C 54 63.006, 53.572 62.956, 38.750 63.224 L 23.500 63.500 23.220 76.250 L 22.940 89 12.470 89 L 2 89 2 132.500 C 2 160.833, 1.651 176, 1 176 C -0.770 176, -0.065 180.935, 2 183 C 3.719 184.719, 5.333 185, 13.500 185 L 23 185 23 196 L 23 207 34.500 207 L 46 207 46 213 L 46 219 28 219 L 10 219 10 209 L 10 199 5 199 L 0 199 0 203 C 0 205.200, 0.450 207, 1 207 C 2.348 207, 2.348 236.667, 1 237.500 C 0.450 237.840, -0 240.116, -0 242.559 L 0 247 4.962 247 L 9.925 247 10.212 237.750 L 10.500 228.500 17.250 228.204 L 24 227.909 24 254.954 L 24 282 17 282 L 10 282 10 271 L 10 260 4.925 260 L -0.150 260 0.456 268.750 C 1.062 277.510, 2.981 323.632, 2.993 329.750 C 2.998 331.975, 2.527 333, 1.500 333 C 0.417 333, 0 334.111, 0 337 C 0 340.600, 0.250 341, 2.500 341 C 4.910 341, 5 341.233, 5 347.500 C 5 353.767, 4.910 354, 2.500 354 C 0.204 354, 0 354.367, 0 358.500 C 0 360.975, 0.450 363, 1 363 C 1.550 363, 2 365.475, 2 368.500 C 2 371.525, 1.550 374, 1 374 C 0.450 374, 0 376.408, 0 379.351 C 0 384.569, 0.068 384.697, 2.750 384.507 C 4.263 384.401, 6.497 384.243, 7.715 384.157 C 9.827 384.007, 9.943 383.524, 10.215 373.750 L 10.500 363.500 16.750 363.202 L 23 362.905 23 390.452 L 23 418 17 418 L 11 418 11 408 L 11 398 5.500 398 L 0 398 0 401.417 C 0 403.296, 0.387 404.983, 0.860 405.167 C 1.333 405.350, 1.957 413.263, 2.248 422.750 C 2.687 437.056, 2.540 440, 1.389 440 C 0.468 440, 0 441.180, 0 443.500 L 0 447 5.500 447 L 11 447 11 437 L 11 427 17.500 427 L 24 427 24 437 L 24 447 39.500 447 L 55 447 55 436.500 L 55 426 61 426 L 67 426 67.011 433.250 C 67.017 437.238, 67.283 442.075, 67.601 444 L 68.180 447.500 92.340 447.500 L 116.500 447.500 116.620 453.250 L 116.739 459 58.370 459 L 0 459 0 465 L 0 471 12.750 471.077 C 19.762 471.120, 88.725 471.232, 166 471.327 L 306.500 471.500 306.771 491.750 L 307.041 512 312.521 512 L 318 512 318 497.952 L 318 483.905 324.250 484.202 L 330.500 484.500 331 496 L 331.500 507.500 335.500 507.500 L 339.500 507.500 339.785 497.250 L 340.070 487 355.535 487 L 371 487 371 496.500 L 371 506 374.861 506 L 378.721 506 379.352 500.750 C 379.699 497.863, 379.989 489.425, 379.996 482 C 380.003 474.575, 380.301 463.438, 380.657 457.250 L 381.306 446 392.403 445.968 C 406.981 445.926, 407 445.911, 407 434.140 L 407 425 412.965 425 L 418.930 425 419.215 435.250 L 419.500 445.500 432.750 445.779 L 446 446.058 446 450.447 C 446 452.861, 446.270 455.541, 446.601 456.402 C 447.136 457.796, 444.148 457.997, 419.351 458.234 L 391.500 458.500 391.168 485.250 L 390.836 512 397.418 512 L 404 512 404 491.509 L 404 471.017 458.180 470.759 L 512.360 470.500 512.430 411.500 C 512.469 379.050, 512.363 354.637, 512.195 357.250 L 511.890 362 507.945 362 L 504 362 504 378.048 L 504 394.095 497.750 393.798 L 491.500 393.500 491.241 339.785 L 490.983 286.070 501.215 285.785 L 511.448 285.500 511.656 279.500 C 511.771 276.200, 512.135 270.975, 512.466 267.889 C 512.797 264.802, 512.770 260.415, 512.406 258.139 C 511.748 254.025, 511.719 254, 507.405 254 L 503.066 254 502.783 265.250 L 502.500 276.500 492.500 277.177 C 487 277.549, 479.443 278.165, 475.706 278.546 L 468.912 279.239 469.206 271.369 L 469.500 263.500 479.719 263.215 L 489.937 262.931 490.219 251.215 L 490.500 239.500 496 239.756 C 499.025 239.897, 503.835 240.263, 506.690 240.571 C 511.349 241.072, 511.930 241.404, 512.373 243.814 C 512.644 245.291, 512.660 243.151, 512.408 239.059 C 512.156 234.966, 511.849 231.530, 511.725 231.424 C 511.601 231.317, 504.637 231.042, 496.250 230.813 L 481 230.395 481 235.047 C 481 237.605, 480.709 243.141, 480.353 247.349 L 479.707 255 463.853 255 L 448 255 448 248.500 L 448 242 456.250 241.986 C 469.403 241.965, 469 242.276, 468.997 232.133 C 468.996 227.385, 469.503 218.630, 470.125 212.678 C 470.773 206.473, 470.881 201.491, 470.378 201.002 C 469.895 200.532, 462.637 199.827, 454.250 199.434 L 439 198.721 439 208.751 L 439 218.781 442.750 219.260 C 447.490 219.865, 448.281 219.099, 448.958 213.245 L 449.507 208.500 454.971 208.801 C 457.976 208.967, 460.624 209.291, 460.856 209.522 C 461.087 209.753, 460.876 215.018, 460.388 221.221 L 459.500 232.500 449.250 232.291 L 439 232.081 439 273.541 L 439 315 433 315 L 427 315 427 239 L 427 163 435.566 163 C 447.974 163, 448 162.975, 448 150.965 L 448 141 453.250 141.015 C 456.137 141.024, 458.961 141.361, 459.524 141.765 C 460.180 142.236, 460.413 148.699, 460.173 159.750 L 459.798 177 449.342 177 L 438.885 177 439.193 181.250 L 439.500 185.500 451.500 186.270 C 458.100 186.694, 467.663 187.299, 472.750 187.614 L 482 188.187 482 203.454 L 482 218.721 486.750 219.271 C 489.363 219.573, 495.550 219.748, 500.500 219.660 L 509.500 219.500 510.112 199 C 510.790 176.299, 510.871 175.418, 511.957 179 C 512.374 180.375, 512.494 175.875, 512.224 169 C 511.954 162.125, 511.681 156.427, 511.616 156.337 C 511.552 156.248, 504.975 156.023, 497 155.837 L 482.500 155.500 482.197 160.213 L 481.893 164.926 491.697 165.213 L 501.500 165.500 501.834 171.500 C 502.018 174.800, 501.857 185.263, 501.477 194.750 L 500.785 212 495.393 212 L 490 212 490 195.617 C 490 176.549, 491.077 178.037, 477.250 178.014 L 469 178 469 159.939 L 469 141.878 489.250 142.189 L 509.500 142.500 510.675 129.500 C 512.559 108.670, 512.767 110, 507.625 110 C 503.525 110, 503.211 110.196, 502.625 113.125 C 502.281 114.844, 501.994 119.231, 501.986 122.875 C 501.963 134.141, 502.083 134, 492.534 134 C 488.006 134, 480.859 133.709, 476.651 133.353 L 469 132.707 469 126.353 L 469 120 479 120 L 489 120 489 116.151 C 489 114.034, 489.290 108.874, 489.644 104.684 L 490.288 97.067 500.394 96.783 L 510.500 96.500 511.258 85.500 C 511.675 79.450, 512.125 71.800, 512.258 68.500 L 512.500 62.500 508 62.500 L 503.500 62.500 503.221 75.750 L 502.942 89 492.471 89 L 482 89 482 99.500 L 482 110 475.476 110 L 468.952 110 469.226 93.413 L 469.500 76.826 478 76.762 C 482.675 76.727, 487.063 76.493, 487.750 76.242 C 489.054 75.766, 489.511 67.494, 488.393 64.582 C 487.539 62.357, 480.271 62.381, 479.823 64.611 C 479.556 65.943, 477.862 66.245, 470 66.361 L 460.500 66.500 460.500 100 L 460.500 133.500 454.260 133.797 L 448.020 134.095 447.760 87.797 L 447.500 41.500 410 41.228 C 384.185 41.040, 371.853 41.298, 370.423 42.054 C 369.281 42.658, 366.806 43.006, 364.923 42.826 L 361.500 42.500 361.206 35.250 L 360.912 28 420.956 28 L 481 28 481 34.500 L 481 41 471 41 L 461 41 461 44.902 C 461 48.380, 461.343 48.924, 464.149 49.902 C 466.072 50.573, 476 51, 489.649 51 L 512 51 512 46.625 C 512 42.525, 511.804 42.211, 508.875 41.625 C 507.156 41.281, 501.531 41, 496.375 41 L 487 41 487 34.471 L 487 27.943 495.750 28.099 C 500.563 28.185, 506.413 28.198, 508.750 28.128 L 513 28 513 21.750 L 513 15.500 433.250 16 L 353.500 16.500 353.221 29.131 L 352.942 41.762 349.846 42.381 C 348.143 42.721, 345.456 43, 343.875 43 L 341 43 341 30 L 341 17 314 17 L 287 17 287 34 L 287 51 291 51 L 295 51 295 40 L 295 29 313.500 29 C 331.996 29, 332 29.001, 332.077 31.250 C 332.119 32.487, 332.362 35.352, 332.615 37.616 L 333.077 41.732 328.919 42.397 C 326.632 42.763, 321.440 42.761, 317.381 42.393 L 310 41.724 310 52.362 L 310 63 291.518 63 L 273.037 63 272.768 39.750 L 272.500 16.500 136.250 16.246 L 0 15.993 0 22.246 M 0.328 22.500 C 0.333 26.350, 0.513 27.802, 0.730 25.728 C 0.946 23.653, 0.943 20.503, 0.722 18.728 C 0.501 16.952, 0.324 18.650, 0.328 22.500 M 361.208 55.750 L 361.500 63.500 372 63.500 L 382.500 63.500 382.780 76.273 L 383.060 89.047 400.280 88.773 L 417.500 88.500 417.270 81.604 C 417.144 77.810, 416.854 74.520, 416.625 74.292 C 416.397 74.063, 412.227 74.314, 407.359 74.849 C 400.806 75.569, 398.316 75.520, 397.769 74.661 C 397.363 74.022, 397.024 68.438, 397.015 62.250 L 397 51 385.122 51 C 375.785 51, 372.979 50.679, 372 49.500 C 371.202 48.539, 368.989 48, 365.835 48 L 360.916 48 361.208 55.750 M 318.662 80.620 C 317.833 120.297, 317.802 174.321, 318.607 176.418 C 319.106 177.720, 321.049 178, 329.571 178 L 339.928 178 340.214 187.750 L 340.500 197.500 346.776 197.798 L 353.051 198.097 352.776 182.298 L 352.500 166.500 342.586 165.794 C 336.303 165.346, 332.347 164.613, 331.785 163.794 C 331.285 163.065, 331.029 137.804, 331.199 106 L 331.500 49.500 325.412 49.206 L 319.325 48.913 318.662 80.620 M 341.241 102.750 L 341.500 156.500 351.250 156.786 L 361 157.072 361 198.003 L 361 238.934 372.250 239.217 L 383.500 239.500 383.779 253.421 C 383.933 261.077, 383.678 267.722, 383.212 268.188 C 382.746 268.654, 361.133 268.729, 335.183 268.355 L 288 267.675 287.986 261.087 C 287.964 250.213, 287.818 250, 280.383 250 L 274 250 274 255.875 C 274 259.106, 273.727 263.113, 273.394 264.779 L 272.788 267.809 263.976 268.154 C 259.130 268.345, 254.956 268.725, 254.701 269 C 254.445 269.275, 253.969 274.563, 253.643 280.750 L 253.049 292 259.524 292 L 266 292 266 285.500 L 266 279 331.500 279 L 397 279 397 253.034 L 397 227.068 386.250 226.784 L 375.500 226.500 375 185.500 L 374.500 144.500 371 144.598 C 369.075 144.652, 364.350 144.875, 360.500 145.094 L 353.500 145.491 353.240 97.245 L 352.981 49 346.982 49 L 340.983 49 341.241 102.750 M 77 62 L 77 73 66 73 L 55 73 55 81 L 55 89 69.875 89 C 78.056 89, 86.156 88.719, 87.875 88.375 L 91 87.750 91 75.375 L 91 63 100.500 63 L 110 63 110 57 L 110 51 93.500 51 L 77 51 77 62 M 141.412 52.369 C 141.123 53.122, 141.024 56.160, 141.193 59.119 L 141.500 64.500 152.857 64.500 L 164.213 64.500 164.517 74.500 C 164.685 80, 164.862 85.287, 164.911 86.250 C 164.990 87.800, 166.201 88, 175.500 88 L 186 88 186 99.548 L 186 111.095 192.250 110.798 L 198.500 110.500 198.361 86.750 L 198.222 63 213.579 63 L 228.937 63 229.218 74.750 L 229.500 86.500 236 86.500 L 242.500 86.500 242.773 68.750 L 243.046 51 214.523 51 L 186 51 186 62.500 L 186 74 181.500 74 L 177 74 177 62.500 L 177 51 159.469 51 C 145.552 51, 141.829 51.282, 141.412 52.369 M 405 59.500 L 405 68 408.800 68 C 410.890 68, 413.028 67.608, 413.550 67.130 C 415.246 65.575, 423.715 64.952, 424.833 66.298 C 425.396 66.977, 426.179 74.163, 426.573 82.266 L 427.290 97 421.895 97.138 C 418.928 97.214, 409.075 97.552, 400 97.888 L 383.500 98.500 383.235 127.750 L 382.970 157 389.485 157 L 396 157 396 134 L 396 111 417.500 111 L 439 111 439 81 L 439 51 422 51 L 405 51 405 59.500 M 0.310 69.500 C 0.315 72.800, 0.502 74.029, 0.725 72.232 C 0.947 70.435, 0.943 67.735, 0.715 66.232 C 0.486 64.729, 0.304 66.200, 0.310 69.500 M 207.228 91.250 L 207.500 110.500 219.219 110.781 L 230.937 111.063 230.719 122.781 L 230.500 134.500 236.750 134.798 L 243 135.095 243 116.048 L 243 97 231.500 97 L 220 97 220 84.500 L 220 72 213.478 72 L 206.957 72 207.228 91.250 M 32.781 85.250 L 32.500 97.500 21.500 98 L 10.500 98.500 10.238 136.651 L 9.976 174.801 21.488 175.521 L 33 176.240 33 187.086 L 33 197.932 43.750 198.216 L 54.500 198.500 54.500 218.500 L 54.500 238.500 60.712 238.797 L 66.924 239.093 67.212 229.797 L 67.500 220.500 71.750 220.193 L 76 219.885 76 243.943 L 76 268 65.654 268 L 55.307 268 54.654 280.157 C 54.294 286.843, 54 315.830, 54 344.572 L 54 396.829 60.484 397.165 L 66.967 397.500 67.234 375.500 L 67.500 353.500 77.500 353.224 C 83 353.072, 91.716 353.320, 96.868 353.775 C 102.020 354.231, 108.095 354.355, 110.368 354.052 L 114.500 353.500 114.500 347.500 L 114.500 341.500 90.735 341.232 L 66.969 340.964 67.235 312.232 L 67.500 283.500 78.250 283.216 L 89 282.932 89 271.591 L 89 260.250 92.125 259.625 C 93.844 259.281, 98.794 259, 103.125 259 L 111 259 111 251.071 C 111 245.576, 111.433 242.709, 112.412 241.731 C 114.093 240.050, 132.068 239, 159.158 239 L 177 239 177 212 L 177 185 170.520 185 L 164.041 185 163.770 205.750 L 163.500 226.500 147.750 226.775 L 132 227.051 132 223.163 L 132 219.276 139.250 218.657 C 143.238 218.316, 148.412 218.275, 150.750 218.564 L 155 219.091 155 202 L 155 184.909 148.250 185.204 L 141.500 185.500 141.218 196.098 L 140.935 206.695 126.795 207.300 C 119.018 207.633, 112.283 207.675, 111.828 207.393 C 111.372 207.112, 111 201.959, 111 195.941 L 111 185 100.514 185 L 90.028 185 89.764 153.250 L 89.500 121.500 60.750 121.235 L 32 120.969 32 137.439 L 32 153.909 35.317 154.532 C 37.142 154.874, 40.179 155.007, 42.067 154.827 L 45.500 154.500 45.786 144.125 L 46.073 133.750 49.786 134.364 C 51.829 134.702, 58.563 134.983, 64.750 134.989 L 76 135 76 165.855 L 76 196.711 82.750 197.348 C 86.463 197.699, 91.663 197.989, 94.307 197.993 L 99.115 198 98.807 202.250 L 98.500 206.500 83 206.500 L 67.500 206.500 67.352 178.500 C 67.270 163.100, 67.158 150.010, 67.102 149.411 C 67.040 148.753, 64.727 148.358, 61.250 148.411 L 55.500 148.500 55.227 166.804 L 54.954 185.108 50.227 184.804 L 45.500 184.500 45.500 173.500 L 45.500 162.500 35 161.873 C 29.225 161.527, 24.387 161.190, 24.250 161.123 C 24.113 161.055, 24 149.975, 24 136.500 L 24 112 52.336 112 C 67.921 112, 99.646 111.702, 122.836 111.337 L 165 110.674 165 122.337 L 165 134 171.500 134 L 178 134 178 115.500 L 178 97 166.533 97 L 155.066 97 154.783 85.750 L 154.500 74.500 148 74.500 L 141.500 74.500 141.217 85.150 C 140.950 95.201, 140.810 95.831, 138.717 96.354 C 137.498 96.659, 115.913 97.225, 90.750 97.613 L 45 98.318 45 85.659 L 45 73 39.031 73 L 33.062 73 32.781 85.250 M 361 106.500 L 361 138 368 138 L 375 138 375 106.500 L 375 75 368 75 L 361 75 361 106.500 M 141.667 119.667 C 141.300 120.033, 141 123.408, 141 127.167 L 141 134 148 134 L 155 134 155 126.500 L 155 119 148.667 119 C 145.183 119, 142.033 119.300, 141.667 119.667 M 187.662 119.750 C 187.412 120.162, 186.923 129.899, 186.577 141.388 C 186.231 152.876, 185.708 162.663, 185.415 163.138 C 185.122 163.612, 183.334 164, 181.441 164 L 178 164 178 152.500 L 178 141 171 141 L 164 141 164 160.089 L 164 179.178 170.250 178.564 C 173.688 178.226, 183.700 177.849, 192.500 177.725 L 208.500 177.500 208.786 187.250 L 209.072 197 215.536 197 L 222 197 222 180.533 L 222 164.066 210.750 163.783 L 199.500 163.500 199.223 148.750 L 198.947 134 209.973 134 L 221 134 221 126.500 L 221 119 204.559 119 C 195.516 119, 187.913 119.338, 187.662 119.750 M 405.238 157.750 L 405.500 196.500 411.750 196.798 L 418 197.095 418 164.548 L 418 132 421.893 132 C 424.520 132, 425.983 132.514, 426.393 133.582 C 426.727 134.452, 427 139.627, 427 145.082 L 427 155 433 155 L 439 155 439 137 L 439 119 421.988 119 L 404.977 119 405.238 157.750 M 276.750 120.728 L 273 121.121 273 129.979 C 273 134.850, 272.727 139.548, 272.393 140.418 C 271.896 141.713, 269.992 142, 261.893 142 L 252 142 252 148.881 L 252 155.761 261.250 156.167 C 266.337 156.389, 271.063 156.920, 271.750 157.345 C 272.682 157.921, 273 163.179, 273 178.027 L 273 197.937 284.750 198.218 L 296.500 198.500 296.786 208.250 L 297.072 218 304.067 218 L 311.062 218 310.612 202.250 C 310.365 193.588, 310.127 186.387, 310.082 186.250 C 310.037 186.113, 304.858 186, 298.573 186 L 287.147 186 286.814 177.250 C 286.632 172.438, 286.486 160.850, 286.491 151.500 L 286.500 134.500 290.730 134.193 L 294.960 133.887 295.230 155.193 L 295.500 176.500 303 176.500 L 310.500 176.500 310.450 172.750 C 310.422 170.688, 310.310 157.975, 310.200 144.500 L 310 120 295.250 120.168 C 287.137 120.261, 278.813 120.513, 276.750 120.728 M 98 148.500 L 98 176 108.966 176 L 119.932 176 120.216 186.750 L 120.500 197.500 126.250 197.800 L 132 198.100 132 181.050 L 132 164 121.500 164 L 111 164 111 148.440 L 111 132.879 114.750 133.190 L 118.500 133.500 118.784 144.250 L 119.068 155 130.002 155 L 140.937 155 141.218 166.750 L 141.500 178.500 148.250 178.796 L 155 179.091 155 160.046 L 155 141 144 141 L 133 141 133 131 L 133 121 115.500 121 L 98 121 98 148.500 M 55.174 141.203 C 55.476 143.330, 55.981 143.500, 62 143.500 C 67.833 143.500, 68.500 143.295, 68.500 141.500 C 68.500 139.724, 67.734 139.467, 61.674 139.203 C 55.055 138.914, 54.858 138.975, 55.174 141.203 M 207.201 147.594 L 207.500 154.500 218.750 154.783 L 230 155.066 230 176.033 L 230 197 236.500 197 L 243 197 243 169.500 L 243 142 236.250 141.995 C 232.537 141.993, 224.415 141.698, 218.201 141.340 L 206.902 140.689 207.201 147.594 M 252 182.875 L 252 203.750 248.875 204.375 C 247.156 204.719, 242.447 205, 238.410 205 L 231.070 205 230.785 215.250 L 230.500 225.500 226.286 225.806 L 222.071 226.112 221.786 215.806 L 221.500 205.500 210.500 205 L 199.500 204.500 199.438 201.750 C 199.403 200.238, 199.291 195.829, 199.188 191.954 L 199 184.909 192.250 185.204 L 185.500 185.500 185.225 201.717 L 184.951 217.934 196.225 218.217 L 207.500 218.500 207.644 224 C 207.723 227.025, 207.835 241.322, 207.894 255.772 L 208 282.044 226.750 281.772 L 245.500 281.500 245.500 274.500 C 245.500 268.083, 245.333 267.521, 243.500 267.751 C 242.400 267.889, 236.875 268.295, 231.222 268.653 L 220.945 269.304 221.222 254.402 L 221.500 239.500 232 239 L 242.500 238.500 242.785 228.250 L 243.070 218 254.035 218 L 265 218 265 190 L 265 162 258.500 162 L 252 162 252 182.875 M 383 190 L 383 217 394 217 L 405 217 405 248 L 405 279 411.500 279 L 418 279 418 242 L 418 205 407.617 205 C 397.694 205, 397.207 204.900, 396.630 202.750 C 396.299 201.512, 396.021 192.063, 396.014 181.750 L 396 163 389.500 163 L 383 163 383 190 M 0.232 179 C 0.232 180.925, 0.438 181.713, 0.689 180.750 C 0.941 179.787, 0.941 178.213, 0.689 177.250 C 0.438 176.287, 0.232 177.075, 0.232 179 M 318 213 L 318 239 324.500 239 L 331 239 331 213 L 331 187 324.500 187 L 318 187 318 213 M 339.769 226.250 L 339.500 248.500 325 248.500 L 310.500 248.500 310.216 237.782 L 309.933 227.065 298.716 226.782 L 287.500 226.500 287.216 215.705 L 286.931 204.910 280.216 205.205 L 273.500 205.500 273.500 222 L 273.500 238.500 284.295 238.784 C 291.657 238.978, 295.220 239.455, 295.500 240.284 C 295.727 240.953, 296.104 245.250, 296.340 249.834 C 296.576 254.418, 297.158 258.525, 297.634 258.960 C 298.648 259.888, 368.916 261.311, 372.244 260.472 C 374.223 259.973, 374.500 259.265, 374.500 254.702 L 374.500 249.500 363.750 249.216 L 353 248.932 353 226.466 L 353 204 346.519 204 L 340.038 204 339.769 226.250 M 93.750 219.713 L 90 220.121 89.962 226.310 C 89.942 229.715, 89.678 235.988, 89.376 240.250 L 88.827 248 93.414 248 L 98 248 98 238.500 L 98 229 104.360 229 C 107.859 229, 112.831 228.711, 115.411 228.357 L 120.101 227.714 119.801 223.607 L 119.500 219.500 108.500 219.403 C 102.450 219.349, 95.813 219.489, 93.750 219.713 M 33.226 243.702 L 33.500 260.500 51 260.500 L 68.500 260.500 68.796 253.750 L 69.091 247 57.582 247 L 46.072 247 45.786 237.250 L 45.500 227.500 39.226 227.202 L 32.951 226.903 33.226 243.702 M 252 237.620 L 252 248.240 240.500 247.521 L 229 246.803 229 254.401 C 229 263.103, 228.299 262.678, 240 261.063 C 243.575 260.570, 250.662 259.856, 255.750 259.477 L 265 258.788 265 242.894 L 265 227 258.500 227 L 252 227 252 237.620 M 184.706 242.055 C 184.376 249.785, 184.355 256.760, 184.660 257.555 C 185.069 258.622, 187.019 259, 192.107 259 L 199 259 199 243.500 L 199 228 192.154 228 L 185.307 228 184.706 242.055 M 0.286 242.500 C 0.294 245.250, 0.488 246.256, 0.718 244.736 C 0.947 243.216, 0.941 240.966, 0.704 239.736 C 0.467 238.506, 0.279 239.750, 0.286 242.500 M 119.926 247.750 C 119.886 248.162, 119.884 260.338, 119.923 274.807 L 119.993 301.115 115.747 300.807 L 111.500 300.500 111.226 283.705 L 110.951 266.910 104.226 267.205 L 97.500 267.500 97.230 289.250 L 96.961 311 114.980 311 L 133 311 133.077 301.250 C 133.119 295.887, 133.088 284.635, 133.008 276.245 C 132.883 263.078, 133.083 260.905, 134.468 260.374 C 135.351 260.035, 142.244 259.700, 149.786 259.629 L 163.500 259.500 164 270.500 L 164.500 281.500 181.750 281.774 L 199 282.047 199 275.524 L 199 269 187.946 269 L 176.893 269 177.589 258 L 178.285 247 149.142 247 C 133.114 247, 119.967 247.338, 119.926 247.750 M 0.272 264 C 0.272 266.475, 0.467 267.488, 0.706 266.250 C 0.944 265.012, 0.944 262.988, 0.706 261.750 C 0.467 260.512, 0.272 261.525, 0.272 264 M 448.249 292.500 L 448.784 321 437.892 321 L 427 321 427 328 L 427 335 438.013 335 L 449.027 335 448.763 368.250 L 448.500 401.500 444.500 401.500 L 440.500 401.500 440.235 372.250 L 439.970 343 433.485 343 L 427 343 427 379.500 L 427 416 444 416 L 461 416 461 356.500 C 461 297.086, 461.003 297, 463.060 297 C 464.830 297, 465.077 296.470, 464.810 293.250 C 464.561 290.238, 464.057 289.437, 462.250 289.180 C 460.054 288.869, 460 288.560, 460 276.430 L 460 264 453.857 264 L 447.714 264 448.249 292.500 M 141 275 L 141 283 148.500 283 L 156 283 156 275 L 156 267 148.500 267 L 141 267 141 275 M 32.180 274.205 C 32.253 277.667, 32.243 282.863, 32.157 285.750 L 32 291 21 291 L 10 291 10 311.441 C 10 323.813, 10.390 332.123, 10.987 332.492 C 11.530 332.828, 14.711 332.793, 18.056 332.414 L 24.138 331.726 23.899 327.613 C 23.768 325.351, 23.737 319.128, 23.830 313.784 L 24 304.068 34.750 303.784 L 45.500 303.500 45.500 286 L 45.500 268.500 38.773 268.205 L 32.047 267.910 32.180 274.205 M 469 292.452 L 469 300 475.544 300 L 482.088 300 481.794 292.750 L 481.500 285.500 475.250 285.202 L 469 284.905 469 292.452 M 297 303.417 L 297 321 284.952 321 L 272.905 321 273.202 327.240 C 273.454 332.507, 273.805 333.538, 275.453 333.852 C 276.527 334.057, 284.740 333.901, 293.703 333.506 L 310 332.787 310 314.867 L 310 296.947 324.750 297.223 L 339.500 297.500 339.774 314.750 L 340.047 332 346.524 332 L 353 332 353 315.500 L 353 299 379 299 L 405 299 405 351.055 L 405 403.110 400.383 402.805 L 395.767 402.500 395.936 355.250 C 396.029 329.262, 395.743 307.960, 395.302 307.910 C 394.861 307.861, 391.913 307.705, 388.750 307.563 L 383 307.306 383 362.153 L 383 417 400.500 417 L 418 417 418.004 398.250 C 418.006 387.938, 418.304 358.688, 418.666 333.250 L 419.325 287 397.913 286.960 C 386.136 286.938, 358.613 286.676, 336.750 286.377 L 297 285.834 297 303.417 M 273 300 L 273 313 279.869 313 L 286.738 313 287.358 309.250 C 287.699 307.188, 287.983 301.337, 287.989 296.250 L 288 287 280.500 287 L 273 287 273 300 M 142 300 L 142 311 148.500 311 L 155 311 155 300 L 155 289 148.500 289 L 142 289 142 300 M 208.190 290.750 C 208.470 292.202, 209.631 292.500, 215 292.500 C 220.369 292.500, 221.530 292.202, 221.810 290.750 C 222.105 289.215, 221.268 289, 215 289 C 208.732 289, 207.895 289.215, 208.190 290.750 M 164.667 290.667 C 164.300 291.033, 164 297.486, 164 305.007 L 164 318.680 139.838 319.340 C 126.549 319.703, 109.674 320, 102.338 320 L 89 320 89 305.500 L 89 291 82.500 291 L 76 291 76 312 L 76 333 126.364 333 L 176.728 333 177.364 328.360 C 177.714 325.809, 178 317.034, 178 308.860 L 178 294 181.750 293.993 C 190.646 293.976, 199 292.699, 199 291.355 C 199 290.269, 195.665 290, 182.167 290 C 172.908 290, 165.033 290.300, 164.667 290.667 M 227 291 C 227 291.600, 231.020 292, 237.059 292 C 243.510 292, 246.896 291.641, 246.500 291 C 246.159 290.448, 241.656 290, 236.441 290 C 230.814 290, 227 290.404, 227 291 M 209.002 304.750 L 209.004 310.500 215.502 310.815 L 222 311.130 222 305.065 L 222 299 215.500 299 L 209 299 209.002 304.750 M 231 309 L 231 319 215.538 319 L 200.075 319 199.788 309.750 L 199.500 300.500 192.225 300.206 L 184.950 299.911 185.225 316.206 L 185.500 332.500 208.278 332.769 L 231.056 333.038 230.778 346.769 L 230.500 360.500 207.705 360.769 L 184.909 361.038 185.205 367.769 L 185.500 374.500 193.500 374.420 C 197.900 374.375, 211.287 374.263, 223.250 374.170 L 245 374 245 336.500 L 245 299 238 299 L 231 299 231 309 M 254 348.050 L 254 397.100 259.750 396.800 L 265.500 396.500 265.770 375.191 L 266.040 353.882 269.770 354.191 L 273.500 354.500 273.785 364.750 L 274.070 375 285.535 375 L 297 375 297 379.500 L 297 384 285.500 384 L 274 384 274 411.500 L 274 439 280.500 439 L 287 439 287 417.500 L 287 396 298.500 396 L 310 396 310 379.469 C 310 366.656, 309.702 362.823, 308.673 362.428 C 307.943 362.148, 303.106 361.760, 297.923 361.565 C 292.740 361.371, 288.163 361.164, 287.750 361.106 C 287.337 361.048, 287 356.725, 287 351.500 L 287 342 276.583 342 C 269.154 342, 266.039 341.641, 265.721 340.750 C 265.476 340.063, 265.497 330.387, 265.769 319.250 L 266.263 299 260.131 299 L 254 299 254 348.050 M 503 322.777 C 503 349.229, 503.380 351, 509.057 351 L 512 351 512 325 L 512 299 507.500 299 L 503 299 503 322.777 M 470.240 349.700 L 470.500 394.500 476.750 394.798 L 483 395.095 482.875 368.298 C 482.807 353.559, 482.469 333.400, 482.125 323.500 L 481.500 305.500 475.740 305.200 L 469.979 304.900 470.240 349.700 M 317.774 324.250 L 317.500 341.500 313 341.642 C 310.525 341.719, 305.462 341.832, 301.750 341.892 L 295 342 295 347.500 L 295 353 317.341 353 L 339.682 353 340.341 374.161 C 340.703 385.800, 341 400.200, 341 406.161 L 341 417 347.012 417 L 353.024 417 352.762 379.250 L 352.500 341.500 341.750 341.216 L 331 340.932 331 323.966 L 331 307 324.524 307 L 318.047 307 317.774 324.250 M 361.237 341.250 L 361.500 374.500 368 374.500 L 374.500 374.500 374.763 341.250 L 375.027 308 368 308 L 360.973 308 361.237 341.250 M 32.777 326.250 L 32.500 340.500 21.500 341 L 10.500 341.500 10.202 347.750 L 9.905 354 20.925 354 L 31.945 354 32.223 368.250 L 32.500 382.500 38.589 382.794 L 44.679 383.087 45.337 361.294 C 45.699 349.307, 45.996 333.313, 45.998 325.750 L 46 312 39.527 312 L 33.055 312 32.777 326.250 M 122 348.500 L 122 355 132.500 355 L 143 355 143 366 L 143 377 149 377 L 155 377 155.100 367.750 C 155.155 362.663, 155.512 357.375, 155.894 356 L 156.589 353.500 189.045 353 L 221.500 352.500 221.802 347.250 L 222.105 342 172.052 342 L 122 342 122 348.500 M 0.286 358.500 C 0.294 361.250, 0.488 362.256, 0.718 360.736 C 0.947 359.216, 0.941 356.966, 0.704 355.736 C 0.467 354.506, 0.279 355.750, 0.286 358.500 M 165.484 362.250 C 165.234 362.938, 164.911 368.225, 164.765 374 L 164.500 384.500 153.750 384.784 L 143 385.068 143 391.534 L 143 398 175.500 398 L 208 398 208 408 L 208 418 215 418 L 222 418 222 402.082 C 222 393.327, 221.743 385.495, 221.430 384.678 C 220.940 383.402, 217.775 383.270, 199.088 383.743 L 177.316 384.294 176.658 378.001 C 176.296 374.539, 176 369.298, 176 366.353 L 176 361 170.969 361 C 167.852 361, 165.765 361.476, 165.484 362.250 M 318.187 381.399 C 318.361 397.157, 318.110 402.163, 317.084 403.399 C 316.029 404.670, 313.710 405, 305.832 405 L 295.909 405 296.204 411.750 L 296.500 418.500 307 418.527 L 317.500 418.555 317.785 428.777 L 318.070 439 357.535 439 L 397 439 397 432 L 397 425 364 425 L 331 425 331 393 L 331 361 324.481 361 L 317.962 361 318.187 381.399 M 76.238 400.250 L 76.500 438.500 115.798 438.762 L 155.096 439.023 154.798 432.892 L 154.500 426.761 122 426.631 L 89.500 426.500 89.500 422.500 L 89.500 418.500 100.250 418.216 L 111 417.932 111 411.466 L 111 405 100.500 405 L 90 405 89.882 386.750 C 89.816 376.712, 89.844 368.079, 89.943 367.564 C 90.043 367.050, 89.862 365.587, 89.543 364.314 C 89.010 362.192, 88.422 362, 82.469 362 L 75.976 362 76.238 400.250 M 98 379 L 98 396 107 396.125 C 111.950 396.194, 116.450 396.363, 117 396.500 C 117.550 396.637, 118.450 396.806, 119 396.875 C 119.595 396.949, 120 401.243, 120 407.480 L 120 417.961 141.750 418.230 L 163.500 418.500 163.777 432.730 L 164.055 446.959 143.277 447.230 L 122.500 447.500 122.200 453.250 L 121.900 459 219.950 459 L 318 459 318 469.048 L 318 479.095 324.250 478.798 L 330.500 478.500 330.500 462.500 L 330.500 446.500 320.250 446.215 L 310 445.930 310 435.965 L 310 426 303.500 426 L 297 426 297 436.500 L 297 447 282.129 447 L 267.257 447 266.542 435.956 L 265.826 424.913 259.163 425.206 L 252.500 425.500 252.855 436.250 L 253.209 447 215.721 447 L 178.233 447 177.630 444.750 C 177.299 443.512, 177.021 434.071, 177.014 423.770 L 177 405.039 155.250 404.770 L 133.500 404.500 133.230 383.250 L 132.960 362 127.014 362 L 121.068 362 120.784 372.750 L 120.500 383.500 115.637 383.809 L 110.774 384.119 111.496 373.059 L 112.219 362 105.109 362 L 98 362 98 379 M 0.310 379.500 C 0.315 382.800, 0.502 384.029, 0.725 382.232 C 0.947 380.435, 0.943 377.735, 0.715 376.232 C 0.486 374.729, 0.304 376.200, 0.310 379.500 M 361.709 380.624 C 361.319 381.014, 361 389.358, 361 399.167 L 361 417 368.023 417 L 375.045 417 374.773 398.750 L 374.500 380.500 368.459 380.208 C 365.136 380.047, 362.099 380.234, 361.709 380.624 M 229.998 399.750 L 230 417 248 417 L 266 417 266 411 L 266 405 261.250 404.847 C 250.224 404.492, 246.430 404.332, 245.250 404.171 C 244.468 404.064, 244 402.372, 244 399.647 C 244 397.252, 243.715 392.563, 243.366 389.226 L 242.732 383.159 236.364 382.829 L 229.996 382.500 229.998 399.750 M 32.667 385.667 C 32.300 386.033, 32 387.158, 32 388.167 C 32 389.770, 32.879 390, 39 390 C 45.163 390, 46 389.777, 46 388.136 C 46 386.676, 44.993 386.134, 41.360 385.636 C 35.460 384.827, 33.499 384.834, 32.667 385.667 M 32 418.046 L 32 439.091 38.750 438.796 L 45.500 438.500 45.784 427.750 L 46.068 417 57.084 417 L 68.100 417 67.800 411.250 L 67.500 405.500 56.750 405.216 L 46 404.932 46 400.966 L 46 397 39 397 L 32 397 32 418.046 M 0.252 401.500 C 0.263 403.700, 0.468 404.482, 0.707 403.238 C 0.946 401.994, 0.937 400.194, 0.687 399.238 C 0.437 398.282, 0.241 399.300, 0.252 401.500 M 470.808 400.526 C 470.471 400.863, 470.442 406.507, 470.745 413.069 L 471.294 425 461.647 425 L 452 425 452 431.526 L 452 438.052 467.250 437.776 L 482.500 437.500 482.500 419 L 482.500 400.500 476.960 400.206 C 473.913 400.045, 471.145 400.189, 470.808 400.526 M 492.189 422.750 L 492.500 445.500 472.379 445.770 L 452.258 446.041 451.724 450.024 C 450.583 458.525, 448.770 458, 479.265 458 L 506.296 458 505.659 432.750 C 505.309 418.863, 505.017 405.813, 505.011 403.750 L 505 400 498.439 400 L 491.878 400 492.189 422.750 M 186 421.952 L 186 439 215.500 439 L 245 439 245 432.343 L 245 425.686 222.034 426.370 L 199.068 427.055 198.784 416.277 L 198.500 405.500 192.250 405.202 L 186 404.905 186 421.952 M 428 431.500 L 428 438 436.500 438 L 445 438 445 431.500 L 445 425 436.500 425 L 428 425 428 431.500 M 0.252 443.500 C 0.263 445.700, 0.468 446.482, 0.707 445.238 C 0.946 443.994, 0.937 442.194, 0.687 441.238 C 0.437 440.282, 0.241 441.300, 0.252 443.500 M 358.781 457.198 L 358.500 469.500 355.500 469.500 L 352.500 469.500 352.218 457.750 L 351.937 446 345.319 446 L 338.701 446 339.350 455.154 C 339.708 460.188, 340 467.613, 340 471.654 L 340 479 355.500 479 L 371 479 371.006 470.250 C 371.009 465.438, 371.295 457.860, 371.642 453.412 L 372.271 445.324 365.667 445.110 L 359.062 444.896 358.781 457.198 M 0.320 465 C 0.320 468.575, 0.502 470.038, 0.723 468.250 C 0.945 466.462, 0.945 463.538, 0.723 461.750 C 0.502 459.962, 0.320 461.425, 0.320 465 M 352 505 L 352 512 355.500 512 L 359 512 359 505 L 359 498 355.500 498 L 352 498 352 505" stroke="none" fill="black" fill-rule="evenodd"></path>
</svg>