<svg xmlns="http://www.w3.org/2000/svg" width="512" height="512" viewBox="0 0 512 512"><path fill-rule="evenodd" d="M 0 22.246 L 0 28.500 131.750 28.578 L 263.500 28.655 263.769 50.828 L 264.038 73 287.019 73 L 310 73 310 92 L 310 111 294.500 111.188 C 285.975 111.291, 277.762 111.403, 276.250 111.438 C 273.506 111.500, 273.499 111.484, 273.208 103.750 L 272.916 96 285.013 96 L 297.110 96 296.805 91.250 L 296.500 86.500 281.076 86.223 C 269.419 86.014, 265.445 86.258, 264.807 87.223 C 264.343 87.925, 264.005 91.650, 264.055 95.500 C 264.105 99.350, 264.113 109.813, 264.073 118.750 L 264 135 258.010 135 L 252.020 135 251.760 88.250 L 251.500 41.500 193.558 41.242 C 161.690 41.100, 135.290 41.325, 134.891 41.742 C 134.492 42.159, 133.842 52.513, 133.447 64.750 L 132.727 87 115.864 87 L 99 87 99 79.500 L 99 72 109 72 L 119 72 119 56.500 L 119 41 60.469 41 C 14.516 41, 1.854 41.269, 1.552 42.250 C 1.340 42.938, 0.899 50.587, 0.570 59.250 L -0.026 75 5.487 75 L 11 75 11 63 L 11 51 39 51 L 67 51 67 58.031 C 67 65.809, 67.272 65.514, 59.250 66.454 C 54.416 67.020, 54 66.906, 54 65.008 C 54 63.006, 53.572 62.956, 38.750 63.224 L 23.500 63.500 23.220 76.250 L 22.940 89 12.470 89 L 2 89 2 132.500 C 2 160.833, 1.651 176, 1 176 C -0.770 176, -0.065 180.935, 2 183 C 3.719 184.719, 5.333 185, 13.500 185 L 23 185 23 196 L 23 207 34.500 207 L 46 207 46 213 L 46 219 28 219 L 10 219 10 209 L 10 199 5 199 L 0 199 0 203 C 0 205.200, 0.450 207, 1 207 C 2.348 207, 2.348 236.667, 1 237.500 C 0.450 237.840, -0 240.116, -0 242.559 L 0 247 4.962 247 L 9.925 247 10.212 237.750 L 10.500 228.500 17.250 228.204 L 24 227.909 24 254.954 L 24 282 17 282 L 10 282 10 271 L 10 260 4.925 260 L -0.150 260 0.456 268.750 C 1.062 277.510, 2.981 323.632, 2.993 329.750 C 2.998 331.975, 2.527 333, 1.500 333 C 0.417 333, 0 334.111, 0 337 C 0 340.600, 0.250 341, 2.500 341 C 4.910 341, 5 341.233, 5 347.500 C 5 353.767, 4.910 354, 2.500 354 C 0.204 354, 0 354.367, 0 358.500 C 0 360.975, 0.450 363, 1 363 C 1.550 363, 2 365.475, 2 368.500 C 2 371.525, 1.550 374, 1 374 C 0.450 374, 0 376.408, 0 379.351 C 0 384.569, 0.068 384.697, 2.750 384.507 C 4.263 384.401, 6.497 384.243, 7.715 384.157 C 9.827 384.007, 9.943 383.524, 10.215 373.750 L 10.500 363.500 16.750 363.202 L 23 362.905 23 390.452 L 23 418 17 418 L 11 418 11 408 L 11 398 5.500 398 L 0 398 0 401.417 C 0 403.296, 0.387 404.983, 0.860 405.167 C 1.333 405.350, 1.957 413.263, 2.248 422.750 C 2.687 437.056, 2.540 440, 1.389 440 C 0.468 440, 0 441.180, 0 443.500 L 0 447 5.500 447 L 11 447 11 437 L 11 427 17.500 427 L 24 427 24 437 L 24 447 39.500 447 L 55 447 55 436.500 L 55 426 61 426 L 67 426 67.011 433.250 C 67.017 437.238, 67.283 442.075, 67.601 444 L 68.180 447.500 92.340 447.500 L 116.500 447.500 116.620 453.250 L 116.739 459 58.370 459 L 0 459 0 465 L 0 471 12.750 471.077 C 19.762 471.120, 88.725 471.232, 166 471.327 L 306.500 471.500 306.771 491.750 L 307.041 512 312.521 512 L 318 512 318 497.952 L 318 483.905 324.250 484.202 L 330.500 484.500 331 496 L 331.500 507.500 335.500 507.500 L 339.500 507.500 339.785 497.250 L 340.070 487 355.535 487 L 371 487 371 496.500 L 371 506 374.861 506 L 378.721 506 379.352 500.750 C 379.699 497.863, 379.989 489.425, 379.996 482 C 380.003 474.575, 380.301 463.438, 380.657 457.250 L 381.306 446 392.403 445.968 C 406.981 445.926, 407 445.911, 407 434.140 L 407 425 412.965 425 L 418.930 425 419.215 435.250 L 419.500 445.500 432.750 445.779 L 446 446.058 446 450.447 C 446 452.861, 446.270 455.541, 446.601 456.402 C 447.136 457.796, 444.148 457.997, 419.351 458.234 L 391.500 458.500 391.168 485.250 L 390.836 512 397.418 512 L 404 512 404 491.509 L 404 471.017 458.180 470.759 L 512.360 470.500 512.430 411.500 C 512.469 379.050, 512.363 354.637, 512.195 357.250 L 511.890 362 507.945 362 L 504 362 504 378.048 L 504 394.095 497.750 393.798"/></svg>