<svg xmlns="http://www.w3.org/2000/svg" width="512" height="512" viewBox="0 0 512 512"><path fill-rule="evenodd" d="M 252.542 77.729 C 251.465 78.003, 249.586 78.880, 248.367 79.679 C 246.422 80.954, 245.589 80.940, 241.541 79.565 C 231.849 76.275, 221.973 78.291, 215.334 84.914 C 212.612 87.630, 211.313 88.127, 206.069 88.461 C 195.601 89.127, 190.412 91.453, 185.659 97.607 C 183.372 100.569, 180.998 102.994, 180.384 102.996 C 179.249 103, 174.144 113.632, 172.220 120 C 170.316 126.300, 169.825 132.804, 171.077 135.143 C 172.196 137.235, 172.427 137.006, 175.077 131.167 C 180.427 119.382, 189.733 109.642, 198.698 106.444 C 202.897 104.946, 209.405 104.706, 212.500 105.934 C 215.106 106.968, 222.600 104.725, 225.434 102.062 C 228.342 99.330, 230.770 99.460, 233.588 102.500 C 236.683 105.840, 241.994 105.795, 250.590 102.353 C 257.951 99.407, 258.357 99.574, 259.382 105.987 C 260.108 110.530, 262.718 113.995, 267.251 116.436 C 271.740 118.853, 276.878 117.924, 281.510 113.857 L 284.978 110.812 285.851 113.156 C 286.332 114.445, 287.344 117.235, 288.101 119.355 C 288.884 121.546, 291.113 124.506, 293.267 126.211 C 296.435 128.721, 297.624 129.105, 300.528 128.561 L 304 127.909 304 131.764 C 304 137.159, 305.903 139.469, 309.719 138.706 C 312.602 138.130, 312.777 138.292, 313.620 142.301 C 314.316 145.614, 314.993 146.570, 316.828 146.830 C 318.576 147.077, 318.972 147.573, 318.424 148.830 C 316.977 152.147, 316.738 157, 318.022 157 C 318.943 157, 319.053 158.096, 318.449 161.250 C 317.132 168.129, 317.671 177.957, 320.057 190.575 L 322.291 202.391 320.023 212.609 L 317.755 222.827 320.127 227.104 C 322.924 232.145, 331.196 236.889, 337.310 236.957 C 340.519 236.993, 341.938 236.232, 346.310 232.129 C 351.238 227.505, 356.679 224, 358.931 224 C 359.498 224, 365.010 221.525, 371.179 218.500 C 381.515 213.432, 382.949 212.998, 389.448 212.976 C 393.326 212.962, 398.430 212.506, 400.790 211.962 C 405.898 210.783, 408.315 211.776, 410.466 215.935 C 412.645 220.147, 414.826 222, 417.607 222 C 418.962 222, 421.200 222.740, 422.581 223.645 C 424.701 225.034, 425.464 225.089, 427.500 224 C 429.539 222.909, 430.301 222.967, 432.455 224.378 C 434.563 225.760, 435 226.825, 435 230.589 C 435 233.087, 435.456 235.983, 436.013 237.023 C 436.724 238.352, 436.555 241.531, 435.446 247.708 C 434.578 252.543, 433.459 259.249, 432.958 262.609 C 432.458 265.969, 431.362 271.351, 430.524 274.569 C 427.592 285.826, 428.808 297.560, 434.220 310.250 C 436.451 315.479, 436.725 315.589, 442.500 313.577 C 444.700 312.811, 448.188 311.867, 450.250 311.480 C 453.421 310.886, 454 311.047, 454 312.526 C 454 314.387, 454.183 314.385, 472.726 312.395 C 478.615 311.763, 487.386 313.198, 488.483 314.973 C 489.186 316.110, 476.243 329.721, 468.846 335.623 C 465.082 338.626, 456.264 343.995, 449.251 347.553 C 442.238 351.112, 435.984 354.443, 435.352 354.955 C 433.198 356.706, 426.761 359, 424.004 359 C 422.490 359, 419.282 359.722, 416.876 360.605 C 410.422 362.972, 406.201 363.918, 399.500 364.500 C 386.097 365.664, 383.015 366.281, 371.728 370.060 C 359.036 374.308, 356.187 374.619, 348.500 372.595 C 345.040 371.684, 342.651 371.574, 340.744 372.239 C 331.309 375.528, 331.964 389.862, 341.766 394.587 C 344.630 395.968, 348.062 396.403, 356.500 396.455 C 366.542 396.518, 368.006 396.775, 373.309 399.408 C 379.100 402.283, 379.162 402.291, 392.206 401.602 C 402.528 401.057, 408.499 400.093, 420.465 397.040 C 441.321 391.719, 464.736 382.387, 475.177 375.235 C 477.555 373.606, 481.525 371.248, 484 369.995 C 490.126 366.894, 503.411 353.784, 505.992 348.293 C 507.691 344.678, 508.356 344.050, 509.486 344.988 C 510.253 345.625, 511.066 347.351, 511.291 348.823 C 511.516 350.295, 511.768 335.869, 511.850 316.763 L 512 282.027 508.463 280.549 C 502.749 278.161, 484.351 275.848, 473.500 276.153 C 468 276.308, 462.888 276.054, 462.140 275.590 C 461.175 274.991, 460.977 273.693, 461.458 271.123 C 463.497 260.236, 463.776 252.053, 462.456 241.862 C 460.552 227.157, 458.312 218.629, 454.329 210.919 C 451.541 205.520, 449.364 203.073, 442.215 197.302 C 429.005 186.638, 428.383 186.426, 409 185.966 C 385.287 185.403, 382.780 185.561, 377.365 187.959 C 374.689 189.144, 369.575 190.493, 366 190.957 C 362.425 191.422, 358.221 192.301, 356.657 192.911 L 353.814 194.021 354.456 188.261 C 355.574 178.244, 355.413 172.803, 353.666 161.500 C 352.732 155.450, 351.314 145.100, 350.517 138.500 C 348.454 121.428, 347.948 120.124, 341.061 114.134 C 337.802 111.300, 333.722 106.510, 331.994 103.490 C 330.267 100.471, 328.168 98, 327.331 98 C 325.424 98, 319.760 94.904, 318.727 93.297 C 316.433 89.730, 309.009 83.040, 306.700 82.461 C 305.234 82.093, 302.756 82.238, 301.192 82.783 C 299.405 83.406, 297.726 83.426, 296.674 82.838 C 295.612 82.243, 294.361 82.273, 293.250 82.920 C 292.170 83.549, 292.001 83.951, 292.809 83.970 C 293.529 83.986, 293.840 84.450, 293.500 85 C 292.467 86.671, 291.550 86.141, 290.202 83.094 C 289.472 81.446, 287.356 79.448, 285.314 78.479 C 282.230 77.015, 281.122 76.946, 277.606 77.998 C 275.348 78.673, 272.294 80.083, 270.820 81.131 C 268.963 82.452, 267.928 82.692, 267.447 81.914 C 266.468 80.330, 258.894 77.025, 256.500 77.138 C 255.400 77.190, 253.619 77.456, 252.542 77.729 M 156 142.928 C 145.020 144.464, 136.871 147.277, 123 154.319 C 107.617 162.129, 94.939 172.493, 82.409 187.500 C 79.195 191.350, 73.846 197.200, 70.524 200.500 C 63.615 207.362, 60.391 212.907, 55.614 226.144 C 49.962 241.807, 49.971 250.253, 55.650 257.759 C 58.141 261.052, 64.598 265, 67.492 265 C 71.201 265, 69.797 270.985, 64.594 277.351 L 62.263 280.203 58.300 277.580 C 48.652 271.195, 43.482 272.398, 35 283.001 C 31.975 286.783, 28.317 292.193, 26.870 295.023 C 25.424 297.853, 22.646 301.819, 20.698 303.835 C 15.974 308.722, 14.998 314.481, 15.006 337.434 C 15.021 384.578, 25.227 409.483, 52.321 428.492 C 58.591 432.890, 59.723 433.317, 66.321 433.766 C 73.998 434.288, 76 435.177, 76 438.063 C 76 440.738, 77.034 441.015, 84.447 440.323 C 90.288 439.777, 91.282 439.389, 92.058 437.348 C 93.742 432.919, 100.308 435.548, 101.783 441.242 C 102.361 443.474, 103.537 444.777, 105.812 445.705 C 108.969 446.993, 109.054 446.955, 110.698 443.508 C 112.431 439.873, 114.318 439.045, 115.700 441.310 C 117.545 444.333, 121.101 445.832, 124.270 444.923 C 125.972 444.434, 127.823 443.577, 128.383 443.017 C 128.942 442.458, 131.923 442, 135.006 442 C 139.415 442, 141.335 442.534, 144 444.500 C 145.864 445.875, 147.904 447, 148.534 447 C 149.163 447, 151.344 445.200, 153.380 443 C 156.189 439.963, 157.839 439, 160.230 439 C 168.177 439, 180.660 435.853, 186 432.503 C 187.925 431.295, 191.300 429.737, 193.500 429.041 C 195.700 428.344, 199.750 426.308, 202.500 424.516 C 205.250 422.724, 209.525 420.085, 212 418.650 C 217.869 415.249, 220.285 412.965, 227.393 404.101 C 232.777 397.387, 237 389.213, 237 385.504 C 237 382.696, 230.872 374.006, 228.466 373.402 C 224.282 372.352, 218.865 375.053, 212.453 381.387 C 197.417 396.239, 188.738 403.232, 185.777 402.879 C 184.525 402.730, 180.800 403.648, 177.500 404.919 C 174.200 406.191, 167.045 408.747, 161.599 410.600 C 152.582 413.668, 151.591 413.823, 150.501 412.333 C 149.408 410.838, 149.127 410.873, 147.254 412.746 C 145.296 414.704, 144.222 414.785, 123.240 414.551 C 104.699 414.345, 100.908 414.049, 98.915 412.653 C 97.617 411.744, 95.504 411, 94.220 411 C 78.724 411, 62.174 393.961, 54.948 370.567 C 51.611 359.763, 47.626 329.197, 48.635 322.145 C 49.203 318.178, 49.769 317.464, 54.973 314.145 C 58.117 312.140, 62.671 309.375, 65.094 308 C 67.517 306.625, 72.875 302.043, 77 297.818 C 81.125 293.593, 86.077 289.093, 88.004 287.818 C 96.325 282.313, 99.289 279.371, 102.074 273.853 C 103.683 270.665, 105 266.474, 105 264.539 C 105 259.031, 101.653 251.582, 96.874 246.453 C 94.468 243.871, 92.589 241.433, 92.698 241.034 C 93.493 238.133, 105.799 221.886, 114.472 212.289 C 117.207 209.263, 120.357 205.562, 121.472 204.065 C 123.884 200.829, 129.623 195.753, 132.697 194.140 C 135.062 192.898, 144 181.818, 144 180.127 C 144 178.447, 150.074 174.375, 156.720 171.598 C 161.099 169.769, 164.736 169, 169.010 169 C 176.801 169, 180.302 166.618, 182.576 159.770 C 185.124 152.099, 183.566 147.352, 177.469 144.211 C 174.607 142.736, 162.531 142.015, 156 142.928"/></svg>