<svg xmlns="http://www.w3.org/2000/svg" width="512" height="512" viewBox="0 0 512 512"><path fill-rule="evenodd" d="M 45.347 59.159 L 45.408 118.317 43 119.909 C 40.072 121.843, 24.175 133.408, 10.250 143.733 L -0 151.333 -0 172.226 C -0 188.670, 0.266 192.960, 1.250 192.374 C 1.938 191.965, 4.750 189.996, 7.500 188 C 10.250 186.004, 13.084 184.022, 13.798 183.596 C 14.861 182.963, 14.968 212.617, 14.387 347.411 L 13.677 512 20.255 512 C 24.582 512, 27.006 511.572, 27.338 510.750 C 27.741 509.750, 27.858 509.750, 27.921 510.750 C 27.984 511.746, 75.377 512, 261.342 512 L 494.685 512 495.142 469.750 C 495.394 446.512, 495.578 371.835, 495.550 303.799 L 495.500 180.099 498 181.736 C 499.375 182.636, 503.200 185.363, 506.500 187.795 L 512.500 192.216 512.834 185.358 C 513.018 181.586, 512.853 165.774, 512.469 150.221 L 511.770 121.942 502.535 114.721 C 497.456 110.749, 491.996 106.510, 490.400 105.300 C 482.500 99.308, 465.791 86.795, 457.953 81 C 453.117 77.425, 442.744 69.550, 434.903 63.500 C 412.945 46.559, 408.590 43.239, 393 31.552 C 385.025 25.574, 376.475 19.121, 374 17.213 C 371.525 15.305, 365.367 10.651, 360.316 6.872 L 351.133 0 278.136 0 L 205.139 0 190.320 10.640 C 171.732 23.984, 162.396 30.838, 136.500 50.150 C 128.800 55.893, 117.841 63.946, 112.146 68.046 C 106.451 72.145, 99.026 77.497, 95.646 79.939 C 83.895 88.425, 75.639 94, 74.822 94 C 73.107 94, 74.112 91.323, 77.023 88.136 L 80.047 84.825 79.850 49.663 C 79.743 30.323, 79.470 11.238, 79.245 7.250 L 78.836 0 62.061 0 L 45.287 0 45.347 59.159 M 0.425 172 C 0.425 183.825, 0.569 188.662, 0.746 182.750 C 0.923 176.838, 0.923 167.162, 0.746 161.250 C 0.569 155.338, 0.425 160.175, 0.425 172 M 178.239 301.250 L 178.500 344.500 216.500 344.143 C 237.400 343.946, 254.706 343.590, 254.957 343.352 C 255.209 343.114, 255.602 323.812, 255.831 300.459 L 256.248 258 217.113 258 L 177.979 258 178.239 301.250 M 262.829 291.750 C 262.735 310.313, 262.622 329.550, 262.579 334.500 L 262.500 343.500 306.250 343.761 L 350 344.021 350 301.011 L 350 258 306.500 258 L 263 258 262.829 291.750 M 27.450 328 C 27.450 346.975, 27.584 354.738, 27.748 345.250 C 27.913 335.762, 27.913 320.238, 27.748 310.750 C 27.584 301.262, 27.450 309.025, 27.450 328 M 188.750 351.784 L 178 352.068 178 399.534 L 178 447 216.500 447 L 255 447 255 398.905 L 255 350.810 227.250 351.155 C 211.988 351.345, 194.662 351.628, 188.750 351.784 M 262 399 L 262 447 306.660 447 L 351.321 447 350.663 420.750 C 350.300 406.313, 350.003 384.712, 350.002 372.750 L 350 351 306 351 L 262 351 262 399 M 27.195 365.500 C 27.215 367.150, 27.439 367.704, 27.693 366.731 C 27.947 365.758, 27.930 364.408, 27.656 363.731 C 27.382 363.054, 27.175 363.850, 27.195 365.500 M 27.405 411.500 C 27.406 420.300, 27.559 423.766, 27.745 419.203 C 27.930 414.639, 27.929 407.439, 27.742 403.203 C 27.555 398.966, 27.404 402.700, 27.405 411.500 M 27.300 496 C 27.300 499.025, 27.487 500.262, 27.716 498.750 C 27.945 497.238, 27.945 494.762, 27.716 493.250 C 27.487 491.738, 27.300 492.975, 27.300 496 M 27.158 506 C 27.158 507.375, 27.385 507.938, 27.662 507.250 C 27.940 506.563, 27.940 505.438, 27.662 504.750 C 27.385 504.063, 27.158 504.625, 27.158 506"/></svg>