<svg xmlns="http://www.w3.org/2000/svg" width="500" height="500" viewBox="0 -50 500 333"><path fill-rule="evenodd" d="M 264 84 C 264.825 84.533, 267.075 85.030, 269 85.103 L 272.500 85.237 269.500 86 C 267.850 86.420, 262.450 86.831, 257.500 86.914 C 252.550 86.997, 245.350 87.486, 241.500 88 C 237.650 88.514, 230 89.228, 224.500 89.586 C 219 89.944, 214.350 90.633, 214.167 91.118 C 213.616 92.574, 212 92.112, 212 90.500 C 212 89.349, 211.520 89.480, 209.937 91.063 C 208.802 92.198, 206.889 93.031, 205.687 92.915 C 204.484 92.798, 202.825 92.951, 202 93.255 C 201.175 93.559, 195.855 95.243, 190.177 96.998 C 176.382 101.261, 177.777 101.628, 196.146 98.567 C 242.533 90.840, 327.598 87.499, 341.250 92.869 C 345.681 94.612, 345.380 97.075, 335.777 137.657 C 332.675 150.761, 333.616 150.102, 316.806 150.961 C 302.573 151.688, 302.551 151.693, 312.500 151.904 L 322.500 152.115 317 154.626 C 313.427 156.258, 310.216 157.019, 307.834 156.800 C 305.818 156.615, 304.382 156.809, 304.643 157.232 C 305.487 158.597, 301.402 158.047, 297.965 156.332 C 294.672 154.690, 271.870 153.518, 232.500 152.968 C 225.762 152.874, 221.596 152.488, 223 152.088 L 225.500 151.376 223 150.742 C 221.625 150.393, 205.200 150.086, 186.500 150.061 C 150.832 150.012, 140.983 149.484, 141.025 147.621 C 141.091 144.665, 173.221 109.009, 175.841 108.985 C 177.284 108.971, 177.304 108.835, 176 107.941 C 174.717 107.061, 174.825 106.684, 176.750 105.334 C 177.988 104.466, 179 103.157, 179 102.425 C 179 100.169, 173.809 103.815, 171 108.043 C 168.088 112.427, 148.006 135.854, 140 144.207 L 134.500 149.945 104.500 152.033 C 70.432 154.404, 65.636 154.880, 40 158.443 C 11.325 162.427, 5.326 164.102, 3.599 168.602 C 2.575 171.271, 2.863 172.358, 4.284 171.180 C 5.097 170.504, 6.104 170.454, 7.034 171.042 C 7.840 171.552, 12.100 172.030, 16.500 172.103 C 25.621 172.255, 22.672 173.677, 12.809 173.882 C 6.880 174.005, 4.441 175.370, 8.083 176.526 C 9.767 177.061, 10.073 177.734, 9.591 179.848 C 9.259 181.307, 8.706 183.963, 8.362 185.750 C 8.019 187.538, 7.347 189, 6.869 189 C 6.391 189, 6 205.664, 6 226.031 C 6 266.077, 6.113 266.870, 11.183 262.371 C 12.758 260.974, 13.406 260.827, 13.743 261.792 C 14.106 262.830, 14.491 262.837, 15.705 261.829 C 17.991 259.933, 19.695 262.964, 20.476 270.318 C 23.304 296.927, 41.419 317.682, 53.513 308.168 C 56.094 306.138, 56.198 306.134, 59.819 307.948 C 64.520 310.302, 76.991 311.629, 77.020 309.778 C 77.031 309.075, 79.297 307.160, 82.056 305.522 C 84.815 303.884, 87.980 301.005, 89.089 299.125 C 90.606 296.553, 91.390 295.990, 92.253 296.853 C 93.837 298.437, 95 298.288, 95 296.500 C 95 294.688, 97.628 294.492, 98.338 296.250 C 98.615 296.938, 98.878 295.587, 98.921 293.250 L 99 289 134 289 L 169 289 169 294 L 169 299 173.375 299 C 175.781 299, 179.156 299.281, 180.875 299.625 C 182.894 300.029, 184 299.852, 184 299.125 C 184 298.506, 183.068 298, 181.929 298 C 180.789 298, 179.182 297.325, 178.357 296.500 C 177.024 295.167, 177.448 295.009, 182.179 295.079 C 185.105 295.122, 186.897 295.398, 186.161 295.692 C 183.988 296.558, 189.101 298.629, 192.275 298.168 C 194.507 297.844, 194.826 297.495, 193.903 296.383 C 192.945 295.229, 193.809 295.019, 199.128 295.116 C 202.632 295.180, 204.600 295.422, 203.500 295.655 C 202.400 295.888, 200.488 296.294, 199.250 296.558 C 198.012 296.822, 197 297.428, 197 297.906 C 197 299.194, 206.159 300.360, 206.897 299.166 C 207.302 298.512, 209.236 298.493, 212.507 299.112 C 216.994 299.961, 217.639 299.851, 218.872 298.028 C 219.627 296.913, 220.919 296, 221.744 296 C 222.965 296, 223.012 296.280, 222 297.500 C 220.492 299.317, 219.767 299.205, 235.216 299.545 C 241.660 299.687, 249.224 300.118, 252.025 300.503 C 256.150 301.071, 257.486 300.870, 259.059 299.447 C 260.705 297.957, 261 297.923, 261 299.223 C 261 300.065, 261.675 301.315, 262.500 302 C 263.546 302.868, 264 305.173, 264 309.622 L 264 316 284.750 315.976 C 311.059 315.946, 312.034 315.717, 321.438 307.349 C 322.778 306.156, 323.497 305.991, 323.771 306.813 C 324.233 308.199, 339 308.513, 339 307.136 C 339 306.172, 331.788 305, 325.860 305 C 321.284 305, 321.379 305.462, 324.511 298.380 L 327.022 292.702 335.927 293.334 C 340.825 293.682, 345.954 294.478, 347.326 295.103 C 349.333 296.017, 350.273 295.922, 352.133 294.620 C 354.016 293.301, 357.243 293, 369.507 293 C 382.581 293, 385.357 292.708, 390.535 290.790 C 396.450 288.598, 430.147 287.642, 436 289.500 C 437.787 290.067, 441.333 297.492, 441.333 300.667 C 441.333 302.832, 448.934 309.975, 451.409 310.136 C 459.720 310.674, 462.737 310.584, 464.377 309.749 C 465.662 309.095, 466.484 309.164, 466.981 309.969 C 467.827 311.338, 474.097 310.449, 476.301 308.649 C 480.770 304.998, 484.828 289.198, 482.636 283.985 L 481.271 280.740 480.550 284.585 C 478.415 295.963, 471.200 302.119, 466.291 296.750 C 456.456 285.994, 456.456 256.006, 466.291 245.250 C 472.645 238.301, 482 251.402, 482 267.249 C 482 272.176, 483.887 269.249, 485.109 262.426 C 485.693 259.167, 486.109 254.714, 486.032 252.531 C 485.773 245.141, 488.008 234.761, 489.577 236.064 C 493.162 239.039, 490.570 224.494, 486.902 221.050 C 484.683 218.967, 483.935 217.679, 484.750 217.345 C 486.622 216.579, 486.258 213.143, 484 210.273 C 482.900 208.874, 482 207.116, 482 206.365 C 482 205.614, 481.626 205, 481.170 205 C 480.713 205, 478.959 203.088, 477.272 200.750 C 475.585 198.412, 472.539 194.842, 470.503 192.817 C 468.413 190.738, 467.105 188.639, 467.500 187.999 C 467.914 187.330, 467.341 186.640, 466.101 186.316 C 464.945 186.014, 463.931 185.257, 463.848 184.633 C 463.764 184.010, 463.645 182.998, 463.583 182.386 C 463.521 181.773, 462.956 180.648, 462.328 179.886 C 460.436 177.591, 445 147.848, 445 146.498 C 445 145.809, 444.325 144.685, 443.500 144 C 442.675 143.315, 442 141.965, 442 141 C 442 140.035, 442.675 138.685, 443.500 138 C 444.325 137.315, 445 135.941, 445 134.945 C 445 133.949, 445.900 132.849, 447 132.500 C 449.098 131.834, 449.996 126, 448 126 C 447.450 126, 447 125.325, 447 124.500 C 447 123.675, 446.581 123, 446.070 123 C 445.496 123, 445.496 124.243, 446.070 126.243 C 447.277 130.453, 447.320 130.317, 444.989 129.707 C 443.884 129.418, 441.613 129.697, 439.944 130.327 C 436.551 131.608, 435.044 130.387, 435.015 126.334 C 434.994 123.370, 427.469 117.366, 425.658 118.869 C 423.493 120.665, 420.096 117.452, 419.372 112.923 C 419.023 110.741, 418.328 108.703, 417.829 108.394 C 417.311 108.074, 417.206 108.974, 417.585 110.482 L 418.250 113.131 414.805 111.692 C 408.657 109.123, 405.345 107.084, 407.250 107.040 C 409.123 106.997, 409.752 105, 407.893 105 C 407.284 105, 407.045 104.325, 407.362 103.500 C 408.236 101.222, 406.437 101.709, 404.785 104.198 C 403.157 106.649, 394.526 104.534, 393.319 101.389 C 393.026 100.625, 391.484 100, 389.893 100 C 388.302 100, 387 99.590, 387 99.089 C 387 98.588, 384.342 98.025, 381.093 97.839 C 377.844 97.652, 375.395 97.838, 375.652 98.250 C 375.908 98.662, 375.177 99, 374.028 99 C 372.878 99, 371.696 98.372, 371.401 97.603 C 369.863 93.595, 348.212 86.039, 338.060 85.968 C 335.552 85.951, 332.626 85.276, 331.559 84.468 C 330.491 83.661, 328.691 83.007, 327.559 83.015 C 325.947 83.027, 325.810 83.227, 326.924 83.932 C 328.714 85.065, 311.975 85.239, 307 84.139 C 304.916 83.678, 302.807 83.784, 301.788 84.399 C 300.605 85.114, 298.843 85.104, 296.086 84.369 C 293.549 83.691, 291.748 83.652, 291.140 84.260 C 289.302 86.098, 277.780 86.313, 272.068 84.615 C 265.794 82.749, 261.566 82.427, 264 84 M 355.453 102.330 C 354.780 105.014, 356.753 118.743, 358.065 120.500 C 358.476 121.050, 359.369 124.425, 360.049 128 C 360.730 131.575, 361.703 135.316, 362.213 136.314 C 362.826 137.515, 362.736 138.613, 361.947 139.564 C 361.031 140.667, 361.030 141, 361.940 141 C 362.592 141, 363.046 141.787, 362.948 142.750 C 362.381 148.325, 363.099 154, 364.372 154 C 365.202 154, 365.999 155.595, 366.389 158.031 C 367.091 162.423, 368.575 163.429, 376.135 164.638 C 379.262 165.138, 380.096 164.972, 379.901 163.890 C 379.135 159.651, 382.070 154, 385.039 154 C 387.419 154, 388 153.570, 388 151.809 C 388 149.668, 388.033 149.662, 389.468 151.559 C 391.482 154.222, 391.496 149.077, 389.500 140 C 388.691 136.320, 388.055 127.968, 388.035 120.750 L 388 108 385.600 108 C 384.281 108, 379.097 106.415, 374.082 104.478 C 361.170 99.492, 356.306 98.931, 355.453 102.330 M 394 114.588 C 394 116.011, 395.395 123.323, 397.101 130.838 C 402.177 153.199, 402.225 153.337, 405.502 154.910 C 408.845 156.514, 407.238 157.791, 401.700 157.930 C 398.090 158.020, 393 160.654, 393 162.432 C 393 163.290, 392.290 163.627, 391.125 163.322 C 390.093 163.053, 387.287 163.833, 384.889 165.057 C 379.285 167.916, 380.624 168.465, 395.469 169.400 C 401.502 169.781, 406.677 170.452, 406.969 170.892 C 407.261 171.332, 408.706 171.987, 410.180 172.348 C 411.654 172.708, 413.534 173.677, 414.359 174.502 C 415.183 175.326, 417.265 176, 418.986 176 C 420.706 176, 424.143 176.511, 426.622 177.135 C 434.155 179.032, 434.121 177.972, 425.574 144.507 C 422.058 130.740, 421.098 124.796, 422.908 128 C 423.931 129.811, 432.409 164.771, 434.126 174.258 C 435.335 180.942, 435.392 181.028, 439.237 182.064 C 441.375 182.640, 443.772 183.359, 444.563 183.662 C 448.865 185.313, 437.406 152.496, 425.423 128.848 C 421.024 120.168, 394 107.904, 394 114.588 M 351.555 118.094 C 346.869 138.182, 346.913 138.723, 353.250 139.214 C 356.137 139.438, 358.615 139.555, 358.755 139.473 C 358.895 139.391, 358.067 134.639, 356.914 128.912 C 354.701 117.913, 352.591 113.654, 351.555 118.094 M 351 141.417 C 351 142.196, 351.563 143.060, 352.250 143.338 C 352.938 143.615, 352.318 143.878, 350.872 143.921 C 341.279 144.209, 346.649 158.751, 356.994 160.499 C 362.588 161.444, 363.220 160.556, 361.927 153.565 C 360.176 144.090, 359.478 142.857, 356.266 143.558 C 354.327 143.981, 353.912 143.872, 354.878 143.193 C 355.636 142.660, 355.947 141.723, 355.569 141.112 C 354.576 139.505, 351 139.744, 351 141.417 M 280.287 150.740 C 283.469 150.939, 288.419 150.937, 291.287 150.736 C 294.154 150.535, 291.550 150.372, 285.500 150.374 C 279.450 150.376, 277.104 150.541, 280.287 150.740 M 202.936 181.750 C 182.705 192.008, 190.509 221, 213.500 221 C 220.597 221, 228.518 216.898, 232.494 211.164 C 241.812 197.724, 230.754 179, 213.500 179 C 209.873 179, 206.762 179.810, 202.936 181.750 M 26.502 187.518 C 10.385 196.229, 15.629 216.500, 34 216.500 C 55.873 216.500, 56.973 187.636, 35.152 186.256 C 31.268 186.010, 28.563 186.405, 26.502 187.518 M 103 198.500 L 103 211 110.500 211 L 118 211 118 198.500 L 118 186 110.500 186 L 103 186 103 198.500 M 306.500 227.837 C 294.473 235.172, 291.079 270.513, 300.704 288.197 C 311.405 307.859, 327.965 291.642, 327.965 261.500 C 327.965 237.504, 317.517 221.119, 306.500 227.837 M 54 250.500 L 54 261 102.500 261 L 151 261 151 250.500 L 151 240 102.500 240 L 54 240 54 250.500 M 488.359 246.508 C 487.575 248.550, 488.856 255, 490.045 255 C 490.570 255, 491 252.750, 491 250 C 491 245.205, 489.579 243.327, 488.359 246.508 M 487.560 260.297 C 486.752 264.131, 487.369 266.151, 488.824 264.433 C 489.258 263.920, 489.332 261.925, 488.987 260 L 488.359 256.500 487.560 260.297 M 327.728 303.722 C 329.503 303.943, 332.653 303.946, 334.728 303.730 C 336.802 303.513, 335.350 303.333, 331.500 303.328 C 327.650 303.324, 325.952 303.501, 327.728 303.722"/></svg>