<svg xmlns="http://www.w3.org/2000/svg" width="512" height="512" viewBox="0 0 512 512" version="1.1">
	<path d="M 376.500 10.651 C 358.511 12.047, 324.640 19.599, 315.109 24.339 C 310.896 26.434, 310.474 26.976, 310.200 30.652 C 309.680 37.636, 310.655 37.811, 329.809 34.173 C 351.387 30.075, 357.835 29.256, 379 27.928 C 388.625 27.324, 397.062 26.363, 397.750 25.793 C 399.726 24.153, 399.308 15.603, 397.120 12.900 C 395.513 10.916, 394.244 10.556, 388.370 10.421 C 384.592 10.334, 379.250 10.437, 376.500 10.651 M 190.893 50.540 C 183 51.766, 174.045 54.551, 146.500 64.350 C 134.859 68.491, 121.961 69.973, 97.406 69.990 L 82.312 70 81.173 77.750 C 80.546 82.013, 79.767 86.441, 79.442 87.591 C 78.867 89.622, 79.262 89.701, 93.175 90.337 C 115.647 91.365, 127.482 91.124, 135.460 89.476 C 142.671 87.987, 146.696 86.656, 164 80.039 C 168.675 78.251, 176.550 75.251, 181.500 73.373 C 186.450 71.495, 193 68.801, 196.056 67.388 L 201.613 64.817 201.477 57.215 C 201.402 53.034, 200.926 49.521, 200.420 49.409 C 199.914 49.296, 195.627 49.805, 190.893 50.540 M 355 76.387 C 355 76.783, 357.740 86.645, 361.089 98.303 C 364.438 109.962, 369.821 129.850, 373.051 142.500 C 376.281 155.150, 379.770 168.500, 380.804 172.166 L 382.685 178.831 373.502 184.844 C 352.116 198.846, 332.807 221.572, 322.567 244.793 C 314.046 264.116, 310.391 278.984, 308.487 302.078 C 307.352 315.841, 311.217 339.784, 317.004 354.833 C 328.983 385.985, 354.124 413.476, 384.687 428.843 C 411.788 442.469, 434.774 448.307, 461.500 448.354 C 475.498 448.378, 478.814 448.053, 488 445.755 C 493.775 444.311, 501.425 442.027, 505 440.681 C 511.345 438.290, 511.521 438.127, 512.382 433.805 C 512.868 431.370, 512.938 424.586, 512.539 418.729 L 511.813 408.081 504.628 412.977 C 494.097 420.154, 487.084 423.586, 476.202 426.887 C 450.491 434.687, 429.915 434.007, 403.228 424.476 C 373.367 413.811, 350.254 389.496, 337.661 355.500 C 330.793 336.959, 328.203 310.258, 331.389 290.844 C 335.707 264.531, 348.221 239.272, 365.821 221.350 C 373.046 213.992, 386.869 202.535, 387.617 203.284 C 387.781 203.448, 389.919 210.563, 392.368 219.095 C 401.810 251.991, 417.738 288.808, 434.306 316.028 C 441.737 328.236, 446.448 335.373, 449.685 339.327 C 451.711 341.800, 452 341.905, 452 340.169 C 452 336.789, 441.345 302.927, 433.926 282.728 C 427.378 264.901, 424.083 256.289, 412.289 226.164 C 402.906 202.195, 401.005 196.241, 402.377 195.102 C 404.796 193.094, 416.688 189.136, 425.090 187.542 C 435.698 185.530, 456.336 185.482, 469 187.441 C 479.526 189.069, 498.851 194.884, 506.349 198.680 C 509.017 200.030, 511.354 200.979, 511.544 200.789 C 511.735 200.599, 512.083 194.156, 512.319 186.472 C 512.556 178.787, 512.558 174.594, 512.325 177.154 L 511.902 181.808 503.032 177.961 C 483.732 169.590, 464.953 165.789, 443 165.810 C 428.050 165.825, 420.493 166.790, 405.198 170.638 C 399.532 172.063, 394.748 173.065, 394.566 172.865 C 394.385 172.664, 392.345 167.325, 390.033 161 C 385.834 149.511, 384.019 144.889, 370.792 112 C 363.966 95.026, 356.211 76.932, 355.399 76.083 C 355.179 75.854, 355 75.991, 355 76.387 M 199.402 89.088 C 180.941 90.737, 153.553 97.844, 148.505 102.296 C 143.439 106.764, 141.557 129.771, 144.592 150.109 C 147.888 172.191, 157.348 203.355, 174.433 248.413 C 186.084 279.141, 194.480 305.035, 197.476 319.483 C 198.834 326.031, 199.826 331.507, 199.681 331.652 C 199.536 331.797, 192.011 331.043, 182.959 329.976 C 173.906 328.910, 165.745 328.029, 164.821 328.018 C 161.510 327.982, 160.223 325.319, 160.121 318.289 C 159.764 293.839, 150.943 259.940, 139.750 240 C 134.641 230.900, 124.822 216.930, 119.395 211.040 L 114.290 205.500 118.651 191.500 C 121.049 183.800, 126.585 165.575, 130.952 151 C 135.319 136.425, 139.547 122.362, 140.348 119.750 C 141.149 117.138, 141.679 115, 141.527 115 C 141.374 115, 132.382 132.775, 121.544 154.500 C 110.706 176.225, 101.689 194, 101.507 194 C 101.324 194, 98.773 192.397, 95.837 190.438 C 85.450 183.504, 67.864 175.755, 55 172.442 C 45.463 169.986, 25.736 167.223, 24 168.101 C 23.175 168.518, 18.450 169.592, 13.500 170.487 C -0.203 172.966, 1 171.889, 1 181.676 C 1 190.211, 1.002 190.216, 3.420 189.610 C 22.437 184.836, 47.903 187.691, 67.206 196.759 C 74.397 200.137, 94 211.589, 94 212.411 C 94 212.571, 91.492 218.506, 88.427 225.601 C 76.808 252.499, 71.732 266.950, 63.929 295.358 C 61.211 305.251, 58.878 313.429, 58.744 313.530 C 58.610 313.632, 54.450 314.719, 49.500 315.945 C 44.550 317.171, 37.800 319.148, 34.500 320.339 L 28.500 322.503 28.211 331.855 L 27.922 341.206 47.211 340.353 C 75.218 339.114, 98.177 339.308, 117.355 340.944 C 129.936 342.017, 134.346 342.739, 134.751 343.792 C 136.481 348.301, 129.717 375.087, 124.227 385.466 C 116.827 399.457, 104.142 413.026, 92.243 419.681 C 70.651 431.756, 38.571 432.653, 8.341 422.029 C 5.167 420.913, 2.216 420, 1.785 420 C 1.353 420, 1 423.556, 1 427.902 L 1 435.804 4.250 437.021 C 13.770 440.586, 15.956 441.324, 21 442.672 C 31.292 445.422, 43.476 446.965, 55 446.977 C 95.491 447.017, 124.203 432.117, 142.628 401.500 C 149.237 390.517, 156.755 367.354, 158.532 352.500 C 158.927 349.200, 159.408 346.222, 159.602 345.882 C 159.796 345.543, 167.277 346.512, 176.227 348.037 C 185.177 349.562, 194.863 351.119, 197.750 351.498 C 203.568 352.262, 204.142 353.022, 200.635 355.319 C 199.184 356.270, 197.838 358.588, 197.150 361.320 C 195.792 366.713, 194.024 385.877, 193.998 395.500 C 193.987 399.350, 193.699 404.188, 193.358 406.250 C 192.771 409.802, 192.542 410, 189.009 410 C 186.693 410, 183.901 409.065, 181.643 407.533 L 178.007 405.065 176.004 408.993 C 172.780 415.312, 173.151 416.003, 179.750 415.979 C 188.420 415.949, 214.121 413.287, 217.250 412.096 C 218.831 411.494, 219.996 410.295, 219.991 409.275 C 219.982 407.410, 213.548 400, 211.937 400 C 211.422 400, 211 401.752, 211 403.893 C 211 408.096, 209.940 409, 205.016 409 C 202.293 409, 202.174 408.786, 201.549 402.750 C 201.194 399.313, 200.501 393.350, 200.010 389.500 C 199.519 385.650, 198.830 377.887, 198.478 372.248 C 197.892 362.838, 198.018 361.706, 200.016 358.474 C 203.560 352.740, 206.779 351.640, 216.270 352.917 C 227.122 354.377, 232.997 354.319, 233.011 352.750 C 233.017 352.063, 233.302 347.178, 233.645 341.895 L 234.268 332.291 223.059 331.395 L 211.850 330.500 245.817 298.834 C 290.009 257.637, 305.009 240.787, 344.476 188 C 353.728 175.625, 363.143 163.475, 365.397 161 L 369.495 156.500 363.997 161.536 C 339.830 183.677, 283.607 239.192, 273.393 251 C 271.252 253.475, 269.248 255.725, 268.940 256 C 268.632 256.275, 265.009 260.775, 260.890 266 C 247.913 282.460, 214.256 324.327, 210.647 328.500 C 208.743 330.700, 206.960 332.275, 206.683 332 C 206.407 331.725, 205.454 325.425, 204.567 318 C 202.689 302.279, 197.995 273.083, 194.358 254.500 C 189.334 228.832, 185.565 214.716, 173.528 176.500 C 160.622 135.523, 157 123.700, 157 122.540 C 157 121.100, 173.819 115.820, 186 113.436 C 197.358 111.212, 225.662 110.437, 240.657 111.938 C 265.100 114.386, 313.622 123.037, 339.263 129.518 C 344.773 130.911, 349.416 131.917, 349.580 131.754 C 349.743 131.590, 349.964 126.773, 350.071 121.048 L 350.264 110.641 345.882 109.439 C 304.203 98.006, 268.721 91.599, 233 89.053 C 216.870 87.904, 212.609 87.908, 199.402 89.088 M 9.500 167.046 C 12.250 167.474, 16.300 167.808, 18.500 167.787 L 22.500 167.750 18 166.949 C 15.525 166.509, 11.475 166.175, 9 166.208 L 4.500 166.267 9.500 167.046 M 103.497 234.075 C 96.185 253.388, 82.241 283.235, 72.351 300.743 C 68.858 306.927, 66 312.155, 66 312.360 C 66 312.566, 74.213 312.971, 84.250 313.261 C 102.692 313.794, 120.726 316.518, 131.876 320.455 C 134.282 321.305, 136.467 322, 136.730 322 C 138.576 322, 133.019 284.033, 129.455 272.297 C 124.840 257.100, 115.632 238.167, 108.677 229.575 L 106.309 226.649 103.497 234.075" stroke="none" fill="black" fill-rule="evenodd"></path>
</svg>