<svg width="511" height="500" viewBox="0 -150 511 500" fill="none" xmlns="http://www.w3.org/2000/svg">
	<path fill-rule="evenodd" clip-rule="evenodd"
		d="M275.808 7.7741C271.832 8.84552 270.334 10.0295 270.859 11.6847C271.249 12.9164 270.52 13.4524 266.924 14.5818C264.675 15.2877 266.304 17.1802 268.702 16.6469C271.566 16.0086 276.794 15.8081 276.131 16.3612C275.838 16.6053 269.927 18.1044 262.995 19.6934C256.062 21.2818 249.317 23.0107 248.005 23.5358C246.694 24.0603 243.705 25.0041 241.362 25.6336C237.381 26.7037 237.104 26.9062 237.104 28.7558C237.104 31.3993 238.853 35.464 239.991 35.464C241.684 35.464 269.454 27.177 270.931 26.2304C279.565 20.7007 292.072 20.8542 300.916 26.5987C308.173 31.3126 309.573 32.3411 307.963 31.7764C306.913 31.4088 303.193 36.026 303.193 37.6975C303.193 38.432 308.07 50.2572 310.007 54.219C314.824 64.0752 318.713 74.0386 318.053 74.8352C317.513 75.4858 317.507 76.1957 318.03 77.3436C318.555 78.4982 318.545 79.1584 317.994 79.7101C317.428 80.2768 317.429 80.476 317.998 80.476C321.519 80.476 321.563 83.7694 318.197 95.4302C304.378 143.306 274.258 179.375 229.842 201.238C214.224 208.925 215.506 209.012 211.547 199.996C194.735 161.706 176.281 118.766 176.159 117.655C176.007 116.263 174.472 113.167 173.61 112.515C172.868 111.953 169.501 106.845 169.36 106.069C168.943 103.753 167.204 100.254 166.47 100.254C165.962 100.254 165.777 99.8093 166.021 99.1737C166.347 98.3226 166.551 98.2823 166.984 98.9834C167.286 99.4731 167.748 99.6593 168.009 99.3981C168.269 99.1369 168.09 98.448 167.609 97.8677C166.864 96.9695 166.916 96.8829 167.964 97.2852C168.729 97.5792 169.031 97.4939 168.763 97.0595C168.025 95.8646 169.886 92.0325 171.344 91.7433C172.1 91.5933 174.404 91.2877 176.465 91.064C186.441 89.981 191.859 86.9918 190.764 83.1733C188.371 74.8188 181.801 72.8178 165.164 75.3767C161.449 75.9482 153.651 76.6977 147.836 77.0435C128.305 78.2029 120.729 81.99 121.483 90.2177C122.226 98.3382 122.944 99.6982 126.372 99.4874C128.003 99.3872 129.793 99.6866 130.355 100.154C130.977 100.671 132.739 100.909 134.845 100.762C139.111 100.465 139.198 100.915 135.245 102.837C131.569 104.625 131.145 106.392 134.393 106.392C136.576 106.392 136.605 106.434 136.481 109.405C136.386 111.679 136.637 112.527 137.503 112.86C138.735 113.334 151.462 107.278 150.956 106.459C150.181 105.202 155.438 106.745 156.771 108.165C158.421 109.923 162.364 110.441 163.244 109.014C163.559 108.504 163.429 108.413 162.876 108.756C162.202 109.173 162.189 108.972 162.815 107.8C163.251 106.984 163.476 105.95 163.315 105.502C162.297 102.668 165.103 101.585 166.254 104.368C167.214 106.687 167.029 107.1 164.96 107.255C164.168 107.315 163.52 107.415 163.52 107.477C163.52 107.538 163.968 108.662 164.515 109.973C165.062 111.284 165.344 112.523 165.141 112.726C164.938 112.929 165.097 113.703 165.494 114.446C166.044 115.473 165.977 115.996 165.216 116.627C164.667 117.084 164.385 117.731 164.59 118.063C164.795 118.396 164.331 118.668 163.56 118.668C161.945 118.668 161.75 119.896 163.077 121.712C163.783 122.678 164.505 122.87 166.182 122.534C168.194 122.131 168.445 122.286 169.364 124.486L170.362 126.876L164.497 136.071C161.272 141.128 158.458 145.266 158.245 145.266C158.032 145.266 156.908 144.557 155.749 143.691C154.589 142.824 150.881 141.092 147.509 139.841C144.136 138.591 138.424 136.092 134.815 134.291C121.845 127.814 125.628 128.22 78.17 128.195C50.9262 128.181 35.1935 128.427 32.973 128.904C25.9144 130.419 22.8007 134.245 27.256 135.928C29.0404 136.602 29.2598 136.965 28.9709 138.767C28.7883 139.903 28.5573 142.821 28.4571 145.25L28.2752 149.668L31.1791 150.294C33.5317 150.8 34.3173 150.706 35.3202 149.798C36.0015 149.181 37.0331 148.676 37.6136 148.676C39.1309 148.676 40.0337 147.334 40.794 143.946C41.4618 140.971 42.3747 139.88 44.2866 139.775C44.9291 139.738 44.739 139.443 43.7756 138.978C41.4836 137.871 41.9094 137.247 45.1382 136.98C50.4349 136.543 51.0999 136.856 51.0999 139.794C51.0999 141.233 52.0197 144.462 53.1439 146.971C54.2681 149.479 55.1879 151.628 55.1879 151.746C55.1879 151.864 53.1623 153.076 50.6856 154.438C32.0996 164.664 16.6197 182.625 8.26379 203.657C7.40667 205.815 6.55841 206.954 5.85527 206.892C5.25774 206.84 4.74811 206.994 4.72222 207.233C4.39449 210.278 4.04906 211.668 3.43926 212.403C2.90782 213.044 2.97051 213.503 3.66751 214.082C4.48239 214.759 4.49056 215.414 3.71929 218.435C2.89352 221.669 2.04049 227.363 1.06141 236.178C0.827713 238.283 0.942178 239.301 1.38164 239.029C1.75841 238.796 1.86061 238.272 1.6092 237.865C1.33054 237.414 1.47021 237.322 1.96827 237.63C2.43157 237.917 3.78129 237.373 5.09354 236.372C7.91835 234.215 8.26992 234.186 7.95787 236.142C4.85576 255.584 20.1224 290.725 39.4157 308.553C45.0933 313.8 46.0233 314.54 51.4406 318.12C94.1172 346.326 148.198 339 178.876 300.857C184.409 293.979 188.126 291.155 192.921 290.182C193.539 290.057 195.59 289.072 197.476 287.993L200.907 286.032L211.341 287.593C234.356 291.034 241.747 290.313 251.263 283.696C255.118 281.017 261.229 272.615 262.393 268.393C263.085 265.886 265.72 265.626 265.72 268.066C265.72 268.75 265.975 269.468 266.287 269.661C266.6 269.854 266.727 270.887 266.57 271.956C265.969 276.059 280.677 276.046 285.893 271.938C289.304 269.252 286.802 258.099 283.278 260.28C282.421 260.81 270.884 260.704 265.977 260.121L262.487 259.706L261.293 253.466C260.06 247.014 258.954 244.115 256.832 241.769C255.623 240.432 255.798 240.172 265.599 228.742C271.099 222.327 282.344 209.151 290.589 199.461C318.783 166.322 322.271 162.607 322.271 165.716C322.271 166.141 321.985 166.312 321.636 166.096C321.287 165.88 320.823 165.995 320.603 166.35C320.384 166.705 320.503 167.18 320.867 167.406C321.232 167.631 321.375 168.219 321.186 168.712C320.951 169.326 321.501 169.627 322.931 169.668C324.08 169.701 324.849 169.449 324.638 169.109C324.428 168.768 324.883 167.953 325.648 167.297C326.414 166.642 327.04 165.662 327.04 165.12C327.04 164.578 327.219 164.314 327.437 164.532C327.656 164.751 329.014 163.805 330.455 162.43C334.195 158.859 335.018 158.253 335.484 158.72C335.711 158.947 335.897 158.845 335.897 158.494C335.897 158.142 337.277 157.1 338.963 156.178C340.65 155.256 342.029 154.302 342.029 154.058C342.029 153.815 342.949 153.234 344.073 152.768C345.197 152.302 346.117 151.681 346.117 151.388C346.117 150.961 349.694 149.358 350.647 149.358C351.25 149.358 350.805 151.999 350.166 152.213C349.77 152.345 349.649 152.982 349.897 153.629C350.145 154.277 350.625 154.635 350.963 154.425C351.805 153.905 353.447 155.65 353.099 156.696C352.944 157.161 352.485 157.542 352.08 157.542C351.673 157.542 350.856 157.986 350.262 158.528C349.669 159.071 346.577 161.778 343.392 164.544C321.218 183.802 308.545 210.591 307.909 239.552C307.799 244.53 307.595 245.522 306.678 245.53C305.974 245.537 305.851 245.721 306.336 246.042C306.753 246.317 307.03 247.31 306.95 248.248C306.871 249.186 307.143 250.179 307.555 250.454C308.046 250.783 307.965 250.959 307.321 250.966C306.517 250.974 306.534 251.13 307.418 251.828C308.066 252.341 309.064 255.542 309.917 259.842C311.435 267.504 314.005 276.21 314.749 276.21C316.07 276.21 318.198 272.056 317.522 270.793C317.134 270.067 317.078 269.311 317.398 269.112C317.719 268.915 318.367 270.047 318.839 271.629C333.656 321.26 399.348 349.247 449.697 327.378C533.5 290.978 528.969 175.717 442.668 148.565C434.362 145.952 434.525 146.127 434.956 140.283L435.299 135.64L433.462 135.782C427.261 136.26 427.355 135.139 433.669 133.341C446.709 129.625 452.615 124.71 448.488 121.009C438.857 112.372 436.488 112.44 401.091 122.365C388.656 125.852 375.826 129.401 372.582 130.252L366.682 131.799L367.688 135.191C368.241 137.057 368.524 139.028 368.315 139.573C368.103 140.126 368.233 140.379 368.609 140.146C368.979 139.917 369.283 140.175 369.283 140.719C369.283 141.263 368.45 141.917 367.433 142.173C366.415 142.429 364.286 143.229 362.701 143.952C359.2 145.548 357.975 145.603 357.432 144.187C356.705 142.292 356.964 141.985 359.677 141.527C361.498 141.218 362.444 140.662 362.679 139.762C362.881 138.991 363.614 138.446 364.449 138.446C365.234 138.446 365.876 138.106 365.876 137.691C365.876 137.276 365.396 137.12 364.81 137.346C363.984 137.663 363.824 137.409 364.102 136.225C364.344 135.199 364.203 135.312 363.674 136.57C362.584 139.168 362.071 138.93 361.188 135.416C359.917 130.366 360.098 129.334 362.033 130.602C363.643 131.659 366.194 130.353 364.951 129.109C364.71 128.868 364.513 128.963 364.513 129.32C364.513 129.678 363.9 129.969 363.151 129.969C361.59 129.969 361.438 129.521 362.606 128.352C363.632 127.325 362.839 127.299 360.891 128.296C359.5 129.008 359.475 128.981 360.517 127.887C361.129 127.244 362.432 126.671 363.412 126.614C365.543 126.491 365.522 126.693 363.858 122.311C363.123 120.376 358.648 103.343 353.914 84.4595C344.455 46.732 344.137 45.694 342.042 45.694C339.889 45.694 339.354 48.1219 340.464 52.842C342.267 60.4995 342.322 60.9592 341.349 60.3577C340.737 59.9792 340.62 60.0705 340.976 60.6468C341.292 61.1597 340.929 61.886 340.048 62.5039C338.407 63.6545 338.734 64.79 340.707 64.79C344.423 64.79 341.841 67.31 334.887 70.4697L327.746 73.7146L325.754 72.2408C321.65 69.2032 309.557 39.2989 311.71 37.51C312.547 36.8143 312.732 36.8614 312.732 37.7678C312.732 39.0779 314.991 39.2559 315.959 38.0215C317.174 36.472 318.798 30.7295 318.137 30.321C317.787 30.1048 317.501 29.6206 317.501 29.2455C317.501 28.8704 317.838 28.7722 318.251 29.0273C318.784 29.3567 318.779 29.0771 318.235 28.0602C317.332 26.3709 315.038 25.0082 313.887 25.4768C313.281 25.7237 313.291 25.8219 313.924 25.8621C314.393 25.8914 314.776 26.3081 314.776 26.7876C314.776 27.267 315.389 28.1843 316.139 28.8268C318.608 30.943 317.319 34.782 314.14 34.782C312.743 34.782 313.427 33.5107 314.939 33.2952C317.377 32.9467 317.187 30.8693 314.49 28.3971C313.149 27.1668 312.051 25.8062 312.051 25.3738C312.051 24.6597 302.429 17.8022 298.515 15.7262C295.981 14.382 288.319 14.1072 284.663 15.2297C282.902 15.7705 281.293 16.0433 281.086 15.836C280.36 15.109 280.721 14.4782 282.064 14.1262C283.528 13.743 285.224 10.2559 284.263 9.60459C283.94 9.38567 283.478 8.67025 283.236 8.01348C282.716 6.60174 280.431 6.52809 275.808 7.7741ZM274.248 21.2327C272.756 21.5826 271.238 22.1657 270.876 22.5285C269.785 23.6204 272.592 23.2303 275.94 21.824C279.24 20.4382 278.598 20.2138 274.248 21.2327ZM305.813 34.6388C304.181 36.472 303.895 38.6817 305.411 37.7432C305.895 37.4445 305.991 37.7378 305.692 38.5916C305.248 39.8574 305.265 39.8567 306.258 38.5732C306.821 37.8448 307.281 36.9501 307.281 36.5838C307.281 36.2183 307.457 36.0948 307.672 36.3097C307.887 36.5252 307.582 37.6327 306.993 38.7717C306.322 40.0716 306.176 40.9991 306.603 41.2623C306.976 41.4935 307.286 41.4342 307.291 41.1307C307.298 40.8272 307.599 41.0393 307.963 41.602C308.455 42.3651 308.625 41.9873 308.634 40.1159C308.639 38.7362 309.126 37.1253 309.714 36.5354C310.688 35.5615 310.661 35.464 309.413 35.464C308.407 35.464 308.111 35.0991 308.303 34.1C308.667 32.2102 307.81 32.3957 305.813 34.6388ZM342.523 67.8181C341.858 68.3125 338.586 69.905 335.254 71.357C330.086 73.6082 329.155 74.2616 328.929 75.7934C328.488 78.7594 353.549 134.995 355.315 135.007C358.179 135.024 358.425 134.226 356.997 129.552C356.258 127.129 355.501 123.459 355.317 121.396L354.983 117.645L356.048 121.396C357.357 126.002 358.041 126.832 358.041 123.814C358.041 122.556 357.844 121.648 357.605 121.796C357.364 121.944 356.963 120.918 356.711 119.514C356.46 118.111 355.819 115.428 355.289 113.553C353.122 105.902 347.523 81.8161 347.723 81.0059C347.841 80.5271 347.78 80.4419 347.587 80.817C347.393 81.1921 346.447 78.2186 345.484 74.2091C343.865 67.4696 343.641 66.9867 342.523 67.8181ZM324.831 79.5041C324.633 79.7019 325.016 80.9991 325.682 82.3863C327.397 85.962 335.216 103.697 335.216 104.012C335.216 104.156 336.273 106.515 337.564 109.254C338.856 111.994 341.759 118.378 344.017 123.442C348.206 132.839 349.719 134.864 346.234 126.411C345.175 123.84 343.299 119.282 342.065 116.281C340.831 113.28 338.65 108.37 337.218 105.369C335.786 102.368 332.494 95.2399 329.902 89.5289C327.31 83.8178 325.029 79.3063 324.831 79.5041ZM324.373 89.7328C323.938 91.463 323.78 93.5029 324.021 94.2647C324.283 95.0885 324.192 95.4847 323.799 95.2413C323.414 95.0033 323.138 95.9642 323.138 97.543C323.138 101.134 323.27 101.012 324.993 95.8285C325.803 93.3944 326.748 91.2277 327.093 91.0142C327.438 90.8001 327.721 90.3186 327.721 89.9435C327.721 89.5684 327.363 89.4832 326.924 89.7546C326.395 90.0819 326.267 89.8821 326.543 89.1626C326.771 88.5659 326.555 87.742 326.061 87.3321C325.354 86.7442 324.997 87.2516 324.373 89.7328ZM164.526 94.1528C163.035 94.8785 159.67 97.0029 157.047 98.8743C151.984 102.485 150.558 102.814 145.255 101.589C143.322 101.143 141.927 101.141 141.167 101.585C140.229 102.133 140.205 102.262 141.042 102.28C142.28 102.304 143.976 104.811 143.393 105.754C143.165 106.124 143.231 106.369 143.54 106.301C143.849 106.232 144.581 106.389 145.166 106.648C146.308 107.156 158.878 101.598 160.973 99.66C161.634 99.0489 162.76 97.9795 163.476 97.2832C164.192 96.5869 165.063 96.1933 165.412 96.4089C165.989 96.7662 167.94 93.5397 167.446 93.0452C167.33 92.9286 166.016 93.4265 164.526 94.1528ZM327.31 102.008C312.285 144.879 289.24 175.706 255.306 198.329C247.271 203.686 245.976 204.447 231.313 212.431C225.317 215.696 220.323 218.453 220.214 218.557C220.107 218.661 221.082 221.165 222.383 224.12L224.748 229.493L231.437 229.976C235.116 230.242 239.598 230.969 241.398 231.592C244.302 232.597 244.762 232.61 245.486 231.699C246.32 230.651 281.651 189.277 300.099 167.745C305.735 161.166 311.574 154.284 313.073 152.452C314.571 150.619 317.336 147.255 319.215 144.976C338.96 121.041 338.452 122.249 333.471 111.113C329.253 101.679 328.049 99.9007 327.31 102.008ZM144.783 102.914C146.701 103.339 146.743 103.415 145.47 104.146C144.724 104.575 144.282 105.095 144.49 105.302C144.696 105.509 145.568 105.186 146.427 104.584C148.246 103.309 147.309 102.273 144.443 102.391C142.902 102.455 142.935 102.505 144.783 102.914ZM157.388 103.298C155.445 104.025 155.226 104.283 156.204 104.686C156.898 104.971 157.864 104.8 158.492 104.278C159.409 103.516 159.717 103.564 160.462 104.583C160.958 105.262 161.525 105.501 161.755 105.127C161.981 104.761 161.78 104.306 161.31 104.115C160.662 103.852 160.703 103.592 161.476 103.044C162.966 101.99 160.464 102.144 157.388 103.298ZM134.734 104.134C134.077 104.306 133.541 104.676 133.541 104.957C133.541 105.75 140.381 105.274 141.233 104.422C142.006 103.648 137.376 103.443 134.734 104.134ZM435.372 121.421C434.81 121.706 431.503 122.443 428.024 123.057C419.288 124.602 418.431 124.983 418.843 127.144C419.028 128.108 419.272 128.898 419.386 128.898C420.331 128.898 436.49 123.938 437.825 123.238L439.546 122.336L437.97 121.619C437.103 121.225 435.934 121.135 435.372 121.421ZM340.626 126.033C340.087 126.681 338.762 128.564 337.684 130.218C335.576 133.449 322.289 150.639 319.732 153.443C318.88 154.377 318.183 155.392 318.183 155.7C318.183 156.007 317.861 156.059 317.468 155.817C316.984 155.517 317.025 155.047 317.595 154.36C318.453 153.325 317.482 152.107 315.798 152.107C315.423 152.107 315.531 152.37 316.038 152.692C316.808 153.179 316.81 153.545 316.056 154.898C314.61 157.492 314.612 159.732 316.062 159.271C317.46 158.828 319.919 161.158 319.231 162.273C318.953 162.722 317.764 162.178 316.096 160.835L313.408 158.673L311.71 160.27C308.6 163.194 309.117 161.073 312.481 157.104C314.305 154.952 315.468 153.387 315.065 153.627C314.663 153.868 312.44 156.355 310.126 159.156L305.919 164.247L309.081 167.033C312.593 170.127 313.721 170.428 314.73 168.539C315.294 167.486 314.98 166.899 312.957 165.216C310.81 163.429 310.158 160.804 312.17 162.049C312.626 162.331 312.549 162.694 311.953 163.073C311.407 163.419 311.343 163.664 311.797 163.67C312.22 163.675 312.923 163.249 313.359 162.722C314.251 161.647 315.132 161.674 317.245 162.838C320.579 164.676 321.404 161.415 318.247 158.876C315.938 157.019 314.842 154.613 316.878 155.873C317.233 156.093 317.328 156.589 317.09 156.975C316.244 158.344 319.43 156.198 320.765 154.5C321.493 153.573 322.284 152.958 322.521 153.132C322.758 153.307 322.822 153.269 322.662 153.046C322.502 152.824 323.192 151.705 324.195 150.56C328.277 145.895 330.449 143.744 330.494 144.318C330.521 144.652 330.763 144.365 331.032 143.681C331.302 142.997 331.73 142.451 331.985 142.467C332.529 142.502 344.308 130.465 344.641 129.533C344.766 129.184 344.361 128.898 343.741 128.898C342.268 128.898 340.818 127.419 341.192 126.298C341.406 125.654 341.738 125.749 342.417 126.645C342.929 127.322 343.359 127.529 343.37 127.106C343.416 125.49 341.654 124.801 340.626 126.033ZM401.35 129.832C393.284 132.119 392.59 132.559 394.035 134.463C394.816 135.493 405.877 133.218 412.747 130.616C419.733 127.97 410.224 127.316 401.35 129.832ZM83.3556 132.478C83.1832 132.759 87.5826 132.935 93.132 132.867C103.427 132.742 102.393 132.471 90.3794 132.148C86.6893 132.048 83.5286 132.197 83.3556 132.478ZM72.7172 132.8C73.9266 132.951 76.0728 132.953 77.4866 132.806C78.8997 132.658 77.9104 132.535 75.2872 132.532C72.6641 132.529 71.5072 132.65 72.7172 132.8ZM110.376 133.091C114.125 133.527 120.098 135.082 127.318 137.503C140.881 142.053 141.485 141.908 130.649 136.701L122.299 132.69L113.442 132.553L104.585 132.417L110.376 133.091ZM171.533 134.807C170.983 135.871 169.411 138.693 168.043 141.078C166.581 143.624 165.96 145.26 166.537 145.038C169.904 143.745 171.525 148.33 169.088 152.252C167.603 154.643 167.575 154.878 168.646 155.95C169.593 156.899 169.716 157.924 169.36 161.922L168.93 166.749L175.252 173.279C189.081 187.562 199.092 206.536 203.02 225.912L203.815 229.834H209.558C216.253 229.834 216.072 230.279 212.523 222.571C210.995 219.251 201.611 197.968 191.671 175.274C171.689 129.655 172.92 132.129 171.533 134.807ZM378.31 136.209C369.571 138.721 369.424 138.811 370.852 140.765C371.621 141.818 388.465 138.313 390.281 136.723C393.638 133.782 387.649 133.525 378.31 136.209ZM57.4697 139.639C57.7906 141.885 59.8094 148.563 60.3844 149.28C60.5554 149.492 64.5222 148.141 65.2716 147.615C66.25 146.927 60.1289 137.082 58.722 137.082C57.2428 137.082 57.1358 137.3 57.4697 139.639ZM67.5779 137.823C67.7742 138.353 68.4678 140.41 69.1191 142.393C70.0287 145.162 70.5663 145.919 71.4329 145.655C94.522 138.606 123.399 141.147 146.388 152.251C151 154.478 152.195 154.821 152.681 154.055C153.602 152.598 153.429 152.107 151.767 151.462C150.923 151.135 146.861 149.489 142.739 147.804C138.617 146.119 130.398 143.157 124.474 141.222L113.704 137.703L90.4626 137.281C70.5997 136.921 67.2727 136.999 67.5779 137.823ZM391.426 140.549C388.257 141.772 388.607 141.795 393.989 140.713C395.921 140.325 397.324 139.086 395.724 139.181C395.234 139.21 393.3 139.826 391.426 140.549ZM411.369 141.532C410.095 144.096 410.631 144.658 412.442 142.655C413.588 141.386 413.988 139.114 413.058 139.145C412.777 139.154 412.017 140.228 411.369 141.532ZM333.862 150.171C321.276 163.78 320.242 165.241 324.315 163.651C324.502 163.578 324.885 163.554 325.166 163.6C325.448 163.644 325.677 163.288 325.677 162.808C325.677 161.553 328.329 159.462 329.221 160.014C329.637 160.271 329.786 160.173 329.553 159.796C329.32 159.42 329.828 158.528 330.68 157.815C333.496 155.46 336.512 153.45 337.233 153.45C337.622 153.45 337.941 153.092 337.941 152.654C337.941 152.217 338.14 152.057 338.383 152.301C338.626 152.544 339.392 152.088 340.086 151.287C340.78 150.487 341.348 150.044 341.348 150.303C341.348 150.563 341.731 150.451 342.2 150.054C347.483 145.572 347.824 145.394 348.392 146.8C348.597 147.31 348.757 147.172 348.789 146.459C348.818 145.803 348.401 145.266 347.861 145.266C347.22 145.266 346.807 144.381 346.669 142.708C346.251 137.657 344.482 138.688 333.862 150.171ZM383.591 142.25C374.78 144.967 359.013 148.726 358.293 148.281C357.718 147.924 357.607 148.13 357.925 148.961C358.176 149.616 358.386 150.51 358.391 150.948C358.399 151.498 358.557 151.518 358.902 151.013C359.178 150.609 360.936 149.884 362.81 149.401C366.463 148.458 371.34 147.033 379.503 144.523C382.313 143.66 385.291 143.009 386.12 143.077C387.201 143.165 387.518 142.913 387.24 142.187C387.027 141.63 386.808 141.203 386.754 141.239C386.7 141.275 385.277 141.73 383.591 142.25ZM184.006 145.561C183.98 145.911 185.31 149.287 186.958 153.063C188.608 156.84 192.102 164.839 194.723 170.841C197.344 176.843 200.482 184.055 201.696 186.868C202.911 189.681 204.74 193.824 205.761 196.075C206.783 198.326 208.931 203.159 210.535 206.816C212.595 211.513 213.795 213.466 214.622 213.466C216.414 213.466 240.873 202.008 240.302 201.435C240.156 201.29 236.847 202.673 232.949 204.511C212.079 214.351 215.878 216.708 202.036 185.333C192.082 162.772 188.553 154.833 184.827 146.63C184.401 145.692 184.031 145.211 184.006 145.561ZM52.1219 159.535C49.4988 160.997 46.1262 163.313 44.6272 164.683L41.9019 167.173L45.7385 164.442C47.8486 162.94 51.5278 160.623 53.9145 159.293C56.3012 157.963 57.9473 156.876 57.5726 156.877C57.1978 156.878 54.745 158.074 52.1219 159.535ZM164.37 158.906C162.426 161.946 162.406 161.824 165.223 163.975L167.608 165.796V164.192C167.608 163.31 167.323 162.297 166.975 161.941C166.627 161.585 166.242 160.219 166.119 158.906L165.895 156.519L164.37 158.906ZM404.285 160.318C397.17 161.169 389.417 162.894 389.154 163.683C389.028 164.061 388.68 164.219 388.382 164.035C387.33 163.384 375.04 168.254 370.899 170.963C369.457 171.906 369.474 171.967 374.148 182.97C383.016 203.846 385.48 208.259 392.709 216.204C395.376 219.135 397.886 221.948 398.286 222.454C398.688 222.961 400.664 224.819 402.68 226.584C404.695 228.348 406.156 229.981 405.925 230.211C405.695 230.441 403.89 229.069 401.914 227.163C399.937 225.256 398.13 223.696 397.896 223.696C397.663 223.696 396.594 222.779 395.521 221.657C394.448 220.536 393.417 219.771 393.231 219.957C393.044 220.143 394.632 221.917 396.758 223.898C398.884 225.878 400.624 227.39 400.624 227.257C400.624 227.124 402.021 228.16 403.727 229.56C405.435 230.961 406.753 231.825 406.658 231.482C406.563 231.138 406.87 228.317 407.342 225.212C407.813 222.107 408.007 218.962 407.772 218.222C407.537 217.482 407.636 216.876 407.992 216.876C408.347 216.876 408.834 213.884 409.074 210.226C411.212 177.614 411.119 178.277 413.69 177.38L415.788 176.648L415.38 180.564C414.003 193.791 412.768 216.382 413.261 219.328L413.82 222.673L414.291 219.604C416.395 205.881 421.745 164.545 421.745 162.011C421.745 160.542 421.435 160.27 419.758 160.27C417.771 160.27 416.295 163.741 416.295 168.414C416.295 169.677 415.035 170.5 413.103 170.5C412.243 170.5 412.107 169.596 412.307 165.214C412.586 159.077 412.925 159.284 404.285 160.318ZM307.695 162.916C306.479 164.262 307.766 166.349 309.248 165.433C309.613 165.206 310.134 165.381 310.405 165.82C310.732 166.349 310.575 166.452 309.942 166.123C309.415 165.85 309.898 166.408 311.014 167.361C312.345 168.498 313.276 168.865 313.714 168.425C314.153 167.986 313.51 167.033 311.848 165.663C310.454 164.512 309.474 163.309 309.671 162.99C310.416 161.783 308.776 161.721 307.695 162.916ZM426.203 163.81C425.989 165.051 425.057 172.205 424.133 179.707C423.209 187.209 421.267 202.247 419.818 213.125C416.363 239.054 416.397 242.34 420.076 237.592C420.718 236.763 420.941 236.68 420.71 237.356C420.453 238.104 420.872 238.443 422.186 238.552C425.053 238.789 424.988 239.382 422.094 239.382H419.49L420.788 240.905C421.825 242.122 421.848 242.243 420.902 241.51C420.251 241.006 419.212 240.788 418.592 241.026C416.446 241.851 428.537 253.233 433.084 254.668C435.158 255.322 436.724 255.988 436.564 256.148C436.405 256.307 435.289 256.094 434.085 255.674C430.431 254.399 430.904 255.022 443.574 268.169C450.305 275.153 455.812 280.996 455.812 281.152C455.812 281.309 451.759 277.27 446.807 272.175C429.377 254.245 427.57 252.501 426.746 252.817C426.29 252.993 425.361 252.8 424.682 252.388C423.67 251.773 423.815 251.715 425.493 252.064C427.38 252.457 427.183 252.135 422.933 247.872C420.402 245.333 418.118 243.467 417.86 243.726C417.137 244.45 417.436 249.053 418.238 249.55C418.691 249.83 418.718 250.353 418.313 250.994C417.78 251.838 417.676 251.808 417.667 250.805C417.662 250.149 417.379 249.612 417.04 249.612C416.7 249.612 416.583 248.993 416.781 248.238C417.057 247.183 416.885 246.962 416.04 247.286C415.435 247.519 415.138 248.031 415.382 248.425C415.646 248.852 415.495 248.937 415.008 248.635C414.559 248.358 413.686 248.541 413.068 249.042C412.374 249.604 412.131 249.643 412.431 249.142C412.748 248.614 412.442 248.367 411.556 248.433C410.316 248.527 410.466 249.04 413.248 254.189C416.763 260.695 416.851 261.899 413.358 255.696L411.024 251.55L408.589 254.524C407.249 256.161 405.83 258.351 405.434 259.393C404.986 260.574 404.413 261.102 403.916 260.794C403.4 260.475 403.253 260.654 403.5 261.299C403.711 261.848 403.468 263.049 402.959 263.968C402.451 264.887 402.024 265.389 402.01 265.082C401.997 264.777 402.329 263.886 402.747 263.104C403.393 261.896 403.338 261.746 402.384 262.112C401.39 262.494 401.401 262.357 402.476 260.926C403.291 259.839 403.854 259.563 404.191 260.086C404.512 260.587 404.695 260.449 404.702 259.698C404.707 259.056 406.1 256.825 407.796 254.741C411.612 250.051 411.306 247.328 407.141 248.913C405.497 249.538 405.393 249.452 405.393 247.462C405.393 245.349 405.389 245.346 402.498 245.843C400.905 246.116 397.762 246.296 395.514 246.242C389.652 246.102 330.449 249.381 329.957 249.874C328.909 250.923 332.359 262.231 333.853 262.645C334.925 262.941 335.114 263.141 334.364 263.184C331.997 263.319 335.773 273.393 341.462 282.115L344.807 287.245L346.654 286.062L348.502 284.88L346.946 286.58L345.39 288.281L349.882 292.987C352.647 295.886 354.51 297.366 354.731 296.84C354.927 296.371 355.407 295.988 355.796 295.988C356.199 295.988 356.108 296.467 355.584 297.098C354.579 298.309 356.08 299.914 362.256 304.231L365.109 306.225L371.679 298.378C375.293 294.063 378.414 290.532 378.618 290.532C378.821 290.532 377.624 292.144 375.958 294.112C364.825 307.275 365.032 306.529 371.603 309.825C377.123 312.595 377.842 312.772 378.404 311.503C378.611 311.035 378.714 311.237 378.631 311.954C378.509 313.018 379.536 313.616 384.221 315.211C390.802 317.451 390.599 317.543 392.036 311.674C393.048 307.546 393.05 309.166 392.038 315.141L391.625 317.586L397.317 318.381C400.447 318.819 403.386 319.177 403.847 319.177C404.48 319.176 404.734 315.453 404.883 304.001L405.08 288.827L405.237 304.001L405.393 319.176H407.041C407.947 319.176 409.156 319.355 409.727 319.575C410.553 319.892 410.807 319.301 410.975 316.676C411.262 312.155 413.139 312.003 413.43 316.478C413.71 320.76 417.764 320.813 418.898 316.55L419.56 314.061L419.631 316.554L419.701 319.046L422.597 318.658C424.189 318.445 427.026 317.923 428.899 317.499L432.306 316.728L432.168 314.03C432.048 311.671 432.103 311.561 432.606 313.155C433.626 316.384 433.799 316.425 438.958 314.68C446.555 312.108 446.356 312.726 442.056 305.082C439.981 301.393 437.599 297.224 436.76 295.817C435.923 294.411 435.39 293.26 435.576 293.26C435.762 293.26 438.253 297.25 441.111 302.126C447.021 312.205 446.367 311.868 452.916 308.232C458.912 304.903 458.904 305.569 453.035 298.249C450.383 294.942 449.694 293.915 451.502 295.965C453.31 298.016 455.744 300.758 456.912 302.059L459.033 304.424L462.362 301.973C470.187 296.212 470.189 296.272 461.991 288.161C458.967 285.169 456.493 282.527 456.493 282.289C456.493 282.051 459.463 284.883 463.093 288.581L469.693 295.305L471.337 293.771C472.242 292.927 474.245 290.734 475.787 288.896L478.592 285.555L474.867 282.176L471.142 278.797L475.078 281.691C477.243 283.283 479.131 284.466 479.274 284.319C487.332 276.099 486.457 273.363 474.499 269.374C468.671 267.429 464.021 265.72 464.164 265.576C464.309 265.432 469.003 266.85 474.598 268.729C486.825 272.835 486.169 272.915 488.559 267.003C490.831 261.382 490.977 260.051 489.368 259.63C488.422 259.383 488.476 259.302 489.627 259.239C491.204 259.153 492.093 256.662 492.986 249.832L493.447 246.301L491.152 246.019L488.857 245.738L491.058 245.629C495.292 245.419 494.964 232.914 490.276 215.853C486.714 202.888 471.701 180.828 468.274 183.522C467.169 184.39 467.14 184.371 467.964 183.317C469.169 181.778 468.921 181.469 462.779 176.839C454.445 170.557 446.433 166.628 445.21 168.223C444.303 169.404 444.256 169.382 444.408 167.847C444.65 165.41 433.109 161.427 431.632 163.439C430.737 164.657 430.707 164.653 430.823 163.339C431.062 160.625 426.675 161.072 426.203 163.81ZM361.109 162.365C361.103 163.235 363.388 169.534 363.987 170.299C364.341 170.752 364.433 171.442 364.191 171.834C363.949 172.225 364.179 172.546 364.7 172.546C365.222 172.546 365.649 172.937 365.649 173.415C365.649 174.734 370.163 185.504 370.715 185.504C370.981 185.504 371.048 186.194 370.863 187.038C370.593 188.272 370.67 188.372 371.257 187.55C371.836 186.74 371.989 186.998 371.998 188.792C372.003 190.038 372.468 191.518 373.03 192.081C373.592 192.643 374.052 193.695 374.052 194.418C374.052 195.142 374.377 195.734 374.773 195.734C375.17 195.734 375.306 196.041 375.074 196.416C374.842 196.791 374.912 197.098 375.229 197.098C375.547 197.098 375.857 197.784 375.921 198.622C375.983 199.461 376.338 200.248 376.708 200.372C377.079 200.495 377.73 201.65 378.154 202.939C378.579 204.228 379.22 205.282 379.58 205.282C379.967 205.282 379.933 204.723 379.495 203.904C379.09 203.146 378.975 202.148 379.24 201.687C379.505 201.226 379.464 201.082 379.152 201.367C378.838 201.652 378.202 200.884 377.738 199.662C377.274 198.439 376.088 195.291 375.103 192.665C374.119 190.039 372.59 186.356 371.706 184.481C368.815 178.344 367.694 175.629 367.693 174.762C367.693 174.294 367.438 173.91 367.125 173.91C366.813 173.91 366.62 173.679 366.697 173.398C366.774 173.117 366.208 171.506 365.438 169.818C363.985 166.628 361.113 161.684 361.109 162.365ZM87.2106 164.562C83.3931 165.272 82.8078 165.573 82.9706 166.749C83.1559 168.085 83.1389 168.086 82.1333 166.809C78.6878 162.43 78.3478 166.542 81.5173 174.251C83.6554 179.449 84.4096 182.059 83.9756 182.749C83.1151 184.117 84.488 187.55 85.8949 187.55C86.6239 187.55 87.6643 189.134 88.918 192.153C91.2386 197.742 91.6324 198.236 92.912 197.173C93.4563 196.721 95.6918 196.288 97.8802 196.213L101.859 196.075L102.063 198.86C102.311 202.246 100.606 202.782 99.5195 199.661C98.644 197.148 97.3406 197.841 97.8789 200.535C98.2843 202.566 97.6956 202.971 94.8756 202.605C93.4482 202.42 93.8829 204.02 97.466 212.142C99.6054 216.992 100.811 219.108 100.651 217.734C100.51 216.517 100.563 215.691 100.769 215.898C100.976 216.105 101.538 215.258 102.019 214.018C102.863 211.841 102.878 211.833 102.452 213.807C101.377 218.79 101.532 222.421 102.926 224.939C103.901 226.698 104.184 226.938 103.873 225.742C103.629 224.804 103.394 223.5 103.351 222.843C103.306 222.187 103.03 221.65 102.735 221.65C102.441 221.65 102.2 221.325 102.2 220.928C102.2 220.531 102.483 220.381 102.829 220.595C103.176 220.809 103.616 220.444 103.807 219.783C103.999 219.122 104.129 219.502 104.098 220.627C103.915 227.158 106.362 228.094 109.891 222.843C115.23 214.898 128.604 193.248 129.059 191.812C129.327 190.968 129.864 190.278 130.253 190.278C130.643 190.278 130.787 189.821 130.573 189.263C130.359 188.705 130.455 188.321 130.787 188.411C132.456 188.86 140.316 174.619 138.836 173.826C137.654 173.193 137.22 173.285 136.41 174.335C135.486 175.534 135.449 175.504 135.83 173.851C136.395 171.398 125.011 166.321 123.438 168.324C122.604 169.388 122.551 169.376 122.757 168.17C123.287 165.071 98.1909 162.523 87.2106 164.562ZM303.82 166.919C300.413 170.739 299.554 172.153 302.66 168.827C306.357 164.869 307.103 165.829 303.554 169.979C302.254 171.499 301.331 172.971 301.503 173.249C301.675 173.527 301.384 174.114 300.856 174.552C300.103 175.178 299.727 175.085 299.109 174.118C298.284 172.83 298.425 173.595 299.498 176.244C299.919 177.28 298.73 177.345 297.172 176.371C296.627 176.03 295.943 176.146 295.469 176.661C294.858 177.324 294.883 177.403 295.581 177.006C296.124 176.697 296.977 177.023 297.721 177.823C298.402 178.554 299.811 179.823 300.852 180.643C302.064 181.597 302.51 182.369 302.09 182.789C301.286 183.594 298.213 181.624 298.797 180.679C299.014 180.326 298.636 179.865 297.956 179.652C297.277 179.44 296.107 178.938 295.358 178.537C294.013 177.819 294.012 177.828 295.293 179.269C296.624 180.767 296.438 180.966 293.889 180.765C291.459 180.573 285.473 187.605 286.753 189.149C287.705 190.297 286.918 191.19 285.784 190.249C284.459 189.148 278.152 196.814 279.121 198.348C279.66 199.202 279.566 199.739 278.741 200.509C278.137 201.072 275.961 203.527 273.905 205.965C271.85 208.403 269.857 210.726 269.477 211.129C269.097 211.531 267.559 213.341 266.061 215.151C264.562 216.961 263.027 218.78 262.651 219.193C262.061 219.841 256.211 226.734 251.973 231.773C251.234 232.651 250.767 233.507 250.934 233.674C251.227 233.969 265.672 217.634 274.467 207.063C276.842 204.208 279.083 201.872 279.447 201.872C279.811 201.872 279.891 201.52 279.626 201.09C279.284 200.537 279.694 200.447 281.037 200.785C282.493 201.15 283.329 200.897 284.653 199.691L286.376 198.121L284.825 200.273C283.442 202.192 283.367 203.923 284.667 203.915C284.926 203.914 286.656 202.033 288.511 199.735L291.884 195.558L289.959 193.901C288.857 192.952 287.561 192.407 286.926 192.626C286.125 192.904 286.181 192.729 287.129 191.994C288.316 191.075 288.647 191.136 290.625 192.647L292.811 194.315L294.076 192.917C295.307 191.555 295.307 191.495 294.07 190.589C292.85 189.696 292.873 189.571 294.657 187.45C295.678 186.234 296.787 184.523 297.12 183.646C297.702 182.112 297.79 182.094 299.44 183.176C302.612 185.256 304.405 182.457 301.513 179.941C299.908 178.543 299.776 177.32 301.23 177.32C301.604 177.32 301.69 177.704 301.421 178.172C301.151 178.642 301.174 178.805 301.47 178.537C301.767 178.269 302.642 178.494 303.415 179.035C306.566 181.245 307.675 178.263 304.862 175.145L302.459 172.484L304.019 170.559C305.963 168.159 306.421 168.378 304.837 170.952L303.647 172.887L305.384 171.182C306.34 170.244 307.081 169.17 307.031 168.795C306.981 168.42 307.4 168.215 307.963 168.339C308.62 168.485 308.396 167.938 307.333 166.805C305.349 164.69 305.821 164.675 303.82 166.919ZM71.7102 168.659C68.4494 169.652 68.9304 171.489 78.3573 194.029C83.297 205.839 83.2561 205.777 85.3233 204.784C86.1736 204.376 87.3816 203.88 88.007 203.681C89.1306 203.325 86.2512 195.501 77.0485 173.91C74.4253 167.756 74.4839 167.814 71.7102 168.659ZM277.908 172.566C275.599 174.828 273.836 176.805 273.991 176.96C274.145 177.115 276.243 175.264 278.652 172.847C281.061 170.431 282.824 168.454 282.569 168.454C282.315 168.454 280.217 170.304 277.908 172.566ZM60.8055 173.941L57.2782 175.957L58.7002 178.514L60.1221 181.071L58.2873 178.855L56.4531 176.639L53.6058 178.617C46.5704 183.504 35.2548 196.824 31.9715 204.086C31.2397 205.705 31.301 206.157 32.4252 207.424C33.7225 208.887 33.7218 208.888 32.1343 208.054C30.2511 207.064 30.4773 206.859 28.9559 210.923C27.4624 214.914 26.0057 213.985 40.8799 218.526C47.8125 220.643 54.8643 222.884 56.5506 223.507C58.2369 224.13 60.0765 224.695 60.6386 224.763C61.2007 224.83 67.1378 226.459 73.8319 228.383C90.4714 233.164 90.7119 233.118 87.3564 225.829C85.0405 220.798 78.5692 205.607 70.1834 185.516C67.1337 178.209 64.5692 172.161 64.4854 172.077C64.4016 171.993 62.7452 172.832 60.8055 173.941ZM301.257 175.193C300.56 175.635 300.828 176.12 302.384 177.229C305.827 179.683 307.273 178.831 304.342 176.075C302.566 174.405 302.519 174.392 301.257 175.193ZM357.906 179.95C352.092 184.822 342.044 196.416 343.634 196.416C343.842 196.416 343.282 197.146 342.39 198.038C339.78 200.651 336.361 207.949 337.246 209.017C337.813 209.7 337.71 209.889 336.812 209.814C333.947 209.573 326.938 240.189 329.314 242.568C329.542 242.795 339.931 242.168 352.4 241.174C364.871 240.18 377.067 239.224 379.503 239.051L383.931 238.735L379.843 239.661C377.595 240.17 365.484 241.431 352.931 242.465C328.507 244.474 328.918 244.399 329.543 246.788C329.916 248.216 330.237 248.333 332.757 247.966C335.529 247.563 364.846 245.96 383.25 245.206C388.496 244.991 395.6 244.64 399.035 244.426L405.281 244.037L404.955 242.236C404.554 240.019 404.342 239.79 403.291 240.441C402.676 240.822 402.763 241.175 403.627 241.808C404.37 242.351 404.531 242.823 404.071 243.108C403.674 243.353 403.349 243.229 403.349 242.832C403.349 242.012 401.568 241.843 401.133 242.621C400.976 242.903 400.954 242.715 401.084 242.205C401.228 241.639 400.945 241.42 400.358 241.646C399.827 241.849 398.827 241.56 398.135 241.002C396.928 240.031 396.933 240.012 398.239 240.555C400.149 241.349 401.618 241.219 402.916 240.14C404.499 238.825 404.296 237.937 402.498 238.313C401.655 238.489 397.592 238.771 393.47 238.939C389.348 239.107 386.67 239.1 387.518 238.924C388.367 238.747 388.906 238.349 388.715 238.04C388.524 237.732 388.842 237.297 389.421 237.074C390.001 236.852 390.295 236.96 390.076 237.316C389.836 237.704 390.704 237.799 392.255 237.554C393.672 237.331 396.519 237.144 398.58 237.139C400.723 237.134 401.452 236.994 400.283 236.812C398.7 236.565 398.512 236.392 399.451 236.046C400.43 235.686 398.996 233.961 392.001 227.09C387.236 222.41 383.319 218.274 383.294 217.899C383.23 216.912 378.151 208.959 375.755 206.095C374.631 204.751 374.095 203.883 374.563 204.166C375.813 204.921 375.74 204.723 371.8 196.655C369.812 192.585 366.99 186.416 365.528 182.946C362.416 175.556 362.916 175.753 357.906 179.95ZM270.442 179.418C268.122 181.5 265.271 183.837 262.654 185.802C261.904 186.364 261.675 186.835 262.143 186.846C262.612 186.858 263.587 186.331 264.312 185.674C265.036 185.018 266.828 183.56 268.294 182.435C270.645 180.63 273.709 177.32 273.029 177.32C272.891 177.32 271.727 178.264 270.442 179.418ZM147.373 181.754C146.569 182.318 145.235 182.702 144.408 182.607C143.15 182.463 142.014 183.89 137.485 191.301C124.583 212.416 121.165 218.172 121.02 219.031C120.936 219.534 119.809 221.426 118.517 223.236C114.784 228.465 114.531 229.649 117.526 227.881C118.84 227.105 119.915 226.635 119.915 226.837C119.915 227.379 118.3 228.898 117.644 228.973C114.127 229.376 118.585 229.732 127.99 229.801L139.583 229.885L155.293 222.016C163.933 217.689 171.236 214.164 171.52 214.185C171.804 214.205 165.138 217.718 156.707 221.99L141.377 229.76L161.009 229.775L180.642 229.791L180.427 228.306C180.294 227.384 179.567 226.662 178.509 226.401C176.853 225.994 176.847 225.969 178.269 225.497C180.472 224.767 176.922 213.479 174.482 213.456C173.617 213.447 173.585 213.328 174.321 212.86C175.359 212.202 175.255 211.934 171.189 204.858C169.261 201.504 168.506 200.734 167.347 200.944C166.554 201.088 166.288 201.023 166.756 200.8C168.194 200.116 167.75 199.129 163.8 194.236L159.992 189.519L158.179 190.686L156.366 191.853L157.729 190.301L159.091 188.75L154.677 184.74C149.872 180.375 149.536 180.238 147.373 181.754ZM290.516 183.628C286.455 188.036 286.464 187.999 288.915 190.092C292.077 192.792 293.006 193.246 293.778 192.473C294.221 192.03 293.929 191.434 292.923 190.729L291.396 189.658L293.94 186.839C296.377 184.139 296.434 183.966 295.304 182.717C293.676 180.915 292.876 181.068 290.516 183.628ZM291.202 185.095C289.928 186.37 288.885 187.751 288.885 188.164C288.885 189.406 290.785 189.009 291.803 187.554C292.327 186.807 292.893 186.333 293.062 186.502C293.231 186.671 293.418 186.159 293.477 185.366C293.537 184.572 293.985 183.669 294.472 183.359C295.19 182.904 295.183 182.795 294.438 182.786C293.933 182.781 292.476 183.819 291.202 185.095ZM256.522 190.492C254.273 192.086 250.059 194.89 247.157 196.725C244.254 198.559 242.036 200.216 242.227 200.407C242.418 200.599 244.396 199.497 246.621 197.959C248.847 196.421 251.296 194.964 252.063 194.721C252.829 194.477 253.456 193.992 253.456 193.642C253.456 193.292 253.839 193.005 254.308 193.004C255.093 193.003 261.716 187.616 260.951 187.602C260.763 187.598 258.77 188.899 256.522 190.492ZM182.461 192.324C188.311 201.281 193.289 213.506 196.766 227.447C197.14 228.947 197.478 229.533 197.516 228.75C197.849 222.013 188.128 198.257 182.186 191.285C180.712 189.554 180.752 189.708 182.461 192.324ZM281.737 194.066C279.336 197 279.114 198.121 280.936 198.121C281.374 198.121 281.731 198.479 281.731 198.917C281.731 200.681 282.678 200.434 284.685 198.144C288.41 193.899 289.62 195.452 286.077 199.93C284.908 201.408 284.159 202.824 284.412 203.077C284.664 203.33 285.085 203.216 285.345 202.821C285.606 202.428 287.033 200.638 288.517 198.845C291.101 195.723 291.161 195.544 289.92 194.636C288.021 193.246 287.355 193.434 284.796 196.076C281.579 199.399 280.384 198.068 283.311 194.422C284.503 192.937 285.479 191.551 285.479 191.341C285.479 190.226 283.997 191.306 281.737 194.066ZM321.894 199.896C320.554 202.56 319.569 204.851 319.705 204.987C319.84 205.123 321.084 202.943 322.468 200.143C323.852 197.343 324.838 195.052 324.658 195.052C324.479 195.052 323.235 197.232 321.894 199.896ZM89.9563 207.839C89.9379 209.843 89.7397 210.056 87.8919 210.056C85.1986 210.056 85.2545 210.475 89.1224 219.296C93.5872 229.48 93.4802 229.327 96.3384 229.62C100.089 230.005 100.001 228.939 95.3566 217.79C90.1546 205.303 89.9836 204.987 89.9563 207.839ZM131.838 210.813C126.652 215.006 125.818 216.17 130.688 212.419C134.451 209.521 136.154 207.953 135.455 208.035C135.339 208.047 133.712 209.298 131.838 210.813ZM382.013 209.885C381.568 210.655 382.527 212.892 383.276 212.834C383.637 212.806 383.931 213.142 383.931 213.58C383.931 214.017 384.391 214.501 384.953 214.655C385.861 214.903 385.861 214.853 384.953 214.21C384.391 213.812 384.215 213.482 384.561 213.476C384.908 213.471 384.521 212.753 383.703 211.881C382.885 211.009 382.423 210.089 382.676 209.835C382.929 209.581 382.95 209.374 382.723 209.374C382.494 209.374 382.175 209.604 382.013 209.885ZM27.0263 216.649C25.5662 218.11 26.6843 220.215 29.4676 221.244C61.0692 232.934 70.0519 235.982 73.1921 236.081C75.9965 236.17 76.1995 236.246 74.2652 236.488C71.9133 236.78 71.9412 236.807 76.3092 238.413C81.4383 240.299 82.5475 240.463 80.6977 239.063C79.4086 238.086 79.4134 238.061 80.9082 238.04C81.751 238.028 82.4412 237.785 82.4412 237.5C82.4412 237.215 83.2023 236.16 84.133 235.155C85.6367 233.532 85.6932 233.29 84.644 232.982C83.9947 232.791 79.0175 231.386 73.5839 229.859C68.1503 228.333 63.1282 226.755 62.4243 226.352C61.7198 225.949 60.3401 225.515 59.3583 225.385C58.3759 225.256 51.0093 223.135 42.9879 220.672C27.3888 215.882 27.7104 215.963 27.0263 216.649ZM387.298 217.861C388.025 218.445 388.355 218.922 388.031 218.922C387.707 218.922 388.161 219.689 389.041 220.627C389.922 221.565 390.941 222.332 391.308 222.332C391.675 222.332 391.239 221.685 390.338 220.894C389.437 220.103 388.774 219.191 388.864 218.868C388.954 218.545 388.341 217.947 387.501 217.541C386.035 216.83 386.026 216.842 387.298 217.861ZM217.144 221.29C218.151 223.343 219.087 224.907 219.227 224.767C219.533 224.461 216.096 217.558 215.638 217.558C215.461 217.558 216.139 219.237 217.144 221.29ZM24.7779 225.912C23.9127 232.445 23.7989 232.175 27.5939 232.625L31.0006 233.03L27.4236 233.137L23.8466 233.244V239.382V245.52L26.0609 245.6L28.2752 245.682L26.234 246.118C23.9229 246.613 23.822 247.824 25.4858 255.068C26.467 259.341 25.9648 259.187 36.1106 258.312C41.5694 257.84 38.436 258.569 31.1709 259.459C26.4963 260.033 26.3709 260.533 29.195 267.344C30.8275 271.281 31.222 271.752 32.7202 271.552C34.3193 271.338 34.3398 271.377 33.1175 272.296C31.8693 273.234 31.8979 273.396 33.9964 277.295C37.664 284.11 37.6817 284.124 40.3287 282.361L42.5832 280.859L40.7096 282.593C38.3147 284.811 38.2411 284.502 42.3216 289.409C46.7244 294.704 46.5438 294.665 50.2843 291.122L53.4273 288.145L50.5603 291.369C47.0228 295.348 47.0119 295.125 50.9037 298.401C57.6673 304.093 57.1011 303.808 58.7983 302.372C60.2897 301.11 60.2911 301.111 59.1117 302.514C57.9684 303.874 57.9929 303.974 59.793 305.284C63.0573 307.66 69.4959 311.115 69.4959 310.491C69.4959 310.159 69.9578 309.293 70.522 308.565C71.4786 307.33 71.5017 307.37 70.8626 309.161C70.4859 310.217 70.1772 311.192 70.1772 311.328C70.1772 311.583 80.7522 315.766 81.3974 315.766C81.5964 315.766 81.7797 315.229 81.8028 314.572C81.8383 313.599 81.9527 313.643 82.4235 314.808C83.1008 316.485 86.2901 317.491 94.8429 318.724L100.773 319.579L100.975 316.826C101.29 312.555 103.563 312.479 103.563 316.739C103.563 320.204 107.289 321.534 108.959 318.664C109.529 317.684 109.657 317.66 109.674 318.526C109.71 320.384 127.188 317.701 133.347 314.893L134.909 314.18L132.856 310.54C130.264 305.942 130.693 305.782 133.477 310.31C135.884 314.227 135.439 314.041 138.978 312.623C141.427 311.642 141.717 311.279 141.717 309.198C141.717 307.379 142.089 306.702 143.415 306.097C144.836 305.449 144.977 305.144 144.278 304.235C143.769 303.572 144.036 303.655 144.968 304.451C146.263 305.557 146.76 305.63 148.281 304.936C149.264 304.488 150.221 304.273 150.406 304.458C150.887 304.939 155.6 302.438 156.69 301.124C157.381 300.289 157.411 299.83 156.814 299.233C155.518 297.936 155.922 297.047 157.258 298.257C158.415 299.306 158.671 299.19 161.453 296.353C164.876 292.861 163.825 292.789 157.637 296.095C152.335 298.927 151.256 298.568 151.256 293.97C151.256 292.921 150.789 291.674 150.217 291.2C149.645 290.725 147.622 288.462 145.72 286.171L142.262 282.007L146.36 286.41L150.458 290.813L155.456 290.672C158.205 290.595 161.374 290.329 162.498 290.081C163.622 289.834 165.155 289.587 165.905 289.532C167.149 289.442 173.508 281.207 172.846 280.544C172.706 280.404 168.481 279.356 163.457 278.216C158.432 277.075 153.747 275.971 153.044 275.762C152.098 275.48 151.911 275.622 152.324 276.308C152.749 277.014 152.593 277 151.665 276.245C150.478 275.28 133.541 270.7 133.541 271.344C133.541 271.523 134.073 272.308 134.723 273.087C135.373 273.867 134.967 273.655 133.819 272.616C130.418 269.533 115.765 266.171 117.603 268.894C117.937 269.39 117.641 269.167 116.943 268.399C116.246 267.631 115.151 266.971 114.512 266.931C113.871 266.892 112.219 266.648 110.84 266.389C107.947 265.846 107.571 266.786 109.425 269.925C110.322 271.443 110.33 271.549 109.471 270.515C108.486 269.329 108.406 269.412 108.151 271.879C107.924 274.076 107.861 273.908 107.765 270.852C107.635 266.708 104.894 262.211 103.747 264.262C103.288 265.083 102.706 265.153 100.817 264.611C97.4428 263.641 97.4306 263.65 97.4306 266.776C97.4306 268.338 97.2582 269.445 97.0483 269.234C96.8378 269.024 96.6484 267.609 96.628 266.09C96.5939 263.644 96.3547 263.248 94.524 262.609C91.984 261.722 91.9799 261.722 91.9799 262.61C91.9799 263.007 92.2436 263.169 92.5658 262.97C92.8881 262.77 92.6585 263.637 92.0548 264.896C91.4519 266.154 90.7773 267.079 90.5573 266.951C90.3372 266.823 87.7672 269.464 84.847 272.818C81.9268 276.174 79.0461 279.307 78.4452 279.781C77.845 280.255 80.2296 277.334 83.746 273.289C87.2617 269.245 90.3992 265.774 90.7181 265.576C91.7891 264.914 91.334 261.991 90.0994 261.599C89.4392 261.389 87.8892 259.673 86.6546 257.785C85.42 255.897 84.1125 254.536 83.7494 254.761C83.3862 254.985 83.173 254.763 83.2759 254.266C83.3883 253.726 82.7063 253.276 81.578 253.146C80.541 253.027 79.861 252.656 80.0668 252.324C80.2725 251.99 80.8966 251.893 81.454 252.107C82.3029 252.433 82.3479 252.183 81.7306 250.557C81.3252 249.491 81.0745 247.095 81.1733 245.234L81.3531 241.85L73.5505 238.939C68.711 237.133 64.4554 235.986 62.3419 235.919C59.6452 235.834 59.3406 235.721 60.8804 235.38C62.5347 235.014 28.1417 221.541 25.787 221.633C25.5431 221.642 25.0886 223.568 24.7779 225.912ZM412.718 224.086C412.436 224.372 412.216 226.012 412.227 227.731C412.243 230.206 412.394 230.606 412.949 229.652C413.731 228.308 413.522 223.269 412.718 224.086ZM33.2149 233.737C34.4331 233.888 36.4253 233.888 37.6436 233.737C38.8618 233.586 37.865 233.462 35.4292 233.462C32.9935 233.462 31.9967 233.586 33.2149 233.737ZM42.7658 234.42C43.9902 234.572 45.8298 234.569 46.8538 234.414C47.8779 234.257 46.8756 234.133 44.6272 234.137C42.3788 234.141 41.5415 234.268 42.7658 234.42ZM411.696 242.299C410.853 242.685 410.163 243.243 410.163 243.539C410.163 244.218 412.919 243.715 413.749 242.885C414.725 241.907 413.387 241.525 411.696 242.299ZM396.131 248.327C394.469 250.175 389.312 253.748 388.901 253.336C388.729 253.163 388.587 253.465 388.587 254.005C388.587 254.771 388.956 254.698 390.257 253.673C391.175 252.95 392.121 252.433 392.358 252.523C392.594 252.614 394.104 251.382 395.71 249.787C397.317 248.19 398.361 246.884 398.03 246.884C397.699 246.884 396.845 247.533 396.131 248.327ZM60.2979 255.068C58.0038 255.479 57.8962 255.564 59.6166 255.603C60.7408 255.628 63.0403 255.403 64.7266 255.103C67.4778 254.613 67.5473 254.558 65.4079 254.568C64.0963 254.574 61.7968 254.799 60.2979 255.068ZM440.746 257.836C442.764 258.554 445.523 259.976 446.878 260.997C448.231 262.018 448.918 262.329 448.404 261.688C447.256 260.259 447.47 260.252 451.424 261.596C453.159 262.185 454.706 262.54 454.862 262.384C455.33 261.916 448.229 259.816 447.566 260.226C447.23 260.434 446.955 260.336 446.955 260.008C446.955 259.41 439.035 256.369 437.757 256.475C437.382 256.506 438.727 257.119 440.746 257.836ZM457.59 263.563C458.756 264.102 460.596 264.717 461.678 264.93C463.363 265.263 463.303 265.183 461.263 264.383C457.583 262.938 454.982 262.358 457.59 263.563ZM59.9572 267.424C57.5215 269.301 55.0687 271.323 54.5066 271.918C53.9445 272.514 56.0144 271.1 59.1056 268.778C62.1968 266.455 64.7266 264.415 64.7266 264.244C64.7266 263.759 64.6448 263.814 59.9572 267.424ZM421.283 269.39C422.575 271.828 423.538 274.214 423.421 274.693C423.306 275.171 423.372 275.231 423.569 274.827C423.789 274.375 424.299 274.565 424.894 275.321C425.426 275.998 425.089 275.047 424.144 273.21C423.199 271.373 422.427 269.436 422.427 268.907C422.427 268.379 422.12 268.135 421.745 268.367C421.371 268.599 421.064 268.522 421.064 268.196C421.064 267.871 420.584 267.009 419.998 266.281C419.412 265.553 419.989 266.952 421.283 269.39ZM87.372 280.165C86.5238 281.929 86.2628 282.818 86.7922 282.141C87.3836 281.386 87.8926 281.195 88.1127 281.647C88.3096 282.051 88.3825 281.991 88.2748 281.513C88.1672 281.034 88.5044 279.799 89.025 278.767C89.5455 277.736 89.7329 276.907 89.4426 276.925C89.1517 276.944 88.2196 278.402 87.372 280.165ZM115.827 278.637C115.827 279.237 115.5 279.499 115.078 279.237C114.666 278.982 115.104 280.164 116.052 281.864C117 283.563 117.687 285.518 117.58 286.208C117.473 286.898 117.518 287.076 117.679 286.602C117.841 286.129 118.288 285.935 118.671 286.173C119.055 286.41 118.593 285.214 117.645 283.514C116.621 281.678 116.073 279.846 116.295 278.999C116.499 278.216 116.478 277.574 116.247 277.574C116.015 277.574 115.827 278.053 115.827 278.637ZM96.3057 284.394C96.3057 287.582 96.4236 288.886 96.5666 287.292C96.7104 285.699 96.7104 283.089 96.5666 281.495C96.4236 279.902 96.3057 281.206 96.3057 284.394ZM361.397 289.338C357.534 293.576 356.102 295.306 356.457 295.306C356.653 295.306 358.414 293.465 360.37 291.214C364.108 286.912 364.859 285.542 361.397 289.338ZM66.7317 293.089C60.6726 299.658 59.716 300.762 60.0806 300.762C60.2959 300.762 62.5293 298.46 65.0447 295.647C67.5602 292.834 69.5 290.532 69.3549 290.532C69.2097 290.532 68.0297 291.683 66.7317 293.089ZM418.599 305.877C418.6 310.378 418.711 312.131 418.843 309.772C418.977 307.413 418.976 303.73 418.841 301.588C418.706 299.446 418.597 301.376 418.599 305.877Z"
		fill="black" />
</svg>
	