<svg xmlns="http://www.w3.org/2000/svg" width="512" height="512" viewBox="0 0 512 512"><path fill-rule="evenodd" d="M 410.500 10.040 C 401.700 10.447, 380.100 11.284, 362.500 11.899 C 344.900 12.515, 325.100 13.257, 318.500 13.549 C 307.057 14.056, 285.501 14.853, 225.500 16.988 C 210.650 17.516, 187.250 18.421, 173.500 18.998 C 117.219 21.361, 98.890 22.036, 65.500 22.976 C 17.467 24.328, 13.246 24.671, 11.819 27.338 C 10.994 28.880, 10.862 40.786, 11.337 70.980 C 12.085 118.569, 14.348 278.902, 16.080 407 C 16.731 455.125, 17.647 495.524, 18.117 496.776 C 18.586 498.027, 19.678 499.323, 20.543 499.655 C 21.408 499.987, 32.552 499.264, 45.308 498.048 C 100.361 492.802, 110.034 491.885, 119.500 491.011 C 125 490.504, 138.275 489.189, 149 488.089 C 159.725 486.989, 179.525 485.149, 193 484 C 206.475 482.850, 220.650 481.493, 224.500 480.983 C 228.350 480.473, 239.600 479.358, 249.500 478.505 C 259.400 477.651, 270.875 476.522, 275 475.995 C 279.125 475.468, 292.625 474.135, 305 473.034 C 327.512 471.030, 335.169 470.251, 359.500 467.487 C 371.785 466.092, 403.315 463.040, 425.599 461.089 C 439.789 459.847, 440 459.659, 440 448.272 L 440 439.025 443.750 436.718 C 445.813 435.449, 454.025 431.549, 462 428.052 C 476.223 421.815, 480.399 419.931, 496.500 412.485 C 500.900 410.450, 506.188 408.110, 508.250 407.284 C 511.684 405.909, 512 405.455, 512 401.891 C 512 399.751, 511.615 398, 511.145 398 C 510.674 398, 505.837 399.974, 500.395 402.387 C 487.108 408.277, 470.730 415.623, 464 418.710 C 449.226 425.486, 442.886 428.048, 442.097 427.560 C 441.205 427.009, 441.503 243.971, 442.617 108.166 L 443.244 31.832 449.372 32.462 C 452.742 32.808, 457.525 33.287, 460 33.525 C 478.036 35.260, 486.353 36.152, 492 36.957 C 495.575 37.466, 501.538 38.147, 505.250 38.469 L 512 39.056 512 35.157 L 512 31.258 503.750 30.601 C 495.468 29.942, 456.855 25.553, 447.500 24.208 L 442.500 23.489 441.999 17.208 C 441.676 13.154, 440.967 10.590, 439.999 9.978 C 438.348 8.934, 434.198 8.943, 410.500 10.040 M 418.917 17.399 C 418.688 17.619, 403.425 18.315, 385 18.947 C 366.575 19.579, 340.475 20.503, 327 21.001 C 313.525 21.500, 282.250 22.593, 257.500 23.431 C 196.743 25.489, 161.149 26.862, 139 28.002 C 122.344 28.859, 98.987 29.696, 38.702 31.598 L 18.904 32.222 19.453 52.861 C 19.754 64.212, 20.686 136.950, 21.523 214.500 C 22.360 292.050, 23.458 369.450, 23.962 386.500 C 24.466 403.550, 24.945 432.800, 25.026 451.500 C 25.222 496.508, 24.600 491.513, 30 491.436 C 34.422 491.373, 44.127 490.564, 53 489.517 C 57.127 489.030, 81.825 486.651, 95 485.471 C 98.025 485.200, 104.550 484.555, 109.500 484.037 C 114.450 483.520, 123.900 482.620, 130.500 482.037 C 164.709 479.016, 187.864 476.850, 200 475.535 C 207.425 474.730, 223.625 473.151, 236 472.027 C 248.375 470.902, 264.800 469.321, 272.500 468.513 C 280.200 467.705, 293.925 466.346, 303 465.492 C 328.644 463.078, 357.139 460.200, 372.500 458.472 C 380.200 457.605, 396.625 455.907, 409 454.698 L 431.500 452.500 431.789 443.750 C 432.124 433.596, 433.478 434.342, 418.500 436.433 C 413 437.201, 404.450 438.116, 399.500 438.466 C 394.550 438.816, 386.450 439.510, 381.500 440.008 C 369.841 441.182, 363.331 441.768, 353.500 442.531 C 349.100 442.872, 334.700 444.221, 321.500 445.528 C 308.300 446.835, 293.900 448.186, 289.500 448.530 C 285.100 448.874, 280.526 449.309, 279.336 449.496 C 278.146 449.683, 272.971 450.129, 267.836 450.486 C 262.701 450.844, 255.125 451.553, 251 452.063 C 246.875 452.573, 234.725 453.651, 224 454.458 C 196.635 456.517, 180.005 457.921, 176.500 458.469 C 174.850 458.726, 170.575 459.184, 167 459.485 C 163.425 459.786, 150.825 460.938, 139 462.045 C 78.121 467.743, 64.031 468.963, 58.910 468.981 L 53.320 469 52.637 423.750 C 52.262 398.863, 51.518 358.025, 50.982 333 C 50.447 307.975, 49.563 252.625, 49.018 210 C 48.473 167.375, 47.517 113.954, 46.893 91.286 C 46.269 68.618, 45.996 49.452, 46.287 48.695 C 46.853 47.221, 52.634 46.753, 92 45.001 C 103.275 44.499, 124.875 43.404, 140 42.568 C 167.814 41.030, 219.093 38.800, 268.500 36.980 C 299.282 35.846, 338.541 34.278, 354 33.565 C 359.775 33.299, 379.125 32.577, 397 31.960 C 414.875 31.344, 430.512 30.642, 431.750 30.401 C 433.807 30, 434 29.405, 434 23.481 L 434 17 426.667 17 C 422.633 17, 419.146 17.180, 418.917 17.399 M 421.500 38.646 C 419.300 38.810, 397.925 39.646, 374 40.506 C 350.075 41.366, 319.475 42.701, 306 43.473 C 292.525 44.245, 275.201 45.166, 267.502 45.520 C 259.803 45.874, 253.443 46.239, 253.369 46.332 C 253.295 46.424, 252.954 93.028, 252.612 149.895 L 251.991 253.290 258.245 252.686 C 261.685 252.354, 273.500 251.180, 284.500 250.076 C 295.500 248.972, 316.875 247.147, 332 246.021 C 347.125 244.894, 366.925 243.302, 376 242.483 C 385.075 241.664, 401.638 240.371, 412.806 239.608 C 423.974 238.846, 433.324 238.009, 433.584 237.750 C 433.843 237.490, 434.342 192.440, 434.692 137.639 L 435.328 38 430.414 38.175 C 427.711 38.271, 423.700 38.483, 421.500 38.646 M 221.917 46.387 C 221.688 46.600, 212.950 47.074, 202.500 47.440 C 182.103 48.155, 143.637 49.928, 115 51.474 C 110.875 51.696, 95.617 52.447, 81.094 53.143 L 54.687 54.407 55.377 97.453 C 56.115 143.597, 57.869 255.970, 57.951 262.379 L 58 266.257 69.250 265.609 C 75.438 265.252, 87.025 264.516, 95 263.972 C 102.975 263.429, 134.700 261.621, 165.500 259.956 C 196.300 258.290, 222.089 256.723, 222.810 256.472 C 223.862 256.106, 224.135 247.203, 224.198 211.258 C 224.242 186.641, 224.459 139.387, 224.683 106.250 C 225.024 55.547, 224.870 46, 223.711 46 C 222.953 46, 222.146 46.174, 221.917 46.387 M 356 263.016 C 316.497 265.462, 305.520 266.294, 289.775 268.036 C 280.025 269.115, 267.161 271.144, 261.187 272.544 L 250.324 275.092 249.662 317.210 C 249.298 340.375, 249 378.379, 249 401.664 L 249 444 252.039 444 C 253.711 444, 259.224 443.573, 264.289 443.051 C 269.355 442.530, 282.500 441.388, 293.500 440.514 C 304.500 439.640, 319.350 438.267, 326.500 437.462 C 333.650 436.657, 344.900 435.534, 351.500 434.967 C 358.100 434.400, 365.525 433.742, 368 433.506 C 370.475 433.270, 378.125 432.600, 385 432.018 C 408.033 430.067, 429.485 427.937, 431.130 427.437 C 432.606 426.988, 432.819 420.919, 433.382 363.221 C 433.724 328.174, 434.267 291.352, 434.589 281.392 L 435.175 263.285 431.962 262.642 C 427.982 261.846, 370.312 262.130, 356 263.016 M 182 277.543 C 98.580 280.882, 58.883 282.792, 58.170 283.499 C 57.271 284.392, 60.283 460.745, 61.209 461.484 C 61.369 461.611, 67.125 461.117, 74 460.386 C 80.875 459.654, 93.925 458.380, 103 457.555 C 112.075 456.729, 124.450 455.594, 130.500 455.031 C 136.550 454.469, 144.425 453.781, 148 453.502 C 151.575 453.222, 159 452.545, 164.500 451.997 C 170 451.448, 184.400 450.080, 196.500 448.956 C 208.600 447.832, 219.011 446.741, 219.636 446.531 C 220.459 446.255, 220.942 428.978, 221.388 383.825 C 221.726 349.546, 222.277 311.262, 222.610 298.750 L 223.217 276 218.359 276.141 C 215.686 276.218, 199.325 276.849, 182 277.543"/></svg>