<svg xmlns="http://www.w3.org/2000/svg" width="512" height="512" viewBox="0 0 512 512"><path fill-rule="evenodd" d="M 111.640 6.750 C 110.661 10.463, 105.373 29.025, 99.887 48 C 94.401 66.975, 88.163 88.575, 86.025 96 C 81.688 111.058, 72.598 142.447, 67.491 160 C 51.240 215.857, 46.221 233.251, 34.890 273 C 27.755 298.025, 20.596 323, 18.980 328.500 C 1.315 388.624, -0 393.665, -0 401.258 C 0 409.702, -0.583 409.131, 9.500 410.570 C 13.667 411.165, 15.646 412.270, 21.373 417.199 C 42.932 435.752, 86.882 458.420, 114.949 465.462 C 170.391 479.373, 215.230 485.396, 298 490.052 C 308.725 490.655, 319.300 491.314, 321.500 491.517 C 323.700 491.719, 328.108 491.911, 331.295 491.943 L 337.091 492 336.509 495.250 C 336.189 497.037, 335.572 501.558, 335.137 505.295 L 334.347 512.089 339.873 511.795 L 345.399 511.500 346.653 502.789 C 349.988 479.612, 355.855 461.477, 369.207 433.070 C 378.961 412.319, 389.372 387.204, 404.264 348.500 C 406.803 341.900, 411.422 329.975, 414.527 322 C 417.632 314.025, 422.785 300.525, 425.976 292 C 436.797 263.099, 449.580 232.106, 453.317 225.710 C 455.439 222.078, 457.581 217.363, 462.269 206 C 466.149 196.597, 494.751 111.085, 507.424 71 L 512.008 56.500 512.004 41.171 L 512 25.842 507.118 20.171 C 501.069 13.143, 498.762 8.690, 498.633 3.791 L 498.534 0 305.976 0 L 113.418 0 111.640 6.750 M 487.134 35.130 C 482.486 54.584, 473.814 84.165, 466.356 106 C 455.448 137.940, 428.961 214.542, 423.479 230 C 421.627 235.225, 418.766 243.550, 417.122 248.500 C 415.478 253.450, 412.708 261.325, 410.966 266 C 406.965 276.738, 393.436 315.715, 381.984 349.500 C 377.137 363.800, 370.165 384.275, 366.493 395 C 360.965 411.141, 355.340 432.673, 356.380 433.713 C 356.838 434.172, 365.721 415.835, 371.016 403.500 C 373.849 396.900, 382.632 374.625, 390.533 354 C 398.435 333.375, 407.875 308.850, 411.511 299.500 C 415.146 290.150, 419.729 278.225, 421.696 273 C 428.263 255.547, 437.926 232.613, 443.395 221.500 C 450.057 207.963, 453.873 198.332, 463.004 172 C 476.706 132.485, 484.112 109.809, 495.501 72.500 C 497.515 65.900, 500.906 55.153, 503.036 48.618 L 506.908 36.736 502.079 31.118 C 499.423 28.028, 496.063 23.587, 494.612 21.250 C 493.162 18.913, 491.860 17, 491.720 17 C 491.580 17, 489.517 25.158, 487.134 35.130 M 156.973 83.250 C 155.362 89.455, 152.852 96.049, 143.574 118.446 C 139.006 129.476, 133.344 143.675, 130.992 150 C 128.641 156.325, 125.847 163.235, 124.784 165.356 L 122.851 169.212 125.175 171.701 C 128.209 174.949, 134.824 178.803, 140.760 180.781 C 144.778 182.120, 152.509 182.382, 191.500 182.499 C 225.371 182.601, 242.378 183.077, 256 184.303 C 276.966 186.190, 296.723 187.604, 315 188.523 C 329.188 189.237, 330.720 189.527, 333.500 192.031 C 335.758 194.065, 346.267 197.085, 347.751 196.127 C 349.593 194.936, 352.078 188.927, 357.419 172.744 C 363.579 154.076, 370.776 136.966, 377.253 125.591 L 381.755 117.681 379.265 110.273 C 376.406 101.771, 376.721 101.976, 363 99.652 C 337.851 95.391, 321.714 94.572, 261.500 94.499 C 211.420 94.438, 201.205 94.169, 186.689 92.530 L 169.878 90.631 164.840 84.816 C 162.069 81.617, 159.414 79, 158.940 79 C 158.465 79, 157.580 80.912, 156.973 83.250 M 511.231 101.217 C 511.104 102.162, 508.554 113.412, 505.565 126.217 C 502.576 139.023, 498.042 158.725, 495.491 170 C 488.416 201.259, 485.341 214.116, 481.020 230.500 C 478.844 238.750, 475.695 252.475, 474.021 261 C 469.079 286.162, 464.520 301.525, 451.466 337 C 441.603 363.802, 428.815 396.258, 411.474 438.500 C 396.149 475.833, 382 510.890, 382 511.532 C 382 511.790, 384.590 512, 387.756 512 L 393.511 512 396.171 504.750 C 397.634 500.762, 402.280 489.175, 406.495 479 C 413.421 462.279, 419.594 447.119, 439.683 397.500 C 443.245 388.700, 447.449 378.125, 449.024 374 C 450.599 369.875, 453.976 361.100, 456.529 354.500 C 471.045 316.978, 478.576 292.815, 484.425 265 C 486.333 255.925, 490.586 237.475, 493.875 224 C 499.583 200.622, 502.096 190.023, 508.979 160.294 C 511.996 147.260, 512.033 146.777, 511.749 123.294 C 511.591 110.207, 511.358 100.273, 511.231 101.217 M 0 448.788 C 0 457.791, 0.013 457.836, 3.896 462.660 C 16.409 478.204, 31.821 488.852, 68.651 507.393 L 77.802 512 91.151 511.971 L 104.500 511.941 95.500 508.121 C 77.068 500.298, 46.174 483.922, 32.797 474.884 C 23.517 468.614, 14.510 459.566, 8.376 450.353 C 0.209 438.084, 0 438.045, 0 448.788"/></svg>